<svg width="42" height="37" viewBox="0 0 42 37" fill="none" xmlns="http://www.w3.org/2000/svg">
<g clip-path="url(#clip0_498_23669)">
<path fill-rule="evenodd" clip-rule="evenodd" d="M4.83657 31.0111L1.39551 36.741H3.04466L3.55681 35.9042H7.07624L6.44124 34.7966H4.19161L5.53554 32.3108L5.76684 32.3305L8.2035 36.741H9.79355L6.58908 31.0111H4.83657ZM10.0003 32.7143V35.0573C10.0003 35.9878 10.7535 36.7459 11.6888 36.7408H16.3999V35.6381H11.8756C11.8106 35.6389 11.746 35.6267 11.6856 35.6023C11.6253 35.5779 11.5704 35.5417 11.5242 35.4959C11.4779 35.4501 11.4412 35.3956 11.4162 35.3355C11.3912 35.2754 11.3784 35.211 11.3785 35.1459V32.6258C11.3779 32.5603 11.3903 32.4954 11.4151 32.4348C11.4399 32.3742 11.4764 32.3191 11.5227 32.2728C11.569 32.2265 11.6241 32.1899 11.6847 32.1651C11.7452 32.1403 11.8102 32.1278 11.8756 32.1284L16.3997 32.1236V31.0209H11.6888C10.7535 31.0209 10.0003 31.784 10.0003 32.7143ZM22.7201 35.2052C22.7181 35.3364 22.6651 35.4616 22.5723 35.5545C22.4796 35.6473 22.3544 35.7004 22.2232 35.7025H19.2498C19.1188 35.7011 18.9937 35.648 18.9015 35.5549C18.8094 35.4618 18.7577 35.3362 18.7575 35.2052V31.0209H17.3742V35.0576C17.3693 35.988 18.1323 36.7461 19.0626 36.741H22.41C23.3405 36.7459 24.0983 35.9878 24.1032 35.0576V31.0209H22.7199L22.7201 35.2052ZM25.462 28.0822C32.275 26.9944 36.1245 22.8397 36.1245 14.3235C36.1245 5.80261 32.275 1.64797 25.462 0.560112C24.2068 0.358257 22.8482 0.259766 21.3963 0.259766C19.9441 0.259766 18.5853 0.358257 17.3302 0.560112C10.5222 1.64797 6.66787 5.80261 6.66787 14.3235C6.66787 22.8397 10.5222 26.9944 17.3302 28.0822C18.5853 28.2841 19.9441 28.3777 21.3963 28.3777C22.8482 28.3777 24.2068 28.2841 25.462 28.0822ZM25.462 1.62827C30.2764 2.66698 34.2194 5.95511 34.2194 14.3237C34.2194 20.6837 31.9404 24.1047 28.7306 25.8377L26.919 13.6641L25.462 9.55885L22.5136 1.25442C23.5127 1.30356 24.5071 1.42154 25.462 1.62827ZM20.8398 1.22964C21.0269 1.22477 21.209 1.21969 21.3963 1.21969C21.5782 1.21969 21.7652 1.22456 21.9523 1.22964L22.1149 11.3749H20.6774L20.8398 1.22964ZM8.57268 14.3237C8.57268 5.95533 12.5157 2.66698 17.33 1.62827C18.2848 1.42154 19.2792 1.30335 20.2786 1.25421L17.33 9.55863L15.8729 13.6639L14.0613 25.8375C10.852 24.1047 8.57268 20.6837 8.57268 14.3237ZM17.33 27.0141C16.2963 26.7877 15.3019 26.4625 14.3763 26.0048L17.33 19.8761L20.5295 13.2354H22.2624L25.4617 19.8761L28.4154 26.0048C27.49 26.4625 26.4956 26.7874 25.4617 27.0141C24.1523 27.2945 22.7741 27.4127 21.3961 27.4176C20.0176 27.4127 18.6394 27.2945 17.33 27.0141ZM36.9956 32.3305L39.4323 36.741H41.0226L37.8225 31.0111H36.0654L32.6245 36.741H34.2737L34.7854 35.9042H38.3099L37.6749 34.7966H35.4204L36.7643 32.3108L36.9956 32.3305ZM30.7737 31.0209L25.462 31.0162H25.1915V36.741H26.5697V32.1236H30.3992C30.621 32.1236 30.803 32.3057 30.808 32.5273V33.3345C30.8032 33.556 30.621 33.7382 30.3992 33.7382H27.0715L27.3718 34.8409L30.3992 34.8457C30.621 34.8457 30.803 35.0228 30.808 35.2492V36.7408H32.0975V35.3331C32.0931 34.9146 31.7976 34.3832 31.3888 34.2944C31.7976 34.201 32.1814 33.8464 32.1865 33.4281V32.4337C32.1816 31.6559 31.5515 31.0209 30.7737 31.0209Z" fill="#F2F2F2"/>
</g>
<defs>
<clipPath id="clip0_498_23669">
<rect width="40.1897" height="37" fill="white" transform="translate(0.90918)"/>
</clipPath>
</defs>
</svg>
