<svg width="42" height="37" viewBox="0 0 42 37" fill="none" xmlns="http://www.w3.org/2000/svg">
<g clip-path="url(#clip0_492_19814)">
<path fill-rule="evenodd" clip-rule="evenodd" d="M4.83754 31.0107L1.39648 36.7405H3.04563L3.55779 35.9037H7.07722L6.44221 34.7961H4.19258L5.53652 32.3103L5.76781 32.33L8.20447 36.7405H9.79453L6.59006 31.0107H4.83754ZM10.0013 32.7138V35.0569C10.0013 35.9873 10.7544 36.7454 11.6898 36.7403H16.4009V35.6376H11.8766C11.8115 35.6384 11.7469 35.6262 11.6866 35.6018C11.6263 35.5774 11.5714 35.5412 11.5251 35.4954C11.4789 35.4497 11.4422 35.3951 11.4172 35.335C11.3922 35.2749 11.3794 35.2105 11.3795 35.1454V32.6253C11.3789 32.5598 11.3913 32.4949 11.4161 32.4343C11.4408 32.3737 11.4774 32.3186 11.5237 32.2723C11.57 32.226 11.625 32.1894 11.6856 32.1646C11.7462 32.1398 11.8111 32.1274 11.8766 32.1279L16.4007 32.1231V31.0204H11.6898C10.7544 31.0204 10.0013 31.7835 10.0013 32.7138ZM22.7211 35.2047C22.719 35.3359 22.6661 35.4612 22.5733 35.554C22.4806 35.6468 22.3554 35.6999 22.2242 35.702H19.2508C19.1198 35.7006 18.9947 35.6476 18.9025 35.5545C18.8104 35.4614 18.7586 35.3357 18.7585 35.2047V31.0204H17.3752V35.0571C17.3703 35.9875 18.1333 36.7456 19.0635 36.7405H22.411C23.3414 36.7454 24.0993 35.9873 24.1042 35.0571V31.0204H22.7208L22.7211 35.2047ZM25.4629 28.0817C32.276 26.9939 36.1254 22.8392 36.1254 14.323C36.1254 5.80212 32.276 1.64748 25.4629 0.559624C24.2078 0.357769 22.8492 0.259277 21.3972 0.259277C19.9451 0.259277 18.5863 0.357769 17.3311 0.559624C10.5232 1.64748 6.66885 5.80212 6.66885 14.323C6.66885 22.8392 10.5232 26.9939 17.3311 28.0817C18.5863 28.2836 19.9451 28.3772 21.3972 28.3772C22.8492 28.3772 24.2078 28.2836 25.4629 28.0817ZM25.4629 1.62778C30.2774 2.66649 34.2204 5.95463 34.2204 14.3232C34.2204 20.6832 31.9413 24.1042 28.7316 25.8372L26.92 13.6637L25.4629 9.55836L22.5145 1.25394C23.5137 1.30308 24.5081 1.42105 25.4629 1.62778ZM20.8408 1.22915C21.0279 1.22428 21.21 1.2192 21.3972 1.2192C21.5792 1.2192 21.7662 1.22407 21.9532 1.22915L22.1159 11.3744H20.6784L20.8408 1.22915ZM8.57366 14.3232C8.57366 5.95484 12.5167 2.66649 17.3309 1.62778C18.2858 1.42105 19.2802 1.30286 20.2795 1.25372L17.3309 9.55815L15.8739 13.6634L14.0623 25.837C10.8529 24.1042 8.57366 20.6832 8.57366 14.3232ZM17.3309 27.0136C16.2973 26.7872 15.3028 26.462 14.3772 26.0043L17.3309 19.8756L20.5305 13.2349H22.2633L25.4627 19.8756L28.4164 26.0043C27.491 26.462 26.4966 26.787 25.4627 27.0136C24.1533 27.294 22.7751 27.4122 21.397 27.4171C20.0186 27.4122 18.6403 27.294 17.3309 27.0136ZM36.9966 32.33L39.4333 36.7405H41.0235L37.8235 31.0107H36.0663L32.6255 36.7405H34.2746L34.7864 35.9037H38.3109L37.6759 34.7961H35.4214L36.7653 32.3103L36.9966 32.33ZM30.7747 31.0204L25.4629 31.0157H25.1925V36.7405H26.5707V32.1231H30.4002C30.622 32.1231 30.8039 32.3052 30.809 32.5268V33.334C30.8041 33.5555 30.622 33.7377 30.4002 33.7377H27.0725L27.3728 34.8404L30.4002 34.8453C30.622 34.8453 30.8039 35.0223 30.809 35.2488V36.7403H32.0985V35.3326C32.0941 34.9141 31.7986 34.3827 31.3898 34.2939C31.7986 34.2005 32.1824 33.8459 32.1875 33.4276V32.4332C32.1826 31.6554 31.5525 31.0204 30.7747 31.0204Z" fill="black"/>
</g>
<defs>
<clipPath id="clip0_492_19814">
<rect width="40.1897" height="37" fill="white" transform="translate(0.910156)"/>
</clipPath>
</defs>
</svg>
