<svg width="37" height="37" viewBox="0 0 37 37" fill="none" xmlns="http://www.w3.org/2000/svg">
<g clip-path="url(#clip0_498_23671)">
<path d="M18.0996 36.5C22.9075 36.5 27.4276 34.6276 30.8275 31.2279C34.2272 27.8281 36.0996 23.3079 36.0996 18.5C36.0996 13.6921 34.2272 9.17194 30.8275 5.77214C27.4277 2.37235 22.9075 0.5 18.0996 0.5C8.17432 0.5 0.0996094 8.57471 0.0996094 18.5C0.0996094 23.3079 1.97196 27.8281 5.37175 31.2279C8.77155 34.6276 13.2917 36.5 18.0996 36.5Z" fill="#F2F2F2"/>
<path d="M0.722656 18.5002C0.722656 13.8587 2.53023 9.49493 5.81238 6.21277C9.09454 2.93055 13.4583 1.12305 18.0998 1.12305C22.7414 1.12305 27.1052 2.93055 30.3873 6.21277C33.6694 9.49493 35.477 13.8587 35.477 18.5002C35.477 28.0821 27.6816 35.8775 18.0998 35.8775C13.4583 35.8775 9.09454 34.0699 5.81238 30.7877C2.53023 27.5055 0.722656 23.1418 0.722656 18.5002Z" fill="black"/>
<path d="M18.0995 1.83887C8.89798 1.83887 1.43848 9.29837 1.43848 18.4999C1.43848 27.7014 8.89798 35.1609 18.0995 35.1609C27.301 35.1609 34.7605 27.7014 34.7605 18.4999C34.7605 9.29837 27.301 1.83887 18.0995 1.83887Z" fill="#F2F2F2"/>
<path d="M18.0995 29.1424C12.2219 29.1424 7.45703 24.3776 7.45703 18.4999C7.45703 12.6223 12.2219 7.85742 18.0995 7.85742C23.9771 7.85742 28.742 12.6223 28.742 18.4999C28.742 24.3776 23.9772 29.1424 18.0995 29.1424Z" fill="black"/>
<path d="M8.1416 18.4998H18.0994V8.54199C12.5999 8.54199 8.1416 13.0004 8.1416 18.4998ZM18.0994 18.4998V28.4577C23.5989 28.4577 28.0572 23.9994 28.0572 18.4998H18.0994Z" fill="#F2F2F2"/>
<path d="M10.2784 8.34621C9.9256 8.00333 9.3803 7.89999 8.86835 8.21738C8.96614 7.96397 8.9262 7.70537 8.87428 7.56267C8.65373 7.1605 8.57675 7.11016 8.39498 6.95764C7.80656 6.4639 7.18731 6.88542 6.7444 7.41325L4.60449 9.96342L7.9684 12.7861L10.2251 10.0968C10.7407 9.48232 10.8204 8.8731 10.2784 8.34621ZM18.6568 7.13443L19.812 4.07239V7.13443H20.69V2.74902H19.3708L18.171 5.88891H18.1834L16.9835 2.74902H15.6644V7.13443H16.5423V4.07239L17.6977 7.13443H18.6568ZM30.4612 8.9589L28.8082 11.2992L31.3709 10.0826L32.0494 10.9205L28.0158 12.8758L27.2195 11.8844L28.806 9.56465L28.7966 9.55302L26.1976 10.6225L25.3935 9.63751L28.1447 6.09863L28.8233 6.93655L27.1004 9.19028L29.7333 8.05995L30.4612 8.9589Z" fill="black"/>
<path d="M7.21206 8.04411C7.36097 7.8666 7.6975 7.87389 7.91393 8.05545C8.15188 8.25512 8.15246 8.53821 7.99265 8.72857L6.72186 10.243L5.92676 9.57581L7.21206 8.04411ZM9.47308 9.83067L8.13325 11.4274L7.29309 10.7224L8.64375 9.11269C8.79627 8.93092 9.13634 8.87799 9.36569 9.07052C9.62531 9.28825 9.65102 9.61864 9.47308 9.83067Z" fill="#F2F2F2"/>
</g>
<defs>
<clipPath id="clip0_498_23671">
<rect width="36" height="36" fill="white" transform="translate(0.0996094 0.5)"/>
</clipPath>
</defs>
</svg>
