<svg width="37" height="37" viewBox="0 0 37 37" fill="none" xmlns="http://www.w3.org/2000/svg">
<g clip-path="url(#clip0_492_19816)">
<path d="M18.0996 36.5C22.9075 36.5 27.4276 34.6276 30.8275 31.2279C34.2272 27.8281 36.0996 23.3079 36.0996 18.5C36.0996 13.6921 34.2272 9.17194 30.8275 5.77214C27.4277 2.37235 22.9075 0.5 18.0996 0.5C8.17432 0.5 0.0996094 8.57471 0.0996094 18.5C0.0996094 23.3079 1.97196 27.8281 5.37175 31.2279C8.77155 34.6276 13.2917 36.5 18.0996 36.5Z" fill="black"/>
<path d="M0.722656 18.5C0.722656 13.8585 2.53023 9.49468 5.81238 6.21253C9.09454 2.9303 13.4583 1.1228 18.0998 1.1228C22.7414 1.1228 27.1052 2.9303 30.3873 6.21253C33.6694 9.49468 35.477 13.8584 35.477 18.5C35.477 28.0818 27.6816 35.8772 18.0998 35.8772C13.4583 35.8772 9.09454 34.0696 5.81238 30.7875C2.53023 27.5053 0.722656 23.1415 0.722656 18.5Z" fill="white"/>
<path d="M18.1005 1.83887C8.89896 1.83887 1.43945 9.29837 1.43945 18.4999C1.43945 27.7014 8.89896 35.1609 18.1005 35.1609C27.302 35.1609 34.7615 27.7014 34.7615 18.4999C34.7615 9.29837 27.302 1.83887 18.1005 1.83887Z" fill="black"/>
<path d="M18.0995 29.1424C12.2219 29.1424 7.45703 24.3776 7.45703 18.4999C7.45703 12.6223 12.2219 7.85742 18.0995 7.85742C23.9771 7.85742 28.742 12.6223 28.742 18.4999C28.742 24.3776 23.9772 29.1424 18.0995 29.1424Z" fill="white"/>
<path d="M8.14258 18.5001H18.1004V8.54224C12.6009 8.54224 8.14258 13.0006 8.14258 18.5001ZM18.1004 18.5001V28.458C23.5999 28.458 28.0582 23.9996 28.0582 18.5001H18.1004Z" fill="black"/>
<path d="M10.2794 8.34573C9.92658 8.00284 9.38127 7.8995 8.86933 8.21689C8.96711 7.96349 8.92718 7.70488 8.87525 7.56218C8.6547 7.16001 8.57772 7.10967 8.39595 6.95715C7.80754 6.46341 7.18828 6.88494 6.74538 7.41276L4.60547 9.96294L7.96937 12.7857L10.2261 10.0963C10.7417 9.48183 10.8214 8.87261 10.2794 8.34573ZM18.6577 7.13394L19.813 4.0719V7.13394H20.691V2.74854H19.3718L18.1719 5.88842H18.1844L16.9845 2.74854H15.6654V7.13394H16.5433V4.0719L17.6986 7.13394H18.6577ZM30.4622 8.95841L28.8092 11.2987L31.3718 10.0821L32.0504 10.92L28.0168 12.8753L27.2205 11.884L28.807 9.56416L28.7976 9.55253L26.1986 10.6221L25.3945 9.63702L28.1457 6.09814L28.8243 6.93606L27.1014 9.18979L29.7343 8.05946L30.4622 8.95841Z" fill="white"/>
<path d="M7.21304 8.04411C7.36195 7.8666 7.69848 7.87389 7.91491 8.05545C8.15286 8.25512 8.15344 8.53821 7.99362 8.72857L6.72284 10.243L5.92773 9.57581L7.21304 8.04411ZM9.47406 9.83067L8.13423 11.4274L7.29407 10.7224L8.64473 9.11269C8.79725 8.93092 9.13731 8.87799 9.36667 9.07052C9.62629 9.28825 9.652 9.61864 9.47406 9.83067Z" fill="black"/>
</g>
<defs>
<clipPath id="clip0_492_19816">
<rect width="36" height="36" fill="white" transform="translate(0.0996094 0.5)"/>
</clipPath>
</defs>
</svg>
