<svg width="38" height="29" viewBox="0 0 38 29" fill="none" xmlns="http://www.w3.org/2000/svg">
<g clip-path="url(#clip0_492_19797)">
<path fill-rule="evenodd" clip-rule="evenodd" d="M28.7005 23.9705C30.9549 23.9705 32.3036 22.3574 32.3036 20.3674C32.3036 18.3774 30.9548 16.7648 28.7005 16.7648H21.392V23.9706L28.7005 23.9705ZM28.7005 11.4117C30.6843 11.4117 31.8918 9.98315 31.8918 8.22061C31.8918 6.45807 30.6843 5.02931 28.7005 5.02931H21.392V11.4116L28.7005 11.4117ZM11.0971 16.7642V18.5486H6.5689V9.62743H11.0971V11.4118H15.4213V5.02931H4.52954V7.2946H0L0.000689166 5.02977V0.5H28.7005C30.2633 0.499948 31.793 0.950186 33.1065 1.79684C34.4201 2.64349 35.4618 3.85069 36.1072 5.27398C36.7525 6.69727 36.9741 8.27637 36.7454 9.8223C36.5167 11.3682 35.8474 12.8155 34.8176 13.991C35.9909 15.1943 36.7833 16.7169 37.0955 18.3683C37.4078 20.0197 37.2261 21.7266 36.5732 23.2752C35.9202 24.8239 34.825 26.1456 33.4247 27.0749C32.0243 28.0042 30.381 28.4999 28.7003 28.4999H0.000918888L0.000229722 23.9706V21.7059H4.52954V23.9707H15.4213V16.7649H11.0971V16.7642Z" fill="black"/>
</g>
<defs>
<clipPath id="clip0_492_19797">
<rect width="37.2444" height="28" fill="white" transform="translate(0 0.5)"/>
</clipPath>
</defs>
</svg>
