<svg width="56" height="37" viewBox="0 0 56 37" fill="none" xmlns="http://www.w3.org/2000/svg">
<g clip-path="url(#clip0_498_23661)">
<path d="M10.062 33.4358H7.68029V36.9975H6.01742V29.0323H7.68029V32.2199H10.0631V29.0323H11.726V36.9975H10.062V33.4358ZM53.6499 30.2482H55.9098V29.0323H49.7314V30.2482H51.9881V36.9975H53.6499V30.2482ZM40.9517 35.7828L40.9538 29.0323H39.2888V36.9975H44.0457V35.7828H40.9517ZM21.5813 35.6707C21.6063 35.7469 21.6716 35.7784 21.7553 35.7784C21.8434 35.7784 21.9043 35.7556 21.9283 35.674L23.6542 29.0334H25.1235L23.1594 36.3102C23.0463 36.7702 22.7537 37.0008 22.3035 37.0008H20.77C20.3187 37.0008 20 36.7789 19.9022 36.2993L17.8902 29.0323H19.8293L21.5813 35.6707ZM2.6917 35.7795C2.23167 35.7795 2.08267 35.6664 2.08267 35.1683L2.08485 30.8551C2.08485 30.3765 2.19578 30.2471 2.69387 30.2471H5.38121V29.0312H1.66723C0.816766 29.0312 0.421986 29.4706 0.421986 30.2754L0.420898 35.7523C0.420898 36.6397 0.876581 36.9975 1.66288 36.9975H5.38121V35.7806H2.6917M14.3872 33.4358V35.1694C14.3872 35.6762 14.5351 35.7806 14.9962 35.7806H18.0718V36.9975H13.9685C13.1354 36.9975 12.7254 36.5952 12.7254 35.7523V30.2765C12.7254 29.4608 13.1093 29.0323 13.9696 29.0323H17.726V30.2482H14.9973C14.4916 30.2482 14.3883 30.395 14.3883 30.8562V32.2199H17.6912V33.4358H14.3872ZM28.037 32.4364C27.6836 32.4364 27.4867 32.6473 27.4867 32.991C27.4867 33.165 27.5748 33.289 27.6444 33.4141L29.7434 36.9975H31.801L29.6031 33.6359L29.9761 33.6338C30.7461 33.6338 31.2192 33.2814 31.2192 32.3885L31.2181 30.2765C31.2181 29.4445 30.8255 29.0323 29.9739 29.0323H25.341V36.9965H27.0028V30.2482H28.9462C29.4606 30.2482 29.5531 30.395 29.5531 30.8562L29.5574 31.8273C29.5574 32.2982 29.4269 32.4364 28.9462 32.4364H28.037ZM33.3747 36.9975C32.6145 36.9975 32.1316 36.6571 32.1316 35.7523L32.1338 30.2765C32.1338 29.4815 32.5003 29.0323 33.378 29.0323H37.0408C37.8989 29.0323 38.2828 29.4608 38.2828 30.2765L38.285 35.7523C38.285 36.6234 37.8369 36.9975 37.0408 36.9975H33.3747Z" fill="#F2F2F2"/>
<path d="M36.0134 35.7794C36.4647 35.7794 36.6235 35.6837 36.6235 35.1682L36.6224 30.855C36.6224 30.3221 36.4484 30.2471 36.0134 30.2471H34.4049C33.8525 30.2471 33.7959 30.4385 33.7959 30.855V35.1682C33.7959 35.6468 33.9253 35.7794 34.4049 35.7794H36.0134Z" fill="black"/>
<path d="M46.0302 33.4357L46.0291 35.1693C46.0291 35.6761 46.1781 35.7805 46.6392 35.7805H49.7148V36.9974H45.6093C44.7784 36.9974 44.3662 36.595 44.3662 35.7522L44.3684 30.2764C44.3684 29.4607 44.7523 29.0322 45.6125 29.0322H49.3689V30.2481H46.6392C46.1324 30.2481 46.0312 30.3949 46.0312 30.856V32.2198H49.333V33.4357H46.0302Z" fill="#F2F2F2"/>
<path d="M36.7789 0C37.4314 0 37.7903 0.352366 37.7903 1.02012L37.7914 3.3366C37.7914 3.88472 38.0524 4.00327 38.4494 4.00327L54.06 4.00109C54.445 4.00109 55.0084 4.23056 55.0084 4.88418C55.0084 5.13105 54.9355 5.24851 54.8278 5.45732L49.9034 15.0799C49.5598 15.7162 49.066 15.8967 48.383 15.8967L38.4494 15.9C37.9915 15.9 37.7914 16.0925 37.7914 16.5655L37.7936 18.8809C37.7936 19.5933 37.3879 19.8891 36.7789 19.8891H18.9094C18.3004 19.8891 17.8958 19.5726 17.8958 18.8744L17.8969 16.5601C17.8969 16.1164 17.725 15.8934 17.2367 15.8934L1.39876 15.8956C0.699466 15.8956 0.448242 15.3975 0.448242 15.0125C0.448242 14.8657 0.486306 14.7221 0.550472 14.5982L5.53036 4.86352C5.76744 4.37303 6.22421 4 7.00725 4L17.2367 3.99674C17.6652 3.99674 17.8958 3.81838 17.8958 3.33116L17.8969 1.01468C17.898 0.376292 18.2416 0 18.9094 0H36.7789Z" fill="#F2F2F2"/>
<path d="M34.0317 3.09082C34.4765 3.09082 34.6973 3.28875 34.6973 3.76184V6.43286C34.6973 6.8918 34.9094 7.09409 35.3694 7.09409H49.5858C50.0382 7.09409 50.1872 7.39207 50.1872 7.62916C50.1871 7.71598 50.1658 7.80145 50.1253 7.87821L47.75 12.5231C47.6011 12.7928 47.3379 12.8037 47.1508 12.8037H35.3683C34.8811 12.8037 34.7027 13.0245 34.7027 13.4682L34.7016 16.1414C34.7016 16.584 34.5059 16.7983 34.0317 16.7983H21.6554C21.24 16.7983 20.9876 16.6526 20.9876 16.1349L20.9866 13.4639C20.9866 12.9766 20.7625 12.8015 20.3188 12.8015H5.87181C5.51727 12.8015 5.27148 12.5797 5.27148 12.2697C5.27148 12.1784 5.29324 12.0957 5.33347 12.0196L7.70759 7.37576C7.79786 7.21263 7.94685 7.09626 8.30574 7.09626L20.3188 7.09952C20.7343 7.09952 20.9909 6.93204 20.9909 6.42851V3.75531C20.9909 3.28223 21.1965 3.093 21.6554 3.093L34.0317 3.09082Z" fill="black"/>
<path d="M40.2041 19.2812C40.2041 19.1012 40.2756 18.9286 40.4029 18.8013C40.5301 18.674 40.7027 18.6025 40.8827 18.6025C41.0627 18.6025 41.2353 18.674 41.3626 18.8013C41.4899 18.9286 41.5614 19.1012 41.5614 19.2812C41.5515 19.4545 41.4758 19.6175 41.3496 19.7368C41.2234 19.856 41.0564 19.9225 40.8827 19.9225C40.7091 19.9225 40.5421 19.856 40.4159 19.7368C40.2897 19.6175 40.2139 19.4545 40.2041 19.2812ZM41.4798 19.2812C41.4792 19.1634 41.4436 19.0485 41.3778 18.951C41.3119 18.8534 41.2186 18.7775 41.1096 18.7329C41.0007 18.6883 40.881 18.6769 40.7656 18.7003C40.6502 18.7237 40.5443 18.7807 40.4613 18.8642C40.3782 18.9476 40.3218 19.0538 40.2991 19.1694C40.2763 19.2849 40.2883 19.4045 40.3335 19.5133C40.3787 19.622 40.4551 19.7148 40.5531 19.7802C40.651 19.8455 40.7661 19.8804 40.8838 19.8804C40.9623 19.8803 41.04 19.8646 41.1125 19.8344C41.1849 19.8042 41.2507 19.76 41.3061 19.7044C41.3614 19.6487 41.4053 19.5827 41.4351 19.5101C41.4649 19.4375 41.4801 19.3597 41.4798 19.2812ZM41.2231 19.6607H41.1122L40.8947 19.3116H40.725V19.6607H40.6326V18.9038H40.9632C41.0285 18.9038 41.0915 18.906 41.1481 18.9397C41.2057 18.9723 41.2329 19.0419 41.2329 19.1028C41.2329 19.2529 41.1285 19.3084 40.9926 19.3105L41.2231 19.6607ZM40.8664 19.2388C40.973 19.2388 41.1383 19.2572 41.1383 19.1028C41.1383 18.9854 41.0361 18.9701 40.9393 18.9701H40.725V19.2388H40.8664Z" fill="#F2F2F2"/>
<path d="M54.4268 35.9629C54.4268 35.5877 54.7313 35.2832 55.1076 35.2832C55.4828 35.2832 55.7829 35.5877 55.7829 35.9629C55.7829 36.3381 55.4828 36.6416 55.1076 36.6416C55.0183 36.6417 54.9299 36.6243 54.8474 36.5902C54.7648 36.5562 54.6898 36.5062 54.6266 36.4432C54.5634 36.3802 54.5132 36.3054 54.4789 36.223C54.4446 36.1405 54.4269 36.0522 54.4268 35.9629ZM55.7046 35.9629C55.7081 35.8823 55.6953 35.8018 55.6669 35.7263C55.6385 35.6507 55.5951 35.5817 55.5393 35.5234C55.4835 35.4651 55.4165 35.4187 55.3423 35.3869C55.2681 35.3552 55.1883 35.3388 55.1076 35.3387C55.0269 35.3387 54.947 35.3549 54.8728 35.3865C54.7985 35.4181 54.7314 35.4644 54.6755 35.5226C54.6197 35.5809 54.5761 35.6498 54.5476 35.7253C54.519 35.8007 54.506 35.8812 54.5094 35.9618C54.5158 36.1159 54.5815 36.2616 54.6928 36.3684C54.8041 36.4752 54.9523 36.5349 55.1065 36.535C55.2607 36.5352 55.409 36.4757 55.5205 36.3691C55.6319 36.2625 55.6979 36.117 55.7046 35.9629ZM55.4458 36.3403H55.3359L55.1184 35.9912H54.9477V36.3403H54.8552V35.5834H55.187C55.2522 35.5834 55.3153 35.5855 55.3697 35.6193C55.4295 35.6497 55.4556 35.7215 55.4556 35.7824C55.4556 35.9325 55.3533 35.9879 55.2163 35.9901L55.4458 36.3403ZM55.0913 35.9172C55.1989 35.9172 55.3621 35.9346 55.3621 35.7824C55.3621 35.6649 55.2598 35.6497 55.1641 35.6497H54.9477V35.9172H55.0913Z" fill="#F2F2F2"/>
</g>
<defs>
<clipPath id="clip0_498_23661">
<rect width="55.4889" height="37" fill="white" transform="translate(0.420898)"/>
</clipPath>
</defs>
</svg>
