<svg width="56" height="37" viewBox="0 0 56 37" fill="none" xmlns="http://www.w3.org/2000/svg">
<g clip-path="url(#clip0_492_19806)">
<path d="M10.061 33.4358H7.67931V36.9975H6.01645V29.0323H7.67931V32.2199H10.0621V29.0323H11.725V36.9975H10.061V33.4358ZM53.6489 30.2482H55.9088V29.0323H49.7305V30.2482H51.9871V36.9975H53.6489V30.2482ZM40.9507 35.7828L40.9529 29.0323H39.2878V36.9975H44.0448V35.7828H40.9507ZM21.5804 35.6707C21.6054 35.7469 21.6706 35.7784 21.7544 35.7784C21.8425 35.7784 21.9034 35.7556 21.9273 35.674L23.6532 29.0334H25.1225L23.1584 36.3102C23.0453 36.7702 22.7527 37.0008 22.3025 37.0008H20.769C20.3177 37.0008 19.9991 36.7789 19.9012 36.2993L17.8892 29.0323H19.8283L21.5804 35.6707ZM2.69072 35.7795C2.23069 35.7795 2.0817 35.6664 2.0817 35.1683L2.08387 30.8551C2.08387 30.3765 2.1948 30.2471 2.6929 30.2471H5.38023V29.0312H1.66625C0.81579 29.0312 0.421009 29.4706 0.421009 30.2754L0.419922 35.7523C0.419922 36.6397 0.875605 36.9975 1.6619 36.9975H5.38023V35.7806H2.69072M14.3862 33.4358V35.1694C14.3862 35.6762 14.5341 35.7806 14.9952 35.7806H18.0708V36.9975H13.9675C13.1345 36.9975 12.7244 36.5952 12.7244 35.7523V30.2765C12.7244 29.4608 13.1084 29.0323 13.9686 29.0323H17.725V30.2482H14.9963C14.4906 30.2482 14.3873 30.395 14.3873 30.8562V32.2199H17.6902V33.4358H14.3862ZM28.036 32.4364C27.6826 32.4364 27.4857 32.6473 27.4857 32.991C27.4857 33.165 27.5738 33.289 27.6434 33.4141L29.7424 36.9975H31.8L29.6021 33.6359L29.9751 33.6338C30.7451 33.6338 31.2182 33.2814 31.2182 32.3885L31.2171 30.2765C31.2171 29.4445 30.8245 29.0323 29.973 29.0323H25.34V36.9965H27.0018V30.2482H28.9452C29.4596 30.2482 29.5521 30.395 29.5521 30.8562L29.5564 31.8273C29.5564 32.2982 29.4259 32.4364 28.9452 32.4364H28.036ZM33.3737 36.9975C32.6135 36.9975 32.1307 36.6571 32.1307 35.7523L32.1328 30.2765C32.1328 29.4815 32.4993 29.0323 33.377 29.0323H37.0399C37.8979 29.0323 38.2818 29.4608 38.2818 30.2765L38.284 35.7523C38.284 36.6234 37.8359 36.9975 37.0399 36.9975H33.3737Z" fill="black"/>
<path d="M36.0124 35.7794C36.4638 35.7794 36.6225 35.6837 36.6225 35.1682L36.6215 30.855C36.6215 30.3221 36.4475 30.2471 36.0124 30.2471H34.4039C33.8515 30.2471 33.7949 30.4385 33.7949 30.855V35.1682C33.7949 35.6468 33.9243 35.7794 34.4039 35.7794H36.0124Z" fill="white"/>
<path d="M46.0292 33.436L46.0281 35.1695C46.0281 35.6763 46.1771 35.7807 46.6382 35.7807H49.7138V36.9977H45.6083C44.7774 36.9977 44.3652 36.5953 44.3652 35.7524L44.3674 30.2766C44.3674 29.461 44.7513 29.0325 45.6116 29.0325H49.368V30.2484H46.6382C46.1314 30.2484 46.0303 30.3952 46.0303 30.8563V32.2201H49.3321V33.436H46.0292Z" fill="black"/>
<path d="M36.7779 0.000244141C37.4304 0.000244141 37.7893 0.35261 37.7893 1.02036L37.7904 3.33684C37.7904 3.88497 38.0514 4.00351 38.4484 4.00351L54.0591 4.00134C54.444 4.00134 55.0074 4.23081 55.0074 4.88443C55.0074 5.1313 54.9345 5.24875 54.8269 5.45756L49.9024 15.0802C49.5588 15.7164 49.065 15.8969 48.3821 15.8969L38.4484 15.9002C37.9905 15.9002 37.7904 16.0927 37.7904 16.5658L37.7926 18.8812C37.7926 19.5935 37.3869 19.8893 36.7779 19.8893H18.9084C18.2994 19.8893 17.8948 19.5729 17.8948 18.8746L17.8959 16.5603C17.8959 16.1166 17.7241 15.8937 17.2358 15.8937L1.39778 15.8959C0.698489 15.8959 0.447266 15.3978 0.447266 15.0128C0.447266 14.8659 0.48533 14.7224 0.549495 14.5984L5.52938 4.86376C5.76647 4.37328 6.22324 4.00025 7.00627 4.00025L17.2358 3.99699C17.6642 3.99699 17.8948 3.81863 17.8948 3.33141L17.8959 1.01493C17.897 0.376536 18.2406 0.000244141 18.9084 0.000244141H36.7779Z" fill="black"/>
<path d="M34.0298 3.09106C34.4746 3.09106 34.6953 3.289 34.6953 3.76208V6.4331C34.6953 6.89205 34.9074 7.09433 35.3674 7.09433H49.5839C50.0363 7.09433 50.1853 7.39232 50.1853 7.6294C50.1851 7.71622 50.1639 7.80169 50.1233 7.87845L47.7481 12.5234C47.5991 12.7931 47.3359 12.804 47.1489 12.804H35.3664C34.8791 12.804 34.7008 13.0247 34.7008 13.4685L34.6997 16.1416C34.6997 16.5843 34.5039 16.7985 34.0298 16.7985H21.6535C21.238 16.7985 20.9857 16.6528 20.9857 16.1351L20.9846 13.4641C20.9846 12.9769 20.7606 12.8018 20.3169 12.8018H5.86986C5.51532 12.8018 5.26953 12.5799 5.26953 12.27C5.26953 12.1786 5.29128 12.096 5.33152 12.0198L7.70564 7.37601C7.79591 7.21287 7.9449 7.09651 8.30379 7.09651L20.3169 7.09977C20.7323 7.09977 20.989 6.93229 20.989 6.42875V3.75556C20.989 3.28247 21.1945 3.09324 21.6535 3.09324L34.0298 3.09106Z" fill="white"/>
<path d="M40.2031 19.2814C40.2031 19.1014 40.2746 18.9288 40.4019 18.8016C40.5292 18.6743 40.7018 18.6028 40.8818 18.6028C41.0617 18.6028 41.2344 18.6743 41.3616 18.8016C41.4889 18.9288 41.5604 19.1014 41.5604 19.2814C41.5506 19.4548 41.4748 19.6178 41.3486 19.737C41.2224 19.8563 41.0554 19.9227 40.8818 19.9227C40.7081 19.9227 40.5411 19.8563 40.4149 19.737C40.2887 19.6178 40.2129 19.4548 40.2031 19.2814ZM41.4788 19.2814C41.4782 19.1637 41.4427 19.0488 41.3768 18.9512C41.3109 18.8536 41.2176 18.7777 41.1087 18.7331C40.9997 18.6885 40.88 18.6772 40.7646 18.7006C40.6492 18.7239 40.5433 18.7809 40.4603 18.8644C40.3773 18.9479 40.3208 19.0541 40.2981 19.1696C40.2754 19.2851 40.2873 19.4048 40.3326 19.5135C40.3778 19.6222 40.4541 19.7151 40.5521 19.7804C40.65 19.8458 40.7651 19.8807 40.8828 19.8807C40.9613 19.8805 41.039 19.8649 41.1115 19.8347C41.184 19.8045 41.2497 19.7603 41.3051 19.7046C41.3605 19.649 41.4043 19.5829 41.4341 19.5103C41.4639 19.4377 41.4791 19.3599 41.4788 19.2814ZM41.2222 19.661H41.1112L40.8937 19.3119H40.7241V19.661H40.6316V18.904H40.9622C41.0275 18.904 41.0906 18.9062 41.1471 18.9399C41.2048 18.9726 41.2319 19.0422 41.2319 19.1031C41.2319 19.2531 41.1275 19.3086 40.9916 19.3108L41.2222 19.661ZM40.8654 19.239C40.972 19.239 41.1373 19.2575 41.1373 19.1031C41.1373 18.9856 41.0351 18.9704 40.9383 18.9704H40.7241V19.239H40.8654Z" fill="black"/>
<path d="M54.4258 35.9634C54.4258 35.5882 54.7303 35.2837 55.1066 35.2837C55.4818 35.2837 55.782 35.5882 55.782 35.9634C55.782 36.3386 55.4818 36.642 55.1066 36.642C55.0173 36.6422 54.9289 36.6247 54.8464 36.5907C54.7639 36.5567 54.6889 36.5067 54.6256 36.4437C54.5624 36.3807 54.5122 36.3059 54.4779 36.2234C54.4436 36.141 54.4259 36.0527 54.4258 35.9634ZM55.7036 35.9634C55.7072 35.8828 55.6943 35.8023 55.6659 35.7268C55.6375 35.6512 55.5941 35.5822 55.5383 35.5239C55.4825 35.4656 55.4155 35.4192 55.3413 35.3874C55.2672 35.3557 55.1873 35.3393 55.1066 35.3392C55.0259 35.3391 54.946 35.3554 54.8718 35.387C54.7975 35.4186 54.7304 35.4649 54.6746 35.5231C54.6187 35.5813 54.5752 35.6503 54.5466 35.7257C54.5181 35.8012 54.5051 35.8817 54.5084 35.9623C54.5149 36.1164 54.5806 36.2621 54.6918 36.3689C54.8031 36.4757 54.9513 36.5354 55.1055 36.5355C55.2597 36.5357 55.4081 36.4762 55.5195 36.3696C55.631 36.263 55.6969 36.1175 55.7036 35.9634ZM55.4448 36.3408H55.335L55.1175 35.9917H54.9467V36.3408H54.8543V35.5839H55.186C55.2512 35.5839 55.3143 35.586 55.3687 35.6197C55.4285 35.6502 55.4546 35.722 55.4546 35.7829C55.4546 35.933 55.3524 35.9884 55.2153 35.9906L55.4448 36.3408ZM55.0903 35.9177C55.1979 35.9177 55.3611 35.9351 55.3611 35.7829C55.3611 35.6654 55.2588 35.6502 55.1631 35.6502H54.9467V35.9177H55.0903Z" fill="black"/>
</g>
<defs>
<clipPath id="clip0_492_19806">
<rect width="55.4889" height="37" fill="white" transform="translate(0.419922)"/>
</clipPath>
</defs>
</svg>
