<svg width="46" height="37" viewBox="0 0 46 37" fill="none" xmlns="http://www.w3.org/2000/svg">
<g clip-path="url(#clip0_498_23657)">
<path d="M33.1414 3.33203C32.1242 7.90949 31.7053 10.0337 30.8676 13.3247C30.0598 16.496 29.4315 19.4578 28.3545 20.8939C27.2774 22.3599 25.8115 22.6591 24.8242 22.7788C24.3155 22.8386 23.9266 22.8685 22.8196 22.8685C21.7127 22.8685 21.3237 22.8386 20.8151 22.7788C19.8278 22.6591 18.3619 22.3599 17.2848 20.8939C16.2078 19.4578 15.5795 16.496 14.8016 13.3247C13.9639 10.0038 13.5451 7.90949 12.5278 3.33203C12.5278 3.33203 11.5106 3.36195 11.0619 3.39187C10.4336 3.42179 9.9549 3.48162 9.44629 3.54146C9.44629 3.54146 10.0446 12.9656 10.3139 16.9747C10.5832 21.1632 11.0918 28.2538 11.5406 33.6091C11.5406 33.6091 12.4082 33.7587 13.8442 33.8185C15.3401 33.9083 16.0283 33.9083 16.0283 33.9083C16.6565 31.5447 17.4045 28.2837 18.2721 26.8775C18.9901 25.7406 20.0672 25.621 20.6955 25.5312C21.6528 25.4115 22.4906 25.3816 22.8496 25.3816C23.2385 25.3816 24.0463 25.3816 25.0037 25.5312C25.6319 25.621 26.709 25.7406 27.427 26.8775C28.2946 28.2837 29.0725 31.5447 29.6709 33.9083C29.6709 33.9083 30.3291 33.9083 31.825 33.8185C33.261 33.7288 34.1287 33.6091 34.1287 33.6091C34.5774 28.2538 35.086 21.1931 35.3553 16.9747C35.6246 12.9956 36.2229 3.54146 36.2229 3.54146C35.7143 3.48162 35.2057 3.42179 34.6074 3.39187C34.1586 3.36195 33.1414 3.33203 33.1414 3.33203Z" fill="#F2F2F2"/>
<path d="M45.0184 8.89631C44.42 2.9127 40.411 1.65615 36.9106 1.05779C35.1454 0.758606 32.004 0.519262 29.9995 0.429508C28.2344 0.309836 24.1057 0.25 22.8491 0.25C21.5926 0.25 17.4639 0.309836 15.6987 0.429508C13.6942 0.519262 10.5528 0.758606 8.78764 1.05779C5.28723 1.65615 1.27821 2.9127 0.679849 8.89631C0.500342 10.5418 0.470424 12.666 0.500342 14.9398C0.560177 18.7393 0.889277 21.2824 1.06878 23.0775C1.18846 24.3041 1.69706 27.9541 2.35526 29.8389C3.2528 32.4418 4.06059 33.1898 5.01796 33.9676C6.75321 35.3738 9.62534 35.8225 10.2237 35.9422C13.4549 36.5107 19.977 36.6303 22.879 36.6303C25.7512 36.6303 32.3032 36.5406 35.5344 35.9422C36.1327 35.8225 39.0048 35.4037 40.7401 33.9676C41.6975 33.1898 42.5053 32.4418 43.4028 29.8389C44.061 27.9541 44.5696 24.2742 44.6893 23.0775C44.8688 21.3123 45.1979 18.7393 45.2577 14.9398C45.2278 12.6361 45.168 10.5119 45.0184 8.89631ZM42.8044 18.9488C42.4454 23.7357 42.0266 26.6078 41.4282 28.6721C40.8897 30.4971 40.2315 31.6939 39.2741 32.5615C37.6585 34.0275 35.4446 34.3266 34.1282 34.5361C31.3159 34.9549 26.5589 35.1045 22.8491 35.1045C19.1094 35.1045 14.3823 34.9549 11.57 34.5361C10.2536 34.3266 8.03968 34.0275 6.42411 32.5615C5.46673 31.6939 4.80853 30.4672 4.27001 28.6721C3.67165 26.6078 3.22288 23.7357 2.89378 18.9488C2.68435 16.0766 2.71427 11.4094 3.04337 8.89631C3.49215 5.12664 5.34706 3.2418 9.32616 2.55369C11.1811 2.22459 13.6942 1.98525 16.0577 1.86557C17.9725 1.7459 21.084 1.68607 22.8491 1.68607C24.5844 1.65615 27.7258 1.7459 29.6106 1.86557C31.9741 1.98525 34.4872 2.22459 36.3421 2.55369C40.3212 3.27172 42.1762 5.15656 42.6548 8.89631C42.9839 11.3795 43.0139 16.0467 42.8044 18.9488Z" fill="#F2F2F2"/>
</g>
<defs>
<clipPath id="clip0_498_23657">
<rect width="45.1762" height="36.5" fill="white" transform="translate(0.244141 0.25)"/>
</clipPath>
</defs>
</svg>
