<svg width="160" height="31" viewBox="0 0 160 31" fill="none" xmlns="http://www.w3.org/2000/svg">
<path fill-rule="evenodd" clip-rule="evenodd" d="M151.184 14.7458H139.796C139.937 13.319 140.944 11.8921 142.763 11.8921H156.192V9.15037H142.147C136.552 9.15037 134.257 13.4036 134.257 17.4875H149.926C150.456 17.4875 151.715 17.5996 151.715 18.8862C151.715 20.1736 150.625 20.2857 148.75 20.3413H132.41V9.15037H127.598V20.3413H118.421C115.651 20.3413 115.344 18.2993 115.344 17.2086V9.15037H106.586L99.451 13.9066L93.0164 9.15037H74.2445C68.649 9.15037 65.2914 13.0392 64.8158 16.4242H68.6855C67.1383 17.4676 66.0426 18.8812 65.4474 20.3363L54.5205 20.3413C51.7505 20.3413 51.4426 18.2993 51.4426 17.2086V9.15037H46.6307V16.7886C46.6307 22.0488 50.3237 23.0838 52.1141 23.0838H90.5843L97.7743 18.2711L104.294 23.0838H111.876L101.776 15.6415L110.085 10.0734V17.4319C110.085 22.1874 114.73 23.0838 116.017 23.0838H151.129C152.864 23.0838 157.649 22.8597 157.649 19.0547C157.649 15.2497 154.122 14.7458 151.184 14.7458ZM89.8015 20.3413H71.6987C71.8381 18.9144 73.4053 17.4875 75.2239 17.4875H85.9119V14.7458H71.3069C71.4463 13.319 73.0135 11.8921 74.8322 11.8921H87.0308V10.2975L95.4809 16.5645L89.8015 20.3413ZM21.4374 29.2105C27.7558 29.2105 33.3596 27.0051 36.8334 23.606L33.7033 23.6209C30.7441 26.1094 26.4178 27.6758 21.5146 27.6758C12.3681 27.6758 5.22789 22.2256 5.22789 15.5012C5.22789 7.7459 12.3681 3.32663 21.5146 3.32663C22.0965 3.32829 22.5613 3.5964 22.2127 4.10108C20.3127 6.38874 14.9015 13.7514 13.9145 15.3468C11.9672 18.4919 12.0137 22.365 16.7841 22.6364H36.8434C37.8685 22.6364 38.1283 22.1558 38.4986 21.6545C39.8207 19.8762 40.5305 17.7171 40.5214 15.5012C40.5181 9.72228 36.4516 5.39101 30.4677 3.26023L29.5413 4.64395C34.5134 6.4784 37.8013 10.1855 37.8013 15.5012C37.8013 16.4242 37.666 17.3232 37.4103 18.1873C37.1879 18.9377 36.7538 19.5727 35.9312 19.5727H19.9192C17.8681 19.5727 18.6608 17.4568 19.4203 16.4317C20.5218 14.457 26.5556 6.23352 28.0082 4.70122C28.3784 4.13927 29.416 2.97552 27.9858 2.52977C25.9438 2.04502 23.7375 1.79102 21.4366 1.79102C10.8972 1.79102 2.35835 7.20304 2.35254 15.5012C2.34756 23.8766 10.8972 29.2105 21.4374 29.2105Z" fill="#F2F2F2"/>
</svg>
