<svg width="160" height="31" viewBox="0 0 160 31" fill="none" xmlns="http://www.w3.org/2000/svg">
<path fill-rule="evenodd" clip-rule="evenodd" d="M151.183 14.7454H139.795C139.936 13.3185 140.943 11.8916 142.762 11.8916H156.191V9.14988H142.146C136.551 9.14988 134.256 13.4031 134.256 17.4871H149.925C150.455 17.4871 151.714 17.5991 151.714 18.8857C151.714 20.1731 150.624 20.2852 148.749 20.3408H132.409V9.14988H127.597V20.3408H118.42C115.65 20.3408 115.343 18.2989 115.343 17.2082V9.14988H106.585L99.4501 13.9062L93.0154 9.14988H74.2435C68.648 9.14988 65.2904 13.0387 64.8148 16.4237H68.6845C67.1373 17.4671 66.0416 18.8807 65.4465 20.3358L54.5195 20.3408C51.7496 20.3408 51.4416 18.2989 51.4416 17.2082V9.14988H46.6297V16.7881C46.6297 22.0483 50.3227 23.0834 52.1131 23.0834H90.5833L97.7733 18.2706L104.293 23.0834H111.875L101.775 15.641L110.084 10.0729V17.4314C110.084 22.1869 114.729 23.0834 116.016 23.0834H151.128C152.863 23.0834 157.648 22.8592 157.648 19.0542C157.648 15.2492 154.121 14.7454 151.183 14.7454ZM89.8006 20.3408H71.6977C71.8371 18.9139 73.4043 17.4871 75.223 17.4871H85.9109V14.7454H71.3059C71.4453 13.3185 73.0125 11.8916 74.8312 11.8916H87.0298V10.297L95.4799 16.564L89.8006 20.3408ZM21.4364 29.2101C27.7549 29.2101 33.3586 27.0046 36.8325 23.6055L33.7023 23.6204C30.7431 26.1089 26.4168 27.6753 21.5136 27.6753C12.3671 27.6753 5.22691 22.2251 5.22691 15.5007C5.22691 7.74541 12.3671 3.32615 21.5136 3.32615C22.0955 3.32781 22.5603 3.59592 22.2117 4.1006C20.3117 6.38825 14.9005 13.7509 13.9135 15.3463C11.9662 18.4914 12.0127 22.3645 16.7831 22.6359H36.8424C37.8676 22.6359 38.1274 22.1553 38.4976 21.654C39.8198 19.8757 40.5296 17.7166 40.5204 15.5007C40.5171 9.7218 36.4506 5.39052 30.4667 3.25975L29.5403 4.64346C34.5124 6.47791 37.8003 10.185 37.8003 15.5007C37.8003 16.4237 37.665 17.3227 37.4094 18.1868C37.1869 18.9372 36.7528 19.5722 35.9302 19.5722H19.9182C17.8671 19.5722 18.6599 17.4563 19.4194 16.4312C20.5209 14.4565 26.5546 6.23303 28.0072 4.70073C28.3774 4.13878 29.415 2.97503 27.9848 2.52928C25.9428 2.04453 23.7365 1.79053 21.4356 1.79053C10.8963 1.79053 2.35738 7.20255 2.35156 15.5007C2.34658 23.8761 10.8963 29.2101 21.4364 29.2101Z" fill="black"/>
</svg>
