<svg width="32" height="33" viewBox="0 0 32 33" fill="none" xmlns="http://www.w3.org/2000/svg">
<g clip-path="url(#clip0_492_19792)">
<path fill-rule="evenodd" clip-rule="evenodd" d="M0 0.5H32V32.5H0V0.5Z" fill="white"/>
<path fill-rule="evenodd" clip-rule="evenodd" d="M16.0003 31.0883C7.94356 31.0883 1.41211 24.5567 1.41211 16.5001C1.41211 8.44331 7.94356 1.91187 16.0003 1.91187C24.0573 1.91187 30.5886 8.44331 30.5886 16.5001C30.5886 24.5567 24.0573 31.0883 16.0003 31.0883Z" fill="black"/>
<path fill-rule="evenodd" clip-rule="evenodd" d="M16.0046 18.7036L4.16054 23.6058C6.65605 27.7989 11.1782 30.3575 16.055 30.3323C20.9194 30.3197 25.429 27.7353 27.8991 23.5299L16.0046 18.7036ZM13.953 15.2414L15.8404 2.73877C10.976 2.80202 6.49186 5.4242 4.05977 9.64242C1.61506 13.8606 1.58966 19.0542 3.9839 23.2978L13.953 15.2414ZM17.9932 15.4072L28.0762 23.2102C30.4198 18.9667 30.369 13.811 27.9245 9.61818C26.7293 7.55664 25.0208 5.83962 22.9652 4.63425C20.9096 3.42887 18.577 2.77621 16.1943 2.73977L17.9932 15.4072Z" fill="white"/>
</g>
<defs>
<clipPath id="clip0_492_19792">
<rect width="32" height="32" fill="white" transform="translate(0 0.5)"/>
</clipPath>
</defs>
</svg>
