<svg width="32" height="33" viewBox="0 0 32 33" fill="none" xmlns="http://www.w3.org/2000/svg">
<g clip-path="url(#clip0_498_23647)">
<path fill-rule="evenodd" clip-rule="evenodd" d="M0 0.5H32V32.5H0V0.5Z" fill="black"/>
<path fill-rule="evenodd" clip-rule="evenodd" d="M16.0003 31.0886C7.94356 31.0886 1.41211 24.5569 1.41211 16.5003C1.41211 8.44356 7.94356 1.91211 16.0003 1.91211C24.0573 1.91211 30.5886 8.44356 30.5886 16.5003C30.5886 24.5569 24.0573 31.0886 16.0003 31.0886Z" fill="#F2F2F2"/>
<path fill-rule="evenodd" clip-rule="evenodd" d="M16.0036 18.7041L4.15956 23.6063C6.65507 27.7994 11.1773 30.358 16.0541 30.3328C20.9184 30.3202 25.428 27.7358 27.8981 23.5304L16.0036 18.7041ZM13.952 15.2419L15.8394 2.73926C10.9751 2.80251 6.49088 5.42468 4.05879 9.64291C1.61409 13.8611 1.58869 19.0547 3.98292 23.2983L13.952 15.2419ZM17.9923 15.4077L28.0752 23.2106C30.4188 18.9672 30.368 13.8115 27.9235 9.61867C26.7283 7.55712 25.0198 5.84011 22.9642 4.63474C20.9086 3.42936 18.576 2.77669 16.1933 2.74025L17.9923 15.4077Z" fill="black"/>
</g>
<defs>
<clipPath id="clip0_498_23647">
<rect width="32" height="32" fill="white" transform="translate(0 0.5)"/>
</clipPath>
</defs>
</svg>
