<svg width="56" height="37" viewBox="0 0 56 37" fill="none" xmlns="http://www.w3.org/2000/svg">
<g clip-path="url(#clip0_492_19824)">
<path fill-rule="evenodd" clip-rule="evenodd" d="M34.6705 19.1504C34.6705 18.8766 34.6608 18.3389 34.6608 18.3389C42.74 17.0709 48.5786 13.5915 48.74 9.50088C50.7291 11.9818 51.8577 14.8229 51.8577 17.8501C51.8577 26.758 42.0795 34.0568 29.6508 34.7073C32.5301 32.8924 34.6705 26.6122 34.6705 19.1504ZM55.5938 18.5001C55.5938 8.53279 43.1901 0.451416 27.8883 0.451416C12.587 0.451416 0.182865 8.53279 0.182865 18.5001C0.182865 28.4673 12.5872 36.5489 27.8883 36.5489C43.1901 36.5489 55.5938 28.4671 55.5938 18.5001ZM21.4893 13.7844C15.7409 12.8852 11.7172 10.8216 11.7172 8.42036C11.7172 5.19748 18.9581 2.58786 27.8883 2.58786C36.8192 2.58786 44.0594 5.1977 44.0594 8.42036C44.0594 10.8216 40.0364 12.8852 34.2873 13.7844C33.3548 7.53724 30.8416 3.05621 27.8883 3.05621C24.9344 3.05621 22.4218 7.53702 21.4893 13.7844ZM26.1257 34.707C13.6976 34.0568 3.91801 26.7577 3.91801 17.8499C3.91801 14.8229 5.04794 11.9818 7.03704 9.50066C7.19865 13.5913 13.0358 17.0706 21.1158 18.3387C21.1158 18.3387 21.1057 18.8764 21.1057 19.1502C21.1057 26.612 23.2477 32.8922 26.1257 34.707ZM24.0484 14.0898C24.6619 10.083 26.1497 7.25443 27.8883 7.25443C29.6269 7.25443 31.1145 10.083 31.7287 14.0898C29.1337 14.3029 26.5767 14.3064 24.0484 14.0898ZM32.0282 18.6651C31.9267 24.4674 30.113 29.0955 27.8883 29.0955C25.6645 29.0955 23.8504 24.4676 23.7476 18.6651C26.59 18.912 29.3648 18.9118 32.0282 18.6651Z" fill="black"/>
</g>
<defs>
<clipPath id="clip0_492_19824">
<rect width="55.619" height="36.5" fill="white" transform="matrix(-1 0 0 1 55.7188 0.25)"/>
</clipPath>
</defs>
</svg>
