<svg width="56" height="37" viewBox="0 0 56 37" fill="none" xmlns="http://www.w3.org/2000/svg">
<g clip-path="url(#clip0_498_23679)">
<path fill-rule="evenodd" clip-rule="evenodd" d="M34.6705 19.1502C34.6705 18.8764 34.6608 18.3386 34.6608 18.3386C42.74 17.0706 48.5786 13.5913 48.74 9.50064C50.7291 11.9816 51.8577 14.8226 51.8577 17.8499C51.8577 26.7577 42.0795 34.0565 29.6508 34.707C32.5301 32.8921 34.6705 26.6119 34.6705 19.1502ZM55.5938 18.4998C55.5938 8.53254 43.1901 0.451172 27.8883 0.451172C12.587 0.451172 0.182865 8.53254 0.182865 18.4998C0.182865 28.4671 12.5872 36.5487 27.8883 36.5487C43.1901 36.5487 55.5938 28.4669 55.5938 18.4998ZM21.4893 13.7842C15.7409 12.8849 11.7172 10.8214 11.7172 8.42012C11.7172 5.19723 18.9581 2.58761 27.8883 2.58761C36.8192 2.58761 44.0594 5.19745 44.0594 8.42012C44.0594 10.8214 40.0364 12.8849 34.2873 13.7842C33.3548 7.537 30.8416 3.05596 27.8883 3.05596C24.9344 3.05596 22.4218 7.53678 21.4893 13.7842ZM26.1257 34.7068C13.6976 34.0565 3.91801 26.7575 3.91801 17.8497C3.91801 14.8226 5.04794 11.9816 7.03704 9.50042C7.19865 13.5911 13.0358 17.0704 21.1158 18.3384C21.1158 18.3384 21.1057 18.8762 21.1057 19.15C21.1057 26.6117 23.2477 32.8919 26.1257 34.7068ZM24.0484 14.0896C24.6619 10.0827 26.1497 7.25418 27.8883 7.25418C29.6269 7.25418 31.1145 10.0827 31.7287 14.0896C29.1337 14.3027 26.5767 14.3061 24.0484 14.0896ZM32.0282 18.6648C31.9267 24.4671 30.113 29.0953 27.8883 29.0953C25.6645 29.0953 23.8504 24.4674 23.7476 18.6648C26.59 18.9118 29.3648 18.9116 32.0282 18.6648Z" fill="#F2F2F2"/>
</g>
<defs>
<clipPath id="clip0_498_23679">
<rect width="55.619" height="36.5" fill="white" transform="matrix(-1 0 0 1 55.7178 0.25)"/>
</clipPath>
</defs>
</svg>
