<svg width="273" height="165" viewBox="0 0 273 165" fill="none" xmlns="http://www.w3.org/2000/svg">
<g clip-path="url(#clip0_298_9809)">
<path opacity="0.5" d="M272.207 -27.8635C271.894 -25.1988 271.498 -22.534 271.018 -19.8692C270.629 -17.7507 270.169 -15.6222 269.659 -13.5037C267.29 -3.89532 263.865 5.42146 259.446 14.2766C257.871 17.5118 256.095 20.6456 254.13 23.66C248.548 32.3568 241.366 39.9152 232.965 45.9342C210.881 61.813 182.791 65.7902 157.019 68.4183C154.211 68.7104 151.419 69.144 148.655 69.7174C143.088 70.8757 137.624 72.4832 132.316 74.524C101.638 86.0958 70.5001 111.408 47.3765 135.361C32.1373 151.21 13.9901 160.103 0 165V-47H272.677C273.085 -40.6198 272.927 -34.2161 272.207 -27.8635Z" fill="#FFF3D5"/>
<path opacity="0.5" d="M248.207 -40.8635C247.894 -38.1988 247.498 -35.534 247.018 -32.8692C246.629 -30.7507 246.169 -28.6222 245.659 -26.5037C243.29 -16.8953 239.865 -7.57854 235.446 1.27665C233.871 4.51179 232.095 7.64564 230.13 10.66C224.548 19.3568 217.366 26.9152 208.965 32.9342C186.881 48.813 158.791 52.7902 133.019 55.4183C130.211 55.7104 127.419 56.144 124.655 56.7174C119.088 57.8757 113.624 59.4832 108.316 61.524C77.6381 73.0958 46.5001 98.4079 23.3765 122.361C8.13726 138.21 -10.0099 147.103 -24 152V-60H248.677C249.085 -53.6198 248.927 -47.2161 248.207 -40.8635Z" fill="#F2D58D"/>
</g>
<defs>
<clipPath id="clip0_298_9809">
<rect width="272.897" height="212" fill="white" transform="translate(0 -47)"/>
</clipPath>
</defs>
</svg>
