<svg width="998" height="645" viewBox="0 0 998 645" fill="none" xmlns="http://www.w3.org/2000/svg">
<g clip-path="url(#clip0_298_9813)">
<path opacity="0.5" d="M998 40.3158V691H0C17.2731 661.52 77.9234 569.038 182.573 523.39C281.401 480.305 393.715 413.319 464.739 330.195C477.082 315.903 488.379 300.505 498.52 284.152C503.511 276.077 508.125 267.713 512.344 259.095C550.91 180.247 596.258 95.6293 669.76 45.4415C697.911 26.2506 728.936 13.0429 761.299 6.47165C772.622 4.04631 784.062 2.38848 795.56 1.50705C827.122 -1.24324 858.852 -0.227127 890.225 4.53853C897.137 5.62225 903.984 6.8817 910.766 8.37548C919.299 10.25 927.667 12.3882 935.871 14.7899C957.238 21.0995 978.038 29.6451 998 40.3158Z" fill="#FFE6AB"/>
<path opacity="0.5" d="M1068 146.365V701H140C156.062 675.872 212.458 597.041 309.768 558.131C401.663 521.406 506.099 464.309 572.142 393.455C583.619 381.272 594.124 368.147 603.554 354.208C608.195 347.325 612.485 340.196 616.408 332.849C652.269 265.64 694.437 193.513 762.783 150.734C788.959 134.376 817.808 123.118 847.901 117.516C858.43 115.449 869.068 114.036 879.759 113.285C909.107 110.94 938.612 111.806 967.784 115.869C974.211 116.792 980.578 117.866 986.884 119.139C994.819 120.737 1002.6 122.56 1010.23 124.607C1030.1 129.985 1049.44 137.269 1068 146.365Z" fill="#FFDE8D"/>
<path opacity="0.5" d="M1101 288.555V701H468C478.956 682.314 517.424 623.693 583.801 594.758C646.484 567.448 717.721 524.988 762.769 472.299C770.598 463.24 777.764 453.479 784.196 443.114C787.361 437.995 790.288 432.694 792.964 427.231C817.425 377.252 846.188 323.616 892.807 291.804C910.663 279.639 930.341 271.267 950.868 267.102C958.05 265.565 965.306 264.514 972.599 263.955C992.617 262.212 1012.74 262.856 1032.64 265.877C1037.03 266.564 1041.37 267.362 1045.67 268.309C1051.08 269.497 1056.39 270.852 1061.59 272.375C1075.15 276.374 1088.34 281.791 1101 288.555Z" fill="#E4C068"/>
</g>
<defs>
<clipPath id="clip0_298_9813">
<rect width="998" height="691" fill="white"/>
</clipPath>
</defs>
</svg>
