<svg width="76" height="41" viewBox="0 0 76 41" fill="none" xmlns="http://www.w3.org/2000/svg">
<path d="M17.6428 0.000199318V4.31738H21.96V0.000199318H17.6428Z" fill="#8E8E8E"/>
<path d="M35.5315 0.000197887V4.31738H39.8487V0.000197887H35.5315Z" fill="#8E8E8E"/>
<path d="M53.4202 0.000200272V4.31738H57.7373V0.000200272H53.4202Z" fill="#8E8E8E"/>
<path d="M71.3086 0.000200272V4.31738H75.6258V0.000200272H71.3086Z" fill="#8E8E8E"/>
<path d="M8.82153 17.8889V22.2061H13.1387V17.8889H8.82153Z" fill="#8E8E8E"/>
<path d="M26.7102 17.8889V22.2061H31.0274V17.8889H26.7102Z" fill="#8E8E8E"/>
<path d="M44.5989 17.8889V22.2061H48.9161V17.8889H44.5989Z" fill="#8E8E8E"/>
<path d="M62.4873 17.8889V22.2061H66.8045V17.8889H62.4873Z" fill="#8E8E8E"/>
<path d="M0 35.7775L0 40.0947H4.31718V35.7775H0Z" fill="#8E8E8E"/>
<path d="M17.8884 35.7775V40.0947H22.2056V35.7775H17.8884Z" fill="#8E8E8E"/>
<path d="M35.7773 35.7775V40.0947H40.0945V35.7775H35.7773Z" fill="#8E8E8E"/>
<path d="M53.6658 35.7775V40.0947H57.983V35.7775H53.6658Z" fill="#8E8E8E"/>
</svg>
