<svg width="76" height="41" viewBox="0 0 76 41" fill="none" xmlns="http://www.w3.org/2000/svg">
<path d="M17.6428 -4.48227e-05V4.31714H21.96V-4.48227e-05H17.6428Z" fill="#8E8E8E"/>
<path d="M35.5315 -4.62532e-05V4.31714H39.8487V-4.62532e-05H35.5315Z" fill="#8E8E8E"/>
<path d="M53.4202 -4.3869e-05V4.31714H57.7373V-4.3869e-05H53.4202Z" fill="#8E8E8E"/>
<path d="M71.3086 -4.3869e-05V4.31714H75.6258V-4.3869e-05H71.3086Z" fill="#8E8E8E"/>
<path d="M8.82153 17.8884V22.2056H13.1387V17.8884H8.82153Z" fill="#8E8E8E"/>
<path d="M26.7102 17.8884V22.2056H31.0274V17.8884H26.7102Z" fill="#8E8E8E"/>
<path d="M44.5989 17.8884V22.2056H48.9161V17.8884H44.5989Z" fill="#8E8E8E"/>
<path d="M62.4873 17.8884V22.2056H66.8045V17.8884H62.4873Z" fill="#8E8E8E"/>
<path d="M0 35.7771L0 40.0942H4.31718V35.7771H0Z" fill="#8E8E8E"/>
<path d="M17.8884 35.7771V40.0942H22.2056V35.7771H17.8884Z" fill="#8E8E8E"/>
<path d="M35.7773 35.7771V40.0942H40.0945V35.7771H35.7773Z" fill="#8E8E8E"/>
<path d="M53.6658 35.7771V40.0942H57.983V35.7771H53.6658Z" fill="#8E8E8E"/>
</svg>
