<svg width="47" height="95" viewBox="0 0 47 95" fill="none" xmlns="http://www.w3.org/2000/svg">
<g clip-path="url(#clip0_75_15545)">
<path d="M0 23.4559C0.0172906 23.5838 0.0820396 23.7003 0.181211 23.782C0.280383 23.8637 0.406612 23.9045 0.534485 23.8963C0.665923 23.9025 0.794832 23.8584 0.895281 23.7728C0.99573 23.6872 1.06027 23.5665 1.07591 23.435C1.29731 21.9023 2.00889 20.4841 3.10279 19.3952C3.68798 18.8126 4.35729 18.3225 5.08802 17.9414C5.46147 17.7546 5.8491 17.598 6.24723 17.4732C6.37211 17.43 6.49964 17.3949 6.62901 17.3683C6.95525 17.2914 7.28844 17.2145 7.42032 16.9979C7.44682 16.9535 7.46119 16.9029 7.46197 16.8511C7.45591 16.7962 7.4362 16.7437 7.40465 16.6985C7.37311 16.6533 7.33075 16.6169 7.2815 16.5925C7.17622 16.5315 7.05572 16.5024 6.93443 16.5086C6.63234 16.5279 6.33501 16.5939 6.05287 16.7043L5.90016 16.7533C5.42452 16.8969 4.96042 17.0768 4.51189 17.2914C3.67846 17.6939 2.91074 18.2218 2.23512 18.857C1.57551 19.4337 1.03775 20.1379 0.65378 20.928C0.269816 21.718 0.0474853 22.5777 0 23.4559Z" fill="#8E8E8E"/>
<path d="M5.86548 22.8828C5.88825 22.9771 5.93024 23.0655 5.9888 23.1425C6.04736 23.2195 6.12119 23.2834 6.20561 23.3301C6.41057 23.4525 6.62398 23.56 6.84421 23.6516L9.41946 24.8188C12.3626 26.1608 15.4029 27.5447 18.4432 28.8936C18.6964 28.9803 18.922 29.1336 19.0965 29.3376C19.271 29.5416 19.3882 29.7888 19.4359 30.0538C19.8176 31.9968 20.2411 33.9748 20.6437 35.8898L20.956 37.3715C21.0103 37.6393 21.0822 37.9031 21.1712 38.1613C21.2181 38.3454 21.31 38.5147 21.4385 38.6539C21.567 38.793 21.7281 38.8976 21.907 38.9581C22.1297 38.9893 22.3567 38.9655 22.5683 38.8888C22.7799 38.8121 22.9698 38.6847 23.1217 38.5178C23.2689 38.3839 23.4058 38.2391 23.5313 38.0844C24.4892 36.8963 25.5512 35.75 26.5785 34.6457C27.2727 33.9049 27.9668 33.143 28.6609 32.3742C28.7908 32.2187 28.9521 32.0928 29.134 32.0048C29.3159 31.9169 29.5143 31.8689 29.716 31.864C33.4227 31.6054 37.1988 31.3188 40.8222 31.0463L43.6821 30.8366C44.4803 30.7807 45.3063 30.7178 46.1185 30.6269C46.9306 30.5361 47.0347 30.2495 47.0208 29.928L46.5072 25.5317C46.2295 22.9387 45.9658 20.3947 45.695 17.8436C45.584 16.7602 45.4382 15.3904 45.2855 13.9016C44.7718 8.70164 43.9597 0.831751 43.7862 0.356482C43.7306 0.202719 43.6612 0.0419662 43.5849 3.0729e-05C43.5085 -0.0419048 43.3003 0.0489555 43.1129 0.139816C42.5339 0.435438 41.9751 0.769322 41.44 1.13928C41.1415 1.34197 40.8361 1.54465 40.5168 1.73336L7.04551 21.8414L6.90668 21.9253C6.63632 22.0774 6.37657 22.2478 6.12925 22.4355C6.05614 22.4868 5.99478 22.5533 5.94929 22.6304C5.90379 22.7076 5.87522 22.7936 5.86548 22.8828ZM29.3412 30.571L42.4534 4.25648L42.5367 4.07476L42.6825 4.20756C42.775 4.28965 42.8489 4.3908 42.8992 4.50415C42.9495 4.6175 42.975 4.7404 42.974 4.86455L43.3766 8.78551C43.6589 11.5533 43.9458 14.321 44.2374 17.0887C44.5567 20.1174 44.8806 23.1461 45.2091 26.1748L45.4937 28.7468C45.4937 29.0893 45.5493 29.278 45.4313 29.4457C45.3133 29.6135 45.0842 29.6135 44.7371 29.6414L36.5671 30.2635L34.5264 30.4102L30.7295 30.6898H30.5143C30.3715 30.7092 30.2279 30.7209 30.0839 30.7248C29.9002 30.7257 29.7174 30.6974 29.5425 30.6409L29.3412 30.571ZM21.081 28.3065C21.6224 27.7194 22.1222 27.0834 22.6081 26.4753C22.8094 26.2237 23.0107 25.9721 23.2189 25.7275L41.2665 3.27799L41.7593 3.65541C41.7593 3.65541 34.9359 15.7468 34.2834 16.7742C33.3255 18.6823 31.6388 22.2188 30.2852 25.0635C28.4319 28.9565 27.9529 29.9559 27.8696 30.0398C26.9603 31.0113 22.0944 36.421 22.0944 36.421V36.2602L21.8445 35.0301C21.6571 34.1425 21.4836 33.2758 21.31 32.4162C21.2545 32.1645 21.2059 31.9059 21.1573 31.6543C21.0254 30.9904 20.8935 30.2984 20.7131 29.6344C20.6446 29.4006 20.6427 29.1521 20.7078 28.9173C20.7728 28.6825 20.9021 28.4708 21.081 28.3065ZM7.89236 22.7151L40.3363 2.64197L40.4474 2.57207L40.5307 2.6839C40.7597 2.99842 26.1898 20.0382 20.1578 27.4328C19.8385 27.8312 19.6719 27.992 19.4636 27.992C19.2492 27.9677 19.0417 27.9012 18.8528 27.7963L9.68323 23.6027L8.40602 23.0645L8.22554 22.9527L8.09366 22.8619L7.89236 22.7151Z" fill="#8E8E8E"/>
</g>
<g clip-path="url(#clip1_75_15545)">
<path d="M42.7694 92.428C42.884 92.3179 43.0257 92.2402 43.18 92.2029C43.3343 92.1655 43.4957 92.1698 43.6478 92.2154C43.7282 92.2417 43.806 92.2756 43.8801 92.3166C44.7787 92.8938 45.7077 93.4406 46.6568 93.9468C46.7354 93.9851 46.8054 94.0389 46.8627 94.105C46.92 94.1711 46.9633 94.2482 46.99 94.3316C47.0045 94.3962 47.0048 94.4632 46.9908 94.5279C46.9769 94.5926 46.949 94.6534 46.9092 94.7062C46.8236 94.8086 46.7147 94.8887 46.5917 94.9398C46.4686 94.991 46.3351 95.0116 46.2024 94.9999C46.0747 94.9892 45.9508 94.9512 45.8389 94.8885C44.8292 94.362 43.8195 93.7949 42.9511 93.2178C42.8086 93.1287 42.707 92.9868 42.6684 92.8229C42.6557 92.7537 42.6582 92.6825 42.6756 92.6143C42.693 92.5461 42.725 92.4826 42.7694 92.428Z" fill="#8E8E8E"/>
<path d="M35.2264 86.6259C35.2344 86.55 35.2595 86.4768 35.2997 86.4119C35.3399 86.347 35.3942 86.2921 35.4586 86.2513C35.57 86.1804 35.695 86.1339 35.8254 86.1147C35.9559 86.0955 36.089 86.1041 36.2159 86.1399C36.3533 86.1782 36.4785 86.2514 36.5794 86.3525C37.3064 87.1018 38.0536 87.8309 38.821 88.5093C38.8813 88.558 38.9298 88.6197 38.9631 88.6898C38.9963 88.7599 39.0133 88.8367 39.0129 88.9143C39.0109 88.9872 38.9927 89.0587 38.9595 89.1235C38.9263 89.1884 38.879 89.2449 38.821 89.2889C38.6487 89.4146 38.4378 89.4755 38.2253 89.4611C38.0318 89.4495 37.8474 89.3748 37.7002 89.2484C36.9025 88.5397 36.125 87.7904 35.3779 87.0208C35.3267 86.9691 35.2869 86.9073 35.2608 86.8393C35.2348 86.7713 35.223 86.6987 35.2264 86.6259Z" fill="#8E8E8E"/>
<path d="M29.4913 79.3152C29.4866 79.2816 29.4866 79.2475 29.4913 79.2139C29.5194 79.1322 29.5645 79.0573 29.6237 78.9945C29.6829 78.9316 29.7548 78.8822 29.8346 78.8494C30.0411 78.7807 30.2642 78.7807 30.4707 78.8494C30.6488 78.8914 30.8042 79.0001 30.9049 79.1532C31.4603 80.0138 32.0358 80.8644 32.6215 81.6542C32.6693 81.7142 32.702 81.7849 32.7166 81.8602C32.7313 81.9356 32.7276 82.0134 32.7058 82.0871C32.6839 82.1607 32.6447 82.2279 32.5913 82.283C32.5379 82.3381 32.4721 82.3794 32.3993 82.4035C32.219 82.4983 32.0119 82.5289 31.8119 82.4903C31.612 82.4517 31.431 82.3461 31.2987 82.1908C30.7232 81.3403 30.0971 80.4391 29.5721 79.5987C29.5097 79.5182 29.4807 79.4166 29.4913 79.3152Z" fill="#8E8E8E"/>
<path d="M25.281 71.3261C25.2668 71.2696 25.2668 71.2105 25.281 71.154C25.3229 71.0716 25.3828 70.9997 25.4562 70.9436C25.5296 70.8875 25.6147 70.8487 25.705 70.83C25.8764 70.7793 26.0587 70.7793 26.2301 70.83C26.3332 70.8533 26.4299 70.899 26.5137 70.9637C26.5974 71.0284 26.666 71.1106 26.7148 71.2046C27.0884 72.0754 27.5023 72.9867 27.9466 73.9081C27.9738 73.9668 27.9878 74.0308 27.9878 74.0955C27.9878 74.1602 27.9738 74.2241 27.9466 74.2828C27.9079 74.3659 27.8518 74.4397 27.7821 74.4991C27.7124 74.5585 27.6308 74.6022 27.5427 74.6271C27.4299 74.6692 27.3094 74.6864 27.1893 74.6777C27.0522 74.6757 26.918 74.6383 26.7994 74.5692C26.6809 74.5 26.5822 74.4014 26.5128 74.2828C26.0786 73.3917 25.6546 72.4703 25.2507 71.5286C25.2413 71.4596 25.2518 71.3893 25.281 71.3261Z" fill="#8E8E8E"/>
<path d="M22.3728 62.8815C22.3759 62.8053 22.4004 62.7316 22.4435 62.6688C22.4988 62.5851 22.5718 62.5144 22.6573 62.462C22.7428 62.4095 22.8387 62.3764 22.9382 62.3651C23.0774 62.3295 23.2232 62.3295 23.3623 62.3651C23.4779 62.3887 23.5853 62.4423 23.6739 62.5205C23.7624 62.5986 23.8291 62.6986 23.8672 62.8106C24.1196 63.7523 24.4023 64.6939 24.6952 65.6255C24.7202 65.683 24.7331 65.745 24.7331 65.8077C24.7331 65.8705 24.7202 65.9325 24.6952 65.99C24.6416 66.072 24.5718 66.1422 24.4902 66.1961C24.4086 66.2501 24.3169 66.2868 24.2206 66.3039C24.1337 66.3186 24.045 66.3186 23.9581 66.3039C23.8088 66.3049 23.6627 66.2611 23.5385 66.1781C23.4144 66.0951 23.3178 65.9767 23.2614 65.8381C22.9685 64.9471 22.6858 63.9851 22.4132 62.9827C22.3926 62.9523 22.3788 62.9178 22.3728 62.8815Z" fill="#8E8E8E"/>
<path d="M20.7371 53.9914C20.8725 53.833 21.0648 53.7347 21.2722 53.718C21.3895 53.7014 21.5084 53.7014 21.6256 53.718C21.7514 53.7428 21.8672 53.8039 21.9587 53.8939C22.0502 53.9839 22.1134 54.0987 22.1406 54.2243C22.2719 55.1761 22.4233 56.138 22.595 57.1C22.607 57.1605 22.605 57.223 22.5893 57.2827C22.5735 57.3423 22.5444 57.3976 22.5041 57.4442C22.4383 57.525 22.3571 57.5917 22.2652 57.6404C22.1732 57.6891 22.0725 57.7188 21.9689 57.7278H21.7973C21.6395 57.7248 21.4865 57.6725 21.3597 57.5781C21.233 57.4837 21.1389 57.3519 21.0905 57.2012C20.9188 56.1887 20.7573 55.1761 20.6361 54.2851C20.6336 54.1782 20.6694 54.074 20.7371 53.9914Z" fill="#8E8E8E"/>
<path d="M20 45.5567C20.0045 45.4267 20.0587 45.3034 20.1515 45.2125C20.2311 45.1382 20.325 45.081 20.4274 45.0444C20.5299 45.0078 20.6387 44.9927 20.7472 44.9998C20.8339 44.9831 20.923 44.9831 21.0097 44.9998C21.1481 45.029 21.2729 45.1035 21.3643 45.2117C21.4558 45.3199 21.5086 45.4555 21.5146 45.5972C21.5146 46.6098 21.5146 47.5413 21.5954 48.4931C21.6006 48.5567 21.5916 48.6207 21.5689 48.6803C21.5461 48.7399 21.5103 48.7936 21.4641 48.8374C21.3872 48.9096 21.2967 48.9657 21.1978 49.0022C21.099 49.0387 20.9938 49.055 20.8886 49.05H20.7977C20.6277 49.055 20.4617 48.9983 20.33 48.8905C20.1983 48.7826 20.1099 48.6307 20.0808 48.4628C20 47.4907 20 46.5085 20 45.5567Z" fill="#8E8E8E"/>
</g>
<defs>
<clipPath id="clip0_75_15545">
<rect width="47" height="39" fill="white"/>
</clipPath>
<clipPath id="clip1_75_15545">
<rect width="27" height="50" fill="white" transform="translate(20 45)"/>
</clipPath>
</defs>
</svg>
