<svg width="37" height="37" viewBox="0 0 37 37" fill="none" xmlns="http://www.w3.org/2000/svg">
<g clip-path="url(#clip0_307_10418)">
<path d="M36.1979 35.3838L31.0103 22.8255C30.9287 22.628 30.7373 22.4994 30.5251 22.4994H5.96335C5.75107 22.4994 5.55961 22.6281 5.47812 22.8255L0.290393 35.3838C0.222823 35.5472 0.240823 35.7339 0.338417 35.8811C0.43594 36.0284 0.599979 36.1169 0.77569 36.1169H35.7127C35.8883 36.1169 36.0525 36.0283 36.15 35.8811C36.2475 35.7339 36.2654 35.5472 36.1979 35.3838Z" fill="#A8EEFC"/>
<path d="M34.0392 36.1169H35.7126C35.8883 36.1169 36.0524 36.0283 36.1499 35.8811C36.2474 35.7339 36.2654 35.5472 36.1979 35.3838L31.0103 22.8255C30.9287 22.628 30.7373 22.4994 30.5251 22.4994H28.4141L34.0392 36.1169Z" fill="#7EE5F2"/>
<path d="M8.90433 27.2357L10.6944 22.4877H5.93011C5.71784 22.4877 5.52637 22.6164 5.44488 22.8137L3.61816 27.2357H8.90433Z" fill="#4CE166"/>
<path d="M30.4918 22.4877H13.949L18.774 26.6951H32.5805L30.9771 22.8138C30.8955 22.6164 30.7041 22.4877 30.4918 22.4877Z" fill="#4CE166"/>
<path d="M32.7043 26.9951L32.8038 27.2357L32.7043 26.9951Z" fill="#4CE166"/>
<path d="M34.1756 30.5571L32.5803 26.6951H18.7738L13.9488 22.4877H10.7121H10.3002L8.55362 26.6941H3.84191L2.78356 29.256L2.24609 30.5571H6.9628L4.6711 36.1051H8.95869L12.6395 27.0928L23.2543 36.1051H29.5212L23.1773 30.5571H34.1756Z" fill="#FFDB56"/>
<path d="M18.2108 0.116852C11.9508 0.116852 6.85791 5.24805 6.85791 11.5551C6.85791 13.7295 7.44516 16.0364 8.60356 18.4117C9.52015 20.2914 10.7956 22.2199 12.3941 24.1435C15.1062 27.4071 17.7767 29.5023 17.8892 29.59C17.9839 29.6639 18.0974 29.7007 18.2108 29.7007C18.3243 29.7007 18.4378 29.6638 18.5325 29.59C18.6449 29.5023 21.3154 27.4071 24.0276 24.1435C25.6262 22.2199 26.9016 20.2914 27.8181 18.4117C28.9765 16.0363 29.5638 13.7295 29.5638 11.5551C29.5638 5.24805 24.4709 0.116852 18.2108 0.116852ZM18.2108 7.20421C20.5958 7.20421 22.5293 9.15222 22.5293 11.5551C22.5293 13.9581 20.5958 15.9061 18.2108 15.9061C15.8258 15.9061 13.8924 13.9581 13.8924 11.5551C13.8924 9.15222 15.8258 7.20421 18.2108 7.20421Z" fill="#FF4A4A"/>
<path d="M18.2109 0.116852C17.8373 0.116852 17.4679 0.135696 17.1035 0.171344C22.8458 0.733985 27.3491 5.62443 27.3491 11.5551C27.3491 13.7295 26.7619 16.0364 25.6035 18.4117C24.6869 20.2914 23.4115 22.2199 21.8129 24.1435C19.9529 26.3818 18.1126 28.0702 17.1035 28.9386C17.5658 29.3365 17.8539 29.5625 17.8891 29.59C17.9839 29.6639 18.0973 29.7006 18.2108 29.7006C18.3243 29.7006 18.4378 29.6637 18.5325 29.59C18.6448 29.5023 21.3154 27.407 24.0275 24.1435C25.6262 22.2198 26.9016 20.2913 27.8181 18.4116C28.9765 16.0362 29.5637 13.7294 29.5637 11.5551C29.5638 5.24805 24.4709 0.116852 18.2109 0.116852Z" fill="#E7343F"/>
<path d="M8.95874 36.1051H23.2544L12.6396 27.0928L8.95874 36.1051Z" fill="#4CE166"/>
<path d="M30.1189 26.6951L31.7142 30.5571H34.1757L32.5805 26.6951H30.1189Z" fill="#FFBB24"/>
<path d="M30.1188 26.6951H32.5804L30.9771 22.8138C30.8955 22.6164 30.7041 22.4878 30.4919 22.4878H28.3809L30.1188 26.6951Z" fill="#44C868"/>
</g>
<defs>
<clipPath id="clip0_307_10418">
<rect width="36" height="36" fill="white" transform="translate(0.244141 0.116852)"/>
</clipPath>
</defs>
</svg>
