<svg width="92" height="112" viewBox="0 0 92 112" fill="none" xmlns="http://www.w3.org/2000/svg">
<g clip-path="url(#clip0_75_15544)">
<path d="M83.5322 22.5212C83.5909 20.3278 82.9977 18.1663 81.8276 16.3101C80.6576 14.4539 78.9633 12.9865 76.9591 12.0934C74.9549 11.2003 72.7309 10.9217 70.5683 11.2929C68.4057 11.6641 66.4019 12.6683 64.8102 14.1786C63.2185 15.6889 62.1105 17.6373 61.6264 19.7774C61.1423 21.9175 61.3038 24.1531 62.0905 26.2014C62.8772 28.2497 64.2537 30.0187 66.046 31.2845C67.8382 32.5503 69.9657 33.256 72.1591 33.3125H72.4406C75.331 33.3136 78.1076 32.1863 80.1793 30.1707C82.2509 28.1552 83.4539 25.4105 83.5322 22.5212ZM72.2717 30.9666C70.5421 30.9214 68.8647 30.3641 67.4518 29.3653C66.0389 28.3665 64.9541 26.9711 64.3345 25.3556C63.715 23.74 63.5885 21.977 63.9712 20.2896C64.3539 18.6022 65.2285 17.0663 66.4844 15.8761C67.7403 14.6859 69.321 13.895 71.0265 13.6034C72.732 13.3118 74.4856 13.5327 76.0656 14.238C77.6455 14.9434 78.9807 16.1016 79.9023 17.566C80.8238 19.0305 81.2902 20.7353 81.2426 22.4649C81.1642 24.7815 80.1694 26.9723 78.4768 28.5558C76.7841 30.1394 74.5321 30.9862 72.2154 30.9103L72.2717 30.9666Z" fill="#8E8E8E"/>
<path d="M85.6907 8.14529C83.7055 6.25536 81.338 4.81332 78.7479 3.91651C76.1578 3.0197 73.4055 2.68899 70.6767 2.94671C66.3352 3.33344 62.2514 5.17471 59.087 8.17221C55.9226 11.1697 53.8629 15.1478 53.2417 19.4621C52.6473 23.6084 53.432 27.8353 55.4751 31.492C58.3743 36.5242 60.9688 41.7259 63.2448 47.069L68.1056 59.0051C68.3672 59.6924 68.8371 60.2807 69.4495 60.6878C70.0619 61.095 70.7862 61.3006 71.5212 61.2759C72.2089 61.2826 72.8837 61.0893 73.4635 60.7194C74.0432 60.3496 74.503 59.8192 74.7868 59.1928L77.3204 53.7314C80.577 46.4699 84.3398 39.4461 88.5808 32.7119C91.0574 28.9285 92.1249 24.3947 91.5965 19.9038C91.0682 15.4129 88.9777 11.2507 85.6907 8.14529ZM72.666 58.1793C72.5726 58.4074 72.4102 58.6005 72.2016 58.7318C71.9929 58.863 71.7485 58.9257 71.5025 58.9112C71.2535 58.9147 71.0096 58.8408 70.8045 58.6995C70.5994 58.5583 70.4432 58.3569 70.3576 58.123L65.4969 46.1869C63.1809 40.7483 60.5425 35.4528 57.5958 30.3284C55.8423 27.1094 55.1836 23.4074 55.719 19.7811C56.2625 16.0036 58.0611 12.5188 60.8253 9.88733C63.5894 7.25591 67.1585 5.63094 70.9582 5.27387C71.4462 5.27387 71.9529 5.27387 72.4408 5.27387H72.8913C77.0922 5.34011 81.1134 6.98882 84.1517 9.89067C87.0565 12.6113 88.9074 16.2703 89.3778 20.2223C89.8482 24.1743 88.9079 28.1655 86.7229 31.492C82.4112 38.2951 78.5856 45.3944 75.2747 52.7368L72.666 58.1793Z" fill="#8E8E8E"/>
<path d="M49.0002 12.3678C49.0454 12.574 49.1679 12.7549 49.3424 12.8736C49.5169 12.9923 49.7302 13.0396 49.9386 13.0059C50.0555 13.019 50.1739 13.0075 50.2862 12.9722C50.3984 12.9368 50.5021 12.8784 50.5904 12.8006C50.6788 12.7229 50.7499 12.6275 50.7992 12.5207C50.8486 12.4138 50.875 12.2978 50.8769 12.1802C50.9964 9.66201 51.9318 7.25109 53.5419 5.31127C54.3987 4.29196 55.3973 3.40082 56.5072 2.66506C57.1085 2.28961 57.7356 1.95722 58.3839 1.67038L59.022 1.44517C59.5475 1.27626 60.0917 1.10736 60.2607 0.732009C60.2779 0.651597 60.2779 0.568444 60.2607 0.488032C60.246 0.405532 60.2131 0.327339 60.1644 0.259156C60.1157 0.190974 60.0524 0.134522 59.9791 0.0939157C59.7894 0.0370541 59.5871 0.0370541 59.3973 0.0939157C58.9089 0.175499 58.4348 0.327205 57.9898 0.544334L57.7458 0.563102C56.9902 0.855242 56.2617 1.2132 55.5688 1.63285C54.2603 2.40679 53.077 3.37497 52.0593 4.50427C51.0456 5.54105 50.252 6.77213 49.7263 8.12349C49.2006 9.47485 48.9536 10.9186 49.0002 12.3678Z" fill="#8E8E8E"/>
</g>
<g clip-path="url(#clip1_75_15544)">
<path d="M67.1422 72.3419C66.9703 72.1976 66.8396 72.0103 66.7636 71.7991C66.6875 71.5879 66.6687 71.3603 66.7092 71.1395C66.7338 71.0224 66.7693 70.9079 66.8155 70.7975C67.4866 69.4456 68.1105 68.0559 68.6745 66.644C68.716 66.5276 68.7806 66.4209 68.8646 66.3302C68.9485 66.2396 69.0499 66.1669 69.1627 66.1166C69.251 66.0863 69.3449 66.0757 69.4377 66.0854C69.5306 66.0951 69.6202 66.1249 69.7004 66.1727C69.857 66.2774 69.9861 66.4182 70.0766 66.5834C70.1672 66.7486 70.2166 66.9331 70.2206 67.1215C70.2252 67.3026 70.191 67.4827 70.1203 67.6496C69.5372 69.1498 68.8973 70.6562 68.2216 71.9654C68.1186 72.1794 67.9352 72.3441 67.7114 72.4234C67.6163 72.4518 67.5161 72.4593 67.4178 72.4452C67.3196 72.4312 67.2255 72.3959 67.1422 72.3419Z" fill="#8E8E8E"/>
<path d="M60.1666 83.8349C60.0589 83.8353 59.9525 83.8113 59.8553 83.7646C59.7582 83.718 59.6729 83.6501 59.6057 83.5658C59.4893 83.4201 59.4049 83.2515 59.3579 83.071C59.311 82.8905 59.3026 82.7021 59.3332 82.5182C59.3658 82.3191 59.4493 82.1319 59.5755 81.9746C60.5143 80.8377 61.4216 79.6755 62.2549 78.4928C62.3139 78.4006 62.393 78.3228 62.4862 78.2654C62.5794 78.208 62.6843 78.1723 62.7932 78.161C62.8957 78.1525 62.9988 78.1672 63.0948 78.204C63.1908 78.2407 63.2773 78.2986 63.348 78.3733C63.5506 78.5964 63.6684 78.8835 63.6808 79.1845C63.6943 79.4583 63.6179 79.7289 63.4633 79.9553C62.5922 81.1853 61.6611 82.3931 60.697 83.5615C60.6323 83.6413 60.5518 83.7067 60.4605 83.7538C60.3692 83.8009 60.2691 83.8285 60.1666 83.8349Z" fill="#8E8E8E"/>
<path d="M50.7982 93.0179C50.7518 93.0296 50.7041 93.0348 50.6563 93.0334C50.5373 93.0064 50.4255 92.9544 50.3283 92.8808C50.2311 92.8072 50.1507 92.7137 50.0925 92.6065C49.9644 92.3268 49.9301 92.0131 49.9948 91.7122C50.0263 91.4554 50.1548 91.2204 50.3539 91.0553C51.4753 90.1427 52.5793 89.2032 53.5966 88.2589C53.6733 88.1825 53.7675 88.1257 53.8709 88.0935C53.9743 88.0614 54.084 88.0547 54.1906 88.0741C54.2971 88.0935 54.3974 88.1384 54.4829 88.205C54.5683 88.2716 54.6363 88.3579 54.6812 88.4565C54.8419 88.6955 54.9166 88.982 54.8932 89.269C54.8697 89.556 54.7495 89.8266 54.5522 90.0364C53.4481 90.9758 52.2809 91.994 51.1833 92.8609C51.08 92.961 50.942 93.0172 50.7982 93.0179Z" fill="#8E8E8E"/>
<path d="M40.2446 100.161C40.1676 100.189 40.0847 100.198 40.0033 100.187C39.8813 100.141 39.7713 100.068 39.6814 99.9731C39.5915 99.8785 39.524 99.7649 39.4839 99.6407C39.3866 99.4075 39.3586 99.1512 39.4033 98.9025C39.4202 98.754 39.4693 98.611 39.5471 98.4834C39.625 98.3558 39.7297 98.2467 39.854 98.1638C41.0175 97.5051 42.2315 96.7835 43.4551 96.0178C43.5332 95.9706 43.6207 95.9411 43.7114 95.9312C43.8021 95.9213 43.8938 95.9312 43.9803 95.9604C44.1028 96.002 44.2149 96.0696 44.3089 96.1585C44.4029 96.2474 44.4766 96.3555 44.525 96.4755C44.6014 96.6276 44.6441 96.7944 44.6503 96.9646C44.6686 97.1576 44.6368 97.3521 44.558 97.5293C44.4793 97.7065 44.3561 97.8604 44.2006 97.9762C43.018 98.7231 41.7914 99.4604 40.5332 100.172C40.4379 100.196 40.3377 100.192 40.2446 100.161Z" fill="#8E8E8E"/>
<path d="M28.8522 105.543C28.745 105.55 28.6379 105.527 28.5432 105.476C28.4173 105.411 28.3071 105.319 28.2204 105.207C28.1337 105.095 28.0726 104.965 28.0414 104.827C27.9701 104.637 27.9477 104.432 27.9762 104.231C27.9917 104.065 28.0503 103.905 28.1462 103.769C28.2422 103.632 28.3722 103.523 28.5233 103.453C29.8047 102.954 31.0815 102.412 32.3425 101.857C32.4193 101.813 32.5043 101.786 32.5922 101.776C32.6801 101.767 32.7691 101.775 32.8535 101.802C32.9767 101.864 33.0858 101.952 33.174 102.058C33.2622 102.165 33.3277 102.288 33.3665 102.421C33.4005 102.541 33.4141 102.665 33.4068 102.79C33.4312 102.999 33.3922 103.212 33.2949 103.399C33.1976 103.586 33.0464 103.74 32.8609 103.841C31.6566 104.389 30.3515 104.934 28.988 105.47C28.9485 105.504 28.9022 105.529 28.8522 105.543Z" fill="#8E8E8E"/>
<path d="M16.6396 109.204C16.3967 109.038 16.2294 108.783 16.1741 108.494C16.1328 108.332 16.1146 108.164 16.1199 107.997C16.1352 107.817 16.2032 107.644 16.3152 107.502C16.4273 107.36 16.5786 107.253 16.7505 107.196C18.0648 106.865 19.3901 106.505 20.7123 106.116C20.7953 106.09 20.8832 106.083 20.9693 106.096C21.0554 106.109 21.1373 106.142 21.2089 106.191C21.3322 106.271 21.4382 106.375 21.5206 106.497C21.603 106.619 21.6601 106.756 21.6886 106.9L21.715 107.142C21.7351 107.364 21.6852 107.587 21.5724 107.78C21.4595 107.972 21.2892 108.125 21.0854 108.216C19.6922 108.612 18.2974 108.995 17.0668 109.301C16.9174 109.321 16.7658 109.287 16.6396 109.204Z" fill="#8E8E8E"/>
<path d="M4.92794 111.533C4.74498 111.546 4.56382 111.489 4.42202 111.372C4.30564 111.272 4.21105 111.149 4.14404 111.01C4.07704 110.872 4.03905 110.721 4.03241 110.567C3.9957 110.448 3.98201 110.323 3.99208 110.198C4.01167 109.999 4.09703 109.813 4.23466 109.667C4.37229 109.522 4.55435 109.427 4.75208 109.397C6.17164 109.242 7.47765 109.099 8.79963 108.84C8.88796 108.823 8.97902 108.826 9.06606 108.849C9.1531 108.871 9.23389 108.913 9.30245 108.972C9.41554 109.069 9.50802 109.187 9.57441 109.321C9.6408 109.454 9.67975 109.6 9.68896 109.748L9.70292 109.876C9.73596 110.114 9.68204 110.356 9.55104 110.558C9.42004 110.76 9.22074 110.907 8.98969 110.974C7.63932 111.236 6.26233 111.387 4.92794 111.533Z" fill="#8E8E8E"/>
</g>
<defs>
<clipPath id="clip0_75_15544">
<rect width="42.7335" height="61.2757" fill="white" transform="translate(49)"/>
</clipPath>
<clipPath id="clip1_75_15544">
<rect width="38.1851" height="70.5154" fill="white" transform="translate(4.14722 111.618) rotate(-96.2353)"/>
</clipPath>
</defs>
</svg>
