<svg xmlns="http://www.w3.org/2000/svg" width="37" height="37" fill="none"><g clip-path="url(#a)"><path fill="url(#b)" d="M31.975 33.126H4.513a2.65 2.65 0 0 1-2.65-2.65V7.607a2.65 2.65 0 0 1 2.65-2.65h27.462a2.65 2.65 0 0 1 2.65 2.65v22.867a2.65 2.65 0 0 1-2.65 2.65Z"/><path fill="url(#c)" d="M31.363 32.497H5.126a2.532 2.532 0 0 1-2.532-2.532V8.118a2.532 2.532 0 0 1 2.532-2.532h26.237a2.532 2.532 0 0 1 2.532 2.532v21.847a2.532 2.532 0 0 1-2.532 2.532Z"/><path fill="url(#d)" d="M32.85 12.355 26.244.914A1.593 1.593 0 0 0 24.067.33L3.241 12.355H32.85Z"/><path fill="url(#e)" d="M1.863 21.563h32.762v-8.678a1.983 1.983 0 0 0-1.983-1.983H3.846a1.983 1.983 0 0 0-1.983 1.983v8.678Z"/><path fill="url(#f)" d="M1.863 18.3v12.175a2.65 2.65 0 0 0 2.65 2.65h27.462a2.65 2.65 0 0 0 2.65-2.65V18.3c0-.904-.733-1.637-1.637-1.637H3.5c-.904 0-1.637.733-1.637 1.637Z"/><path fill="url(#g)" d="M29.683 12.02v21.106h2.292a2.65 2.65 0 0 0 2.65-2.65V16.962l-4.942-4.943Z"/><path fill="url(#h)" d="M27.448 36.097 4.449 33.426a2.924 2.924 0 0 1-2.586-2.904V7.41c0 .496.372.914.865.971l25.394 2.95a2.924 2.924 0 0 1 2.587 2.904v18.957a2.924 2.924 0 0 1-3.261 2.904Z"/><path fill="url(#i)" d="M27.448 31.48 4.449 28.81a2.924 2.924 0 0 1-2.586-2.905v4.617a2.924 2.924 0 0 0 2.586 2.904l22.999 2.67a2.924 2.924 0 0 0 3.26-2.903v-4.616a2.924 2.924 0 0 1-3.26 2.904Z"/><path fill="url(#j)" d="M3.925 11.013a.55.55 0 0 1-.058-.003l-1.053-.116A.53.53 0 1 1 2.93 9.84l1.052.116a.53.53 0 0 1-.057 1.056Z"/><path fill="url(#k)" d="M25.55 34.353a.551.551 0 0 1-.067-.005l-2.045-.26a.53.53 0 1 1 .134-1.05l2.045.26a.53.53 0 0 1-.066 1.055Zm2.014-.262a.53.53 0 0 1-.226-1.009c.537-.253.941-.673 1.108-1.152a.53.53 0 0 1 1 .35c-.264.756-.852 1.381-1.657 1.76a.528.528 0 0 1-.225.05Zm-6.104-.258a.552.552 0 0 1-.068-.005l-2.045-.26a.53.53 0 1 1 .134-1.05l2.045.26a.53.53 0 0 1-.066 1.055Zm-4.09-.52a.552.552 0 0 1-.068-.005l-2.046-.26a.53.53 0 1 1 .134-1.05l2.045.26a.53.53 0 0 1-.066 1.054Zm-4.092-.52a.552.552 0 0 1-.067-.005l-2.046-.26a.53.53 0 1 1 .134-1.05l2.045.26a.53.53 0 0 1-.066 1.054Zm-4.09-.521a.552.552 0 0 1-.068-.004l-2.046-.26a.53.53 0 1 1 .134-1.051l2.045.26a.53.53 0 0 1-.066 1.055Zm19.877-1.686a.53.53 0 0 1-.53-.53v-2.061a.53.53 0 1 1 1.06 0v2.062a.53.53 0 0 1-.53.53Zm0-4.124a.53.53 0 0 1-.53-.529v-2.062a.53.53 0 1 1 1.06 0v2.062a.53.53 0 0 1-.53.53Zm0-4.123a.53.53 0 0 1-.53-.53v-2.062a.53.53 0 1 1 1.06 0v2.062a.53.53 0 0 1-.53.53Zm0-4.124a.53.53 0 0 1-.53-.53v-2.062a.53.53 0 1 1 1.06 0v2.062a.53.53 0 0 1-.53.53Zm-.74-3.913a.527.527 0 0 1-.364-.145c-.393-.372-.937-.609-1.534-.667l-.014-.002a.53.53 0 1 1 .113-1.052h.01c.824.082 1.59.42 2.153.953a.53.53 0 0 1-.364.913Zm-3.904-1.036a.548.548 0 0 1-.059-.003l-2.05-.225a.53.53 0 0 1 .116-1.053l2.05.226a.53.53 0 0 1-.057 1.055Zm-4.1-.45a.548.548 0 0 1-.058-.004l-2.05-.225a.53.53 0 0 1 .116-1.053l2.05.226a.53.53 0 0 1-.057 1.056Zm-4.099-.451a.549.549 0 0 1-.058-.003l-2.05-.226a.53.53 0 0 1 .116-1.052l2.05.225a.53.53 0 0 1-.058 1.056Zm-4.099-.45a.55.55 0 0 1-.058-.004l-2.05-.225a.53.53 0 1 1 .116-1.053l2.05.226a.53.53 0 0 1-.058 1.055Zm-4.099-.451a.55.55 0 0 1-.058-.004l-2.05-.225a.53.53 0 0 1 .116-1.053l2.05.226a.53.53 0 0 1-.058 1.056Z"/><path fill="url(#l)" d="M5.091 31.75a.55.55 0 0 1-.067-.003l-1.05-.134a.53.53 0 1 1 .133-1.05l1.05.133a.53.53 0 0 1-.066 1.055Z"/><path fill="#61DB99" d="m24.542 4.06-3.388 1.843a.91.91 0 0 1-.87-1.598l3.388-1.844a.91.91 0 0 1 .87 1.598Z"/><path fill="url(#m)" d="m30.709 25.698-3.363-3.362a2.595 2.595 0 1 0-3.667 3.667l7.03 7.028v-7.333Z"/><path fill="url(#n)" d="M25.434 26.685a2.595 2.595 0 1 0 0-5.19 2.595 2.595 0 0 0 0 5.19Z"/><path fill="url(#o)" d="M25.434 25.881a1.791 1.791 0 1 0 0-3.582 1.791 1.791 0 0 0 0 3.582Z"/><path fill="url(#p)" d="M24.754 23.78a.37.37 0 1 0 0-.74.37.37 0 0 0 0 .74Z"/><path fill="url(#q)" d="M26.115 23.78a.37.37 0 1 0 0-.741.37.37 0 0 0 0 .741Z"/><path fill="url(#r)" d="M24.754 25.142a.37.37 0 1 0 0-.741.37.37 0 0 0 0 .74Z"/><path fill="url(#s)" d="M26.115 25.142a.37.37 0 1 0 0-.741.37.37 0 0 0 0 .74Z"/></g><defs><linearGradient id="k" x1="17.519" x2="17.519" y1="9.84" y2="34.353" gradientUnits="userSpaceOnUse"><stop stop-color="#FFF465"/><stop offset="1" stop-color="#FFE600"/></linearGradient><linearGradient id="b" x1="18.779" x2="18.588" y1="3.335" y2="8.943" gradientUnits="userSpaceOnUse"><stop stop-color="#FFB92D"/><stop offset="1" stop-color="#F59500"/></linearGradient><linearGradient id="d" x1="18.045" x2="18.045" y1="7.186" y2="10.459" gradientUnits="userSpaceOnUse"><stop stop-color="#A7F3CE"/><stop offset="1" stop-color="#61DB99"/></linearGradient><linearGradient id="e" x1="18.244" x2="18.244" y1="12.851" y2="22.036" gradientUnits="userSpaceOnUse"><stop stop-color="#FF4C54"/><stop offset="1" stop-color="#BE3F45"/></linearGradient><linearGradient id="f" x1="18.244" x2="18.244" y1="19.672" y2="33.857" gradientUnits="userSpaceOnUse"><stop stop-color="#FF4C54"/><stop offset="1" stop-color="#BE3F45"/></linearGradient><linearGradient id="g" x1="32.761" x2="30.371" y1="22.573" y2="22.573" gradientUnits="userSpaceOnUse"><stop stop-color="#BE3F45" stop-opacity="0"/><stop offset="1" stop-color="#BE3F45"/></linearGradient><linearGradient id="h" x1="11.386" x2="23.544" y1="20.119" y2="25.727" gradientUnits="userSpaceOnUse"><stop stop-color="#FFB92D"/><stop offset="1" stop-color="#F59500"/></linearGradient><linearGradient id="i" x1="15.898" x2="15.396" y1="32.607" y2="36.448" gradientUnits="userSpaceOnUse"><stop stop-color="#BE3F45" stop-opacity="0"/><stop offset="1" stop-color="#BE3F45"/></linearGradient><linearGradient id="j" x1="3.398" x2="3.398" y1="9.839" y2="34.404" gradientUnits="userSpaceOnUse"><stop stop-color="#FFF465"/><stop offset="1" stop-color="#FFE600"/></linearGradient><linearGradient id="c" x1="19.697" x2="19.176" y1="7.058" y2="11.355" gradientUnits="userSpaceOnUse"><stop stop-color="#FFB92D"/><stop offset="1" stop-color="#F59500"/></linearGradient><linearGradient id="l" x1="4.565" x2="4.565" y1="9.838" y2="34.402" gradientUnits="userSpaceOnUse"><stop stop-color="#FFF465"/><stop offset="1" stop-color="#FFE600"/></linearGradient><linearGradient id="m" x1="28.898" x2="21.625" y1="27.555" y2="20.282" gradientUnits="userSpaceOnUse"><stop stop-color="#BE3F45" stop-opacity="0"/><stop offset="1" stop-color="#BE3F45"/></linearGradient><linearGradient id="n" x1="25.434" x2="25.434" y1="22.461" y2="26.214" gradientUnits="userSpaceOnUse"><stop stop-color="#FF4C54"/><stop offset="1" stop-color="#BE3F45"/></linearGradient><linearGradient id="o" x1="25.434" x2="25.434" y1="25.215" y2="22.625" gradientUnits="userSpaceOnUse"><stop stop-color="#FF4C54"/><stop offset="1" stop-color="#BE3F45"/></linearGradient><linearGradient id="p" x1="21.241" x2="21.982" y1="7.897" y2="11.17" gradientUnits="userSpaceOnUse"><stop stop-color="#A7F3CE"/><stop offset="1" stop-color="#61DB99"/></linearGradient><linearGradient id="q" x1="22.602" x2="23.343" y1="7.897" y2="11.17" gradientUnits="userSpaceOnUse"><stop stop-color="#A7F3CE"/><stop offset="1" stop-color="#61DB99"/></linearGradient><linearGradient id="r" x1="20.947" x2="21.689" y1="7.963" y2="11.236" gradientUnits="userSpaceOnUse"><stop stop-color="#A7F3CE"/><stop offset="1" stop-color="#61DB99"/></linearGradient><linearGradient id="s" x1="22.308" x2="23.049" y1="7.964" y2="11.237" gradientUnits="userSpaceOnUse"><stop stop-color="#A7F3CE"/><stop offset="1" stop-color="#61DB99"/></linearGradient><clipPath id="a"><path fill="#fff" d="M.244.117h36v36h-36z"/></clipPath></defs></svg>