<svg width="37" height="37" viewBox="0 0 37 37" fill="none" xmlns="http://www.w3.org/2000/svg">
<g clip-path="url(#clip0_307_10379)">
<path d="M31.1014 15.0097H27.5838L27.1471 13.8668L26.8386 13.0666L26.5922 12.4274L25.85 10.5011L25.3586 9.22148L25.05 8.42209L24.6379 7.35318L29.9694 5.30156C30.8556 4.96451 31.85 5.40452 32.187 6.29012L33.8266 10.553C32.9471 10.8959 32.5065 11.8839 32.8436 12.7703C33.1008 13.4497 33.7529 13.8674 34.4379 13.8674L35.0609 13.753L35.7295 15.4994L31.1014 15.0097Z" fill="#F6BB42"/>
<path d="M30.5583 16.6629C30.4436 16.6629 30.3351 16.5937 30.2916 16.4799L27.1202 8.23878C27.0636 8.09146 27.1367 7.92573 27.284 7.86964C27.4339 7.81244 27.5974 7.8861 27.6532 8.0337L30.8248 16.2748C30.8814 16.4221 30.808 16.5878 30.6607 16.6439C30.6269 16.657 30.5921 16.6629 30.5583 16.6629Z" fill="#EDAB37"/>
<path d="M31.6377 16.2896C31.5228 16.2896 31.4142 16.2198 31.371 16.1068L29.2114 10.4952C29.155 10.3479 29.2281 10.1827 29.3755 10.1261C29.5247 10.0703 29.6885 10.1428 29.7446 10.2901L31.9039 15.9017C31.9606 16.049 31.8875 16.2142 31.7401 16.2709C31.7069 16.2834 31.6721 16.2896 31.6377 16.2896Z" fill="#EDAB37"/>
<path d="M28.8156 31.0103H1.95843C1.00977 31.0103 0.244141 30.2444 0.244141 29.296V24.7246C1.1928 24.7246 1.95843 23.9587 1.95843 23.0103C1.95843 22.0616 1.1928 21.296 0.244141 21.296V16.7246C0.244141 15.7759 1.00977 15.0103 1.95843 15.0103H28.8156V31.0103Z" fill="#AC92EC"/>
<path d="M28.8157 29.296V15.0103H34.53C35.4786 15.0103 36.2442 15.7759 36.2442 16.7246V21.296C35.2956 21.296 34.53 22.0616 34.53 23.0103C34.53 23.9587 35.2956 24.7246 36.2442 24.7246V29.296C36.2442 30.2444 35.4786 31.0103 34.53 31.0103H28.8157V29.296Z" fill="#FFCE54"/>
<path d="M7.70117 15.0097H4.72656L24.6378 7.35234L25.0499 8.42154L25.3585 9.22092L25.8504 10.5011L26.5921 12.4274L26.8384 13.0666L27.5837 15.0097H7.70117Z" fill="#967ADC"/>
<path d="M28.8155 17.2954C28.6579 17.2954 28.5298 17.1674 28.5298 17.0097V16.1526C28.5298 15.9946 28.6579 15.8669 28.8155 15.8669C28.9731 15.8669 29.1012 15.9946 29.1012 16.1526V17.0097C29.1012 17.1679 28.9731 17.2954 28.8155 17.2954Z" fill="#AC92EC"/>
<path d="M28.8155 27.5817C28.6579 27.5817 28.5298 27.4536 28.5298 27.296V25.5817C28.5298 25.4238 28.6579 25.296 28.8155 25.296C28.9731 25.296 29.1012 25.4238 29.1012 25.5817V27.296C29.1012 27.4536 28.9731 27.5817 28.8155 27.5817ZM28.8155 24.1531C28.6579 24.1531 28.5298 24.0251 28.5298 23.8674V22.1531C28.5298 21.9952 28.6579 21.8674 28.8155 21.8674C28.9731 21.8674 29.1012 21.9952 29.1012 22.1531V23.8674C29.1012 24.0251 28.9731 24.1531 28.8155 24.1531ZM28.8155 20.7246C28.6579 20.7246 28.5298 20.5965 28.5298 20.4388V18.7246C28.5298 18.5661 28.6579 18.4388 28.8155 18.4388C28.9731 18.4388 29.1012 18.5666 29.1012 18.7246V20.4388C29.1012 20.5965 28.9731 20.7246 28.8155 20.7246Z" fill="#AC92EC"/>
<path d="M28.8155 30.1531C28.6579 30.1531 28.5298 30.0251 28.5298 29.8674V29.0103C28.5298 28.8523 28.6579 28.7245 28.8155 28.7245C28.9731 28.7245 29.1012 28.8523 29.1012 29.0103V29.8674C29.1012 30.0251 28.9731 30.1531 28.8155 30.1531Z" fill="#AC92EC"/>
<path d="M31.1014 29.5817C30.9437 29.5817 30.8157 29.4536 30.8157 29.296V16.7246C30.8157 16.5666 30.9437 16.4388 31.1014 16.4388C31.259 16.4388 31.3871 16.5666 31.3871 16.7246V29.296C31.3871 29.4536 31.259 29.5817 31.1014 29.5817Z" fill="#F6BB42"/>
<path d="M32.2442 26.7245C32.0866 26.7245 31.9585 26.5965 31.9585 26.4388V19.5817C31.9585 19.4238 32.0866 19.296 32.2442 19.296C32.4019 19.296 32.5299 19.4238 32.5299 19.5817V26.4388C32.5299 26.5965 32.4019 26.7245 32.2442 26.7245Z" fill="#F6BB42"/>
<path d="M8.54698 28.4388H8.5414C8.38431 28.4388 8.25903 28.5666 8.25903 28.7246C8.25903 28.8822 8.38989 29.0103 8.54754 29.0103C8.7049 29.0103 8.83325 28.8822 8.83325 28.7246C8.83325 28.5666 8.7049 28.4388 8.54698 28.4388Z" fill="#967ADC"/>
<path d="M12.2558 22.7245C12.0987 22.7245 11.9734 22.8523 11.9734 23.0103C11.9734 23.1679 12.1042 23.296 12.2619 23.296C12.4193 23.296 12.5476 23.1679 12.5476 23.0103C12.5476 22.8523 12.4193 22.7245 12.2619 22.7245H12.2558Z" fill="#967ADC"/>
<path d="M14.547 17.0097C14.7043 17.0097 14.8327 16.8816 14.8327 16.724C14.8327 16.5661 14.7043 16.4383 14.547 16.4383H14.5414C14.3843 16.4383 14.259 16.5661 14.259 16.724C14.259 16.8816 14.3893 17.0097 14.547 17.0097Z" fill="#967ADC"/>
<path d="M24.8326 18.1526C24.99 18.1526 25.1183 18.0245 25.1183 17.8668C25.1183 17.7089 24.99 17.5811 24.8326 17.5811H24.827C24.67 17.5811 24.5447 17.7089 24.5447 17.8668C24.5447 18.0245 24.675 18.1526 24.8326 18.1526Z" fill="#967ADC"/>
<path d="M19.6842 23.296C19.5271 23.296 19.4019 23.4238 19.4019 23.5817C19.4019 23.7393 19.5327 23.8674 19.6904 23.8674C19.8477 23.8674 19.9761 23.7393 19.9761 23.5817C19.9761 23.4238 19.8477 23.296 19.6904 23.296H19.6842Z" fill="#967ADC"/>
<path d="M10.2613 28.4388H10.2558C10.0987 28.4388 9.97339 28.5666 9.97339 28.7246C9.97339 28.8822 10.1042 29.0103 10.2619 29.0103C10.4193 29.0103 10.5476 28.8822 10.5476 28.7246C10.5476 28.5666 10.4193 28.4388 10.2613 28.4388Z" fill="#967ADC"/>
<path d="M11.9754 28.4388H11.9699C11.8128 28.4388 11.6875 28.5666 11.6875 28.7246C11.6875 28.8822 11.8184 29.0103 11.976 29.0103C12.1334 29.0103 12.2617 28.8822 12.2617 28.7246C12.2617 28.5666 12.1334 28.4388 11.9754 28.4388Z" fill="#967ADC"/>
<path d="M13.6898 28.4388H13.6842C13.5271 28.4388 13.4019 28.5666 13.4019 28.7246C13.4019 28.8822 13.5327 29.0103 13.6904 29.0103C13.8477 29.0103 13.9761 28.8822 13.9761 28.7246C13.9761 28.5666 13.8477 28.4388 13.6898 28.4388Z" fill="#967ADC"/>
<path d="M15.4042 28.4388H15.3986C15.2415 28.4388 15.1162 28.5666 15.1162 28.7246C15.1162 28.8822 15.2471 29.0103 15.4047 29.0103C15.5621 29.0103 15.6904 28.8822 15.6904 28.7246C15.6904 28.5666 15.5621 28.4388 15.4042 28.4388Z" fill="#967ADC"/>
<path d="M17.1185 28.4388H17.1129C16.9558 28.4388 16.8306 28.5666 16.8306 28.7246C16.8306 28.8822 16.9614 29.0103 17.1191 29.0103C17.2764 29.0103 17.4048 28.8822 17.4048 28.7246C17.4048 28.5666 17.2764 28.4388 17.1185 28.4388Z" fill="#967ADC"/>
<path d="M18.8326 28.4388H18.827C18.67 28.4388 18.5447 28.5666 18.5447 28.7246C18.5447 28.8822 18.6755 29.0103 18.8332 29.0103C18.9905 29.0103 19.1189 28.8822 19.1189 28.7246C19.1189 28.5666 18.9905 28.4388 18.8326 28.4388Z" fill="#967ADC"/>
<path d="M20.547 28.4388H20.5414C20.3843 28.4388 20.259 28.5666 20.259 28.7246C20.259 28.8822 20.3899 29.0103 20.5475 29.0103C20.7049 29.0103 20.8333 28.8822 20.8333 28.7246C20.8333 28.5666 20.7049 28.4388 20.547 28.4388Z" fill="#967ADC"/>
<path d="M22.2613 28.4388H22.2558C22.0987 28.4388 21.9734 28.5666 21.9734 28.7246C21.9734 28.8822 22.1042 29.0103 22.2619 29.0103C22.4193 29.0103 22.5476 28.8822 22.5476 28.7246C22.5476 28.5666 22.4193 28.4388 22.2613 28.4388Z" fill="#967ADC"/>
<path d="M7.95853 21.8674C7.95853 22.0251 8.0866 22.1531 8.24425 22.1531C8.40189 22.1531 8.52996 22.0251 8.52996 21.8674V18.7246H9.3871C9.54475 18.7246 9.67282 18.5965 9.67282 18.4388C9.67282 18.2809 9.54475 18.1531 9.3871 18.1531H7.10139C6.94374 18.1531 6.81567 18.2809 6.81567 18.4388C6.81567 18.5965 6.94374 18.7246 7.10139 18.7246H7.95853V21.8674Z" fill="#F5F7FA"/>
<path d="M23.3871 18.1526H21.1014C20.9437 18.1526 20.8157 18.2803 20.8157 18.4383C20.8157 18.5959 20.9437 18.724 21.1014 18.724H21.9585V21.8668C21.9585 22.0245 22.0866 22.1526 22.2442 22.1526C22.4019 22.1526 22.53 22.0245 22.53 21.8668V18.724H23.3871C23.5447 18.724 23.6728 18.5959 23.6728 18.4383C23.6728 18.2803 23.5447 18.1526 23.3871 18.1526Z" fill="#F5F7FA"/>
<path d="M10.5299 22.1531C10.6875 22.1531 10.8156 22.0251 10.8156 21.8674V18.4388C10.8156 18.2809 10.6875 18.1531 10.5299 18.1531C10.3722 18.1531 10.2441 18.2809 10.2441 18.4388V21.8674C10.2441 22.0251 10.3722 22.1531 10.5299 22.1531Z" fill="#F5F7FA"/>
<path d="M15.387 22.1531C15.5447 22.1531 15.6727 22.0251 15.6727 21.8674V20.82L15.9317 20.4748L16.8561 22.0147C16.9099 22.104 17.0048 22.1531 17.1013 22.1531C17.1515 22.1531 17.2023 22.14 17.2486 22.1124C17.3837 22.0306 17.4275 21.856 17.3466 21.7198L16.3019 19.981L17.3304 18.6096C17.4247 18.4826 17.399 18.3044 17.2726 18.2095C17.1471 18.116 16.9682 18.1411 16.8728 18.2672L15.6727 19.8674V18.4388C15.6727 18.2809 15.5447 18.1531 15.387 18.1531C15.2294 18.1531 15.1013 18.2809 15.1013 18.4388V21.8674C15.1013 22.0251 15.2294 22.1531 15.387 22.1531Z" fill="#F5F7FA"/>
<path d="M13.1014 22.1531C13.7317 22.1531 14.2442 21.6406 14.2442 21.0103C14.2442 20.8523 14.1161 20.7246 13.9585 20.7246C13.8009 20.7246 13.6728 20.8523 13.6728 21.0103C13.6728 21.3256 13.4166 21.5817 13.1014 21.5817C12.7861 21.5817 12.5299 21.3256 12.5299 21.0103V19.296C12.5299 18.9804 12.7861 18.7246 13.1014 18.7246C13.4166 18.7246 13.6728 18.9804 13.6728 19.296C13.6728 19.4536 13.8009 19.5817 13.9585 19.5817C14.1161 19.5817 14.2442 19.4536 14.2442 19.296C14.2442 18.6651 13.7317 18.1531 13.1014 18.1531C12.4711 18.1531 11.9585 18.6651 11.9585 19.296V21.0103C11.9585 21.64 12.4711 22.1531 13.1014 22.1531Z" fill="#F5F7FA"/>
<path d="M18.5299 22.1531H20.2441C20.4018 22.1531 20.5299 22.0251 20.5299 21.8674C20.5299 21.7095 20.4018 21.5817 20.2441 21.5817H18.8156V20.4388H19.6727C19.8304 20.4388 19.9584 20.3108 19.9584 20.1531C19.9584 19.9952 19.8304 19.8674 19.6727 19.8674H18.8156V18.7246H20.2441C20.4018 18.7246 20.5299 18.5965 20.5299 18.4388C20.5299 18.2809 20.4018 18.1531 20.2441 18.1531H18.5299C18.3722 18.1531 18.2441 18.2809 18.2441 18.4388V21.8674C18.2441 22.0251 18.3722 22.1531 18.5299 22.1531Z" fill="#F5F7FA"/>
<path d="M22.5299 25.0103H8.24421C8.08657 25.0103 7.9585 25.1381 7.9585 25.296C7.9585 25.4536 8.08657 25.5817 8.24421 25.5817H22.5299C22.6876 25.5817 22.8156 25.4536 22.8156 25.296C22.8156 25.1381 22.6876 25.0103 22.5299 25.0103Z" fill="#967ADC"/>
<path d="M18.8156 26.4388C18.8156 26.2809 18.6876 26.1531 18.5299 26.1531H12.2442C12.0866 26.1531 11.9585 26.2809 11.9585 26.4388C11.9585 26.5965 12.0866 26.7246 12.2442 26.7246H18.5299C18.6876 26.7246 18.8156 26.5965 18.8156 26.4388Z" fill="#967ADC"/>
<path d="M25.3871 21.5817H25.1014V21.296C25.1014 21.1381 24.9733 21.0103 24.8156 21.0103C24.658 21.0103 24.5299 21.1381 24.5299 21.296V21.5817H24.2442C24.0866 21.5817 23.9585 21.7095 23.9585 21.8674C23.9585 22.0251 24.0866 22.1531 24.2442 22.1531H24.5299V22.4388C24.5299 22.5965 24.658 22.7246 24.8156 22.7246C24.9733 22.7246 25.1014 22.5965 25.1014 22.4388V22.1531H25.3871C25.5447 22.1531 25.6728 22.0251 25.6728 21.8674C25.6728 21.7095 25.5447 21.5817 25.3871 21.5817Z" fill="#967ADC"/>
<path d="M5.38707 18.7246H5.10135V18.4388C5.10135 18.2809 4.97328 18.1531 4.81564 18.1531C4.65799 18.1531 4.52992 18.2804 4.52992 18.4383V18.724H4.24421C4.08657 18.724 3.9585 18.8518 3.9585 19.0097C3.9585 19.1674 4.08657 19.2954 4.24421 19.2954H4.52992V19.5811C4.52992 19.7388 4.65799 19.8668 4.81564 19.8668C4.97328 19.8668 5.10135 19.7388 5.10135 19.5811V19.2954H5.38707C5.54471 19.2954 5.67278 19.1674 5.67278 19.0097C5.67278 18.8518 5.54471 18.7246 5.38707 18.7246Z" fill="#967ADC"/>
<path d="M25.3585 9.50664C25.2441 9.50664 25.1356 9.43716 25.0915 9.32444L24.7829 8.5245C24.7266 8.37717 24.7997 8.212 24.947 8.15535C25.0932 8.09816 25.2595 8.17182 25.3161 8.31886L25.6247 9.11825C25.6814 9.26557 25.6083 9.4313 25.4607 9.48739C25.4275 9.50106 25.3926 9.50664 25.3585 9.50664Z" fill="#967ADC"/>
<path d="M26.3439 12.0691C26.2293 12.0691 26.1213 11.9999 26.0772 11.8861L25.5836 10.604C25.527 10.4564 25.6001 10.2912 25.7474 10.2349C25.8939 10.1782 26.0593 10.2513 26.1165 10.3987L26.6104 11.681C26.667 11.8283 26.5937 11.9935 26.4463 12.0502C26.4131 12.0627 26.3777 12.0691 26.3439 12.0691Z" fill="#967ADC"/>
<path d="M27.147 14.1526C27.0326 14.1526 26.9241 14.0834 26.88 13.9695L26.5717 13.1701C26.515 13.0228 26.5881 12.8571 26.7354 12.801C26.8819 12.7432 27.0482 12.8177 27.1046 12.9645L27.4132 13.7645C27.4698 13.9118 27.3967 14.077 27.2491 14.1336C27.2162 14.1461 27.1813 14.1526 27.147 14.1526Z" fill="#967ADC"/>
</g>
<defs>
<clipPath id="clip0_307_10379">
<rect width="36" height="36" fill="white" transform="translate(0.244141 0.116852)"/>
</clipPath>
</defs>
</svg>
