<svg width="84" height="56" viewBox="0 0 84 56" fill="none" xmlns="http://www.w3.org/2000/svg">
<path d="M46.1899 21.7768C45.4384 22.3326 44.6907 22.8937 43.947 23.4598C43.8952 23.5117 43.8516 23.5564 43.8168 23.5912C43.7651 23.6259 43.7136 23.6607 43.661 23.6955C43.3975 23.9073 43.128 24.1115 42.8528 24.3079C42.6056 24.5133 42.3578 24.7179 42.1093 24.9217C41.7162 25.2496 41.3249 25.5797 40.9356 25.9121C40.572 26.2077 40.2158 26.5123 39.8673 26.8256C39.7968 26.8953 39.7275 26.9556 39.659 27.007C39.5808 27.0778 39.498 27.1514 39.4109 27.2297C39.0651 27.5495 38.7171 27.8669 38.3669 28.182C38.0118 28.5218 37.6288 28.8872 37.2207 29.2786L38.2629 30.8564C38.6192 30.4484 38.9577 30.0554 39.2809 29.6823C39.576 29.3182 39.8802 28.9614 40.1931 28.6123C40.2278 28.5775 40.2623 28.5345 40.297 28.4822L40.4015 28.3779C40.7313 28.0124 41.0616 27.6474 41.3924 27.2829C41.7143 26.9249 42.0705 26.526 42.4617 26.0819C42.687 25.8121 42.9433 25.5247 43.2299 25.2201C43.5128 24.9205 43.7998 24.6248 44.0909 24.3332C44.1257 24.2819 44.1601 24.2384 44.1949 24.2036C44.2297 24.1689 44.2657 24.1339 44.3005 24.0992C45.047 23.2987 45.7421 22.5768 46.3864 21.9337C47.0032 21.3082 47.3103 20.9868 47.3103 20.9685C47.2426 21.0034 46.8677 21.2724 46.1899 21.7768ZM33.8571 38.0122C34.0916 37.7084 34.2873 37.4345 34.4439 37.1912C34.5874 36.9485 34.7139 36.696 34.8224 36.4357C34.9474 36.2002 35.0438 35.9506 35.1095 35.6922C35.1865 35.4234 35.2521 35.1193 35.3035 34.7795V34.7544C35.3561 34.4851 35.3909 34.2278 35.408 33.9845C35.4258 33.7323 35.4427 33.4891 35.4606 33.2551V32.9169C35.4416 32.6196 35.4068 32.3235 35.3563 32.03C35.2978 31.7181 35.2241 31.4094 35.1353 31.1048C35.0661 31.1743 34.7916 31.4301 34.3144 31.8729C33.7826 32.349 33.2566 32.8316 32.7366 33.3206L32.7097 33.3462L32.6835 33.3718C32.4841 33.5546 32.2886 33.7417 32.0971 33.9329C31.907 34.0985 31.7203 34.268 31.5371 34.4414C31.267 34.6846 31.0542 34.889 30.8976 35.054C30.739 35.2037 30.5781 35.3512 30.4152 35.4963L30.3896 35.5364C30.1382 35.7616 29.8411 36.0444 29.5026 36.3829C29.1645 36.7217 28.6213 37.2659 27.8734 38.012H22.998C23.276 37.604 23.8701 36.9826 24.7843 36.1489C25.6708 35.3059 26.6656 34.4319 27.7691 33.5293C27.9171 33.4067 28.0693 33.2805 28.2252 33.1504C28.3726 33.0233 28.5249 32.9019 28.6818 32.7867C30.1242 31.587 31.4584 30.5436 32.6833 29.6569C33.7531 28.8748 34.349 28.4849 34.4695 28.4849L34.4787 28.4872L34.4971 28.5094L34.4787 28.4872C34.4287 28.4141 34.273 28.1744 34.0132 27.7669C33.7183 27.297 33.3182 26.7885 32.8134 26.241C32.6945 26.0958 32.5733 25.9525 32.4498 25.8112C32.3015 25.6719 32.1588 25.5366 32.0195 25.4057C31.2888 24.7368 30.3896 24.1059 29.32 23.5152C28.2342 22.9425 27.0999 22.4666 25.9305 22.0933C25.7622 22.0376 25.5927 21.9854 25.4223 21.9366C25.3512 21.9152 25.2795 21.8955 25.2074 21.8776C24.6593 21.508 24.0985 21.2445 23.4922 20.8529C23.9542 20.9495 24.4187 21.0613 24.8868 21.1927C25.1258 21.2458 25.3631 21.3063 25.5984 21.3741C25.8363 21.4433 26.0734 21.5259 26.3092 21.6224C27.0511 21.8522 27.7818 22.1167 28.4989 22.415C29.2014 22.7201 29.8592 23.04 30.4677 23.379C32.3178 24.3504 33.7088 25.2361 34.6394 26.0338C35.5607 26.8582 36.0288 27.2866 36.0471 27.3228C36.2115 27.158 36.925 26.6421 38.1847 25.7737C39.5513 24.8209 40.92 23.8712 42.2907 22.9243C42.3325 22.9024 42.3721 22.8766 42.409 22.8472C42.4256 22.8293 42.453 22.8112 42.4873 22.7946C43.6549 21.9918 44.8286 21.1977 46.0082 20.4125C47.1109 19.6843 47.9186 19.1515 48.4326 18.8122L48.6539 18.6561C48.7757 18.5521 48.9457 18.4404 49.1621 18.318C49.3868 18.2059 49.6615 18.098 49.983 17.9923C50.2882 17.8883 50.6172 17.8379 50.9751 17.8379C50.9751 17.9771 50.2352 19.1052 48.758 21.2262C47.0769 23.6255 45.4125 26.0365 43.765 28.459C43.6271 28.6842 43.4839 28.906 43.3355 29.1243C43.1808 29.3531 43.0285 29.5835 42.8784 29.8155C41.9178 31.2632 40.9747 32.7224 40.0492 34.1928C39.1457 35.6367 38.3978 36.9094 37.8071 38.0123H33.8571" fill="#ED2225"/>
<path d="M52.9645 33.6017C52.9584 33.615 52.9426 33.6746 52.9136 33.7811C52.8832 33.8851 52.7701 34.1963 52.5774 34.7134C52.4934 34.9429 52.4082 35.1719 52.3219 35.4004C52.0118 35.4247 51.8387 35.437 51.8025 35.437C51.615 35.437 51.3758 35.4336 51.0848 35.4249C50.9752 35.4222 50.9204 35.4065 50.9204 35.3787C50.9204 35.3674 50.9357 35.3467 50.966 35.3145C50.9713 35.3201 50.9987 35.2813 51.0482 35.1978C51.0584 35.1791 51.2084 34.9716 51.4986 34.5736C51.6103 34.4226 51.7866 34.2368 52.0275 34.0163C52.268 33.7948 52.4526 33.6496 52.5796 33.5827C52.7657 33.484 52.8702 33.4343 52.8906 33.4343C52.9498 33.4343 52.9799 33.4655 52.9799 33.5278C52.9788 33.5531 52.9736 33.578 52.9645 33.6017ZM53.1301 37.3552C53.1406 37.3035 53.1533 37.2501 53.167 37.1952C53.1749 36.9872 53.3318 36.4774 53.6386 35.6647C53.9618 34.8103 54.1728 34.2162 54.2728 33.8826C54.3729 33.549 54.423 33.2754 54.423 33.0621C54.423 32.9482 54.3929 32.8574 54.3307 32.789C54.2702 32.7225 54.1867 32.688 54.0796 32.688C53.9422 32.688 53.7252 32.7272 53.4294 32.8051C53.0476 32.9066 52.6825 33.0628 52.3454 33.2688C51.4775 33.7964 50.7163 34.5996 50.0612 35.6771C49.8379 36.0408 49.6512 36.4258 49.504 36.8264C49.356 37.2288 49.2821 37.5475 49.2821 37.7814C49.2821 37.8775 49.3031 37.9549 49.3427 38.0111C49.3836 38.0681 49.437 38.0967 49.504 38.0967C49.551 38.0967 49.6184 38.0785 49.7063 38.0423C49.8943 37.9628 50.1212 37.9079 50.387 37.8796C50.2557 37.6103 50.2173 37.1432 50.3831 36.8111L50.405 36.8354C50.4353 36.5837 50.5306 36.2577 50.6938 35.8568C50.9064 35.8307 51.1501 35.8184 51.4255 35.8184C51.6956 35.8184 51.9366 35.8307 52.1502 35.8568C51.9437 36.493 51.8149 36.9103 51.7647 37.1108C51.7155 37.3073 51.6906 37.509 51.6903 37.7115C51.6903 37.8302 51.7112 37.9246 51.755 37.9934C51.7978 38.0626 51.8556 38.0966 51.929 38.0966C51.9834 38.0966 52.0695 38.0722 52.1867 38.0225C52.2802 37.986 52.4129 37.9486 52.5848 37.91C52.757 37.8709 52.9011 37.8472 53.0189 37.8398C53.0532 37.8372 53.0831 37.8352 53.1127 37.8334C53.0828 37.6702 53.0976 37.5166 53.1301 37.3552ZM42.6339 33.1416C42.6051 33.3966 42.5426 33.6746 42.4428 33.9756C42.2949 34.4198 42.2053 34.6965 42.1745 34.8057C42.3933 34.7012 42.58 34.588 42.7326 34.4664C42.9075 34.3286 43.0466 34.1715 43.1508 33.9952C43.2539 33.819 43.3056 33.649 43.3056 33.4845C43.3056 33.3631 43.2747 33.2665 43.2103 33.1948C43.1472 33.1226 43.0624 33.0882 42.9541 33.0882C42.8799 33.0882 42.7728 33.1062 42.6339 33.1416ZM41.9466 35.5047C41.8783 35.6218 41.7447 35.9754 41.5439 36.5648C41.4368 36.955 41.3842 37.1839 41.3842 37.2575C41.3842 37.4075 41.459 37.4822 41.6068 37.4822C41.7391 37.4822 41.8783 37.4295 42.0253 37.3255C42.1707 37.22 42.3041 37.0741 42.4224 36.8874C42.6531 36.5325 42.7765 36.1558 42.7944 35.7565C42.8023 35.6047 42.7701 35.4828 42.6957 35.3903C42.6209 35.299 42.5179 35.2498 42.3876 35.2446C42.1951 35.2446 42.0485 35.3307 41.9466 35.5047ZM40.0192 37.9226C39.9714 37.849 39.9482 37.7503 39.9482 37.6254C39.9482 37.1657 40.2071 36.2547 40.7257 34.8923C41.0458 34.0467 41.2055 33.5616 41.2055 33.4368C41.2055 33.415 41.2017 33.3955 41.1951 33.3776C41.2554 33.1898 41.2659 32.9609 41.4347 32.8088C41.4526 32.8088 41.4695 32.8073 41.4874 32.806C41.5913 32.7986 41.8668 32.7692 42.3157 32.7164C42.6632 32.6773 42.9787 32.6581 43.2634 32.6581C43.6692 32.6581 43.9965 32.7396 44.2435 32.9029C44.4558 33.043 44.5629 33.2389 44.5629 33.4906C44.5629 33.8381 44.367 34.1431 43.9747 34.4041C43.9747 34.4073 43.7751 34.519 43.3779 34.7386C43.5994 34.7878 43.7677 34.8548 43.886 34.9369C44.1758 35.1379 44.3192 35.435 44.3192 35.8325C44.3192 36.1487 44.2218 36.4684 44.0277 36.7899C43.7648 37.2145 43.3956 37.5324 42.9191 37.7421C42.5991 37.8822 42.2962 37.9531 42.0108 37.9531C41.9142 37.9531 41.7072 37.9366 41.3866 37.902C41.2729 37.8887 41.1587 37.8815 41.0442 37.8802C40.8255 37.8802 40.6222 37.9137 40.4356 37.9802C40.3317 38.0164 40.2542 38.0341 40.2055 38.0341C40.1276 38.0343 40.0653 37.9972 40.0192 37.9226ZM44.9257 37.7189V37.1134V37.7189ZM46.5698 37.8633C46.5033 37.7432 46.4251 37.5235 46.3344 37.2016C46.19 36.6662 46.0796 36.1223 46.0038 35.573C45.8285 35.6926 45.6257 35.9115 45.3926 36.2291C45.1264 36.5961 44.992 36.9032 44.992 37.1556C44.992 37.233 45.0078 37.2905 45.0398 37.3267L45.13 37.8142C45.0931 37.8211 45.05 37.8273 45.0017 37.8324C44.9034 37.8441 44.8061 37.863 44.7106 37.8891C44.5923 37.9187 44.497 37.9486 44.4261 37.9792C44.3255 38.0214 44.2485 38.0428 44.1943 38.0428C44.1458 38.0428 44.1029 38.018 44.071 37.9679C44.0375 37.9187 44.0193 37.8582 44.0193 37.7851C44.0193 37.6074 44.0811 37.3796 44.2046 37.1065C44.3272 36.8325 44.4903 36.56 44.6921 36.287C44.9975 35.8754 45.4068 35.4595 45.9163 35.0389C45.9097 35.0006 45.8836 34.8588 45.8388 34.6143C45.7435 34.0841 45.6536 33.7312 45.5687 33.5564C45.5201 33.4548 45.4455 33.3678 45.3524 33.3042C45.3833 33.1405 45.255 32.9775 45.2315 32.8144L45.5116 32.8282C45.7592 32.8282 46.0154 32.7845 46.2842 32.6974C46.3665 32.6713 46.4321 32.6583 46.4825 32.6583C46.6147 32.6583 46.7278 32.7901 46.8244 33.0523C46.8783 33.203 46.948 33.4616 47.0301 33.8283C47.0702 33.9936 47.0971 34.1124 47.1129 34.1834C47.3778 34.0131 47.6106 33.8357 47.8127 33.6479C48.0133 33.4603 48.1139 33.3277 48.1139 33.2488C48.1145 33.2324 48.1109 33.2161 48.1034 33.2015C48.2261 33.1392 48.2039 32.7869 48.3492 32.7703L48.3608 32.7676C48.3777 32.7663 48.3957 32.7639 48.4139 32.7624C48.5179 32.7573 48.6592 32.7317 48.8398 32.6842C48.9221 32.661 48.989 32.6494 49.0376 32.6494C49.1572 32.6494 49.2165 32.7164 49.2165 32.8485C49.2165 33.1173 48.9424 33.4533 48.3943 33.856C47.9632 34.1753 47.5631 34.4408 47.1951 34.6529C47.3392 35.502 47.4644 36.1146 47.5644 36.4877C47.6482 36.7961 47.7223 37.0051 47.7897 37.1134C47.8204 37.1622 47.8594 37.2072 47.9041 37.2455L47.9349 37.2687C48.0558 37.3783 48.0572 37.5493 48.0572 37.7189C48.0572 37.5493 48.0558 37.3783 47.9349 37.2687C47.9796 37.3035 48.0328 37.3342 48.0915 37.36C48.1203 37.3713 48.1459 37.3822 48.1694 37.3925L48.0915 37.36L48.1899 37.7601C48.1359 37.7778 48.0675 37.7909 47.9853 37.7962C47.5616 37.8324 47.2336 37.8994 46.9995 37.996C46.9183 38.0267 46.8539 38.0425 46.8051 38.0425C46.7143 38.0426 46.6356 37.9831 46.5698 37.8633ZM55.2201 37.5871C55.213 37.4593 55.2344 37.3318 55.3062 37.2043C55.3466 36.9463 55.5423 36.3604 55.8934 35.4437C56.1425 34.7904 56.3161 34.2949 56.4149 33.959C56.5136 33.6232 56.5628 33.3535 56.5628 33.1511C56.5628 32.9066 56.4888 32.7854 56.3408 32.7854C56.2935 32.7854 56.2291 32.7998 56.1459 32.8276C56.0577 32.8564 55.9389 32.8846 55.7887 32.9129C55.64 32.9412 55.5291 32.9556 55.4565 32.9556L55.2347 32.9477C55.2412 33.2253 55.3142 33.5032 55.0689 33.7808C55.052 33.8439 55.0308 33.916 55.0047 33.9996C54.9237 34.258 54.8324 34.5131 54.7311 34.7643C54.3813 35.6568 54.1426 36.316 54.0141 36.7432C53.8863 37.1694 53.8219 37.5245 53.8219 37.8075C53.8219 37.9137 53.8438 37.9998 53.8863 38.0642C53.9299 38.1286 53.9873 38.1616 54.0598 38.1616C54.1194 38.1616 54.2042 38.1402 54.313 38.0988C54.5339 38.0106 54.8164 37.951 55.1591 37.9201C55.2056 37.9155 55.2474 37.9114 55.2838 37.9076C55.2518 37.8007 55.226 37.6933 55.2201 37.5871ZM59.5226 34.3677C59.4291 34.6508 59.3119 34.8966 59.1728 35.1054C59.0045 35.3591 58.7827 35.4856 58.5085 35.4856C58.4516 35.4856 58.3854 35.4759 58.3102 35.4582L58.3804 35.252C58.6483 34.5095 58.8107 34.0445 58.8675 33.8579C58.926 33.6636 58.9651 33.4639 58.9842 33.2619C59.0954 33.2253 59.1947 33.2072 59.2826 33.2072C59.5353 33.2072 59.6623 33.3441 59.6623 33.6178C59.6622 33.8343 59.6156 34.0841 59.5226 34.3677ZM60.6067 33.0547C60.3815 32.8751 60.0085 32.7849 59.4904 32.7849C59.2398 32.7849 59.0392 32.7919 58.8862 32.8041C58.7336 32.8176 58.3559 32.8593 57.7535 32.9288C57.6781 32.938 57.6142 32.9454 57.559 32.952C57.5624 33.1613 57.5851 33.366 57.5317 33.5119C57.5354 33.5286 57.5381 33.5468 57.5381 33.5685C57.5381 33.6517 57.5102 33.7737 57.4554 33.9341C57.4009 34.0955 57.2818 34.4099 57.0969 34.8771C56.5256 36.3187 56.2399 37.2895 56.2399 37.7912C56.2399 38.0378 56.3182 38.1614 56.4749 38.1614C56.5266 38.1614 56.6061 38.1392 56.7125 38.0954C56.8247 38.051 56.9836 38.0083 57.1911 37.9665C57.3139 37.9413 57.4379 37.9223 57.5626 37.9095C57.5717 37.6895 57.6044 37.4501 57.7113 37.2439C57.728 37.0163 57.855 36.6085 58.0965 36.015L58.12 36.0855C58.2652 36.5637 58.3609 36.8629 58.4074 36.9856C58.454 37.1074 58.5324 37.274 58.641 37.4833C58.8799 37.9358 59.1722 38.1614 59.5163 38.1614C59.7085 38.1614 59.8801 38.0954 60.0304 37.9628C60.1344 37.8693 60.2072 37.764 60.2497 37.646C59.8325 37.1626 59.1195 37.0241 58.8268 36.4676C58.7044 36.2984 58.6016 36.0908 58.5171 35.8439C58.5797 35.8485 58.6389 35.8503 58.6962 35.8503C59.0874 35.8503 59.4574 35.7681 59.8028 35.6028C60.1504 35.4376 60.4253 35.2136 60.6307 34.9303C60.8773 34.5871 61.0001 34.2307 61.0001 33.861C60.9999 33.5342 60.8689 33.2645 60.6067 33.0547Z" fill="black"/>
<path d="M30.8799 22.0497L31.0291 21.8991L31.1997 21.8195L31.4489 21.8295L32.2571 21.7795L33.5625 21.7552L33.8065 22.2615L30.8799 22.0497ZM35.2848 22.3681L34.4608 21.7112L35.5378 21.6404L36.6567 21.5607L36.9673 21.5176L36.9361 21.5607L36.619 21.8384L36.5237 21.902L35.8882 22.366L35.83 22.4079L35.2848 22.3681ZM31.8479 23.8319L31.8927 23.7872L31.9752 23.7046C31.9752 23.7046 32.1244 23.6297 32.2144 23.5927C32.305 23.5554 32.4168 23.5626 32.4168 23.5626L33.0522 23.5396L33.643 23.5105L34.4259 23.4818L34.4507 23.5396L34.4545 23.5687L34.3988 23.6296L34.2274 23.891L31.8479 23.8319Z" fill="black"/>
<path d="M30.8799 22.0497L31.0291 21.8991L31.1997 21.8195L31.4489 21.8295L32.2571 21.7795L33.5625 21.7552L33.8065 22.2615L30.8799 22.0497M35.2848 22.3681L34.4608 21.7112L35.5378 21.6404L36.6567 21.5607L36.9673 21.5176L36.9361 21.5607L36.619 21.8384L36.5237 21.902L35.8882 22.366L35.83 22.4079L35.2848 22.3681M31.8479 23.8319L31.8927 23.7872L31.9752 23.7046C31.9752 23.7046 32.1244 23.6297 32.2144 23.5927C32.305 23.5554 32.4168 23.5626 32.4168 23.5626L33.0522 23.5396L33.643 23.5105L34.4259 23.4818L34.4507 23.5396L34.4545 23.5687L34.3988 23.6296L34.2274 23.891L31.8479 23.8319" stroke="white" stroke-width="0.00800153"/>
<path d="M35.4967 22.6448L35.1694 22.8828L34.781 23.212L34.4552 23.5692L34.4512 23.54L34.2197 23.0024L33.9806 22.5747L33.8605 22.3734L33.4346 21.4903L33.794 21.251L34.4369 21.6925L35.544 22.5747L35.4967 22.6448Z" fill="black" stroke="white" stroke-width="0.00800153"/>
<path d="M40.2029 21.4313L40.3191 21.3565C40.2708 21.3882 40.2282 21.4165 40.1934 21.4395L40.2029 21.4313ZM34.1602 24.0423C34.1893 23.9753 34.2269 23.8931 34.2269 23.8931L34.3991 23.6307L34.7802 23.2122L35.1691 22.8829L35.4983 22.6437L35.8885 22.367L36.524 21.9025C36.524 21.9025 36.5587 21.8785 36.6188 21.8386L36.6165 21.8403L36.606 21.8704L36.8053 22.2397C36.8053 22.2397 37.0846 22.3488 37.2338 22.2793C37.3843 22.2088 37.5926 22.0095 37.5926 22.0095L37.8128 21.7211C37.8128 21.7211 37.7127 21.4505 37.704 21.4104C37.6935 21.3708 37.5926 21.2808 37.5234 21.2512C37.5173 21.249 37.5116 21.2464 37.5055 21.2438C37.854 21.0111 38.1759 20.7962 38.2364 20.7583C38.379 20.6684 39.3893 20.025 39.3893 20.025L40.317 19.4034C40.317 19.4034 40.7586 19.1793 40.9231 19.1193C41.0879 19.0602 41.349 19.0367 41.4686 18.9992C41.5886 18.9618 41.7767 19.0069 41.7767 19.0069L41.941 19.0818C41.941 19.0818 41.9627 19.1191 42.045 19.1265C42.1275 19.1344 42.255 19.2009 42.2768 19.2384C42.2998 19.2757 42.3516 19.3815 42.3141 19.4558C42.2768 19.5307 42.2924 19.4932 42.2628 19.6799C42.2315 19.8677 42.1649 19.9347 42.1649 19.9347C42.1649 19.9347 42.1275 19.9939 42.0448 20.1662C41.9626 20.3389 41.6563 20.5177 41.5215 20.586L34.1623 24.1241C34.151 24.1067 34.1433 24.0788 34.1602 24.0423Z" fill="black"/>
<path d="M40.2029 21.4313L40.3191 21.3565C40.2708 21.3882 40.2282 21.4165 40.1934 21.4395L40.2029 21.4313M34.1602 24.0423C34.1893 23.9753 34.2269 23.8931 34.2269 23.8931L34.3991 23.6307L34.7802 23.2122L35.1691 22.8829L35.4983 22.6437L35.8885 22.367L36.524 21.9025C36.524 21.9025 36.5587 21.8785 36.6188 21.8386L36.6165 21.8403L36.606 21.8704L36.8053 22.2397C36.8053 22.2397 37.0846 22.3488 37.2338 22.2793C37.3843 22.2088 37.5926 22.0095 37.5926 22.0095L37.8128 21.7211C37.8128 21.7211 37.7127 21.4505 37.704 21.4104C37.6935 21.3708 37.5926 21.2808 37.5234 21.2512C37.5173 21.249 37.5116 21.2464 37.5055 21.2438C37.854 21.0111 38.1759 20.7962 38.2364 20.7583C38.379 20.6684 39.3893 20.025 39.3893 20.025L40.317 19.4034C40.317 19.4034 40.7586 19.1793 40.9231 19.1193C41.0879 19.0602 41.349 19.0367 41.4686 18.9992C41.5886 18.9618 41.7767 19.0069 41.7767 19.0069L41.941 19.0818C41.941 19.0818 41.9627 19.1191 42.045 19.1265C42.1275 19.1344 42.255 19.2009 42.2768 19.2384C42.2998 19.2757 42.3516 19.3815 42.3141 19.4558C42.2768 19.5307 42.2924 19.4932 42.2628 19.6799C42.2315 19.8677 42.1649 19.9347 42.1649 19.9347C42.1649 19.9347 42.1275 19.9939 42.0448 20.1662C41.9626 20.3389 41.6563 20.5177 41.5215 20.586L34.1623 24.1241C34.151 24.1067 34.1433 24.0788 34.1602 24.0423" stroke="white" stroke-width="0.00800153"/>
<path d="M34.2125 24.1986L34.1621 24.1237L41.5228 20.585L40.2038 21.4307L40.1729 21.4567L40.0442 21.3754L38.8114 22.5234L38.8236 22.523L38.7314 22.5926L37.6251 23.106L36.8259 23.491L36.075 23.7424L35.9689 23.725L35.3703 23.8451L35.6549 23.8786L35.1503 24.0238C35.1503 24.0238 34.6817 24.1538 34.6321 24.1781C34.5817 24.2039 34.4063 24.2433 34.3524 24.2433C34.2973 24.2435 34.2125 24.1986 34.2125 24.1986Z" fill="black"/>
<path d="M34.2125 24.1986L34.1621 24.1237L41.5228 20.585L40.2038 21.4307L40.1729 21.4567L40.0442 21.3754L38.8114 22.5234L38.8236 22.523L38.7314 22.5926L37.6251 23.106L36.8259 23.491L36.075 23.7424L35.9689 23.725L35.3703 23.8451L35.6549 23.8786L35.1503 24.0238C35.1503 24.0238 34.6817 24.1538 34.6321 24.1781C34.5817 24.2039 34.4063 24.2433 34.3524 24.2433C34.2973 24.2435 34.2125 24.1986 34.2125 24.1986" stroke="white" stroke-width="0.00800153"/>
<path d="M40.0432 21.376L40.5269 21.6808L40.5961 21.7291C40.5539 21.8379 40.5514 21.9596 40.5514 21.9596L40.5761 22.0193L40.7857 22.1686L40.9454 22.2138L41.3351 22.1737L41.4938 22.1137L41.4994 22.1145L42.0427 22.2288L42.0874 22.2492L42.0926 22.2635L41.9282 22.3187L41.6977 22.4127L41.4236 22.4383L38.8105 22.5236L40.0432 21.376Z" fill="black"/>
<path d="M40.0432 21.376L40.5269 21.6808L40.5961 21.7291C40.5539 21.8379 40.5514 21.9596 40.5514 21.9596L40.5761 22.0193L40.7857 22.1686L40.9454 22.2138L41.3351 22.1737L41.4938 22.1137L41.4994 22.1145L42.0427 22.2288L42.0874 22.2492L42.0926 22.2635L41.9282 22.3187L41.6977 22.4127L41.4236 22.4383L38.8105 22.5236L40.0432 21.376" stroke="white" stroke-width="0.00800153"/>
<path d="M40.7854 22.1687L40.5753 22.0194L40.551 21.9602C40.551 21.9602 40.5563 21.7157 40.6711 21.61C40.7854 21.5057 40.896 21.426 40.9307 21.4211C40.965 21.416 40.9851 21.3864 41.1096 21.3564C41.2343 21.326 41.2948 21.3307 41.3541 21.3307C41.4149 21.3307 41.5189 21.3564 41.5293 21.3708C41.5393 21.3864 41.6385 21.4609 41.6385 21.4609L41.7042 21.6053C41.7042 21.6053 41.7029 21.7246 41.6976 21.7506C41.6937 21.7749 41.6436 21.9343 41.6436 21.9343C41.6436 21.9343 41.5989 21.9951 41.5641 22.0143C41.5293 22.0352 41.5189 22.1048 41.5189 22.1048L41.3349 22.174L40.9447 22.214L40.7854 22.1687ZM36.8051 22.2395L36.6058 21.8702L36.616 21.8401L36.9351 21.5613C36.9351 21.5613 37.0844 21.3622 37.1244 21.3117C37.1645 21.2616 37.2249 21.2216 37.2841 21.2111C37.3442 21.2024 37.4538 21.2216 37.5233 21.2512C37.593 21.2808 37.693 21.3708 37.7034 21.4108C37.7126 21.4504 37.813 21.721 37.813 21.721L37.593 22.009C37.593 22.009 37.3847 22.2086 37.2342 22.2796C37.198 22.2961 37.1541 22.3023 37.1093 22.3023C36.9661 22.3023 36.8051 22.2395 36.8051 22.2395ZM35.3691 23.8452L35.9678 23.7255L36.3962 23.7952L36.3766 23.9048H35.8672L35.3691 23.8452Z" fill="black"/>
<path d="M40.7854 22.1687L40.5753 22.0194L40.551 21.9602C40.551 21.9602 40.5563 21.7157 40.6711 21.61C40.7854 21.5057 40.896 21.426 40.9307 21.4211C40.965 21.416 40.9851 21.3864 41.1096 21.3564C41.2343 21.326 41.2948 21.3307 41.3541 21.3307C41.4149 21.3307 41.5189 21.3564 41.5293 21.3708C41.5393 21.3864 41.6385 21.4609 41.6385 21.4609L41.7042 21.6053C41.7042 21.6053 41.7029 21.7246 41.6976 21.7506C41.6937 21.7749 41.6436 21.9343 41.6436 21.9343C41.6436 21.9343 41.5989 21.9951 41.5641 22.0143C41.5293 22.0352 41.5189 22.1048 41.5189 22.1048L41.3349 22.174L40.9447 22.214L40.7854 22.1687M36.8051 22.2395L36.6058 21.8702L36.616 21.8401L36.9351 21.5613C36.9351 21.5613 37.0844 21.3622 37.1244 21.3117C37.1645 21.2616 37.2249 21.2216 37.2841 21.2111C37.3442 21.2024 37.4538 21.2216 37.5233 21.2512C37.593 21.2808 37.693 21.3708 37.7034 21.4108C37.7126 21.4504 37.813 21.721 37.813 21.721L37.593 22.009C37.593 22.009 37.3847 22.2086 37.2342 22.2796C37.198 22.2961 37.1541 22.3023 37.1093 22.3023C36.9661 22.3023 36.8051 22.2395 36.8051 22.2395M35.3691 23.8452L35.9678 23.7255L36.3962 23.7952L36.3766 23.9048H35.8672L35.3691 23.8452Z" stroke="white" stroke-width="0.00800153"/>
</svg>
