<svg width="84" height="56" viewBox="0 0 84 56" fill="none" xmlns="http://www.w3.org/2000/svg">
<path d="M46.1899 21.7773C45.4384 22.3331 44.6907 22.8941 43.947 23.4603C43.8952 23.5122 43.8516 23.5569 43.8168 23.5917C43.7651 23.6264 43.7136 23.6612 43.661 23.696C43.3975 23.9078 43.128 24.112 42.8528 24.3084C42.6056 24.5138 42.3578 24.7184 42.1093 24.9222C41.7162 25.2501 41.3249 25.5802 40.9356 25.9126C40.572 26.2082 40.2158 26.5128 39.8673 26.8261C39.7968 26.8958 39.7275 26.9561 39.659 27.0075C39.5808 27.0783 39.498 27.1518 39.4109 27.2302C39.0651 27.55 38.7171 27.8674 38.3669 28.1825C38.0118 28.5223 37.6288 28.8877 37.2207 29.2791L38.2629 30.8569C38.6192 30.4488 38.9577 30.0559 39.2809 29.6828C39.576 29.3186 39.8802 28.9618 40.1931 28.6127C40.2278 28.578 40.2623 28.535 40.297 28.4827L40.4015 28.3784C40.7313 28.0129 41.0616 27.6479 41.3924 27.2834C41.7143 26.9254 42.0705 26.5265 42.4617 26.0824C42.687 25.8126 42.9433 25.5252 43.2299 25.2206C43.5128 24.921 43.7998 24.6253 44.0909 24.3337C44.1257 24.2824 44.1601 24.2389 44.1949 24.2041C44.2297 24.1694 44.2657 24.1344 44.3005 24.0997C45.047 23.2992 45.7421 22.5773 46.3864 21.9342C47.0032 21.3087 47.3103 20.9873 47.3103 20.9689C47.2426 21.0039 46.8677 21.2728 46.1899 21.7773ZM33.8571 38.0126C34.0916 37.7089 34.2873 37.4349 34.4439 37.1917C34.5874 36.949 34.7139 36.6965 34.8224 36.4362C34.9474 36.2007 35.0438 35.9511 35.1095 35.6927C35.1865 35.4239 35.2521 35.1198 35.3035 34.78V34.7549C35.3561 34.4856 35.3909 34.2283 35.408 33.985C35.4258 33.7328 35.4427 33.4896 35.4606 33.2556V32.9174C35.4416 32.6201 35.4068 32.324 35.3563 32.0305C35.2978 31.7186 35.2241 31.4098 35.1353 31.1052C35.0661 31.1748 34.7916 31.4306 34.3144 31.8734C33.7826 32.3495 33.2566 32.8321 32.7366 33.3211L32.7097 33.3467L32.6835 33.3722C32.4841 33.5551 32.2886 33.7422 32.0971 33.9334C31.907 34.099 31.7203 34.2685 31.5371 34.4418C31.267 34.6851 31.0542 34.8895 30.8976 35.0545C30.739 35.2042 30.5781 35.3517 30.4152 35.4968L30.3896 35.5369C30.1382 35.7621 29.8411 36.0449 29.5026 36.3834C29.1645 36.7222 28.6213 37.2664 27.8734 38.0125H22.998C23.276 37.6044 23.8701 36.9831 24.7843 36.1493C25.6708 35.3064 26.6656 34.4324 27.7691 33.5298C27.9171 33.4072 28.0693 33.281 28.2252 33.1509C28.3726 33.0238 28.5249 32.9024 28.6818 32.7872C30.1242 31.5875 31.4584 30.5441 32.6833 29.6574C33.7531 28.8753 34.349 28.4854 34.4695 28.4854L34.4787 28.4877L34.4971 28.5099L34.4787 28.4877C34.4287 28.4146 34.273 28.1749 34.0132 27.7674C33.7183 27.2975 33.3182 26.789 32.8134 26.2414C32.6945 26.0963 32.5733 25.953 32.4498 25.8117C32.3015 25.6724 32.1588 25.5371 32.0195 25.4062C31.2888 24.7372 30.3896 24.1064 29.32 23.5157C28.2342 22.9429 27.0999 22.4671 25.9305 22.0938C25.7622 22.0381 25.5927 21.9859 25.4223 21.9371C25.3512 21.9157 25.2795 21.896 25.2074 21.8781C24.6593 21.5085 24.0985 21.245 23.4922 20.8534C23.9542 20.9499 24.4187 21.0618 24.8868 21.1932C25.1258 21.2463 25.3631 21.3068 25.5984 21.3746C25.8363 21.4438 26.0734 21.5264 26.3092 21.6229C27.0511 21.8527 27.7818 22.1172 28.4989 22.4155C29.2014 22.7205 29.8592 23.0405 30.4677 23.3795C32.3178 24.3509 33.7088 25.2365 34.6394 26.0343C35.5607 26.8587 36.0288 27.2871 36.0471 27.3233C36.2115 27.1584 36.925 26.6426 38.1847 25.7742C39.5513 24.8214 40.92 23.8716 42.2907 22.9248C42.3325 22.9029 42.3721 22.8771 42.409 22.8477C42.4256 22.8298 42.453 22.8116 42.4873 22.7951C43.6549 21.9923 44.8286 21.1982 46.0082 20.413C47.1109 19.6848 47.9186 19.152 48.4326 18.8127L48.6539 18.6566C48.7757 18.5526 48.9457 18.4409 49.1621 18.3185C49.3868 18.2063 49.6615 18.0985 49.983 17.9927C50.2882 17.8888 50.6172 17.8384 50.9751 17.8384C50.9751 17.9776 50.2352 19.1056 48.758 21.2266C47.0769 23.626 45.4125 26.037 43.765 28.4595C43.6271 28.6846 43.4839 28.9065 43.3355 29.1248C43.1808 29.3536 43.0285 29.584 42.8784 29.8159C41.9178 31.2637 40.9747 32.7229 40.0492 34.1933C39.1457 35.6372 38.3978 36.9099 37.8071 38.0128H33.8571" fill="#ED2225"/>
<path d="M52.9635 33.6017C52.9574 33.615 52.9416 33.6746 52.9127 33.7811C52.8822 33.8851 52.7691 34.1963 52.5764 34.7134C52.4924 34.9429 52.4073 35.1719 52.321 35.4004C52.0108 35.4247 51.8377 35.437 51.8015 35.437C51.614 35.437 51.3748 35.4336 51.0838 35.4249C50.9742 35.4222 50.9195 35.4065 50.9195 35.3787C50.9195 35.3674 50.9347 35.3467 50.965 35.3145C50.9703 35.3201 50.9977 35.2813 51.0473 35.1978C51.0574 35.1791 51.2074 34.9716 51.4976 34.5736C51.6093 34.4226 51.7856 34.2368 52.0266 34.0163C52.267 33.7948 52.4517 33.6496 52.5787 33.5827C52.7647 33.484 52.8692 33.4343 52.8896 33.4343C52.9489 33.4343 52.979 33.4655 52.979 33.5278C52.9778 33.5531 52.9726 33.578 52.9635 33.6017ZM53.1291 37.3552C53.1396 37.3035 53.1523 37.2501 53.166 37.1952C53.1739 36.9872 53.3308 36.4774 53.6376 35.6647C53.9608 34.8103 54.1719 34.2162 54.2718 33.8826C54.3719 33.549 54.422 33.2754 54.422 33.0621C54.422 32.9482 54.3919 32.8574 54.3298 32.789C54.2692 32.7225 54.1857 32.688 54.0787 32.688C53.9412 32.688 53.7242 32.7272 53.4284 32.8051C53.0466 32.9066 52.6815 33.0628 52.3445 33.2688C51.4765 33.7964 50.7154 34.5996 50.0602 35.6771C49.8369 36.0408 49.6503 36.4258 49.503 36.8264C49.3551 37.2288 49.2812 37.5475 49.2812 37.7814C49.2812 37.8775 49.3021 37.9549 49.3417 38.0111C49.3826 38.0681 49.436 38.0967 49.503 38.0967C49.55 38.0967 49.6174 38.0785 49.7053 38.0423C49.8933 37.9628 50.1203 37.9079 50.386 37.8796C50.2547 37.6103 50.2164 37.1432 50.3822 36.8111L50.404 36.8354C50.4343 36.5837 50.5296 36.2577 50.6928 35.8568C50.9054 35.8307 51.1491 35.8184 51.4246 35.8184C51.6946 35.8184 51.9356 35.8307 52.1492 35.8568C51.9427 36.493 51.8139 36.9103 51.7637 37.1108C51.7146 37.3073 51.6896 37.509 51.6893 37.7115C51.6893 37.8302 51.7103 37.9246 51.754 37.9934C51.7969 38.0626 51.8546 38.0966 51.928 38.0966C51.9824 38.0966 52.0686 38.0722 52.1857 38.0225C52.2793 37.986 52.4119 37.9486 52.5838 37.91C52.756 37.8709 52.9001 37.8472 53.0179 37.8398C53.0522 37.8372 53.0821 37.8352 53.1118 37.8334C53.0818 37.6702 53.0966 37.5166 53.1291 37.3552ZM42.6329 33.1416C42.6041 33.3966 42.5417 33.6746 42.4419 33.9756C42.2939 34.4198 42.2043 34.6965 42.1735 34.8057C42.3923 34.7012 42.579 34.588 42.7316 34.4664C42.9066 34.3286 43.0456 34.1715 43.1498 33.9952C43.253 33.819 43.3046 33.649 43.3046 33.4845C43.3046 33.3631 43.2737 33.2665 43.2093 33.1948C43.1462 33.1226 43.0614 33.0882 42.9531 33.0882C42.8789 33.0882 42.7718 33.1062 42.6329 33.1416ZM41.9456 35.5047C41.8774 35.6218 41.7438 35.9754 41.5429 36.5648C41.4358 36.955 41.3832 37.1839 41.3832 37.2575C41.3832 37.4075 41.4581 37.4822 41.6058 37.4822C41.7381 37.4822 41.8774 37.4295 42.0243 37.3255C42.1697 37.22 42.3031 37.0741 42.4214 36.8874C42.6521 36.5325 42.7755 36.1558 42.7934 35.7565C42.8013 35.6047 42.7691 35.4828 42.6947 35.3903C42.6199 35.299 42.5169 35.2498 42.3867 35.2446C42.1941 35.2446 42.0475 35.3307 41.9456 35.5047ZM40.0182 37.9226C39.9704 37.849 39.9473 37.7503 39.9473 37.6254C39.9473 37.1657 40.2061 36.2547 40.7247 34.8923C41.0449 34.0467 41.2045 33.5616 41.2045 33.4368C41.2045 33.415 41.2007 33.3955 41.1941 33.3776C41.2544 33.1898 41.2649 32.9609 41.4338 32.8088C41.4516 32.8088 41.4685 32.8073 41.4864 32.806C41.5904 32.7986 41.8658 32.7692 42.3147 32.7164C42.6622 32.6773 42.9777 32.6581 43.2625 32.6581C43.6682 32.6581 43.9955 32.7396 44.2426 32.9029C44.4549 33.043 44.5619 33.2389 44.5619 33.4906C44.5619 33.8381 44.366 34.1431 43.9737 34.4041C43.9737 34.4073 43.7742 34.519 43.3769 34.7386C43.5984 34.7878 43.7668 34.8548 43.8851 34.9369C44.1748 35.1379 44.3182 35.435 44.3182 35.8325C44.3182 36.1487 44.2208 36.4684 44.0267 36.7899C43.7639 37.2145 43.3946 37.5324 42.9182 37.7421C42.5982 37.8822 42.2952 37.9531 42.0098 37.9531C41.9133 37.9531 41.7063 37.9366 41.3856 37.902C41.272 37.8887 41.1577 37.8815 41.0433 37.8802C40.8245 37.8802 40.6212 37.9137 40.4347 37.9802C40.3307 38.0164 40.2533 38.0341 40.2045 38.0341C40.1266 38.0343 40.0643 37.9972 40.0182 37.9226ZM44.9247 37.7189V37.1134V37.7189ZM46.5688 37.8633C46.5023 37.7432 46.4241 37.5235 46.3335 37.2016C46.189 36.6662 46.0786 36.1223 46.0028 35.573C45.8276 35.6926 45.6247 35.9115 45.3917 36.2291C45.1254 36.5961 44.991 36.9032 44.991 37.1556C44.991 37.233 45.0068 37.2905 45.0388 37.3267L45.129 37.8142C45.0921 37.8211 45.049 37.8273 45.0007 37.8324C44.9024 37.8441 44.8051 37.863 44.7097 37.8891C44.5914 37.9187 44.4961 37.9486 44.4251 37.9792C44.3245 38.0214 44.2475 38.0428 44.1933 38.0428C44.1449 38.0428 44.1019 38.018 44.07 37.9679C44.0365 37.9187 44.0183 37.8582 44.0183 37.7851C44.0183 37.6074 44.0801 37.3796 44.2036 37.1065C44.3263 36.8325 44.4893 36.56 44.6912 36.287C44.9965 35.8754 45.4058 35.4595 45.9153 35.0389C45.9087 35.0006 45.8826 34.8588 45.8379 34.6143C45.7426 34.0841 45.6526 33.7312 45.5678 33.5564C45.5191 33.4548 45.4445 33.3678 45.3514 33.3042C45.3823 33.1405 45.254 32.9775 45.2305 32.8144L45.5106 32.8282C45.7582 32.8282 46.0144 32.7845 46.2832 32.6974C46.3655 32.6713 46.4312 32.6583 46.4815 32.6583C46.6137 32.6583 46.7269 32.7901 46.8234 33.0523C46.8774 33.203 46.9471 33.4616 47.0291 33.8283C47.0692 33.9936 47.0961 34.1124 47.1119 34.1834C47.3768 34.0131 47.6096 33.8357 47.8117 33.6479C48.0123 33.4603 48.1129 33.3277 48.1129 33.2488C48.1135 33.2324 48.1099 33.2161 48.1024 33.2015C48.2251 33.1392 48.2029 32.7869 48.3482 32.7703L48.3598 32.7676C48.3767 32.7663 48.3948 32.7639 48.4129 32.7624C48.5169 32.7573 48.6582 32.7317 48.8388 32.6842C48.9211 32.661 48.9881 32.6494 49.0367 32.6494C49.1563 32.6494 49.2155 32.7164 49.2155 32.8485C49.2155 33.1173 48.9414 33.4533 48.3933 33.856C47.9622 34.1753 47.5621 34.4408 47.1941 34.6529C47.3382 35.502 47.4634 36.1146 47.5634 36.4877C47.6472 36.7961 47.7213 37.0051 47.7887 37.1134C47.8195 37.1622 47.8584 37.2072 47.9032 37.2455L47.9339 37.2687C48.0548 37.3783 48.0562 37.5493 48.0562 37.7189C48.0562 37.5493 48.0548 37.3783 47.9339 37.2687C47.9787 37.3035 48.0318 37.3342 48.0905 37.36C48.1193 37.3713 48.1449 37.3822 48.1684 37.3925L48.0905 37.36L48.1889 37.7601C48.135 37.7778 48.0665 37.7909 47.9843 37.7962C47.5606 37.8324 47.2326 37.8994 46.9986 37.996C46.9173 38.0267 46.8529 38.0425 46.8041 38.0425C46.7133 38.0426 46.6346 37.9831 46.5688 37.8633ZM55.2191 37.5871C55.212 37.4593 55.2334 37.3318 55.3052 37.2043C55.3456 36.9463 55.5413 36.3604 55.8924 35.4437C56.1416 34.7904 56.3151 34.2949 56.4139 33.959C56.5126 33.6232 56.5618 33.3535 56.5618 33.1511C56.5618 32.9066 56.4878 32.7854 56.3399 32.7854C56.2925 32.7854 56.2282 32.7998 56.1449 32.8276C56.0567 32.8564 55.9379 32.8846 55.7878 32.9129C55.639 32.9412 55.5281 32.9556 55.4555 32.9556L55.2337 32.9477C55.2402 33.2253 55.3133 33.5032 55.0679 33.7808C55.051 33.8439 55.0298 33.916 55.0037 33.9996C54.9227 34.258 54.8314 34.5131 54.7301 34.7643C54.3803 35.6568 54.1416 36.316 54.0132 36.7432C53.8854 37.1694 53.821 37.5245 53.821 37.8075C53.821 37.9137 53.8429 37.9998 53.8854 38.0642C53.929 38.1286 53.9863 38.1616 54.0589 38.1616C54.1184 38.1616 54.2033 38.1402 54.3121 38.0988C54.5329 38.0106 54.8154 37.951 55.1581 37.9201C55.2046 37.9155 55.2465 37.9114 55.2828 37.9076C55.2508 37.8007 55.225 37.6933 55.2191 37.5871ZM59.5216 34.3677C59.4281 34.6508 59.3109 34.8966 59.1719 35.1054C59.0035 35.3591 58.7817 35.4856 58.5076 35.4856C58.4506 35.4856 58.3844 35.4759 58.3093 35.4582L58.3794 35.252C58.6473 34.5095 58.8097 34.0445 58.8665 33.8579C58.925 33.6636 58.9641 33.4639 58.9832 33.2619C59.0944 33.2253 59.1937 33.2072 59.2816 33.2072C59.5343 33.2072 59.6613 33.3441 59.6613 33.6178C59.6612 33.8343 59.6147 34.0841 59.5216 34.3677ZM60.6057 33.0547C60.3805 32.8751 60.0076 32.7849 59.4894 32.7849C59.2388 32.7849 59.0383 32.7919 58.8852 32.8041C58.7326 32.8176 58.355 32.8593 57.7525 32.9288C57.6772 32.938 57.6132 32.9454 57.558 32.952C57.5614 33.1613 57.5841 33.366 57.5307 33.5119C57.5344 33.5286 57.5371 33.5468 57.5371 33.5685C57.5371 33.6517 57.5093 33.7737 57.4544 33.9341C57.4 34.0955 57.2809 34.4099 57.0959 34.8771C56.5247 36.3187 56.2389 37.2895 56.2389 37.7912C56.2389 38.0378 56.3172 38.1614 56.474 38.1614C56.5256 38.1614 56.6051 38.1392 56.7115 38.0954C56.8237 38.051 56.9826 38.0083 57.1901 37.9665C57.3129 37.9413 57.4369 37.9223 57.5616 37.9095C57.5708 37.6895 57.6034 37.4501 57.7103 37.2439C57.7271 37.0163 57.854 36.6085 58.0955 36.015L58.119 36.0855C58.2642 36.5637 58.36 36.8629 58.4065 36.9856C58.453 37.1074 58.5314 37.274 58.64 37.4833C58.8789 37.9358 59.1712 38.1614 59.5153 38.1614C59.7075 38.1614 59.8791 38.0954 60.0295 37.9628C60.1334 37.8693 60.2062 37.764 60.2487 37.646C59.8315 37.1626 59.1186 37.0241 58.8258 36.4676C58.7034 36.2984 58.6006 36.0908 58.5161 35.8439C58.5787 35.8485 58.6379 35.8503 58.6952 35.8503C59.0864 35.8503 59.4564 35.7681 59.8019 35.6028C60.1494 35.4376 60.4243 35.2136 60.6297 34.9303C60.8763 34.5871 60.9991 34.2307 60.9991 33.861C60.9989 33.5342 60.8679 33.2645 60.6057 33.0547Z" fill="black"/>
<path d="M30.8809 22.0502L31.0301 21.8995L31.2007 21.82L31.4499 21.83L32.2581 21.78L33.5635 21.7556L33.8075 22.262L30.8809 22.0502ZM35.2858 22.3686L34.4618 21.7117L35.5388 21.6409L36.6576 21.5612L36.9683 21.5181L36.9371 21.5612L36.62 21.8389L36.5247 21.9024L35.8892 22.3665L35.8309 22.4084L35.2858 22.3686ZM31.8489 23.8324L31.8936 23.7876L31.9762 23.7051C31.9762 23.7051 32.1254 23.6302 32.2154 23.5932C32.306 23.5559 32.4177 23.5631 32.4177 23.5631L33.0532 23.5401L33.6439 23.5109L34.4269 23.4823L34.4517 23.5401L34.4555 23.5692L34.3998 23.6301L34.2284 23.8915L31.8489 23.8324Z" fill="black"/>
<path d="M30.8809 22.0502L31.0301 21.8995L31.2007 21.82L31.4499 21.83L32.2581 21.78L33.5635 21.7556L33.8075 22.262L30.8809 22.0502M35.2858 22.3686L34.4618 21.7117L35.5388 21.6409L36.6577 21.5612L36.9683 21.5181L36.9371 21.5612L36.62 21.8389L36.5247 21.9024L35.8892 22.3665L35.8309 22.4084L35.2858 22.3686M31.8489 23.8324L31.8936 23.7876L31.9762 23.7051C31.9762 23.7051 32.1254 23.6302 32.2154 23.5932C32.306 23.5559 32.4177 23.5631 32.4177 23.5631L33.0532 23.5401L33.6439 23.5109L34.4269 23.4823L34.4517 23.5401L34.4555 23.5692L34.3998 23.6301L34.2284 23.8915L31.8489 23.8324" stroke="white" stroke-width="0.00800153"/>
<path d="M35.4976 22.6448L35.1704 22.8828L34.782 23.212L34.4562 23.5692L34.4522 23.54L34.2207 23.0024L33.9815 22.5747L33.8615 22.3734L33.4355 21.4903L33.795 21.251L34.4379 21.6925L35.545 22.5747L35.4976 22.6448Z" fill="black" stroke="white" stroke-width="0.00800153"/>
<path d="M40.2029 21.4308L40.3191 21.356C40.2708 21.3877 40.2282 21.416 40.1934 21.439L40.2029 21.4308ZM34.1602 24.0418C34.1893 23.9749 34.2269 23.8926 34.2269 23.8926L34.3991 23.6302L34.7802 23.2117L35.1691 22.8824L35.4983 22.6432L35.8885 22.3665L36.524 21.902C36.524 21.902 36.5587 21.878 36.6188 21.8381L36.6165 21.8398L36.606 21.8699L36.8053 22.2392C36.8053 22.2392 37.0846 22.3483 37.2338 22.2788C37.3843 22.2083 37.5926 22.009 37.5926 22.009L37.8128 21.7206C37.8128 21.7206 37.7127 21.45 37.704 21.4099C37.6935 21.3703 37.5926 21.2803 37.5234 21.2507C37.5173 21.2485 37.5116 21.2459 37.5055 21.2433C37.854 21.0106 38.1759 20.7957 38.2364 20.7579C38.379 20.6679 39.3893 20.0245 39.3893 20.0245L40.317 19.4029C40.317 19.4029 40.7586 19.1788 40.9231 19.1188C41.0879 19.0597 41.349 19.0362 41.4686 18.9987C41.5886 18.9613 41.7767 19.0064 41.7767 19.0064L41.941 19.0813C41.941 19.0813 41.9627 19.1186 42.045 19.126C42.1275 19.1339 42.255 19.2004 42.2768 19.2379C42.2998 19.2752 42.3516 19.381 42.3141 19.4553C42.2768 19.5302 42.2924 19.4927 42.2628 19.6794C42.2315 19.8672 42.1649 19.9342 42.1649 19.9342C42.1649 19.9342 42.1275 19.9934 42.0448 20.1657C41.9626 20.3384 41.6563 20.5172 41.5215 20.5855L34.1623 24.1236C34.151 24.1062 34.1433 24.0784 34.1602 24.0418Z" fill="black"/>
<path d="M40.2029 21.4308L40.3191 21.356C40.2708 21.3877 40.2282 21.416 40.1934 21.439L40.2029 21.4308M34.1602 24.0418C34.1893 23.9749 34.2269 23.8926 34.2269 23.8926L34.3991 23.6302L34.7802 23.2117L35.1691 22.8824L35.4983 22.6432L35.8885 22.3665L36.524 21.902C36.524 21.902 36.5587 21.878 36.6188 21.8381L36.6165 21.8398L36.606 21.8699L36.8053 22.2392C36.8053 22.2392 37.0846 22.3483 37.2338 22.2788C37.3843 22.2083 37.5926 22.009 37.5926 22.009L37.8128 21.7206C37.8128 21.7206 37.7127 21.45 37.704 21.4099C37.6935 21.3703 37.5926 21.2803 37.5234 21.2507C37.5173 21.2485 37.5116 21.2459 37.5055 21.2433C37.854 21.0106 38.1759 20.7957 38.2364 20.7579C38.379 20.6679 39.3893 20.0245 39.3893 20.0245L40.317 19.4029C40.317 19.4029 40.7586 19.1788 40.9231 19.1188C41.0879 19.0597 41.349 19.0362 41.4686 18.9987C41.5886 18.9613 41.7767 19.0064 41.7767 19.0064L41.941 19.0813C41.941 19.0813 41.9627 19.1186 42.045 19.126C42.1275 19.1339 42.255 19.2004 42.2768 19.2379C42.2998 19.2752 42.3516 19.381 42.3141 19.4553C42.2768 19.5302 42.2924 19.4927 42.2628 19.6794C42.2315 19.8672 42.1649 19.9342 42.1649 19.9342C42.1649 19.9342 42.1275 19.9934 42.0448 20.1657C41.9626 20.3384 41.6563 20.5172 41.5215 20.5855L34.1623 24.1236C34.151 24.1062 34.1433 24.0784 34.1602 24.0418" stroke="white" stroke-width="0.00800153"/>
<path d="M34.2125 24.1991L34.1621 24.1242L41.5228 20.5854L40.2038 21.4311L40.1729 21.4572L40.0442 21.3759L38.8114 22.5239L38.8236 22.5234L38.7314 22.5931L37.6251 23.1064L36.8259 23.4915L36.075 23.7429L35.9689 23.7255L35.3703 23.8456L35.6549 23.8791L35.1503 24.0243C35.1503 24.0243 34.6817 24.1543 34.6321 24.1786C34.5817 24.2044 34.4063 24.2438 34.3524 24.2438C34.2973 24.244 34.2125 24.1991 34.2125 24.1991Z" fill="black"/>
<path d="M34.2125 24.1991L34.1621 24.1242L41.5228 20.5854L40.2038 21.4311L40.1729 21.4572L40.0442 21.3759L38.8114 22.5239L38.8236 22.5234L38.7314 22.5931L37.6251 23.1064L36.8259 23.4915L36.075 23.7429L35.9689 23.7255L35.3703 23.8456L35.6549 23.8791L35.1503 24.0243C35.1503 24.0243 34.6817 24.1543 34.6321 24.1786C34.5817 24.2044 34.4063 24.2438 34.3524 24.2438C34.2973 24.244 34.2125 24.1991 34.2125 24.1991" stroke="white" stroke-width="0.00800153"/>
<path d="M40.0432 21.376L40.5269 21.6808L40.5961 21.7291C40.5539 21.8379 40.5514 21.9596 40.5514 21.9596L40.5761 22.0193L40.7857 22.1686L40.9454 22.2138L41.3351 22.1737L41.4938 22.1137L41.4994 22.1145L42.0427 22.2288L42.0874 22.2492L42.0926 22.2635L41.9282 22.3187L41.6977 22.4127L41.4236 22.4383L38.8105 22.5236L40.0432 21.376Z" fill="black"/>
<path d="M40.0432 21.376L40.5269 21.6808L40.5961 21.7291C40.5539 21.8379 40.5514 21.9596 40.5514 21.9596L40.5761 22.0193L40.7857 22.1686L40.9454 22.2138L41.3351 22.1737L41.4938 22.1137L41.4994 22.1145L42.0427 22.2288L42.0874 22.2492L42.0926 22.2635L41.9282 22.3187L41.6977 22.4127L41.4236 22.4383L38.8105 22.5236L40.0432 21.376" stroke="white" stroke-width="0.00800153"/>
<path d="M40.7854 22.1682L40.5753 22.019L40.551 21.9597C40.551 21.9597 40.5563 21.7152 40.6711 21.6095C40.7854 21.5052 40.896 21.4255 40.9307 21.4207C40.965 21.4155 40.9851 21.3859 41.1096 21.356C41.2343 21.3255 41.2948 21.3302 41.3541 21.3302C41.4149 21.3302 41.5189 21.356 41.5293 21.3703C41.5393 21.3859 41.6385 21.4604 41.6385 21.4604L41.7042 21.6048C41.7042 21.6048 41.7029 21.7241 41.6976 21.7501C41.6937 21.7745 41.6436 21.9338 41.6436 21.9338C41.6436 21.9338 41.5989 21.9947 41.5641 22.0138C41.5293 22.0347 41.5189 22.1043 41.5189 22.1043L41.3349 22.1735L40.9447 22.2136L40.7854 22.1682ZM36.8051 22.239L36.6058 21.8697L36.616 21.8396L36.9351 21.5609C36.9351 21.5609 37.0844 21.3617 37.1244 21.3112C37.1645 21.2611 37.2249 21.2211 37.2841 21.2106C37.3442 21.2019 37.4538 21.2211 37.5233 21.2507C37.593 21.2803 37.693 21.3703 37.7034 21.4104C37.7126 21.45 37.813 21.7205 37.813 21.7205L37.593 22.0085C37.593 22.0085 37.3847 22.2081 37.2342 22.2791C37.198 22.2957 37.1541 22.3018 37.1093 22.3018C36.9661 22.3018 36.8051 22.239 36.8051 22.239ZM35.3691 23.8448L35.9678 23.725L36.3962 23.7947L36.3766 23.9043H35.8672L35.3691 23.8448Z" fill="black"/>
<path d="M40.7854 22.1682L40.5753 22.019L40.551 21.9597C40.551 21.9597 40.5563 21.7152 40.6711 21.6095C40.7854 21.5052 40.896 21.4255 40.9307 21.4207C40.965 21.4155 40.9851 21.3859 41.1096 21.356C41.2343 21.3255 41.2948 21.3302 41.3541 21.3302C41.4149 21.3302 41.5189 21.356 41.5293 21.3703C41.5393 21.3859 41.6385 21.4604 41.6385 21.4604L41.7042 21.6048C41.7042 21.6048 41.7029 21.7241 41.6976 21.7501C41.6937 21.7745 41.6436 21.9338 41.6436 21.9338C41.6436 21.9338 41.5989 21.9947 41.5641 22.0138C41.5293 22.0347 41.5189 22.1043 41.5189 22.1043L41.3349 22.1735L40.9447 22.2136L40.7854 22.1682M36.8051 22.239L36.6058 21.8697L36.616 21.8396L36.9351 21.5609C36.9351 21.5609 37.0844 21.3617 37.1244 21.3112C37.1645 21.2611 37.2249 21.2211 37.2841 21.2106C37.3442 21.2019 37.4538 21.2211 37.5233 21.2507C37.593 21.2803 37.693 21.3703 37.7034 21.4104C37.7126 21.45 37.813 21.7205 37.813 21.7205L37.593 22.0085C37.593 22.0085 37.3847 22.2081 37.2342 22.2791C37.198 22.2957 37.1541 22.3018 37.1093 22.3018C36.9661 22.3018 36.8051 22.239 36.8051 22.239M35.3691 23.8448L35.9678 23.725L36.3962 23.7947L36.3766 23.9043H35.8672L35.3691 23.8448Z" stroke="white" stroke-width="0.00800153"/>
</svg>
