<svg width="84" height="56" viewBox="0 0 84 56" fill="none" xmlns="http://www.w3.org/2000/svg">
<path fill-rule="evenodd" clip-rule="evenodd" d="M20.8732 35.5286C25.6361 35.5286 29.5543 31.6104 29.5543 26.7707C29.5543 22.0077 25.6361 18.0898 20.8732 18.0898C16.0334 18.0898 12.1152 22.0077 12.1152 26.7707C12.1152 31.6104 16.0334 35.5286 20.8732 35.5286Z" fill="#F97C1D"/>
<path fill-rule="evenodd" clip-rule="evenodd" d="M19.9512 37.8332L20.6426 36.2197H20.7963L21.411 37.8332H21.2572L21.0268 37.3722H20.3354L20.1048 37.8332H19.9512ZM20.4121 37.2188H21.0268L20.7194 36.3733L20.4121 37.2188ZM21.7949 36.9884H22.6399V37.0646H21.7948V37.679H22.7168V37.8332H21.6413V36.2197H22.7168V36.3733H21.7949V36.9884ZM23.1778 37.1417V37.833H23.0242V36.2197H23.6388C24.0228 36.2197 24.1764 36.3733 24.1764 36.6808C24.1764 36.8342 24.0997 36.9884 23.946 37.0646C24.0997 37.1417 24.0997 37.2952 24.0997 37.4492C24.0997 37.7562 24.1765 37.7562 24.1765 37.833H24.0228C23.946 37.7562 23.946 37.4492 23.946 37.2952C23.946 37.1417 23.7924 37.1417 23.6388 37.1417H23.1778ZM23.6388 36.9883C23.8693 36.9883 24.0228 36.9112 24.0228 36.6807C24.0228 36.4503 23.8693 36.3731 23.6388 36.3731H23.1778V36.9883H23.6388ZM25.1753 36.2197C25.7129 36.2197 25.9435 36.6035 25.9435 37.0646C25.9435 37.5257 25.7129 37.9095 25.1752 37.9095C24.7144 37.9095 24.4838 37.5257 24.4838 37.0646C24.4838 36.6037 24.7144 36.2197 25.1752 36.2197H25.1753ZM25.7898 37.0646C25.7898 36.6037 25.5594 36.3733 25.1753 36.3733C24.791 36.3733 24.6375 36.6808 24.6375 37.0646C24.6375 37.4492 24.791 37.756 25.1753 37.756C25.636 37.756 25.7898 37.4492 25.7898 37.0646ZM27.2495 37.8332H26.2505V36.2197H26.4043V37.679H27.2495V37.8332ZM27.5567 36.2197H27.7104V37.8332H27.5567V36.2197ZM28.3251 36.2197L29.2467 37.6026V36.2199H29.4005V37.8332H29.2467L28.3251 36.4504V37.8332H28.1713V36.2197H28.3251ZM29.9383 36.9884H30.7833V37.0646H29.9381V37.679H30.8602V37.8332H29.7846V36.2197H30.8602V36.3733H29.9383V36.9884ZM31.0138 37.8332L31.6283 36.2197H31.8589L32.4734 37.8332H32.3198L32.0893 37.3722H31.3979L31.1674 37.8332H31.0138ZM31.3979 37.2188H32.0893L31.782 36.3733L31.3979 37.2188ZM32.7808 37.3722C32.7808 37.679 32.9345 37.756 33.2418 37.756C33.4721 37.756 33.6259 37.6026 33.6259 37.4492C33.6259 36.9112 32.6269 37.2952 32.6269 36.6037C32.6269 36.4503 32.8574 36.2199 33.1649 36.2199C33.549 36.2199 33.7025 36.4503 33.7025 36.6808H33.549C33.549 36.4503 33.3952 36.3733 33.1649 36.3733C32.8574 36.3733 32.7808 36.5273 32.7808 36.6808C32.8574 37.0646 33.7795 36.8342 33.7795 37.4492C33.7795 37.679 33.549 37.9095 33.1649 37.9095C32.8574 37.9095 32.627 37.679 32.627 37.3722H32.7808ZM35.8537 36.6808C35.7769 36.4503 35.6231 36.3733 35.3158 36.3733C34.932 36.3733 34.7782 36.6808 34.7782 37.0646C34.7782 37.3722 34.932 37.756 35.3926 37.756C35.6231 37.756 35.7769 37.6026 35.8537 37.2952H36.0074C35.9306 37.6028 35.7769 37.9095 35.3158 37.9095C34.855 37.9095 34.6244 37.5257 34.6244 37.0646C34.6244 36.4503 34.932 36.2197 35.3926 36.2197C35.7 36.2197 35.9306 36.3733 36.0074 36.6808H35.8537ZM36.4682 36.9884H37.3133V37.0646H36.4682V37.679H37.3902V37.8332H36.3146V36.2197H37.3902V36.3733H36.4682V36.9884ZM37.9278 36.2197L38.773 37.6026H38.8498V36.2199H38.9265V37.8332H38.773L37.8511 36.4504V37.8332H37.6975V36.2197H37.9278ZM39.6948 37.8332V36.3733H39.2338V36.2197H40.3863V36.3733H39.8484V37.8332H39.6948ZM40.7704 37.1417V37.833H40.6167V36.2197H41.2313C41.6154 36.2197 41.7689 36.3733 41.7689 36.6808C41.7689 36.8342 41.6922 36.9884 41.5385 37.0646C41.6922 37.1417 41.6922 37.2952 41.6922 37.4492C41.6922 37.7562 41.7689 37.7562 41.7689 37.833H41.6154C41.5385 37.7562 41.5385 37.4492 41.5385 37.2952C41.5385 37.1417 41.385 37.1417 41.2313 37.1417H40.7704ZM41.2313 36.9883C41.4618 36.9883 41.6154 36.9112 41.6154 36.6807C41.6154 36.4503 41.4618 36.3731 41.2313 36.3731H40.7704V36.9883H41.2313ZM41.9995 37.8332L42.6142 36.2197H42.7676L43.3824 37.8332H43.2286L42.9982 37.3722H42.3068L42.1533 37.8332H41.9995ZM42.3838 37.2188H42.9982L42.691 36.3733L42.3838 37.2188ZM44.6115 37.8332H43.6128V36.2197H43.7663V37.679H44.6115V37.8332ZM44.9958 36.9884H45.8407V37.0646H44.9958V37.679H45.9944V37.8332H44.8421V36.2197H45.9174V36.3733H44.9958V36.9884ZM46.3016 37.3722C46.3783 37.679 46.5321 37.756 46.7625 37.756C47.0697 37.756 47.1465 37.6026 47.1465 37.4492C47.1465 36.9112 46.2251 37.2952 46.2251 36.6037C46.2251 36.4503 46.3783 36.2199 46.7627 36.2199C47.1465 36.2199 47.3003 36.4503 47.3003 36.6808H47.1465C47.1465 36.4503 46.9931 36.3733 46.7627 36.3733C46.4554 36.3733 46.3016 36.5273 46.3783 36.6808C46.4554 37.0646 47.3004 36.8342 47.3004 37.4492C47.3004 37.679 47.1466 37.9095 46.7625 37.9095C46.4554 37.9095 46.1479 37.679 46.1479 37.3722H46.3016ZM48.299 37.8332V36.2197H48.8366C48.9904 36.2197 49.1441 36.2969 49.2977 36.3733C49.5281 36.5273 49.6052 36.8342 49.6052 37.0646C49.6052 37.2188 49.5281 37.4492 49.3746 37.679C49.2208 37.8332 49.0671 37.8332 48.8366 37.8332H48.299ZM48.4528 37.679H48.7598C48.9136 37.679 49.0671 37.679 49.1441 37.6028C49.3746 37.5257 49.4513 37.2952 49.4513 37.0646C49.4513 36.8342 49.3746 36.5273 49.1441 36.4503C49.0671 36.3733 48.9137 36.3733 48.7599 36.3733H48.4528V37.679ZM50.0661 36.9884H50.911V37.0646H50.0661V37.679H50.9878V37.8332H49.9123V36.2197H50.9878V36.3733H50.0661V36.9884ZM53.0622 36.6808C52.9854 36.4503 52.8316 36.3733 52.6011 36.3733C52.2173 36.3733 51.9867 36.6808 51.9867 37.0646C51.9867 37.3722 52.1402 37.756 52.6011 37.756C52.8316 37.756 53.0622 37.6026 53.0622 37.2952H53.2158C53.1388 37.6028 52.9854 37.9095 52.5244 37.9095C52.0635 37.9095 51.8329 37.5257 51.8329 37.0646C51.8329 36.4503 52.2171 36.2197 52.6011 36.2197C52.9082 36.2197 53.1388 36.3733 53.2158 36.6808H53.0622ZM54.2144 36.2197C54.7522 36.2197 54.9827 36.6035 54.9827 37.0646C54.9827 37.5257 54.7522 37.9095 54.2145 37.9095C53.7535 37.9095 53.5231 37.5257 53.5231 37.0646C53.5231 36.6037 53.7535 36.2197 54.2145 36.2197H54.2144ZM54.8289 37.0646C54.8289 36.6037 54.5985 36.3733 54.2145 36.3733C53.8303 36.3733 53.6769 36.6808 53.6769 37.0646C53.6769 37.4492 53.8303 37.756 54.2145 37.756C54.6755 37.756 54.8289 37.4492 54.8289 37.0646ZM56.2885 37.8332H55.29V36.2197H55.4438V37.679H56.2885V37.8332ZM57.2105 36.2197C57.7485 36.2197 57.9786 36.6035 57.9786 37.0646C57.9786 37.5257 57.7486 37.9095 57.2875 37.9095C56.7495 37.9095 56.5191 37.5257 56.5191 37.0646C56.5191 36.6037 56.7495 36.2197 57.2105 36.2197ZM57.8252 37.0646C57.8252 36.6037 57.5948 36.3733 57.2875 36.3733C56.8265 36.3733 56.6727 36.6808 56.6727 37.0646C56.6727 37.4492 56.8265 37.756 57.2875 37.756C57.6714 37.756 57.8251 37.4492 57.8251 37.0646H57.8252ZM59.5921 36.2197H59.8225V37.8332H59.6687V36.4504L59.1311 37.8332H58.9773L58.4396 36.4504V37.8332H58.2862V36.2197H58.5167L59.0543 37.679L59.5921 36.2197ZM60.2068 37.8332V36.2197H60.7444C61.1284 36.2197 61.282 36.4503 61.282 36.6808C61.282 36.8342 61.1284 36.9884 61.0517 36.9884C61.2821 37.0646 61.3593 37.2188 61.3593 37.3722C61.3593 37.756 61.1284 37.8332 60.8212 37.8332H60.2068ZM60.3602 37.679H60.7445C61.0517 37.679 61.2054 37.679 61.2054 37.3722C61.2054 37.1417 61.0516 37.0646 60.7445 37.0646H60.3602V37.679ZM60.3602 36.9884H60.7445C61.0517 36.9884 61.1284 36.8342 61.1284 36.6808C61.1284 36.4503 61.0517 36.3733 60.6674 36.3733H60.3602V36.9884ZM61.7431 36.2197H61.8969V37.8332H61.7431V36.2197ZM62.2041 37.8332L62.8186 36.2197H62.9724L63.587 37.8332H63.4332L63.2794 37.3722H62.5114L62.3579 37.8332H62.2041ZM62.5879 37.2188H63.2028L62.8955 36.3733L62.5879 37.2188ZM64.5855 37.3722C64.5855 37.679 64.7391 37.756 65.0466 37.756C65.2771 37.756 65.4305 37.6026 65.4305 37.4492C65.4305 36.9112 64.4319 37.2952 64.4319 36.6037C64.4319 36.4503 64.6623 36.2199 64.9699 36.2199C65.3537 36.2199 65.5076 36.4503 65.5076 36.6808H65.3538C65.3538 36.4503 65.2 36.3733 64.97 36.3733C64.6624 36.3733 64.5855 36.5273 64.5855 36.6808C64.6623 37.0646 65.5844 36.8342 65.5844 37.4492C65.5844 37.679 65.3538 37.9095 64.9699 37.9095C64.6623 37.9095 64.4319 37.679 64.4319 37.3722H64.5855ZM65.8915 37.679H66.122V37.8332H65.8915V37.679ZM66.3524 37.8332L66.9671 36.2197H67.1977L67.812 37.8332H67.6586L67.4282 37.3722H66.7367L66.5063 37.8332H66.3524ZM66.7367 37.2188H67.4281L67.1205 36.3733L66.7367 37.2188ZM68.0426 37.679H68.2731V37.8332H68.0426V37.679Z" fill="#173B93"/>
<path fill-rule="evenodd" clip-rule="evenodd" d="M44.1497 26.0796H35.3917C35.3148 26.0796 34.6236 26.0027 34.1625 27.2319C33.7785 28.3844 32.6259 31.9951 32.6259 31.9951C32.6259 31.9951 31.781 33.6849 34.009 33.6849H41.6912L42.0754 32.5324H36.1599C36.1599 32.5324 35.3147 32.7629 35.6989 31.6875C36.0064 30.6122 37.0817 27.2319 37.0817 27.2319H43.7652L44.1497 26.0796ZM58.6692 27.2319C59.0534 26.0027 59.7448 26.0796 59.8982 26.0796H68.4258L68.0416 27.2319H61.6654L61.2812 28.2306C61.2812 28.2306 61.1274 28.7683 61.7422 28.7683H66.121C66.121 28.7683 67.5807 28.6912 67.1967 29.8437C66.8892 30.996 66.3516 32.6096 66.3516 32.6096C66.3516 32.6096 66.1978 33.6849 65.0457 33.6849H56.5953L56.9791 32.5324H63.2018L63.509 31.6875C63.509 31.6875 63.6628 31.3037 63.2784 31.3037H58.5158C58.5158 31.3037 57.3633 31.3801 57.8243 29.8437C58.362 28.3844 58.6692 27.2319 58.6692 27.2319ZM51.1404 28.9988H52.3697L52.6769 27.8465C52.6769 27.8465 53.0612 27.2319 52.2162 27.2319H49.5271C49.5271 27.2319 49.3736 27.7696 49.1433 28.3844C49.1433 28.3844 48.9128 28.9988 49.9113 28.9988H51.2172L49.2967 29.9977H48.6823C48.4518 30.6892 48.2212 31.3036 48.1442 31.6875C47.7603 32.7629 48.6056 32.5324 48.6056 32.5324H54.5207L54.1369 33.6849H46.4544C44.2265 33.6849 45.0716 31.9951 45.0716 31.9951C45.0716 31.9951 46.224 28.3844 46.6079 27.2319C46.9921 26.0027 47.7603 26.0796 47.8369 26.0796H54.9051C54.9051 26.0796 55.9804 26.2331 55.8271 27.1552C55.5966 28.0771 55.1352 29.9978 55.1352 29.9978H49.2199L51.1404 28.9988Z" fill="#F97C1D"/>
<path fill-rule="evenodd" clip-rule="evenodd" d="M22.4864 26.0796H30.9369C30.9369 26.0796 31.859 26.3869 31.6284 27.1552C31.3212 28.1537 29.5543 33.301 29.5543 33.301H21.1037C21.1037 33.301 20.1048 33.1476 20.3353 32.2258C20.4891 31.5343 21.2573 29.5368 21.3343 29.3827C21.411 29.1523 21.7184 28.9219 22.1023 28.9219H28.0947C28.0947 28.9219 28.5556 27.616 28.5556 27.5391C28.6323 27.5391 28.863 26.9246 28.0946 26.9246H22.1792L22.4864 26.0796Z" fill="white"/>
<path fill-rule="evenodd" clip-rule="evenodd" d="M27.4031 30.5351C27.4799 30.3817 27.4799 29.8438 26.942 29.8438H25.252C25.252 29.8438 24.791 29.8438 24.7144 30.3047C24.5606 30.6892 24.2534 31.7646 24.2534 31.7646C24.2534 31.7646 24.0997 32.5324 24.7144 32.5324H26.2507C26.2507 32.5324 26.6349 32.6864 26.942 31.9951C27.1021 31.5104 27.2558 31.0238 27.4031 30.5351Z" fill="#F97C1D"/>
</svg>
