<svg width="84" height="56" viewBox="0 0 84 56" fill="none" xmlns="http://www.w3.org/2000/svg">
<path d="M30.036 34.6936H25.6152L25.8968 30.8925H18.5964L15.233 34.6936H10.8633L25.8709 18.0566H30.1898L30.036 34.6936ZM25.9248 27.9855L26.2484 22.1261L21.1845 27.9855H25.9248ZM46.4786 18.603C48.3002 19.1107 49.7418 20.1484 50.8037 21.7173C51.7778 23.159 52.265 24.7908 52.265 26.6123C52.265 28.5619 51.7244 30.2577 50.6406 31.6996C49.4694 33.2848 47.8555 34.2266 45.7962 34.5274C44.9951 34.6378 44.0957 34.6936 43.0991 34.6936H30.8444V18.0566H42.4165C43.7814 18.0566 45.135 18.2395 46.4786 18.6029V18.603ZM47.0772 26.6578C47.0772 25.1169 46.7628 23.8532 46.1364 22.868C45.3348 21.6287 44.1238 21.0079 42.4978 21.0079H36.1648V31.8313H42.9219C44.3914 31.8313 45.4865 31.2674 46.2016 30.1389C46.7861 29.2177 47.0771 28.0576 47.0771 26.6578H47.0772Z" fill="#312C59"/>
<path d="M60.4048 34.6716H49.4901C48.3836 34.6716 47.2886 34.568 46.2058 34.3629C44.1092 33.9368 42.4486 32.9577 41.223 31.4237C40.117 30.0332 39.5645 28.4142 39.5645 26.5647C39.5645 24.7794 40.0586 23.1988 41.0485 21.8246C42.1318 20.3082 43.6738 19.2726 45.6746 18.7196C47.228 18.293 48.8319 18.0776 50.4429 18.0791H60.3332V21.255H50.07C48.4022 21.255 47.191 21.8629 46.4388 23.0789C45.8494 24.0257 45.5559 25.2651 45.5559 26.7964C45.5559 28.0917 45.9334 29.1886 46.6858 30.0877C47.5539 31.1463 48.7772 31.6753 50.3544 31.6753H60.4048V34.6716ZM60.6377 34.6099L61.8214 31.7043H62.276L63.5384 34.6099H63.0725L62.7156 33.7307H61.4091L61.0757 34.6099H60.6377ZM61.5258 33.4175H62.5929L62.2666 32.6096C62.1687 32.3634 62.0943 32.1611 62.043 32.0026C61.9982 32.1929 61.9396 32.3797 61.8679 32.5616L61.5258 33.4175ZM63.6005 32.1098V31.7043H63.9828V32.1098H63.6005ZM63.6005 34.6099V32.4999H63.9828V34.6099H63.6005ZM64.3369 34.6099V32.4999H64.6816V32.8189C64.7682 32.6701 64.8473 32.5722 64.9193 32.5242C64.9914 32.4778 65.0754 32.4532 65.1611 32.4533C65.2869 32.4533 65.4159 32.4915 65.5464 32.5675L65.4128 32.8948C65.3228 32.8458 65.2311 32.8212 65.1409 32.8212C65.0592 32.8212 64.9872 32.8446 64.922 32.8912C64.8567 32.9389 64.8101 33.0043 64.7822 33.0866C64.7402 33.2149 64.7189 33.3532 64.7189 33.5049V34.6099H64.3369ZM65.5527 34.6099V31.7043H65.9347V34.6099H65.5527ZM66.3123 32.1098V31.7043H66.6944V32.1098H66.3123ZM66.3123 34.6099V32.4999H66.6944V34.6099H66.3123ZM67.0481 34.6099V32.4999H67.3928V32.7992C67.556 32.5686 67.7936 32.4533 68.1037 32.4533C68.2389 32.4533 68.3622 32.4767 68.4766 32.522C68.5885 32.5675 68.6739 32.628 68.7298 32.7025C68.7881 32.7801 68.828 32.8701 68.8463 32.9654C68.8603 33.0321 68.8681 33.1482 68.8681 33.3139V34.6099H68.4859V33.3241C68.4859 33.1786 68.4719 33.069 68.4409 32.997C68.4129 32.925 68.36 32.8678 68.2855 32.8249C68.2109 32.7806 68.1225 32.7595 68.022 32.7595C67.8614 32.7595 67.7217 32.8086 67.6052 32.9051C67.4887 33.0017 67.4301 33.1854 67.4301 33.4558V34.61L67.0481 34.6099ZM70.775 33.93L71.1645 33.9751C71.1038 34.1921 70.9874 34.3582 70.8217 34.4785C70.6539 34.5968 70.4396 34.6565 70.1785 34.6565C69.8529 34.6565 69.592 34.5613 69.4009 34.3713C69.2076 34.1818 69.1119 33.916 69.1119 33.5722C69.1119 33.2181 69.2098 32.9437 69.4034 32.748C69.5967 32.5512 69.8482 32.4533 70.1584 32.4533C70.4581 32.4533 70.7036 32.5499 70.8942 32.741C71.0826 32.9329 71.1785 33.2031 71.1785 33.5515C71.1785 33.5722 71.1758 33.6049 71.1758 33.6469H69.5034C69.5174 33.8789 69.5873 34.057 69.7131 34.1802C69.8389 34.304 69.9952 34.3655 70.1817 34.3655C70.323 34.3655 70.4426 34.3319 70.5405 34.2619C70.64 34.1921 70.7171 34.0813 70.775 33.9301V33.93ZM69.5247 33.3558H70.7797C70.7637 33.1762 70.7145 33.0426 70.6353 32.953C70.5141 32.8143 70.3587 32.7443 70.1645 32.7443C69.9907 32.7443 69.8414 32.8002 69.7223 32.9111C69.6039 33.0213 69.5386 33.1704 69.5247 33.3558ZM71.269 33.9683L71.6444 33.9217C71.6646 34.0651 71.7237 34.1755 71.8216 34.2516C71.9163 34.3283 72.0546 34.3655 72.227 34.3655C72.4035 34.3655 72.5315 34.3319 72.6179 34.2656C72.7018 34.1978 72.7458 34.1185 72.7458 34.028C72.7458 33.9461 72.7063 33.8835 72.6293 33.8359C72.578 33.8042 72.4475 33.7634 72.2379 33.7147C71.9582 33.648 71.7656 33.591 71.6583 33.5433C71.5512 33.4941 71.4694 33.4277 71.4135 33.3429C71.358 33.2591 71.3287 33.1607 71.3297 33.0601C71.3297 32.9654 71.353 32.8795 71.3996 32.7992C71.444 32.72 71.5068 32.6537 71.5858 32.6001C71.6444 32.5591 71.7252 32.5242 71.8278 32.4964C71.9356 32.4673 72.0469 32.4529 72.1586 32.4533C72.3358 32.4533 72.4896 32.4776 72.6226 32.5242C72.7576 32.5722 72.8557 32.6361 72.9182 32.7177C72.9836 32.7978 73.0279 32.9064 73.0514 33.0425L72.6759 33.0876C72.6599 32.981 72.6107 32.8958 72.5294 32.8352C72.4475 32.7745 72.3336 32.7443 72.185 32.7443C72.0095 32.7443 71.8837 32.7712 71.8091 32.8258C71.7347 32.8808 71.6973 32.9447 71.6973 33.0182C71.6973 33.0643 71.7112 33.1063 71.7439 33.1436C71.775 33.1823 71.8231 33.215 71.8884 33.2404C71.9287 33.2532 72.0406 33.2833 72.227 33.3325C72.4967 33.3989 72.6853 33.4547 72.7924 33.4978C72.8996 33.5407 72.9836 33.6028 73.044 33.6852C73.1046 33.767 73.1352 33.8686 73.1352 33.9906C73.1352 34.1093 73.0979 34.2211 73.0234 34.3257C72.9488 34.4317 72.8437 34.5136 72.7039 34.5706C72.564 34.6276 72.4056 34.6565 72.2285 34.6565C71.938 34.6565 71.7143 34.5986 71.5605 34.483C71.4089 34.3666 71.311 34.1957 71.269 33.9683Z" fill="#312C59"/>
<path d="M45.2881 36.3976C45.199 36.4667 45.0982 36.5191 44.9905 36.5524C44.8807 36.5861 44.75 36.6026 44.5963 36.6026H44.2819L44.0957 37.3654H43.8047L44.3035 35.3367H44.8692C45.0019 35.3367 45.1091 35.3482 45.195 35.3693C45.2815 35.3916 45.3515 35.4227 45.4074 35.463C45.4632 35.5039 45.5073 35.553 45.5352 35.6122C45.5658 35.6713 45.5819 35.7416 45.5819 35.8234C45.5819 35.9338 45.5565 36.0387 45.5053 36.1387C45.4525 36.2397 45.3785 36.3281 45.2882 36.3977L45.2881 36.3976ZM45.2767 35.8686C45.2767 35.8218 45.2674 35.7789 45.2508 35.7395C45.2351 35.7002 45.2086 35.6663 45.1743 35.6417C45.1304 35.6104 45.0804 35.5888 45.0276 35.578C44.9717 35.5641 44.8972 35.5578 44.8061 35.5578H44.5384L44.3359 36.382H44.5943C44.7082 36.382 44.8061 36.3717 44.8832 36.3521C44.9547 36.3341 45.0219 36.302 45.081 36.2577C45.1463 36.2056 45.1949 36.148 45.2276 36.0829C45.2609 36.0164 45.2778 35.9428 45.2767 35.8684V35.8686ZM46.2175 35.2471L45.6962 37.3654H45.4259L45.9478 35.2471H46.2175ZM46.856 37.4011C46.6322 37.4011 46.4577 37.353 46.3295 37.2536C46.2015 37.1537 46.1384 37.0091 46.1384 36.8181C46.1384 36.5385 46.2315 36.2988 46.4206 36.0994C46.6069 35.899 46.8394 35.7985 47.1143 35.7985C47.2982 35.7985 47.4379 35.842 47.536 35.928C47.6336 36.0128 47.683 36.1342 47.683 36.2894C47.683 36.3158 47.6803 36.3605 47.671 36.4183C47.6608 36.4872 47.6476 36.5556 47.6315 36.6234H46.4391C46.4321 36.6493 46.4274 36.6758 46.4252 36.7026C46.4227 36.7285 46.4227 36.7517 46.4227 36.7735C46.4227 36.9019 46.4645 37.0034 46.5464 37.0764C46.6303 37.1495 46.7468 37.1858 46.8999 37.1858C47.0051 37.1858 47.1143 37.1672 47.2262 37.1293C47.3402 37.089 47.4334 37.0464 47.5105 36.9972H47.5265L47.4659 37.2738C47.4172 37.2894 47.3754 37.3049 47.3355 37.3188C47.2982 37.3328 47.2495 37.3452 47.189 37.3592C47.1284 37.3731 47.075 37.3839 47.0305 37.3907C46.9839 37.3981 46.9258 37.4011 46.856 37.4011ZM47.408 36.4349C47.4125 36.409 47.4146 36.3868 47.4174 36.3681C47.4193 36.351 47.422 36.3314 47.422 36.3101C47.422 36.2133 47.3915 36.1387 47.3355 36.0853C47.2775 36.0306 47.1868 36.0036 47.0611 36.0036C46.9234 36.0036 46.8021 36.0434 46.6955 36.1227C46.5899 36.1992 46.5134 36.3093 46.4785 36.4349H47.408ZM48.7381 37.2038C48.7017 37.2228 48.6659 37.2432 48.631 37.2649C48.5871 37.292 48.541 37.3152 48.4932 37.3344C48.4397 37.3561 48.3844 37.3734 48.328 37.3862C48.2591 37.4011 48.1888 37.4082 48.1184 37.4074C47.9905 37.4074 47.8853 37.3716 47.8041 37.3017C47.7249 37.2318 47.6849 37.1392 47.6849 37.0252C47.6849 36.9056 47.7129 36.803 47.7689 36.7202C47.8248 36.6374 47.9086 36.5701 48.0185 36.5162C48.1276 36.4649 48.2582 36.4277 48.4119 36.4044C48.5658 36.381 48.7402 36.3671 48.9382 36.3613C48.9427 36.3354 48.9499 36.3138 48.9546 36.294C48.9567 36.2755 48.9592 36.2569 48.9592 36.2355C48.9592 36.1915 48.9499 36.1564 48.9314 36.1283C48.9131 36.0987 48.8862 36.0756 48.8542 36.0622C48.8165 36.0451 48.7766 36.0337 48.7356 36.0284C48.6869 36.0223 48.6379 36.0196 48.5889 36.0202C48.5051 36.0202 48.412 36.0316 48.3068 36.0575C48.2022 36.0818 48.1157 36.1061 48.0506 36.1294H48.037L48.0905 35.8757C48.1707 35.8578 48.2515 35.8426 48.3327 35.8301C48.4374 35.8125 48.5399 35.8048 48.6378 35.8048C48.8382 35.8048 48.9892 35.8343 49.0897 35.8932C49.1896 35.9523 49.2389 36.0455 49.2389 36.174C49.2389 36.1983 49.2389 36.2252 49.2342 36.2532C49.2295 36.2801 49.225 36.3064 49.2176 36.3314L48.966 37.3654H48.6984L48.7381 37.2039V37.2038ZM48.8893 36.5664C48.7402 36.5721 48.6077 36.5814 48.4932 36.598C48.3768 36.613 48.2814 36.6364 48.2069 36.6653C48.1276 36.6944 48.0692 36.7342 48.0298 36.7855C47.9879 36.8357 47.9672 36.8977 47.9672 36.9723C47.9672 37.0372 47.9926 37.0858 48.0391 37.1201C48.0878 37.1536 48.1603 37.1712 48.2602 37.1712C48.3487 37.1712 48.4399 37.1525 48.5306 37.1162C48.6206 37.081 48.7072 37.0375 48.7893 36.9864L48.8893 36.5664ZM49.8488 37.4074C49.7277 37.4074 49.6211 37.3933 49.5252 37.3638C49.4299 37.336 49.3508 37.3063 49.2876 37.2738L49.348 36.9972H49.3621C49.3833 37.0138 49.4087 37.033 49.4414 37.0564C49.4739 37.0791 49.5159 37.1023 49.5672 37.1246C49.6117 37.1448 49.6629 37.1635 49.723 37.179C49.7815 37.1945 49.8441 37.2023 49.9094 37.2023C50.0472 37.2023 50.1544 37.1774 50.231 37.1298C50.3101 37.0827 50.3475 37.0113 50.3475 36.9181C50.3475 36.87 50.3289 36.8326 50.2895 36.8077C50.2496 36.7808 50.1916 36.7596 50.117 36.7436C50.0798 36.7353 50.0332 36.7258 49.9794 36.7155C49.9255 36.7055 49.872 36.6938 49.8188 36.6803C49.707 36.6504 49.623 36.6073 49.5673 36.5499C49.5137 36.4935 49.4845 36.4183 49.4859 36.3406C49.4859 36.2692 49.5019 36.203 49.5345 36.1413C49.5672 36.0781 49.6164 36.0222 49.6816 35.9699C49.7417 35.9212 49.8209 35.8804 49.9166 35.8498C50.0201 35.8189 50.1277 35.8038 50.2356 35.8048C50.3313 35.8048 50.4268 35.8157 50.5225 35.8384C50.6204 35.8605 50.6965 35.8887 50.7571 35.9222L50.6997 36.1833H50.6855C50.6715 36.1713 50.6452 36.1553 50.6157 36.1357C50.5779 36.1115 50.538 36.0907 50.4966 36.0735C50.4491 36.0544 50.4001 36.0393 50.3501 36.0284C50.2935 36.0156 50.2356 36.0094 50.1776 36.0099C50.0565 36.0099 49.9587 36.0342 49.8841 36.0818C49.8069 36.1311 49.7696 36.1972 49.7696 36.2812C49.7696 36.3262 49.7883 36.365 49.8255 36.3951C49.8629 36.4256 49.9187 36.45 49.9933 36.466C50.0425 36.478 50.0911 36.4882 50.1425 36.4976C50.1963 36.5069 50.2449 36.5173 50.2942 36.5282C50.4061 36.5545 50.4899 36.5955 50.5473 36.6513C50.6032 36.7073 50.6312 36.7771 50.6312 36.8605C50.6312 36.9305 50.6157 36.9998 50.5783 37.0672C50.5432 37.134 50.492 37.1914 50.4267 37.2416C50.3515 37.2964 50.2671 37.3374 50.1776 37.3627C50.0798 37.3918 49.97 37.4074 49.8488 37.4074ZM52.4622 35.8406L52.0878 37.3654H51.8149L51.8568 37.1929C51.7523 37.2612 51.6564 37.3141 51.5658 37.3515C51.4757 37.3889 51.3791 37.4079 51.2816 37.4074C51.1422 37.4074 51.032 37.3747 50.9559 37.3079C50.8766 37.2416 50.8363 37.1463 50.8363 37.0189C50.8363 36.9895 50.8394 36.9585 50.8441 36.93C50.8488 36.9009 50.8534 36.8668 50.8627 36.8294L51.105 35.8404H51.3769L51.1655 36.7083C51.1563 36.7436 51.147 36.7828 51.1391 36.8284C51.133 36.874 51.1283 36.9103 51.1283 36.9366C51.1283 37.0143 51.1485 37.0734 51.1904 37.1122C51.2324 37.1511 51.3049 37.1712 51.4074 37.1712C51.4794 37.1712 51.5612 37.1511 51.6545 37.1122C51.7444 37.075 51.8302 37.0287 51.9107 36.9741L52.1904 35.8406H52.4622ZM53.7763 36.1086H53.7624C53.7229 36.1004 53.6878 36.0936 53.6531 36.089C53.6129 36.0847 53.5724 36.0826 53.5319 36.0829C53.4408 36.0829 53.3522 36.1031 53.2616 36.1413C53.1731 36.1796 53.0866 36.2263 53.0053 36.2812L52.7417 37.3654H52.4667L52.8349 35.8406H53.1099L53.0565 36.0657C53.1871 35.9819 53.2943 35.9234 53.3849 35.8896C53.4734 35.857 53.5599 35.8406 53.6411 35.8406C53.6903 35.8406 53.725 35.842 53.7463 35.8441C53.767 35.8466 53.7976 35.8514 53.8396 35.857L53.7763 36.1086ZM54.3538 37.4011C54.13 37.4011 53.956 37.353 53.8271 37.2536C53.7017 37.1537 53.6365 37.0091 53.6365 36.8181C53.6365 36.5385 53.7323 36.2988 53.9188 36.0994C54.1068 35.899 54.3381 35.7985 54.6147 35.7985C54.7963 35.7985 54.9388 35.842 55.0367 35.928C55.1346 36.0128 55.1832 36.1342 55.1832 36.2894C55.1832 36.3158 55.1785 36.3605 55.1692 36.4183C55.1603 36.4874 55.1471 36.5559 55.1298 36.6234H53.9373C53.9327 36.6505 53.928 36.6772 53.9249 36.7026C53.9233 36.7285 53.9203 36.7517 53.9203 36.7735C53.9203 36.9019 53.9622 37.0034 54.0461 37.0764C54.1283 37.1495 54.2464 37.1858 54.3988 37.1858C54.5027 37.1858 54.6125 37.1672 54.7264 37.1293C54.8383 37.089 54.9315 37.0464 55.0087 36.9972H55.0247L54.9642 37.2738C54.9213 37.2881 54.8786 37.3031 54.8363 37.3188C54.7963 37.3328 54.7477 37.3452 54.6871 37.3592C54.6286 37.3731 54.5752 37.3839 54.5286 37.3907C54.4825 37.3981 54.4236 37.4011 54.3538 37.4011ZM54.9061 36.4349C54.9108 36.409 54.9155 36.3868 54.9155 36.3681C54.9175 36.351 54.9201 36.3314 54.9201 36.3101C54.9201 36.2133 54.8921 36.1387 54.8336 36.0853C54.7777 36.0306 54.6872 36.0036 54.5613 36.0036C54.4236 36.0036 54.3009 36.0434 54.1937 36.1227C54.088 36.1992 54.0113 36.3093 53.9762 36.4349H54.9061ZM56.8675 37.4074C56.7252 37.4074 56.5925 37.3933 56.4667 37.3654C56.3381 37.337 56.2131 37.2943 56.0939 37.2381L56.1639 36.9289H56.1846C56.2778 37.0128 56.3896 37.0748 56.5248 37.1201C56.6599 37.1635 56.7904 37.1858 56.9162 37.1858C57.1208 37.1858 57.2792 37.1479 57.3895 37.0702C57.5013 36.9925 57.5542 36.8932 57.5542 36.7735C57.5542 36.7109 57.5355 36.657 57.4967 36.6151C57.4563 36.5732 57.4004 36.5432 57.3242 36.5219C57.2502 36.5039 57.1756 36.4884 57.1005 36.4753C57.0178 36.461 56.9355 36.4448 56.8535 36.4267C56.7019 36.3951 56.5853 36.3406 56.5014 36.2625C56.4201 36.1853 56.3782 36.089 56.3782 35.9736C56.3782 35.7788 56.4642 35.6168 56.6392 35.4878C56.8137 35.3589 57.04 35.2948 57.315 35.2948C57.4657 35.2948 57.6039 35.3097 57.725 35.3387C57.8477 35.3683 57.955 35.4024 58.0434 35.4428L57.9781 35.7318H57.9574C57.8896 35.6718 57.7917 35.6214 57.6644 35.5785C57.535 35.5367 57.3997 35.5156 57.2637 35.5159C57.0866 35.5159 56.9443 35.5515 56.8395 35.6251C56.7344 35.6991 56.6832 35.7924 56.6832 35.9047C56.6832 35.9652 56.7017 36.0175 56.7391 36.0641C56.7765 36.1098 56.8443 36.1434 56.9421 36.1667C57.0027 36.1807 57.0866 36.1972 57.186 36.2169C57.2885 36.2366 57.3754 36.2553 57.4454 36.2718C57.5821 36.308 57.6877 36.3605 57.757 36.4314C57.8291 36.5011 57.8643 36.5897 57.8643 36.697C57.8643 36.7865 57.8409 36.8745 57.7944 36.9631C57.7485 37.0529 57.6822 37.1308 57.6008 37.1903C57.5123 37.2582 57.4081 37.3114 57.2885 37.3488C57.1705 37.387 57.028 37.4074 56.8675 37.4074ZM58.7497 37.4011C58.526 37.4011 58.351 37.353 58.2232 37.2536C58.0947 37.1537 58.032 37.0091 58.032 36.8181C58.032 36.5385 58.1253 36.2988 58.3138 36.0994C58.5001 35.899 58.7326 35.7985 59.0077 35.7985C59.1925 35.7985 59.3337 35.842 59.4296 35.928C59.5276 36.0128 59.5761 36.1342 59.5761 36.2894C59.5761 36.3158 59.574 36.3605 59.5647 36.4183C59.5544 36.4872 59.5411 36.5556 59.5248 36.6234H58.3324C58.3256 36.6505 58.323 36.6772 58.3184 36.7026C58.3163 36.7285 58.3163 36.7517 58.3163 36.7735C58.3163 36.9019 58.3583 37.0034 58.4396 37.0764C58.5234 37.1495 58.64 37.1858 58.7931 37.1858C58.8989 37.1858 59.0077 37.1672 59.1194 37.1293C59.2344 37.089 59.3271 37.0464 59.4038 36.9972H59.4201L59.3597 37.2738C59.3104 37.2894 59.2685 37.3049 59.2296 37.3188C59.1925 37.3328 59.1427 37.3452 59.0822 37.3592C59.0216 37.3731 58.9687 37.3839 58.9237 37.3907C58.8771 37.3981 58.8196 37.4011 58.7497 37.4011ZM59.3013 36.4349C59.3058 36.409 59.3084 36.3868 59.3105 36.3681C59.3136 36.351 59.3152 36.3314 59.3152 36.3101C59.3152 36.2133 59.2856 36.1387 59.2298 36.0853C59.1707 36.0306 59.0806 36.0036 58.9564 36.0036C58.8165 36.0036 58.6954 36.0434 58.5887 36.1227C58.4832 36.1993 58.4069 36.3093 58.3722 36.4349H59.3013ZM60.9084 36.1086H60.8943C60.8584 36.1008 60.8221 36.0943 60.7857 36.089C60.7454 36.0847 60.705 36.0826 60.6645 36.0829C60.5713 36.0836 60.4793 36.1035 60.3942 36.1413C60.3057 36.1796 60.2191 36.2263 60.1379 36.2812L59.8743 37.3654H59.5993L59.9675 35.8406H60.245L60.1892 36.0657C60.3171 35.9819 60.4267 35.9234 60.517 35.8896C60.5999 35.8581 60.6877 35.8415 60.7763 35.8406C60.8229 35.8406 60.8556 35.842 60.8789 35.8441C60.8992 35.8466 60.9302 35.8514 60.9715 35.857L60.9084 36.1086Z" fill="#EA7D32"/>
<path d="M62.4711 35.8412L61.4432 37.366H61.1729L60.8965 35.8412H61.1729L61.378 37.057L62.1728 35.8412H62.4711ZM62.9712 35.8412L62.5963 37.366H62.3267L62.701 35.8412H62.9712ZM63.1204 35.3223L63.0551 35.5895H62.7476L62.8129 35.3223H63.1204ZM64.6158 36.1894C64.6158 36.2118 64.6136 36.2408 64.609 36.2782C64.6058 36.3116 64.5996 36.3446 64.5904 36.377L64.3481 37.3659H64.0783L64.2895 36.4993C64.2989 36.4516 64.3083 36.4096 64.3154 36.3735C64.3201 36.3387 64.3248 36.3025 64.3248 36.2667C64.3248 36.1895 64.3036 36.1325 64.2641 36.0942C64.2222 36.0555 64.1498 36.0357 64.0457 36.0357C63.971 36.0357 63.8888 36.0555 63.8002 36.0927C63.7102 36.1316 63.6232 36.1782 63.5376 36.2316L63.2601 37.366H62.9879L63.3627 35.8412H63.6356L63.5937 36.0113C63.6848 35.949 63.7821 35.8962 63.8841 35.854C63.974 35.8178 64.0699 35.7992 64.1668 35.7991C64.3083 35.7991 64.418 35.8333 64.4973 35.8996C64.5765 35.9669 64.6158 36.0637 64.6158 36.1894ZM66.398 35.8412L66.0672 37.1967C66.0041 37.4557 65.8995 37.6441 65.7569 37.7641C65.6125 37.8843 65.4122 37.9434 65.1542 37.9434C64.9922 37.9432 64.8308 37.9218 64.6744 37.8796L64.7369 37.6279H64.751C64.8047 37.6501 64.8767 37.672 64.968 37.6922C65.0525 37.7122 65.1389 37.7226 65.2257 37.7233C65.3173 37.7233 65.3934 37.7119 65.4572 37.6896C65.5225 37.6674 65.5737 37.6362 65.6156 37.5975C65.6545 37.5593 65.6871 37.5151 65.7134 37.4649C65.7384 37.4143 65.76 37.3567 65.7741 37.2935L65.8066 37.161C65.7089 37.2231 65.625 37.2681 65.5504 37.2981C65.4774 37.3302 65.3827 37.3447 65.2676 37.3447C65.1123 37.3447 64.9886 37.2991 64.9026 37.2091C64.814 37.1174 64.7696 36.9912 64.7696 36.8256C64.7698 36.6945 64.7928 36.5644 64.8374 36.4412C64.884 36.3164 64.9467 36.2062 65.0285 36.1104C65.1083 36.0161 65.2066 35.9393 65.3173 35.8847C65.4282 35.8275 65.5514 35.7981 65.6762 35.7991C65.7694 35.7991 65.85 35.8101 65.9227 35.8297C65.9947 35.8494 66.0578 35.8753 66.1138 35.9063L66.1464 35.8412H66.398ZM66.0624 36.1161C66.0012 36.0866 65.9373 36.0631 65.8715 36.0461C65.8078 36.0291 65.7422 36.0206 65.6763 36.0208C65.5831 36.0208 65.496 36.0404 65.4198 36.0812C65.3421 36.1222 65.2755 36.1782 65.2194 36.2502C65.1683 36.3174 65.1263 36.3994 65.0959 36.4946C65.0683 36.5874 65.0541 36.6836 65.0538 36.7804C65.0538 36.8886 65.0797 36.9714 65.131 37.0304C65.1823 37.089 65.266 37.119 65.378 37.119C65.4611 37.1183 65.5433 37.102 65.6203 37.071C65.703 37.0381 65.7824 36.9975 65.8574 36.9497L66.0624 36.1161ZM67.6019 37.9274H67.2974L67.7721 37.2713L67.4786 35.8412H67.7582L67.9888 36.9714L68.7602 35.8412H69.0627L67.6019 37.9274ZM70.5041 36.3805C70.5041 36.5168 70.484 36.6484 70.439 36.773C70.3982 36.8934 70.3343 37.0046 70.2509 37.1004C70.17 37.1946 70.0708 37.2713 69.9594 37.3261C69.8502 37.3816 69.7217 37.408 69.5753 37.408C69.3842 37.408 69.235 37.3567 69.1277 37.2526C69.018 37.149 68.9651 37.0072 68.9651 36.8254C68.9651 36.6893 68.9886 36.5587 69.032 36.4355C69.0733 36.3145 69.1375 36.2025 69.221 36.1057C69.3029 36.0116 69.4037 35.9358 69.5167 35.8831C69.6312 35.8271 69.759 35.7991 69.8968 35.7991C70.0832 35.7991 70.2291 35.8493 70.3411 35.9499C70.4513 36.0498 70.5041 36.1932 70.5041 36.3806V36.3805ZM70.0619 36.9543C70.1127 36.8829 70.1531 36.7989 70.181 36.7032C70.2089 36.6089 70.2198 36.5075 70.2198 36.4014C70.2198 36.2745 70.1904 36.1792 70.1251 36.1128C70.0619 36.0477 69.9714 36.015 69.8522 36.015C69.759 36.015 69.6751 36.0357 69.6032 36.0787C69.5269 36.1221 69.4608 36.1815 69.4096 36.2528C69.3583 36.3237 69.3189 36.4075 69.2909 36.5038C69.2628 36.6013 69.2487 36.7022 69.249 36.8036C69.249 36.9279 69.2817 37.0243 69.3468 37.0909C69.4096 37.1583 69.5006 37.192 69.6193 37.192C69.7124 37.192 69.7964 37.1718 69.8709 37.1299C69.9455 37.088 70.0085 37.0288 70.0619 36.9543ZM72.2915 35.8412L71.9156 37.366H71.6437L71.6858 37.1935C71.5806 37.2618 71.4854 37.3147 71.3943 37.3521C71.3042 37.3896 71.2075 37.4086 71.1099 37.408C70.9701 37.408 70.8629 37.3753 70.7837 37.3084C70.7045 37.2422 70.6657 37.1469 70.6657 37.0195C70.6657 36.9901 70.6672 36.9591 70.6719 36.9306C70.6765 36.9015 70.6842 36.8674 70.6904 36.83L70.933 35.841H71.2057L70.9935 36.7089C70.9841 36.7442 70.9773 36.7834 70.9681 36.829C70.9615 36.8647 70.9575 36.9009 70.9561 36.9372C70.9561 37.0148 70.9773 37.074 71.0194 37.1128C71.0613 37.1517 71.1333 37.1718 71.2358 37.1718C71.3082 37.1718 71.3896 37.1517 71.4827 37.1128C71.5725 37.0757 71.6583 37.0294 71.7385 36.9746L72.0181 35.8412H72.2915ZM72.7451 37.366H72.3957L72.4914 36.9771H72.8431L72.7451 37.366Z" fill="#EA7D32"/>
</svg>
