<svg width="84" height="56" viewBox="0 0 84 56" fill="none" xmlns="http://www.w3.org/2000/svg">
<g clip-path="url(#clip0_557_32849)">
<path d="M6.05356 22.7997L6.05442 22.7993C6.97714 22.3359 7.99055 22.0545 9.02135 21.9622C10.7273 21.8147 12.4771 22.2063 13.9451 23.0845L13.9462 23.0851C15.2304 23.846 16.3019 24.9617 17.0076 26.2764L17.0081 26.2775C17.776 27.6943 18.109 29.3426 17.9567 30.9471L17.9565 30.9491C17.8177 32.5253 17.2036 34.0561 16.221 35.2971L16.2204 35.2977C15.2089 36.5829 13.8075 37.5589 12.2489 38.0526L12.2479 38.0529C10.6768 38.5569 8.95348 38.5726 7.37375 38.0978L7.3729 38.0976C5.85316 37.6457 4.47197 36.7404 3.44774 35.5304L3.44691 35.5294C2.35323 34.2487 1.66879 32.6242 1.5199 30.9474L1.51972 30.9455C1.36938 29.3667 1.69226 27.7447 2.43411 26.3427L2.43457 26.3418C3.23184 24.8228 4.51762 23.5647 6.05356 22.7997ZM14.0558 21.8025C12.4939 20.9921 10.7017 20.6411 8.95052 20.7901C8.20162 20.8529 7.45888 21.0029 6.74479 21.2436C4.90841 21.8524 3.28073 23.0492 2.13819 24.6057C0.966964 26.1927 0.31185 28.1553 0.312966 30.1302C0.292879 31.846 0.762988 33.5617 1.6472 35.0313C2.56743 36.5715 3.93635 37.8384 5.54423 38.6358C7.15659 39.4428 9.00127 39.7594 10.789 39.5599C12.3987 39.3831 13.9583 38.7806 15.2673 37.8272C16.6061 36.859 17.683 35.5339 18.354 34.0242C18.9847 32.6159 19.2542 31.0513 19.1425 29.5147C19.0406 27.9933 18.5541 26.5018 17.748 25.2094C16.853 23.77 15.5643 22.578 14.0558 21.8025Z" fill="#A71511" stroke="#A71511" stroke-width="0.594054"/>
<path d="M9.0321 26.0416C9.02812 25.2407 9.51751 24.4824 10.2279 24.0986C10.6199 24.1551 11.0114 24.2736 11.3356 24.5036C11.6775 24.7393 11.9264 25.084 12.0902 25.4573C12.5256 25.1986 13.0659 25.0701 13.5642 25.2177C14.2281 25.3944 14.7356 26.0081 14.7834 26.6797C14.8189 27.0556 14.7117 27.4345 14.5155 27.7571C14.942 28.0136 15.1781 28.4972 15.2099 28.976C15.2981 30.0529 14.6014 31.1277 13.585 31.5344C13.0757 31.7337 12.4853 31.847 11.9569 31.6529C11.6704 31.5531 11.4627 31.3143 11.348 31.0448C11.4529 31.1186 11.5504 31.2149 11.6819 31.2401C11.9733 31.3026 12.2262 30.994 12.5163 31.1242C12.6656 31.1767 12.7081 31.3434 12.7014 31.4832C12.9601 31.3421 13.1868 31.1303 13.2905 30.8529C13.4707 30.3876 13.3666 29.8567 13.1293 29.4296C12.8175 28.8726 12.2244 28.5071 11.6004 28.3752C10.7682 28.1924 9.83639 28.406 9.21546 28.9907C8.74998 29.4304 8.48027 30.0316 8.32968 30.6398C8.07591 31.7289 8.1884 32.9065 8.68311 33.9166C9.06133 34.6971 9.68049 35.3717 10.4582 35.7858C11.193 36.186 12.0455 36.3466 12.8808 36.3275C12.957 36.3258 13.0332 36.3284 13.1089 36.334C12.0393 36.8324 10.8125 37.0129 9.64595 36.7937C8.25129 36.5511 6.96249 35.765 6.13783 34.6346C5.33798 33.5568 4.97436 32.2112 4.96905 30.8889C4.97171 30.154 4.95133 29.4079 4.74893 28.6951C4.64043 28.3148 4.47523 27.9333 4.17938 27.6559C4.03456 27.517 3.84766 27.4289 3.65234 27.3798C4.03721 27.1294 4.48276 26.9358 4.95355 26.9488C5.5355 26.9488 6.07848 27.26 6.44652 27.6885C6.84955 28.1516 7.09668 28.732 7.21449 29.3263C7.67598 28.7311 7.7836 27.9016 7.51211 27.2058C7.32211 26.7079 6.93901 26.2964 6.4762 26.0259C6.68878 25.7134 7.01386 25.4725 7.38987 25.387C8.00593 25.2359 8.70437 25.5033 9.0321 26.0416Z" fill="#A71511"/>
<path d="M25.8811 25.8291C26.1237 25.4728 26.5821 25.3027 27.0147 25.3173C28.9661 25.3207 30.9174 25.3147 32.8697 25.3207C32.7663 25.6531 32.7404 26.018 32.5451 26.3171C32.3275 26.6196 31.9502 26.8041 31.5694 26.8135C31.0485 26.8247 30.5268 26.817 30.006 26.8118C29.9926 29.1259 30.006 31.4408 29.9997 33.7549C30.006 34.1907 29.7545 34.6419 29.3317 34.8247C29.0419 34.9384 28.7279 34.9811 28.4274 35.0589C28.4301 32.773 28.4292 30.4863 28.4274 28.2004C28.4185 27.8347 28.546 27.4519 28.8403 27.2066C29.1311 26.9434 29.5592 26.9409 29.9195 26.8229C28.4684 26.8084 27.0165 26.8229 25.5654 26.8178C25.6626 26.4863 25.693 26.1282 25.8811 25.8291Z" fill="#A71511"/>
<path d="M22.6797 29.0985C23.2904 28.4541 24.1424 28.1056 24.9509 27.752C25.9109 28.1659 26.9633 28.6025 27.5357 29.5033C28.0793 30.358 27.9939 31.3962 27.9965 32.3556C27.9965 33.2564 27.9948 34.1572 27.9974 35.0588C27.6359 34.9557 27.2308 34.939 26.9189 34.7186C26.6427 34.5167 26.4807 34.1882 26.4641 33.858C26.4328 33.1961 26.5051 32.5316 26.438 31.8713C26.3483 32.1721 26.3422 32.5056 26.1653 32.7763C25.9388 33.1123 25.5189 33.2882 25.1112 33.2908C24.5536 33.3 23.9961 33.2799 23.4385 33.2941C23.4446 33.7131 23.4821 34.1848 23.1807 34.5284C22.8862 34.9164 22.3539 34.9407 21.9131 35.058C21.9201 33.765 21.9087 32.4712 21.9183 31.1783C21.9253 30.4317 22.1474 29.6599 22.6797 29.0985ZM23.6772 30.3102C23.422 30.7677 23.4342 31.3032 23.4324 31.8084C24.443 31.8218 25.4536 31.8068 26.465 31.816C26.4659 31.3149 26.4824 30.7878 26.2376 30.3295C25.9771 29.8099 25.4597 29.4756 24.9465 29.2133C24.4482 29.4806 23.9403 29.8032 23.6772 30.3102Z" fill="#A71511"/>
<path d="M31.7431 29.0906C32.2923 28.4502 33.0576 28.104 33.7836 27.752C34.5733 28.1333 35.4211 28.5147 35.9649 29.27C36.357 29.8115 36.5125 30.5055 36.5165 31.1803C36.5243 32.4729 36.5149 33.7654 36.5212 35.0571C36.1173 34.9406 35.6262 34.9138 35.3669 34.5106C35.1076 34.1653 35.1406 33.7042 35.1446 33.2901C34.637 33.2868 34.1286 33.301 33.6202 33.2918C33.2179 33.2876 32.8038 33.0571 32.6286 32.6598C32.5343 32.4167 32.5123 32.151 32.4267 31.9046C32.4047 32.5575 32.4392 33.2114 32.4204 33.8643C32.4023 34.2575 32.1941 34.6565 31.8499 34.8233C31.593 34.9431 31.3117 34.9825 31.043 35.0588C31.05 33.7654 31.0383 32.4712 31.0485 31.1778C31.0571 30.4284 31.2575 29.6514 31.7431 29.0906ZM32.759 30.0898C32.4172 30.5852 32.407 31.2264 32.4219 31.8149C33.3311 31.8157 34.2394 31.814 35.1485 31.8165C35.1524 31.3237 35.1673 30.8048 34.9544 30.3521C34.721 29.8215 34.248 29.4854 33.7829 29.2113C33.4018 29.4427 33.016 29.6992 32.759 30.0898Z" fill="#A71511"/>
<path d="M41.5218 29.135C42.1312 28.4671 43.0045 28.1125 43.8285 27.752C44.6604 28.1133 45.5415 28.4739 46.1518 29.1535C46.6496 29.7032 46.8571 30.4428 46.8642 31.1597C46.8738 32.4583 46.8659 33.7569 46.8686 35.0563C46.5309 34.9651 46.165 34.9364 45.8599 34.7599C45.5697 34.5801 45.3868 34.2643 45.3507 33.9375C45.2997 33.2511 45.392 32.5596 45.3147 31.874C45.2338 32.156 45.2223 32.4608 45.0772 32.7225C44.8635 33.0957 44.4089 33.2942 43.9762 33.2908C43.4231 33.2925 42.8699 33.284 42.3177 33.2908C42.3352 33.7163 42.3493 34.1917 42.0468 34.5387C41.7504 34.9195 41.221 34.9406 40.7822 35.0588C40.7849 33.7839 40.7822 32.5098 40.784 31.2357C40.7937 30.4876 40.9924 29.7049 41.5218 29.135ZM42.5226 30.3685C42.2913 30.8144 42.3212 31.3235 42.3133 31.8073C43.3228 31.814 44.3332 31.8098 45.3437 31.8098C45.3428 31.3471 45.3674 30.8633 45.1652 30.431C44.918 29.8645 44.3737 29.4828 43.8179 29.2169C43.3026 29.4938 42.7714 29.8307 42.5226 30.3685Z" fill="#A71511"/>
<path d="M47.9546 28.0043C48.1867 27.8676 48.448 27.8338 48.6954 27.752C48.6927 29.7316 48.694 31.7104 48.6954 33.6901C48.7031 34.0327 48.6169 34.3896 48.4091 34.6318C48.1659 34.9365 47.794 34.9449 47.4785 35.0588C47.4813 33.0564 47.4785 31.0539 47.4799 29.0515C47.4737 28.6346 47.6418 28.2009 47.9546 28.0043Z" fill="#A71511"/>
<path d="M49.7173 27.9857C50.043 27.7772 50.4529 27.7569 50.8342 27.7535C51.6711 27.7594 52.5081 27.7442 53.3451 27.7577C54.9813 27.8523 56.2641 29.4808 55.9537 30.9819C55.8245 31.7459 55.3312 32.4298 54.661 32.8696C55.1042 33.5991 55.5447 34.3293 55.995 35.0545C55.4863 35.0258 54.9598 35.1187 54.4646 34.9802C53.9057 34.7523 53.7263 34.1537 53.3917 33.724C53.1836 33.4319 52.8059 33.3002 52.4462 33.2918C51.9214 33.2766 51.3975 33.2884 50.8736 33.2867C50.8826 33.697 50.9221 34.1529 50.6323 34.4948C50.3372 34.9043 49.7739 34.9465 49.3047 35.0377C49.3433 32.9819 49.3056 30.9245 49.3235 28.8679C49.3226 28.5429 49.4222 28.1832 49.7173 27.9857ZM50.8736 29.2335C50.8997 30.564 50.8378 31.8979 50.9015 33.2267C50.9992 32.9102 51.0019 32.5547 51.2154 32.2804C51.4531 31.9638 51.8721 31.8042 52.2758 31.805C52.6767 31.7865 53.0867 31.8481 53.4823 31.7611C54.1506 31.5805 54.6225 30.8654 54.4377 30.2229C54.2959 29.6919 53.7747 29.2369 53.1782 29.2343C52.4094 29.2284 51.6415 29.2343 50.8736 29.2335Z" fill="#A71511"/>
<path d="M56.6084 27.752C56.9246 27.8432 57.2695 27.8685 57.5553 28.0484C57.874 28.2604 58.0448 28.654 58.0383 29.0375C58.0391 30.5502 58.0383 32.0629 58.0325 33.5748C58.5647 33.5849 59.0961 33.5723 59.6283 33.579C60.0496 33.5773 60.4865 33.8172 60.6565 34.226C60.7592 34.4929 60.7994 34.7801 60.8692 35.058C59.8796 35.0571 58.8908 35.058 57.9019 35.0588C57.5455 35.0504 57.1529 35.0014 56.8819 34.7395C56.6626 34.5081 56.6133 34.1694 56.6117 33.8594C56.6076 31.8239 56.615 29.7883 56.6084 27.752Z" fill="#A71511"/>
<path d="M61.7885 28.2912C62.1306 27.888 62.7785 27.8745 63.3036 27.752C63.2963 29.7619 63.3057 31.7726 63.2995 33.7825C63.3047 34.1992 63.0447 34.6328 62.5757 34.8238C62.2304 34.9549 61.8467 34.9963 61.4775 35.0588C61.5108 33.2264 61.4838 31.3931 61.4911 29.5607C61.4952 29.1313 61.4193 28.6445 61.7885 28.2912Z" fill="#A71511"/>
<path d="M64.231 28.1026C64.6525 27.6134 65.5016 27.6658 65.8788 28.182C66.968 29.6927 68.0359 31.2187 69.12 32.7328C69.1166 31.5034 69.1191 30.2732 69.12 29.043C69.1098 28.5986 69.3601 28.1322 69.7885 27.964C70.0525 27.8652 70.3343 27.8221 70.6077 27.752C70.6 29.762 70.6086 31.7721 70.6034 33.7813C70.6086 34.2291 70.4187 34.7192 69.9963 34.9287C69.5364 35.1906 68.9122 35.0242 68.6099 34.6034C67.5343 33.0994 66.4707 31.5862 65.3934 30.0839C65.3917 31.3124 65.3985 32.5418 65.3917 33.7712C65.4011 34.2114 65.1558 34.6702 64.736 34.8425C64.4703 34.9448 64.1858 34.987 63.9125 35.0588C63.9125 33.0521 63.9116 31.0454 63.9125 29.0388C63.9082 28.7033 63.9942 28.3518 64.231 28.1026Z" fill="#A71511"/>
<path d="M71.2189 31.3212C71.2794 29.4887 72.8729 27.7765 74.7571 27.757C75.6045 27.7477 76.4528 27.7587 77.3011 27.752C77.1963 28.2039 77.1536 28.7558 76.7112 29.0241C76.0359 29.4549 75.191 29.0816 74.4612 29.322C73.763 29.4701 73.2344 30.0211 72.9743 30.6618C74.179 30.6644 75.3829 30.6635 76.5875 30.6711C76.4946 30.9767 76.4673 31.3068 76.313 31.5912C76.1067 31.9483 75.6855 32.1464 75.278 32.1388C74.5039 32.1439 73.7297 32.1345 72.9564 32.1422C73.2838 32.9606 74.1108 33.57 75.0077 33.5751C75.59 33.614 76.2567 33.4346 76.7598 33.818C77.1647 34.0982 77.1946 34.6246 77.3037 35.0588C76.4545 35.0554 75.6054 35.0605 74.7571 35.0571C74.0656 35.0478 73.3802 34.8269 72.8158 34.4308C71.8106 33.741 71.1754 32.5383 71.2189 31.3212Z" fill="#A71511"/>
<path d="M78.6297 28.3482C79.0722 27.9433 79.6866 27.743 80.2898 27.7523C81.4144 27.7556 82.54 27.7531 83.6655 27.754C83.5787 28.0625 83.5475 28.3913 83.3939 28.6778C83.1865 29.0227 82.7769 29.2205 82.3742 29.2306C81.6201 29.2467 80.8651 29.2104 80.1127 29.2425C79.7587 29.245 79.4584 29.5468 79.4385 29.8849C79.3786 30.2729 79.7214 30.6482 80.1179 30.6625C80.669 30.682 81.2218 30.6625 81.7737 30.6676C83.0815 30.6034 84.2296 31.9304 83.9605 33.1738C83.8217 33.9168 83.3288 34.6243 82.5998 34.9185C82.2562 35.0656 81.8744 35.0622 81.5073 35.0571C80.406 35.0546 79.3057 35.0563 78.2045 35.0563C78.3086 34.6345 78.3338 34.1307 78.7199 33.8458C79.008 33.6032 79.4029 33.5542 79.7708 33.572C80.4373 33.5745 81.1046 33.583 81.7711 33.577C82.3404 33.5872 82.7109 32.8087 82.3143 32.3996C82.0418 32.0496 81.5489 32.1646 81.161 32.146C80.6195 32.1198 80.0641 32.2043 79.5348 32.0699C78.7972 31.8552 78.2279 31.2399 78.0005 30.5341C77.7653 29.7691 78.0144 28.8799 78.6297 28.3482Z" fill="#A71511"/>
</g>
<defs>
<clipPath id="clip0_557_32849">
<rect width="83.9992" height="25.574" fill="white" transform="translate(0.000976562 17.4004)"/>
</clipPath>
</defs>
</svg>
