<svg width="84" height="56" viewBox="0 0 84 56" fill="none" xmlns="http://www.w3.org/2000/svg">
<g clip-path="url(#clip0_546_22640)">
<path d="M6.05356 22.7997L6.05442 22.7993C6.97714 22.3359 7.99055 22.0545 9.02135 21.9622C10.7273 21.8147 12.4771 22.2063 13.9451 23.0845L13.9462 23.0851C15.2304 23.846 16.3019 24.9617 17.0076 26.2764L17.0081 26.2775C17.776 27.6943 18.109 29.3426 17.9567 30.9471L17.9565 30.9491C17.8177 32.5253 17.2036 34.0561 16.221 35.2971L16.2204 35.2977C15.2089 36.5829 13.8075 37.5589 12.2489 38.0526L12.2479 38.0529C10.6768 38.5569 8.95348 38.5726 7.37375 38.0978L7.3729 38.0976C5.85316 37.6457 4.47197 36.7404 3.44774 35.5304L3.44691 35.5294C2.35323 34.2487 1.66879 32.6242 1.5199 30.9474L1.51972 30.9455C1.36938 29.3667 1.69226 27.7447 2.43411 26.3427L2.43457 26.3418C3.23184 24.8228 4.51762 23.5647 6.05356 22.7997ZM14.0558 21.8025C12.4939 20.9921 10.7017 20.6411 8.95052 20.7901C8.20162 20.8529 7.45888 21.0029 6.74479 21.2436C4.90841 21.8524 3.28073 23.0492 2.13819 24.6057C0.966964 26.1927 0.31185 28.1553 0.312966 30.1302C0.292879 31.846 0.762988 33.5617 1.6472 35.0313C2.56743 36.5715 3.93635 37.8384 5.54423 38.6358C7.15659 39.4428 9.00127 39.7594 10.789 39.5599C12.3987 39.3831 13.9583 38.7806 15.2673 37.8272C16.6061 36.859 17.683 35.5339 18.354 34.0242C18.9847 32.6159 19.2542 31.0513 19.1425 29.5147C19.0406 27.9933 18.5541 26.5018 17.748 25.2094C16.853 23.77 15.5643 22.578 14.0558 21.8025Z" fill="#A71511" stroke="#A71511" stroke-width="0.594054"/>
<path d="M9.0321 26.0411C9.02812 25.2402 9.51751 24.4819 10.2279 24.0981C10.6199 24.1546 11.0114 24.2731 11.3356 24.5031C11.6775 24.7388 11.9264 25.0835 12.0902 25.4568C12.5256 25.1981 13.0659 25.0696 13.5642 25.2172C14.2281 25.3939 14.7356 26.0077 14.7834 26.6792C14.8189 27.0551 14.7117 27.434 14.5155 27.7566C14.942 28.0131 15.1781 28.4967 15.2099 28.9755C15.2981 30.0524 14.6014 31.1272 13.585 31.5339C13.0757 31.7332 12.4853 31.8465 11.9569 31.6524C11.6704 31.5526 11.4627 31.3139 11.348 31.0443C11.4529 31.1181 11.5504 31.2144 11.6819 31.2396C11.9733 31.3021 12.2262 30.9935 12.5163 31.1237C12.6656 31.1762 12.7081 31.3429 12.7014 31.4827C12.9601 31.3416 13.1868 31.1298 13.2905 30.8524C13.4707 30.3871 13.3666 29.8562 13.1293 29.4291C12.8175 28.8722 12.2244 28.5067 11.6004 28.3747C10.7682 28.192 9.83639 28.4055 9.21546 28.9902C8.74998 29.4299 8.48027 30.0311 8.32968 30.6393C8.07591 31.7284 8.1884 32.9061 8.68311 33.9162C9.06133 34.6966 9.68049 35.3712 10.4582 35.7853C11.193 36.1855 12.0455 36.3461 12.8808 36.327C12.957 36.3253 13.0332 36.3279 13.1089 36.3336C12.0393 36.8319 10.8125 37.0125 9.64595 36.7932C8.25129 36.5506 6.96249 35.7645 6.13783 34.6341C5.33798 33.5563 4.97436 32.2107 4.96905 30.8885C4.97171 30.1536 4.95133 29.4074 4.74893 28.6946C4.64043 28.3144 4.47523 27.9328 4.17938 27.6554C4.03456 27.5165 3.84766 27.4284 3.65234 27.3794C4.03721 27.1289 4.48276 26.9353 4.95355 26.9483C5.5355 26.9483 6.07848 27.2595 6.44652 27.688C6.84955 28.1511 7.09668 28.7315 7.21449 29.3258C7.67598 28.7306 7.7836 27.9011 7.51211 27.2053C7.32211 26.7074 6.93901 26.2959 6.4762 26.0255C6.68878 25.7129 7.01386 25.472 7.38987 25.3865C8.00593 25.2354 8.70437 25.5028 9.0321 26.0411Z" fill="#A71511"/>
<path d="M25.8821 25.8286C26.1247 25.4723 26.5831 25.3022 27.0157 25.3168C28.967 25.3202 30.9184 25.3142 32.8707 25.3202C32.7672 25.6526 32.7414 26.0175 32.5461 26.3166C32.3284 26.6191 31.9512 26.8037 31.5704 26.8131C31.0495 26.8242 30.5278 26.8165 30.0069 26.8113C29.9936 29.1254 30.0069 31.4403 30.0007 33.7544C30.0069 34.1902 29.7554 34.6414 29.3327 34.8243C29.0429 34.9379 28.7289 34.9806 28.4284 35.0584C28.431 32.7725 28.4301 30.4858 28.4284 28.2C28.4194 27.8342 28.547 27.4514 28.8413 27.2061C29.132 26.9429 29.5601 26.9404 29.9204 26.8225C28.4694 26.8079 27.0175 26.8225 25.5664 26.8173C25.6636 26.4858 25.6939 26.1277 25.8821 25.8286Z" fill="#A71511"/>
<path d="M22.6788 29.098C23.2894 28.4537 24.1415 28.1051 24.9499 27.7515C25.91 28.1654 26.9624 28.602 27.5347 29.5028C28.0783 30.3575 27.993 31.3957 27.9956 32.3551C27.9956 33.2559 27.9938 34.1567 27.9964 35.0583C27.6349 34.9553 27.2298 34.9385 26.9179 34.7181C26.6418 34.5162 26.4797 34.1877 26.4632 33.8576C26.4318 33.1956 26.5041 32.5311 26.437 31.8708C26.3473 32.1716 26.3412 32.5051 26.1643 32.7758C25.9378 33.1118 25.5179 33.2878 25.1102 33.2903C24.5527 33.2995 23.9951 33.2794 23.4375 33.2936C23.4436 33.7126 23.4811 34.1844 23.1797 34.5279C22.8852 34.9159 22.3529 34.9402 21.9121 35.0575C21.9191 33.7645 21.9078 32.4708 21.9173 31.1778C21.9243 30.4312 22.1465 29.6595 22.6788 29.098ZM23.6763 30.3097C23.421 30.7672 23.4332 31.3027 23.4315 31.8079C24.442 31.8214 25.4526 31.8063 26.464 31.8155C26.4649 31.3144 26.4815 30.7873 26.2367 30.329C25.9762 29.8095 25.4587 29.4751 24.9456 29.2128C24.4472 29.4801 23.9393 29.8027 23.6763 30.3097Z" fill="#A71511"/>
<path d="M31.7431 29.0901C32.2923 28.4497 33.0576 28.1035 33.7836 27.7515C34.5733 28.1329 35.4211 28.5143 35.9649 29.2695C36.357 29.811 36.5125 30.5051 36.5165 31.1798C36.5243 32.4724 36.5149 33.7649 36.5212 35.0566C36.1173 34.9401 35.6262 34.9133 35.3669 34.5101C35.1076 34.1648 35.1406 33.7037 35.1446 33.2897C34.637 33.2863 34.1286 33.3006 33.6202 33.2913C33.2179 33.2871 32.8038 33.0566 32.6286 32.6593C32.5343 32.4162 32.5123 32.1505 32.4267 31.9041C32.4047 32.557 32.4392 33.2109 32.4204 33.8638C32.4023 34.257 32.1941 34.656 31.8499 34.8228C31.593 34.9427 31.3117 34.982 31.043 35.0583C31.05 33.7649 31.0383 32.4707 31.0485 31.1773C31.0571 30.4279 31.2575 29.6509 31.7431 29.0901ZM32.759 30.0893C32.4172 30.5847 32.407 31.2259 32.4219 31.8144C33.3311 31.8152 34.2394 31.8135 35.1485 31.816C35.1524 31.3232 35.1673 30.8043 34.9544 30.3517C34.721 29.8211 34.248 29.4849 33.7829 29.2108C33.4018 29.4422 33.016 29.6987 32.759 30.0893Z" fill="#A71511"/>
<path d="M41.5228 29.1345C42.1322 28.4666 43.0054 28.112 43.8294 27.7515C44.6614 28.1128 45.5425 28.4734 46.1528 29.1531C46.6506 29.7027 46.8581 30.4424 46.8651 31.1592C46.8748 32.4578 46.8669 33.7564 46.8695 35.0558C46.5318 34.9646 46.166 34.9359 45.8609 34.7594C45.5707 34.5796 45.3877 34.2638 45.3517 33.9371C45.3007 33.2506 45.393 32.5591 45.3156 31.8735C45.2347 32.1555 45.2233 32.4603 45.0782 32.7221C44.8645 33.0953 44.4098 33.2937 43.9772 33.2903C43.424 33.292 42.8709 33.2835 42.3186 33.2903C42.3362 33.7158 42.3503 34.1912 42.0478 34.5382C41.7514 34.919 41.222 34.9401 40.7832 35.0583C40.7858 33.7834 40.7832 32.5093 40.785 31.2352C40.7946 30.4871 40.9934 29.7044 41.5228 29.1345ZM42.5235 30.3681C42.2923 30.8139 42.3222 31.323 42.3142 31.8068C43.3238 31.8136 44.3342 31.8093 45.3447 31.8093C45.3438 31.3466 45.3684 30.8628 45.1661 30.4305C44.919 29.864 44.3747 29.4823 43.8189 29.2164C43.3036 29.4933 42.7724 29.8302 42.5235 30.3681Z" fill="#A71511"/>
<path d="M47.9546 28.0038C48.1867 27.8671 48.448 27.8333 48.6954 27.7515C48.6927 29.7311 48.694 31.7099 48.6954 33.6896C48.7031 34.0322 48.6169 34.3892 48.4091 34.6313C48.1659 34.936 47.794 34.9444 47.4785 35.0583C47.4813 33.0559 47.4785 31.0534 47.4799 29.051C47.4737 28.6341 47.6418 28.2004 47.9546 28.0038Z" fill="#A71511"/>
<path d="M49.7173 27.9852C50.043 27.7767 50.4529 27.7564 50.8342 27.753C51.6711 27.7589 52.5081 27.7437 53.3451 27.7573C54.9813 27.8518 56.2641 29.4804 55.9537 30.9814C55.8245 31.7455 55.3312 32.4293 54.661 32.8691C55.1042 33.5986 55.5447 34.3288 55.995 35.054C55.4863 35.0253 54.9598 35.1182 54.4646 34.9798C53.9057 34.7518 53.7263 34.1532 53.3917 33.7235C53.1836 33.4314 52.8059 33.2997 52.4462 33.2913C51.9214 33.2761 51.3975 33.2879 50.8736 33.2862C50.8826 33.6965 50.9221 34.1524 50.6323 34.4943C50.3372 34.9038 49.7739 34.946 49.3047 35.0372C49.3433 32.9814 49.3056 30.924 49.3235 28.8674C49.3226 28.5424 49.4222 28.1827 49.7173 27.9852ZM50.8736 29.233C50.8997 30.5635 50.8378 31.8974 50.9015 33.2263C50.9992 32.9097 51.0019 32.5542 51.2154 32.2799C51.4531 31.9633 51.8721 31.8037 52.2758 31.8046C52.6767 31.786 53.0867 31.8476 53.4823 31.7607C54.1506 31.58 54.6225 30.8649 54.4377 30.2224C54.2959 29.6914 53.7747 29.2364 53.1782 29.2338C52.4094 29.2279 51.6415 29.2338 50.8736 29.233Z" fill="#A71511"/>
<path d="M56.6074 27.7515C56.9236 27.8427 57.2686 27.868 57.5544 28.0479C57.873 28.2599 58.0438 28.6535 58.0373 29.037C58.0381 30.5497 58.0373 32.0624 58.0315 33.5743C58.5637 33.5845 59.0951 33.5718 59.6273 33.5785C60.0486 33.5769 60.4855 33.8167 60.6555 34.2255C60.7582 34.4924 60.7984 34.7796 60.8683 35.0575C59.8786 35.0566 58.8898 35.0575 57.9009 35.0583C57.5445 35.0499 57.1519 35.0009 56.8809 34.7391C56.6616 34.5076 56.6123 34.1689 56.6107 33.859C56.6066 31.8234 56.614 29.7879 56.6074 27.7515Z" fill="#A71511"/>
<path d="M61.7894 28.2907C62.1316 27.8875 62.7794 27.874 63.3046 27.7515C63.2973 29.7614 63.3067 31.7721 63.3004 33.7821C63.3056 34.1987 63.0456 34.6323 62.5767 34.8234C62.2314 34.9544 61.8477 34.9958 61.4785 35.0583C61.5118 33.2259 61.4848 31.3926 61.492 29.5602C61.4962 29.1309 61.4203 28.644 61.7894 28.2907Z" fill="#A71511"/>
<path d="M64.231 28.1021C64.6525 27.6129 65.5016 27.6653 65.8788 28.1815C66.968 29.6922 68.0359 31.2182 69.12 32.7323C69.1166 31.5029 69.1191 30.2727 69.12 29.0425C69.1098 28.5981 69.3601 28.1317 69.7885 27.9635C70.0525 27.8647 70.3343 27.8216 70.6077 27.7515C70.6 29.7615 70.6086 31.7716 70.6034 33.7808C70.6086 34.2286 70.4187 34.7187 69.9963 34.9282C69.5364 35.1901 68.9122 35.0237 68.6099 34.6029C67.5343 33.099 66.4707 31.5857 65.3934 30.0834C65.3917 31.312 65.3985 32.5413 65.3917 33.7707C65.4011 34.2109 65.1558 34.6697 64.736 34.842C64.4703 34.9443 64.1858 34.9865 63.9125 35.0583C63.9125 33.0516 63.9116 31.045 63.9125 29.0383C63.9082 28.7028 63.9942 28.3514 64.231 28.1021Z" fill="#A71511"/>
<path d="M71.2189 31.3207C71.2794 29.4883 72.8729 27.776 74.7571 27.7565C75.6045 27.7472 76.4528 27.7582 77.3011 27.7515C77.1963 28.2034 77.1536 28.7553 76.7112 29.0236C76.0359 29.4544 75.191 29.0811 74.4612 29.3215C73.763 29.4696 73.2344 30.0206 72.9743 30.6613C74.179 30.6639 75.3829 30.663 76.5875 30.6707C76.4946 30.9762 76.4673 31.3063 76.313 31.5907C76.1067 31.9479 75.6855 32.1459 75.278 32.1383C74.5039 32.1434 73.7297 32.1341 72.9564 32.1417C73.2838 32.9601 74.1108 33.5695 75.0077 33.5746C75.59 33.6135 76.2567 33.4341 76.7598 33.8175C77.1647 34.0977 77.1946 34.6241 77.3037 35.0583C76.4545 35.0549 75.6054 35.06 74.7571 35.0566C74.0656 35.0473 73.3802 34.8264 72.8158 34.4303C71.8106 33.7405 71.1754 32.5378 71.2189 31.3207Z" fill="#A71511"/>
<path d="M78.6287 28.3477C79.0713 27.9428 79.6857 27.7425 80.2888 27.7518C81.4134 27.7552 82.539 27.7526 83.6645 27.7535C83.5777 28.062 83.5465 28.3908 83.3929 28.6773C83.1855 29.0222 82.7759 29.22 82.3732 29.2302C81.6191 29.2462 80.8641 29.2099 80.1118 29.242C79.7577 29.2445 79.4574 29.5463 79.4375 29.8844C79.3776 30.2724 79.7204 30.6477 80.117 30.662C80.668 30.6815 81.2208 30.662 81.7727 30.6671C83.0805 30.6029 84.2286 31.93 83.9596 33.1734C83.8207 33.9163 83.3278 34.6238 82.5989 34.918C82.2552 35.0651 81.8734 35.0617 81.5063 35.0566C80.4051 35.0541 79.3047 35.0558 78.2035 35.0558C78.3076 34.634 78.3328 34.1302 78.7189 33.8453C79.0071 33.6028 79.4019 33.5537 79.7698 33.5715C80.4363 33.574 81.1036 33.5825 81.7701 33.5765C82.3394 33.5867 82.7099 32.8082 82.3134 32.3991C82.0409 32.0491 81.548 32.1641 81.1601 32.1455C80.6185 32.1193 80.0632 32.2038 79.5338 32.0694C78.7962 31.8547 78.2269 31.2394 77.9995 30.5336C77.7644 29.7686 78.0134 28.8794 78.6287 28.3477Z" fill="#A71511"/>
</g>
<defs>
<clipPath id="clip0_546_22640">
<rect width="83.9992" height="25.574" fill="white" transform="translate(0 17.4004)"/>
</clipPath>
</defs>
</svg>
