<svg width="84" height="56" viewBox="0 0 84 56" fill="none" xmlns="http://www.w3.org/2000/svg">
<path d="M61.4755 22.1943L48.6432 27.9999L61.4755 33.8054L74.3078 27.9999L61.4755 22.1943ZM15.1959 22.7521C11.8567 22.7521 9.69238 25.1122 9.69238 28.0731C9.69238 31.034 11.8567 33.3941 15.1959 33.3941C17.1143 33.3941 18.6984 32.6678 19.5547 31.363L18.8205 33.1795H21.7732L22.4689 31.3487H26.3183L26.9985 33.1795H29.9976L29.5229 32.005C30.4012 32.9785 31.8925 33.3941 33.5025 33.3941C34.999 33.3941 36.4776 33.0784 37.3917 32.2297L37.0078 33.1795H39.9606L40.6562 31.3487H44.5056L45.1858 33.1795H48.1849L44.0572 22.9666H41.1354L38.3101 29.9573C38.2995 28.1259 36.6973 27.4423 35.1102 27.0289C33.5025 26.6141 31.9102 26.4711 31.9102 25.6844C31.9102 25.0121 32.6831 24.8118 33.3015 24.8118C34.1827 24.8118 34.8897 25.1122 34.8433 26.042H37.7188C37.7033 23.7391 35.7286 22.7521 33.5334 22.7521C31.4618 22.7521 29.0347 23.6246 29.0347 25.856C29.0347 27.7298 30.6889 28.3878 32.2657 28.8026C33.858 29.2174 35.4349 29.389 35.4349 30.2902C35.4349 31.0483 34.5382 31.3344 33.6725 31.3344C32.4512 31.3344 31.6473 30.9482 31.5855 29.7467H28.7101C28.7107 29.8397 28.7143 29.9305 28.7204 30.0195L25.87 22.9666H22.9481L20.1495 29.8913C20.1928 29.6753 20.222 29.4507 20.2356 29.2174H17.3602C17.252 30.3903 16.479 31.1055 15.1341 31.1055C13.6019 31.1055 12.9752 29.5893 12.9752 28.0731C12.9752 26.5569 13.5373 25.0407 15.1341 25.0407C16.3399 25.0407 17.2056 25.5842 17.3602 26.6141H20.2356C20.1584 24.1539 17.5766 22.7521 15.1959 22.7521ZM24.3859 25.7988H24.4168L25.6381 29.3747H23.1337L24.3859 25.7988ZM42.5731 25.7988H42.6041L43.8254 29.3747H41.321L42.5731 25.7988Z" fill="#060129"/>
<path fill-rule="evenodd" clip-rule="evenodd" d="M54.6901 27.4103C54.6167 27.4103 54.3952 27.4021 54.3674 27.5099C54.3397 27.6177 54.583 27.713 54.7119 27.7475C54.8408 27.7821 55.2874 27.8937 56.3776 28.1384C57.2059 28.3243 59.1239 28.7661 60.1885 29.0115C60.2127 29.6127 60.7818 30.0894 61.476 30.0897C62.1698 30.089 62.7385 29.6126 62.7628 29.0116C63.827 28.7663 65.7459 28.3243 66.5744 28.1384C67.6645 27.8937 68.1111 27.7821 68.24 27.7475C68.3689 27.713 68.6122 27.6177 68.5845 27.5099C68.5568 27.4021 68.3353 27.4103 68.2619 27.4103C68.1982 27.4103 63.359 28.0041 62.1166 28.0041L60.8362 28.0042C59.5936 28.0042 54.7538 27.4103 54.6901 27.4103Z" fill="white"/>
</svg>
