<svg width="84" height="56" viewBox="0 0 84 56" fill="none" xmlns="http://www.w3.org/2000/svg">
<path d="M61.4745 22.1943L48.6423 27.9999L61.4745 33.8054L74.3068 27.9999L61.4745 22.1943ZM15.1949 22.7521C11.8557 22.7521 9.69141 25.1122 9.69141 28.0731C9.69141 31.034 11.8557 33.3941 15.1949 33.3941C17.1134 33.3941 18.6974 32.6678 19.5537 31.363L18.8196 33.1795H21.7723L22.4679 31.3487H26.3173L26.9975 33.1795H29.9966L29.522 32.005C30.4002 32.9785 31.8915 33.3941 33.5015 33.3941C34.998 33.3941 36.4767 33.0784 37.3907 32.2297L37.0068 33.1795H39.9596L40.6553 31.3487H44.5046L45.1848 33.1795H48.1839L44.0563 22.9666H41.1344L38.3091 29.9573C38.2985 28.1259 36.6963 27.4423 35.1092 27.0289C33.5015 26.6141 31.9092 26.4711 31.9092 25.6844C31.9092 25.0121 32.6822 24.8118 33.3005 24.8118C34.1817 24.8118 34.8887 25.1122 34.8424 26.042H37.7178C37.7024 23.7391 35.7276 22.7521 33.5324 22.7521C31.4609 22.7521 29.0338 23.6246 29.0338 25.856C29.0338 27.7298 30.6879 28.3878 32.2647 28.8026C33.8571 29.2174 35.4339 29.389 35.4339 30.2902C35.4339 31.0483 34.5372 31.3344 33.6715 31.3344C32.4503 31.3344 31.6464 30.9482 31.5845 29.7467H28.7091C28.7097 29.8397 28.7134 29.9305 28.7195 30.0195L25.869 22.9666H22.9472L20.1486 29.8913C20.1918 29.6753 20.221 29.4507 20.2347 29.2174H17.3592C17.251 30.3903 16.4781 31.1055 15.1331 31.1055C13.601 31.1055 12.9742 29.5893 12.9742 28.0731C12.9742 26.5569 13.5363 25.0407 15.1331 25.0407C16.3389 25.0407 17.2046 25.5842 17.3593 26.6141H20.2347C20.1574 24.1539 17.5757 22.7521 15.1949 22.7521ZM24.3849 25.7988H24.4158L25.6371 29.3747H23.1327L24.3849 25.7988ZM42.5722 25.7988H42.6031L43.8244 29.3747H41.32L42.5722 25.7988Z" fill="#060129"/>
<path fill-rule="evenodd" clip-rule="evenodd" d="M54.6901 27.4103C54.6167 27.4103 54.3952 27.4021 54.3674 27.5099C54.3397 27.6177 54.583 27.713 54.7119 27.7475C54.8408 27.7821 55.2874 27.8937 56.3776 28.1384C57.2059 28.3243 59.1239 28.7661 60.1885 29.0115C60.2127 29.6127 60.7818 30.0894 61.476 30.0897C62.1698 30.089 62.7385 29.6126 62.7628 29.0116C63.827 28.7663 65.7459 28.3243 66.5744 28.1384C67.6645 27.8937 68.1111 27.7821 68.24 27.7475C68.3689 27.713 68.6122 27.6177 68.5845 27.5099C68.5568 27.4021 68.3353 27.4103 68.2619 27.4103C68.1982 27.4103 63.359 28.0041 62.1166 28.0041L60.8362 28.0042C59.5936 28.0042 54.7538 27.4103 54.6901 27.4103Z" fill="white"/>
</svg>
