<svg width="84" height="56" viewBox="0 0 84 56" fill="none" xmlns="http://www.w3.org/2000/svg">
<path fill-rule="evenodd" clip-rule="evenodd" d="M70.8999 32.5801H71.0505L70.8999 32.9605V33.9748H72.1441L74.3074 28.6338H70.8999V29.7828H72.1837L71.518 31.4311H70.8999V32.5801ZM69.0852 28.6338L66.9219 33.9748H68.5781L69.1407 32.5801H70.8999V31.4311H69.6083L70.2739 29.7828H70.8999V28.6338H69.0852ZM70.8999 32.9605V33.9748H70.4799L70.8999 32.9605ZM13.7731 36.7563H13.9157C14.3357 36.7563 14.6368 36.8117 14.827 36.9227C15.1123 37.0891 15.2549 37.3427 15.2549 37.6755C15.2549 38.0004 15.1123 38.2857 14.827 38.5393C14.5576 38.7691 14.2089 38.8879 13.7731 38.9038V38.6106C13.9078 38.5551 14.0267 38.4521 14.1217 38.3015C14.2723 38.0638 14.3436 37.8102 14.3436 37.5487C14.3436 37.3665 14.2961 37.2317 14.201 37.1287C14.1059 37.0336 13.9712 36.9861 13.7968 36.9861H13.7731V36.7563ZM13.1391 38.8642L12.8301 39.9419C12.7905 40.0924 12.7667 40.2034 12.7667 40.2668C12.7667 40.3539 12.7905 40.4253 12.8538 40.4649C12.9093 40.5124 13.0361 40.5362 13.2421 40.5362L13.2025 40.6392H11.3086L11.3403 40.5362C11.4988 40.5362 11.6097 40.5204 11.681 40.4887C11.7444 40.4649 11.7999 40.4173 11.8475 40.346C11.8791 40.3064 11.9267 40.1717 11.9901 39.9419L12.7033 37.4774C12.7508 37.311 12.7746 37.1921 12.7746 37.1208C12.7746 37.0495 12.7429 36.9861 12.6795 36.9385C12.6161 36.891 12.5052 36.8672 12.3388 36.8593L12.3705 36.7563H13.7731V36.9861H13.6621L13.2025 38.6423C13.3214 38.6581 13.4244 38.6661 13.5036 38.6661C13.5987 38.6661 13.6938 38.6423 13.7731 38.6106V38.9038C13.7414 38.9117 13.7018 38.9117 13.6701 38.9117C13.5195 38.9117 13.3452 38.8959 13.1391 38.8642ZM16.8002 37.9846L16.19 39.926C16.1583 40.0211 16.1425 40.0766 16.1425 40.1162C16.1428 40.1309 16.1484 40.145 16.1583 40.1558C16.1742 40.1717 16.1979 40.1796 16.2138 40.1796C16.301 40.1796 16.4119 40.1004 16.5625 39.9419C16.7685 39.72 16.9824 39.3872 17.2043 38.9672L17.4738 38.0955L18.2028 38.0638L17.6322 39.9656C17.5847 40.1321 17.5609 40.2192 17.5609 40.243C17.5609 40.2589 17.5689 40.2747 17.5847 40.2906C17.5884 40.2978 17.5941 40.3039 17.6011 40.3081C17.6081 40.3123 17.6162 40.3145 17.6243 40.3143C17.656 40.3143 17.6798 40.3064 17.7036 40.2826C17.7749 40.2272 17.87 40.1162 17.9809 39.9577L18.076 40.0211C17.8066 40.4887 17.5134 40.7185 17.1964 40.7185C17.0775 40.7185 16.9824 40.6868 16.9191 40.6313C16.8477 40.5679 16.816 40.4887 16.816 40.3936C16.816 40.2905 16.8398 40.1638 16.8874 40.0053L17.0379 39.514C16.7843 39.8785 16.61 40.1162 16.4991 40.243C16.3247 40.4332 16.1821 40.56 16.0632 40.6234C15.9523 40.6868 15.8334 40.7185 15.7304 40.7185C15.6274 40.7185 15.5402 40.6788 15.4689 40.6075C15.3976 40.5362 15.358 40.4411 15.358 40.3302C15.358 40.2272 15.3896 40.1004 15.4372 39.934L15.8017 38.7928C15.8572 38.6027 15.881 38.4759 15.881 38.4125C15.881 38.3808 15.873 38.357 15.8572 38.3332C15.8413 38.3174 15.8255 38.2936 15.7938 38.2857C15.7621 38.2698 15.7066 38.2619 15.6353 38.2619L15.6591 38.1589L16.6259 37.9846H16.8002ZM19.7718 40.3381C19.8748 40.3302 19.9858 40.2985 20.0888 40.2589C20.2235 40.1955 20.382 40.1004 20.5563 39.9577L20.6514 40.029C20.4296 40.2747 20.2156 40.457 20.0096 40.56C19.9303 40.5996 19.8511 40.6313 19.7718 40.6551V40.3381ZM19.7718 38.1193C19.9937 38.0321 20.2156 37.9846 20.4375 37.9846C20.596 37.9846 20.7148 38.0242 20.802 38.0955C20.8812 38.1747 20.9209 38.2698 20.9209 38.3887C20.9209 38.5313 20.8812 38.6661 20.802 38.7928C20.6959 38.9674 20.5525 39.1162 20.382 39.2287C20.2074 39.3446 20.0145 39.4303 19.8115 39.4823C19.8035 39.4823 19.7877 39.4902 19.7718 39.4902V39.2525C19.8273 39.2128 19.8828 39.1653 19.9382 39.1098C20.0333 39.0147 20.1047 38.8959 20.176 38.7532C20.2394 38.6106 20.2711 38.4759 20.2711 38.3491C20.2711 38.2936 20.2552 38.254 20.2235 38.2223C20.1997 38.1906 20.1601 38.1747 20.1126 38.1747C20.0175 38.1747 19.9145 38.2381 19.8035 38.3649C19.7956 38.3808 19.7798 38.3887 19.7718 38.3966V38.1193ZM19.2488 39.5694C19.233 39.6883 19.225 39.7913 19.225 39.8706C19.225 40.0132 19.2647 40.1241 19.3518 40.2113C19.4311 40.2985 19.542 40.3381 19.6847 40.3381H19.7718V40.6551C19.6223 40.6972 19.4676 40.7185 19.3122 40.7185C18.9952 40.7185 18.7734 40.6392 18.6545 40.4887C18.5277 40.3381 18.4722 40.1558 18.4722 39.9577C18.4722 39.6487 18.5594 39.3317 18.7417 39.0226C18.9239 38.7057 19.1775 38.46 19.4866 38.2698C19.5816 38.2144 19.6767 38.1589 19.7718 38.1193V38.3966C19.5737 38.6344 19.4073 38.9672 19.2726 39.4189C19.4469 39.3951 19.5737 39.3555 19.6688 39.3159C19.7005 39.3 19.7401 39.2762 19.7718 39.2525V39.4902C19.6371 39.5219 19.4628 39.5457 19.2488 39.5694ZM22.4503 37.9846L21.9431 39.5932C22.2839 38.8087 22.5454 38.3253 22.7197 38.143C22.8227 38.04 22.9257 37.9846 23.0446 37.9846C23.1159 37.9846 23.1793 38.0163 23.2269 38.0717C23.2823 38.1272 23.3061 38.2144 23.3061 38.3174C23.3061 38.5076 23.2586 38.6661 23.1714 38.7849C23.1159 38.8721 23.0525 38.9117 22.9812 38.9117C22.9099 38.9117 22.8544 38.8721 22.8148 38.8008C22.7831 38.7294 22.7514 38.6898 22.7355 38.674C22.7276 38.6581 22.7118 38.6581 22.688 38.6581C22.6722 38.6581 22.6563 38.6581 22.6325 38.674C22.5929 38.6978 22.5374 38.7532 22.474 38.8404C22.4027 38.9355 22.3235 39.0781 22.2284 39.2921C22.1333 39.4981 22.0541 39.6804 21.9986 39.823C21.951 39.9736 21.8639 40.243 21.7529 40.6392H21.0477L21.5944 38.7453C21.6341 38.6027 21.6499 38.5076 21.6499 38.46C21.6499 38.4125 21.6341 38.3729 21.6182 38.3412C21.5944 38.3095 21.5627 38.2936 21.5231 38.2778C21.4835 38.2619 21.3963 38.2619 21.2775 38.2619L21.3012 38.1747L22.2601 37.9846H22.4503ZM24.9702 37.2872L24.7325 38.0638H25.0574L24.9623 38.3966H24.6295L24.1065 40.0766C24.0748 40.1796 24.0589 40.2589 24.0589 40.3143C24.0589 40.3302 24.0668 40.346 24.0827 40.3619C24.1065 40.3777 24.1223 40.3777 24.1461 40.3777C24.1778 40.3777 24.2095 40.3698 24.2412 40.3381C24.3363 40.2747 24.4393 40.1558 24.5502 39.9894L24.6532 40.0528C24.5265 40.2826 24.3759 40.449 24.2174 40.56C24.0589 40.663 23.9004 40.7185 23.7499 40.7185C23.6152 40.7185 23.5121 40.6868 23.4408 40.6234C23.3695 40.5521 23.3378 40.4728 23.3378 40.3698C23.3378 40.2589 23.3616 40.1162 23.417 39.9498L23.9004 38.3966H23.5359L23.5914 38.1827C23.8212 38.0955 24.0272 37.9846 24.1936 37.8657C24.368 37.7468 24.574 37.5566 24.8197 37.2872H24.9702ZM27.6962 38.0242L27.1257 39.926L27.0702 40.1638C27.0623 40.1875 27.0623 40.2113 27.0623 40.2272C27.0623 40.2509 27.0702 40.2668 27.086 40.2826C27.1019 40.2985 27.1177 40.3064 27.1336 40.3064C27.1732 40.3064 27.2287 40.2826 27.3 40.2192C27.3238 40.1955 27.3951 40.1083 27.4981 39.9577L27.6011 40.0053C27.4664 40.2589 27.3238 40.4332 27.1653 40.5441C27.0147 40.663 26.8483 40.7185 26.674 40.7185C26.563 40.7185 26.4838 40.6868 26.4283 40.6313C26.3649 40.5758 26.3411 40.5124 26.3411 40.4253C26.3411 40.346 26.3728 40.2113 26.4362 40.0053L26.4996 39.7755C26.425 39.9093 26.343 40.039 26.254 40.1638V39.926C26.3411 39.8072 26.4204 39.6724 26.4996 39.5219C26.6819 39.1653 26.777 38.8483 26.777 38.571C26.777 38.4125 26.7453 38.3015 26.6977 38.2302C26.6833 38.2078 26.6633 38.1894 26.6397 38.1769C26.6161 38.1645 26.5897 38.1582 26.563 38.1589C26.4996 38.1589 26.4362 38.1906 26.3728 38.2461C26.3332 38.2857 26.2936 38.3332 26.254 38.3887V38.0321C26.3411 38.0004 26.4283 37.9846 26.5076 37.9846C26.6106 37.9846 26.6977 38.0163 26.7691 38.0796C26.8325 38.143 26.88 38.254 26.9117 38.4204L27.0147 38.0638L27.6962 38.0242ZM26.254 40.1638C26.1193 40.346 25.9845 40.4887 25.8578 40.5838C25.7389 40.6709 25.6121 40.7185 25.4774 40.7185C25.303 40.7185 25.1763 40.6471 25.097 40.5045C25.0178 40.3539 24.9781 40.1955 24.9781 40.0132C24.9781 39.7438 25.0653 39.4347 25.2317 39.086C25.3981 38.7374 25.6121 38.46 25.8815 38.2461C26.0083 38.143 26.1351 38.0717 26.254 38.0321V38.3887C26.1589 38.5234 26.0638 38.7136 25.9608 38.9672C25.8102 39.3317 25.731 39.6408 25.731 39.9023C25.731 40.0053 25.7468 40.0766 25.7864 40.1241C25.8181 40.1717 25.8578 40.1875 25.8974 40.1875C25.9766 40.1875 26.0638 40.14 26.1589 40.0449L26.254 39.926V40.1638ZM32.5222 36.6691L31.5475 39.8706C31.4841 40.0687 31.4524 40.1875 31.4524 40.2351C31.4524 40.2509 31.4603 40.2747 31.4761 40.2906C31.492 40.3064 31.5078 40.3064 31.5237 40.3064C31.5554 40.3064 31.595 40.2905 31.6346 40.2589C31.7059 40.2113 31.7931 40.1083 31.8882 39.9577L31.9912 40.0132C31.7218 40.4807 31.4286 40.7185 31.1037 40.7185C30.9928 40.7185 30.9056 40.6868 30.8422 40.6313C30.8117 40.6014 30.7875 40.5656 30.7712 40.5261C30.7549 40.4866 30.7467 40.4442 30.7471 40.4015C30.7471 40.3064 30.7709 40.1796 30.8263 40.0211L30.9135 39.7279C30.8343 39.8626 30.755 39.9894 30.6837 40.1004V39.8785C30.7867 39.7438 30.8897 39.5615 30.9928 39.3396C31.1512 38.983 31.2305 38.6978 31.2305 38.4838C31.2305 38.3649 31.2067 38.2857 31.1592 38.2302C31.1116 38.1747 31.0561 38.151 31.0007 38.151C30.9373 38.151 30.866 38.1827 30.7946 38.2461C30.7629 38.2778 30.7233 38.3174 30.6837 38.3649V38.0242C30.7709 38.0004 30.858 37.9846 30.9452 37.9846C31.0244 37.9846 31.0878 38.0004 31.1512 38.0321C31.2067 38.0638 31.278 38.1193 31.3493 38.2064L31.5712 37.5012C31.6267 37.3189 31.6584 37.1921 31.6584 37.1129C31.6584 37.0653 31.6425 37.0257 31.6029 36.994C31.5633 36.9544 31.5078 36.9385 31.4444 36.9385C31.4127 36.9385 31.3731 36.9465 31.3335 36.9465L31.3573 36.8434L32.3399 36.6691H32.5222ZM30.6837 40.1004C30.5411 40.3143 30.4063 40.4728 30.2875 40.56C30.1528 40.663 30.026 40.7185 29.8992 40.7185C29.7565 40.7185 29.6298 40.663 29.5347 40.5441C29.4316 40.4253 29.3841 40.2589 29.3841 40.037C29.3841 39.7517 29.4475 39.4664 29.5743 39.1891C29.7011 38.9117 29.8516 38.6819 30.0181 38.4996C30.1845 38.3174 30.343 38.1827 30.5014 38.1034C30.5569 38.0717 30.6203 38.048 30.6837 38.0242V38.3649C30.5807 38.5076 30.4777 38.7057 30.3667 38.9751C30.2162 39.3475 30.1369 39.6566 30.1369 39.9102C30.1369 39.9973 30.1528 40.0687 30.1845 40.1083C30.2241 40.1558 30.2558 40.1796 30.2954 40.1796C30.3667 40.1796 30.438 40.1479 30.5014 40.0845C30.5648 40.029 30.6203 39.9657 30.6837 39.8785V40.1004ZM33.6395 40.3381C33.7425 40.3302 33.8455 40.2985 33.9565 40.2589C34.0912 40.1955 34.2497 40.1004 34.424 39.9577L34.5112 40.029C34.2972 40.2747 34.0833 40.457 33.8693 40.56C33.798 40.5996 33.7187 40.6313 33.6395 40.6551V40.3381ZM33.6395 38.1193C33.8614 38.0321 34.0833 37.9846 34.2972 37.9846C34.4636 37.9846 34.5825 38.0242 34.6617 38.0955C34.7489 38.1747 34.7885 38.2698 34.7885 38.3887C34.7885 38.5313 34.7489 38.6661 34.6697 38.7928C34.5636 38.9674 34.4202 39.1162 34.2497 39.2287C34.0735 39.3418 33.8811 39.4273 33.6791 39.4823C33.6633 39.4823 33.6553 39.4902 33.6395 39.4902V39.2525C33.695 39.2128 33.7504 39.1653 33.8059 39.1098C33.8931 39.0147 33.9723 38.8959 34.0357 38.7532C34.107 38.6106 34.1387 38.4759 34.1387 38.3491C34.1387 38.2936 34.1229 38.254 34.0912 38.2223C34.0595 38.1906 34.0278 38.1747 33.9802 38.1747C33.8851 38.1747 33.7821 38.2381 33.6712 38.3649L33.6395 38.3966V38.1193ZM33.1165 39.5694C33.1006 39.6883 33.0927 39.7913 33.0927 39.8706C33.0927 40.0132 33.1323 40.1241 33.2116 40.2113C33.2987 40.2985 33.4097 40.3381 33.5523 40.3381H33.6395V40.6551C33.4899 40.6972 33.3353 40.7185 33.1799 40.7185C32.8629 40.7185 32.641 40.6392 32.5222 40.4887C32.3954 40.3381 32.332 40.1558 32.332 39.9577C32.332 39.6487 32.4271 39.3317 32.6093 39.0226C32.7916 38.7057 33.0372 38.46 33.3542 38.2698C33.4493 38.2144 33.5444 38.1589 33.6395 38.1193V38.3966C33.4414 38.6344 33.275 38.9672 33.1403 39.4189C33.3067 39.3951 33.4414 39.3555 33.5365 39.3159C33.5682 39.3 33.6078 39.2762 33.6395 39.2525V39.4902C33.5048 39.5219 33.3304 39.5457 33.1165 39.5694ZM40.5099 36.6691L40.2247 37.9053H40.1216C40.1058 37.5646 40.0265 37.311 39.8681 37.1446C39.7175 36.9782 39.5194 36.8989 39.2737 36.8989C39.0043 36.8989 38.7349 37.0099 38.4734 37.2317C38.2039 37.4615 37.9821 37.8023 37.7998 38.2698C37.6492 38.6502 37.5779 39.0226 37.5779 39.3872C37.5779 39.72 37.6572 39.9656 37.8156 40.14C37.9821 40.3143 38.2039 40.4015 38.4892 40.4015C38.719 40.4015 38.9251 40.3539 39.1152 40.2509C39.3054 40.1558 39.4956 39.9973 39.6937 39.7755H39.8284C39.5907 40.1241 39.353 40.3777 39.1073 40.5204C38.8696 40.663 38.5764 40.7343 38.2198 40.7343C37.7522 40.7343 37.3798 40.5917 37.0945 40.3064C36.8092 40.0211 36.6666 39.6487 36.6666 39.197C36.6666 38.7691 36.7775 38.357 37.0074 37.9687C37.2372 37.5804 37.5621 37.2714 37.99 37.0257C38.4179 36.788 38.8379 36.6691 39.2658 36.6691C39.4243 36.6691 39.6224 36.7008 39.8681 36.7721C39.9869 36.8038 40.0741 36.8197 40.1216 36.8197C40.2167 36.8197 40.3118 36.7721 40.4069 36.6691H40.5099ZM41.9205 37.9846L41.3103 39.926C41.2786 40.0211 41.2627 40.0766 41.2627 40.1162C41.2627 40.1321 41.2707 40.1479 41.2865 40.1558C41.2935 40.1636 41.3021 40.1697 41.3116 40.1738C41.3212 40.1779 41.3316 40.1799 41.342 40.1796C41.4212 40.1796 41.5401 40.1004 41.6827 39.9419C41.8888 39.72 42.0948 39.3872 42.3246 38.9672L42.594 38.0955L43.3152 38.0638L42.7446 39.9656C42.6971 40.1321 42.6733 40.2192 42.6733 40.243C42.6733 40.2589 42.6812 40.2747 42.6971 40.2906C42.7129 40.3064 42.7288 40.3143 42.7446 40.3143C42.7684 40.3143 42.7922 40.3064 42.8239 40.2826C42.8872 40.2272 42.9823 40.1162 43.0933 39.9577L43.1963 40.0211C42.9269 40.4887 42.6337 40.7185 42.3167 40.7185C42.1978 40.7185 42.1027 40.6868 42.0314 40.6313C41.9759 40.5679 41.9363 40.4887 41.9363 40.3936C41.9363 40.2905 41.9601 40.1638 42.0076 40.0053L42.1503 39.514C41.9125 39.8785 41.7303 40.1162 41.6193 40.243C41.4529 40.4332 41.3024 40.56 41.1914 40.6234C41.0726 40.6868 40.9616 40.7185 40.8586 40.7185C40.7556 40.7185 40.6684 40.6788 40.5971 40.6075C40.5179 40.5362 40.4862 40.4411 40.4862 40.3302C40.4862 40.2272 40.5099 40.1004 40.5654 39.934L40.9299 38.7928C40.9775 38.6027 41.0092 38.4759 41.0092 38.4125C41.0092 38.3808 41.0012 38.357 40.9854 38.3332C40.9695 38.3174 40.9458 38.2936 40.9141 38.2857C40.8824 38.2698 40.8348 38.2619 40.7556 38.2619L40.7873 38.1589L41.7541 37.9846H41.9205ZM45.3913 36.6691L44.8842 38.3887C45.0268 38.2223 45.1457 38.1193 45.2408 38.0638C45.338 38.0108 45.4471 37.9835 45.5578 37.9846C45.7796 37.9846 45.9461 38.0638 46.0491 38.2302C46.16 38.3966 46.2155 38.5868 46.2155 38.8008C46.2155 39.3159 46.0332 39.7755 45.6608 40.1796C45.423 40.449 45.1615 40.6154 44.8683 40.6788V40.3936C44.9317 40.3302 45.0031 40.243 45.0744 40.14C45.1853 39.9736 45.2804 39.7675 45.3596 39.5219C45.4382 39.2896 45.4784 39.046 45.4785 38.8008C45.4785 38.6661 45.4468 38.563 45.3913 38.4917C45.328 38.4204 45.2646 38.3887 45.1932 38.3887C45.0664 38.3887 44.9634 38.4521 44.8683 38.5789V36.7325L45.217 36.6691H45.3913ZM44.8683 40.6788C44.7653 40.7026 44.6623 40.7185 44.5514 40.7185C44.2423 40.7185 43.9174 40.6234 43.5687 40.4411L44.4563 37.4219C44.5038 37.2793 44.5276 37.1842 44.5355 37.1208C44.5357 37.0983 44.53 37.0762 44.5188 37.0567C44.5077 37.0372 44.4916 37.0211 44.4721 37.0099C44.4087 36.9702 44.3216 36.9544 44.2106 36.9544L44.2344 36.8434L44.8683 36.7325V38.5789L44.8604 38.5868C44.797 38.674 44.7336 38.8642 44.6544 39.1415L44.2661 40.4649C44.3533 40.5283 44.4325 40.5521 44.4959 40.5521C44.5989 40.5521 44.6782 40.5362 44.7416 40.4966C44.7812 40.4649 44.8287 40.4332 44.8683 40.3936V40.6788ZM49.2267 38.0242L48.6562 39.926L48.6007 40.1638C48.5928 40.1875 48.5928 40.2113 48.5928 40.2272C48.5928 40.2509 48.6007 40.2668 48.6166 40.2826C48.6324 40.2985 48.6483 40.3064 48.6641 40.3064C48.7037 40.3064 48.7592 40.2826 48.8226 40.2192C48.8543 40.1955 48.9177 40.1083 49.0286 39.9577L49.1317 40.0053C48.9969 40.2589 48.8543 40.4332 48.6958 40.5441C48.5453 40.663 48.3788 40.7185 48.2045 40.7185C48.0936 40.7185 48.0143 40.6868 47.9509 40.6313C47.8955 40.5758 47.8638 40.5124 47.8638 40.4253C47.8638 40.346 47.8955 40.2113 47.9588 40.0053L48.0302 39.7755C47.9555 39.9093 47.8735 40.039 47.7845 40.1638V39.926C47.8764 39.7992 47.956 39.6638 48.0222 39.5219C48.2124 39.1653 48.2996 38.8483 48.2996 38.571C48.2996 38.4125 48.2758 38.3015 48.2283 38.2302C48.1966 38.1827 48.149 38.1589 48.0856 38.1589C48.0302 38.1589 47.9668 38.1906 47.9034 38.2461C47.8638 38.2857 47.8241 38.3332 47.7845 38.3887V38.0321C47.8717 38.0004 47.9509 37.9846 48.0381 37.9846C48.1411 37.9846 48.2283 38.0163 48.2917 38.0796C48.363 38.143 48.4105 38.254 48.4422 38.4204L48.5452 38.0638L49.2267 38.0242ZM47.7845 40.1638C47.6498 40.346 47.5151 40.4887 47.3883 40.5838C47.2694 40.6709 47.1426 40.7185 47.0079 40.7185C46.8336 40.7185 46.7068 40.6471 46.6276 40.5045C46.5483 40.3539 46.5087 40.1955 46.5087 40.0132C46.5087 39.7438 46.5959 39.4347 46.7543 39.086C46.9208 38.7374 47.1426 38.46 47.4121 38.2461C47.5389 38.143 47.6656 38.0717 47.7845 38.0321V38.3887C47.6894 38.5234 47.5864 38.7136 47.4834 38.9672C47.3407 39.3317 47.2615 39.6408 47.2615 39.9023C47.2615 40.0053 47.2774 40.0766 47.309 40.1241C47.3487 40.1717 47.3804 40.1875 47.42 40.1875C47.5072 40.1875 47.5943 40.14 47.6815 40.0449C47.7211 40.0053 47.7528 39.9656 47.7845 39.926V40.1638ZM53.6248 38.0242L53.0621 39.926L53.0067 40.1638C52.9988 40.1875 52.9988 40.2113 52.9988 40.2272C52.9988 40.2509 53.0067 40.2668 53.0225 40.2826C53.0384 40.2985 53.0542 40.3064 53.0701 40.3064C53.1097 40.3064 53.1652 40.2826 53.2286 40.2192C53.2603 40.1955 53.3237 40.1083 53.4346 39.9577L53.5376 40.0053C53.4029 40.2589 53.2523 40.4332 53.1018 40.5441C52.9512 40.663 52.7848 40.7185 52.6105 40.7185C52.4995 40.7185 52.4123 40.6868 52.3569 40.6313C52.3014 40.5758 52.2697 40.5124 52.2697 40.4253C52.2697 40.346 52.3014 40.2113 52.3648 40.0053L52.4361 39.7755C52.349 39.9181 52.2697 40.0528 52.1905 40.1638V39.926C52.2824 39.7992 52.362 39.6638 52.4282 39.5219C52.6184 39.1653 52.7056 38.8483 52.7056 38.571C52.7056 38.4125 52.6818 38.3015 52.6342 38.2302C52.6025 38.1827 52.555 38.1589 52.4916 38.1589C52.4361 38.1589 52.3727 38.1906 52.3093 38.2461C52.2697 38.2857 52.2301 38.3332 52.1905 38.3887V38.0321C52.2776 38.0004 52.3569 37.9846 52.444 37.9846C52.5471 37.9846 52.6342 38.0163 52.6976 38.0796C52.7689 38.143 52.8165 38.254 52.8482 38.4204L52.9512 38.0638L53.6248 38.0242ZM52.1905 40.1638C52.0558 40.346 51.921 40.4887 51.7942 40.5838C51.6754 40.6709 51.5486 40.7185 51.4139 40.7185C51.2395 40.7185 51.1128 40.6471 51.0335 40.5045C50.9543 40.3539 50.9146 40.1955 50.9146 40.0132C50.9146 39.7438 50.9939 39.4347 51.1603 39.086C51.3267 38.7374 51.5486 38.46 51.818 38.2461C51.9448 38.143 52.0716 38.0717 52.1905 38.0321V38.3887C52.0954 38.5234 51.9924 38.7136 51.8893 38.9672C51.7388 39.3317 51.6675 39.6408 51.6675 39.9023C51.6675 40.0053 51.6833 40.0766 51.715 40.1241C51.7546 40.1717 51.7863 40.1875 51.8259 40.1875C51.9131 40.1875 52.0003 40.14 52.0875 40.0449C52.1191 40.0053 52.1588 39.9656 52.1905 39.926V40.1638ZM55.6296 36.6691L54.647 39.9102C54.5836 40.1004 54.5599 40.2192 54.5599 40.2747C54.5599 40.2905 54.5678 40.3143 54.5836 40.3302C54.5906 40.3379 54.5992 40.344 54.6088 40.3482C54.6183 40.3523 54.6287 40.3542 54.6391 40.3539C54.6708 40.3539 54.7025 40.346 54.7342 40.3143C54.8293 40.243 54.9323 40.1241 55.0432 39.9577L55.1542 40.0053C54.9719 40.2826 54.7897 40.4807 54.6153 40.5996C54.4965 40.6788 54.3697 40.7185 54.227 40.7185C54.1002 40.7185 54.0051 40.6868 53.9259 40.6154C53.8546 40.5521 53.815 40.4728 53.815 40.3777C53.815 40.3064 53.8387 40.1955 53.8863 40.037L54.6946 37.3982C54.7342 37.2476 54.758 37.1525 54.758 37.105C54.758 37.0653 54.7342 37.0257 54.6946 37.0019C54.6391 36.9623 54.5519 36.9465 54.4331 36.9465L54.4568 36.8434L55.4553 36.6691H55.6296ZM59.0609 36.7563L59.3383 39.4268L61.1846 36.7563H62.5556L62.5159 36.8593C62.3337 36.8593 62.191 36.8989 62.0959 36.9782C61.9929 37.0653 61.9137 37.2238 61.8424 37.4536L61.1292 39.9419C61.0816 40.1004 61.0578 40.2192 61.0578 40.2985C61.0578 40.3698 61.0895 40.4253 61.145 40.4649C61.2005 40.5124 61.3114 40.5362 61.4858 40.5362L61.4541 40.6392H59.5205L59.5522 40.5362C59.7582 40.5362 59.9167 40.4966 60.0118 40.4173C60.1148 40.3381 60.1941 40.1796 60.2654 39.9419L60.9865 37.4219L58.7677 40.6392H58.6488L58.3002 37.3665L57.5553 39.9419C57.5315 40.0528 57.5156 40.14 57.5156 40.2113C57.5156 40.3064 57.5473 40.3856 57.6107 40.4411C57.6741 40.5045 57.793 40.5362 57.9515 40.5362L57.9198 40.6392H56.636L56.6598 40.5362C56.8183 40.5362 56.9372 40.5045 57.0164 40.4411C57.1591 40.3302 57.27 40.1717 57.3334 39.9419L58.1734 37.0733C58.0941 36.9861 58.0228 36.9306 57.9594 36.8989C57.8881 36.8751 57.7851 36.8593 57.6345 36.8593L57.6662 36.7563H59.0609ZM63.7838 37.9846L63.1657 39.926C63.142 40.0211 63.1261 40.0766 63.1261 40.1162C63.1264 40.1309 63.132 40.145 63.142 40.1558C63.1489 40.1636 63.1575 40.1697 63.1671 40.1738C63.1767 40.1779 63.187 40.1799 63.1974 40.1796C63.2846 40.1796 63.3955 40.1004 63.5461 39.9419C63.7442 39.72 63.9661 39.3872 64.188 38.9672L64.4574 38.0955L65.1864 38.0638L64.6159 39.9656C64.5683 40.1321 64.5446 40.2192 64.5446 40.243C64.5446 40.2589 64.5525 40.2747 64.5604 40.2906C64.5763 40.3064 64.5921 40.3143 64.608 40.3143C64.6397 40.3143 64.6634 40.3064 64.6872 40.2826C64.7585 40.2272 64.8457 40.1162 64.9647 39.9577L65.0598 40.0211C64.7903 40.4887 64.4971 40.7185 64.1802 40.7185C64.0613 40.7185 63.9662 40.6868 63.9028 40.6313C63.8315 40.5679 63.7998 40.4887 63.7998 40.3936C63.7998 40.2905 63.8236 40.1638 63.8711 40.0053L64.0137 39.514C63.7681 39.8785 63.5938 40.1162 63.4828 40.243C63.3085 40.4332 63.1658 40.56 63.047 40.6234C62.9281 40.6868 62.8172 40.7185 62.7141 40.7185C62.6111 40.7185 62.524 40.6788 62.4526 40.6075C62.3813 40.5362 62.3417 40.4411 62.3417 40.3302C62.3417 40.2272 62.3734 40.1004 62.4209 39.934L62.7855 38.7928C62.8409 38.6027 62.8647 38.4759 62.8647 38.4125C62.8647 38.3808 62.8568 38.357 62.8409 38.3332C62.8251 38.3174 62.8092 38.2936 62.7775 38.2857C62.7458 38.2698 62.6904 38.2619 62.6191 38.2619L62.6428 38.1589L63.6096 37.9846H63.7838ZM66.9298 37.9846L66.5574 39.2128C66.8109 38.8562 67.0011 38.6106 67.1279 38.4759C67.3102 38.2857 67.4687 38.1589 67.6034 38.0876C67.7381 38.0163 67.8649 37.9846 67.9838 37.9846C68.0868 37.9846 68.1819 38.0242 68.2532 38.1034C68.3245 38.1827 68.3641 38.2936 68.3641 38.4204C68.3641 38.5234 68.3404 38.6502 68.2928 38.8008L67.8966 40.0053C67.8649 40.1162 67.849 40.1796 67.849 40.2113C67.849 40.2351 67.857 40.2509 67.8728 40.2668C67.8887 40.2826 67.9045 40.2906 67.9124 40.2906C67.9362 40.2906 67.9521 40.2826 67.9758 40.2668C68.0471 40.2113 68.1105 40.1321 68.1819 40.037C68.1977 40.0053 68.2215 39.9657 68.2611 39.9181L68.372 39.9815C68.0868 40.4411 67.7936 40.6788 67.4766 40.6788C67.3577 40.6788 67.2626 40.6471 67.1992 40.5838C67.1279 40.5204 67.0962 40.449 67.0962 40.3539C67.0962 40.2747 67.12 40.1558 67.1755 39.9973L67.5638 38.7691C67.5875 38.6898 67.6034 38.6264 67.6034 38.5947C67.6034 38.571 67.5955 38.5551 67.5717 38.5393C67.5545 38.5234 67.5317 38.5149 67.5083 38.5155C67.429 38.5155 67.334 38.563 67.223 38.6581C66.9298 38.9117 66.6525 39.2921 66.383 39.7913L66.1374 40.6392H65.4004L65.9551 38.8087C66.0027 38.6264 66.0344 38.4996 66.0423 38.4204C66.0423 38.3887 66.0263 38.357 66.0106 38.3332C65.9947 38.3174 65.971 38.2936 65.9313 38.2857C65.8917 38.2698 65.8204 38.2619 65.7174 38.2619L65.7491 38.1589L66.7476 37.9846H66.9298ZM71.8429 36.6691L70.8682 39.8706C70.8048 40.0687 70.7731 40.1875 70.7731 40.2351C70.7731 40.2509 70.7811 40.2747 70.7969 40.2906C70.8128 40.3064 70.8286 40.3064 70.8445 40.3064C70.8762 40.3064 70.9158 40.2905 70.9554 40.2589C71.0267 40.2113 71.106 40.1083 71.209 39.9577L71.312 40.0132C71.0426 40.4807 70.7494 40.7185 70.4245 40.7185C70.3135 40.7185 70.2264 40.6868 70.163 40.6313C70.1325 40.6014 70.1083 40.5656 70.092 40.5261C70.0756 40.4866 70.0674 40.4442 70.0679 40.4015C70.0679 40.3064 70.0916 40.1796 70.1471 40.0211L70.2343 39.7279C70.155 39.8626 70.0758 39.9894 70.0045 40.1004V39.8785C70.1075 39.7438 70.2105 39.5615 70.3135 39.3396C70.472 38.983 70.5513 38.6978 70.5513 38.4838C70.5513 38.3649 70.5275 38.2857 70.4799 38.2302C70.4324 38.1747 70.3769 38.151 70.3214 38.151C70.2581 38.151 70.1867 38.1827 70.1154 38.2461C70.0837 38.2778 70.0441 38.3174 70.0045 38.3649V38.0242C70.0916 38.0004 70.1788 37.9846 70.266 37.9846C70.3452 37.9846 70.4086 38.0004 70.472 38.0321C70.5275 38.0638 70.5988 38.1193 70.6701 38.2064L70.892 37.5012C70.9475 37.3189 70.9792 37.1921 70.9792 37.1129C70.9792 37.0653 70.9633 37.0257 70.9237 36.994C70.8841 36.9544 70.8286 36.9385 70.7652 36.9385C70.7335 36.9385 70.6939 36.9465 70.6543 36.9465L70.678 36.8434L71.6607 36.6691H71.8429ZM70.0045 40.1004C69.8618 40.3143 69.727 40.4728 69.6083 40.56C69.4735 40.663 69.3467 40.7185 69.22 40.7185C69.0773 40.7185 68.9505 40.663 68.8554 40.5441C68.7524 40.4253 68.7049 40.2589 68.7049 40.037C68.7049 39.7517 68.7683 39.4664 68.8951 39.1891C69.0218 38.9117 69.1724 38.6819 69.3388 38.4996C69.5052 38.3174 69.6637 38.1827 69.8222 38.1034C69.8777 38.0717 69.9411 38.048 70.0045 38.0242V38.3649C69.9013 38.5076 69.7984 38.7057 69.6875 38.9751C69.5369 39.3475 69.4577 39.6566 69.4577 39.9102C69.4577 39.9973 69.4735 40.0687 69.5052 40.1083C69.5449 40.1558 69.5766 40.1796 69.6162 40.1796C69.6875 40.1796 69.7588 40.1479 69.8222 40.0845C69.8856 40.029 69.9411 39.9657 70.0045 39.8785V40.1004ZM73.4595 37.9846C73.6101 37.9846 73.7527 38.0163 73.8795 38.0876C74.0142 38.1589 74.1172 38.254 74.1806 38.3808C74.2519 38.4996 74.2836 38.6423 74.2836 38.7928C74.2836 39.1019 74.1965 39.4109 74.0301 39.72C73.8557 40.029 73.6259 40.2747 73.3406 40.449C73.2218 40.5283 73.1029 40.5838 72.9761 40.6313V40.346C73.0316 40.2668 73.095 40.1638 73.1584 40.037C73.2852 39.7992 73.3803 39.5298 73.4595 39.2445C73.5387 38.9513 73.5784 38.6898 73.5784 38.4442C73.5784 38.3491 73.5546 38.2698 73.507 38.2144C73.4595 38.1589 73.404 38.1351 73.3406 38.1351C73.2376 38.1351 73.1504 38.1668 73.0871 38.2223C73.0474 38.254 73.0157 38.2936 72.9761 38.3491V38.0717C73.1346 38.0083 73.2931 37.9846 73.4595 37.9846ZM72.9761 40.6313C72.8176 40.6868 72.6512 40.7185 72.4848 40.7185C72.2233 40.7185 72.0252 40.6392 71.8825 40.4887C71.7399 40.3302 71.6686 40.14 71.6686 39.9181C71.6686 39.6566 71.7241 39.403 71.8271 39.1732C71.938 38.9434 72.0727 38.7374 72.2312 38.563C72.3974 38.3965 72.5869 38.255 72.7938 38.143C72.8572 38.1193 72.9206 38.0876 72.9761 38.0717V38.3491C72.873 38.4996 72.7542 38.7374 72.6274 39.0702C72.461 39.506 72.3739 39.9102 72.3739 40.2668C72.3739 40.3539 72.4056 40.4253 72.4531 40.4807C72.5086 40.5362 72.572 40.5679 72.6433 40.5679C72.7225 40.5679 72.7859 40.5441 72.8493 40.4966C72.8889 40.4649 72.9286 40.4173 72.9761 40.346V40.6313Z" fill="#004FA3"/>
<path fill-rule="evenodd" clip-rule="evenodd" d="M25.2955 33.9751L9.69238 15.2656L13.71 33.9751H25.2955Z" fill="#EF3E33"/>
<path fill-rule="evenodd" clip-rule="evenodd" d="M24.3997 20.6225L19.9462 15.2656H11.0312L15.4927 20.6225H24.3997ZM35.5493 33.9751L31.0958 28.6341H22.1729L26.6423 33.9751H35.5493ZM29.9864 27.3107L25.517 21.9617H16.61L21.0635 27.3107H29.9864ZM43.2597 30.94L44.1869 28.6578H38.9964L36.841 33.9751H42.0235L42.9506 31.6929H41.3103L40.8507 32.834H38.9488L40.185 29.7989H42.071L41.6194 30.94H43.2597ZM46.8732 32.826L48.577 28.6341H50.2332L48.0698 33.9751H42.8476L45.011 28.6341H46.6672L44.9634 32.826H46.8732ZM64.2514 29.7831L62.5556 33.9751H60.8994L63.0627 28.6341H68.2849L66.1215 33.9751H64.4653L66.1691 29.7831H64.2514ZM53.1572 30.8053C53.2761 30.8053 53.3791 30.7816 53.4821 30.734C53.5772 30.6944 53.6723 30.631 53.7516 30.5597C53.8229 30.4884 53.8784 30.4012 53.9259 30.3061V30.2902L54.1319 29.7831H52.975V28.6341H56.2478L55.5346 30.4487L55.5108 30.4963C55.4395 30.6548 55.3444 30.7974 55.2176 30.9163C55.1003 31.0411 54.9569 31.1385 54.7976 31.2016C54.6867 31.2491 54.5678 31.2808 54.4568 31.2966C54.4727 31.3125 54.4965 31.3283 54.5123 31.3442C54.5916 31.4314 54.6708 31.5344 54.7184 31.6612C54.7705 31.7812 54.7975 31.9107 54.7976 32.0415C54.7976 32.1762 54.7659 32.303 54.7184 32.4219L54.0844 33.9751H52.975V32.6359L53.0859 32.3585C53.1018 32.303 53.1097 32.2555 53.1097 32.2C53.1097 32.1287 53.1018 32.0574 53.0701 32.0019C53.0498 31.9454 53.0174 31.8939 52.975 31.8514V30.8053H53.1572ZM52.975 29.7831H52.2222L52.0161 30.2902L51.8101 30.8053H52.975V31.8514L52.9671 31.8434C52.9671 31.8355 52.9671 31.8355 52.9591 31.8355C52.9116 31.788 52.8561 31.7483 52.8007 31.7246C52.7452 31.6929 52.6739 31.6849 52.6025 31.6849H51.4456L50.986 32.826H52.8878L52.975 32.6359V33.9751H48.8622L51.0335 28.6341H52.975V29.7831ZM58.8628 32.5804H59.0213L58.8628 32.9608V33.9751H60.1069L62.2703 28.6341H58.8628V29.7831H60.1545L59.4809 31.4314H58.8628V32.5804ZM57.0481 28.6341L54.8848 33.9751H56.541L57.1036 32.5804H58.8628V31.4314H57.5711L58.2368 29.7831H58.8628V28.6341H57.0481ZM58.8628 32.9608V33.9751H58.4507L58.8628 32.9608Z" fill="#004FA3"/>
</svg>
