<svg width="84" height="56" viewBox="0 0 84 56" fill="none" xmlns="http://www.w3.org/2000/svg">
<path d="M16.2278 32.9687L8.90527 29.4427V21.6855L16.2278 32.9687ZM16.81 34.3135L8.90527 30.9761V34.3135H16.81Z" fill="#98002E"/>
<path d="M1.58398 32.9687L8.90655 21.6855V29.4427L1.58398 32.9687Z" fill="#E31837"/>
<path d="M1.00098 34.3139H8.90574V30.9766L1.00098 34.3139Z" fill="#E31837"/>
<path d="M17.4502 32.001C17.7372 32.001 17.975 32.2306 17.975 32.5176C17.975 32.8046 17.7454 33.0424 17.4584 33.0424C17.1714 33.0424 16.9336 32.8128 16.9336 32.5258C16.9336 32.2306 17.1632 32.001 17.4502 32.001ZM17.4502 32.9604C17.6962 32.9604 17.893 32.7636 17.893 32.5176C17.893 32.2716 17.6962 32.0748 17.4502 32.0748C17.2042 32.0748 17.0074 32.2716 17.0074 32.5176C17.0074 32.7636 17.2042 32.9604 17.4502 32.9604ZM17.3354 32.821H17.2616V32.2224H17.4912C17.6306 32.2224 17.6798 32.2798 17.6798 32.3864C17.688 32.4766 17.6142 32.5504 17.5322 32.5586L17.7126 32.821H17.6306L17.4502 32.5586H17.3436L17.3354 32.821ZM17.3354 32.4848H17.4338C17.5158 32.4848 17.606 32.4766 17.606 32.3782C17.606 32.3044 17.5322 32.2798 17.4748 32.2798H17.3436V32.4848H17.3354Z" fill="#98002E"/>
<path d="M22.9844 32.9686H26.535C30.1921 32.9686 32.3651 31.0744 32.3651 27.9338C32.3651 24.7932 30.1921 22.9072 26.535 22.9072H22.9844V32.9686ZM25.2312 24.6538H26.535C28.9047 24.6538 30.0937 25.8264 30.0937 27.9338C30.0937 30.0412 28.9047 31.2138 26.535 31.2138H25.2312V24.6538Z" fill="#003D79"/>
<path d="M44.2791 26.8596H40.0069V24.6538H44.8367V22.9072H37.752V32.9686H44.9925V31.222H40.0069V28.6062H44.2791V26.8596Z" fill="#003D79"/>
<path d="M53.463 22.9072H51.208V32.9686H57.8008V31.222H53.463V22.9072Z" fill="#003D79"/>
<path d="M60.9092 24.6538H64.2876V32.9686H66.5508V24.6538H69.9373V22.9072H60.9092V24.6538Z" fill="#003D79"/>
<path d="M82.9994 32.9686H80.646L79.662 30.4512H75.5703L74.5863 32.9686H72.3887L76.5953 22.8662H78.8666L82.9994 32.9686ZM79.0224 28.762L77.6203 25.1868L76.2099 28.762H79.0224Z" fill="#003D79"/>
</svg>
