<svg width="84" height="56" viewBox="0 0 84 56" fill="none" xmlns="http://www.w3.org/2000/svg">
<path d="M16.2269 32.9692L8.9043 29.4432V21.686L16.2269 32.9692ZM16.8091 34.314L8.9043 30.9766V34.314H16.8091Z" fill="#98002E"/>
<path d="M1.58203 32.9692L8.9046 21.686V29.4432L1.58203 32.9692Z" fill="#E31837"/>
<path d="M1 34.3139H8.90477V30.9766L1 34.3139Z" fill="#E31837"/>
<path d="M17.4482 32.0015C17.7352 32.0015 17.973 32.2311 17.973 32.5181C17.973 32.8051 17.7434 33.0429 17.4564 33.0429C17.1694 33.0429 16.9316 32.8133 16.9316 32.5263C16.9316 32.2311 17.1612 32.0015 17.4482 32.0015ZM17.4482 32.9609C17.6942 32.9609 17.891 32.7641 17.891 32.5181C17.891 32.2721 17.6942 32.0753 17.4482 32.0753C17.2022 32.0753 17.0054 32.2721 17.0054 32.5181C17.0054 32.7641 17.2022 32.9609 17.4482 32.9609ZM17.3334 32.8215H17.2596V32.2229H17.4892C17.6286 32.2229 17.6778 32.2803 17.6778 32.3869C17.686 32.4771 17.6122 32.5509 17.5302 32.5591L17.7106 32.8215H17.6286L17.4482 32.5591H17.3416L17.3334 32.8215ZM17.3334 32.4853H17.4318C17.5138 32.4853 17.604 32.4771 17.604 32.3787C17.604 32.3049 17.5302 32.2803 17.4728 32.2803H17.3416V32.4853H17.3334Z" fill="#98002E"/>
<path d="M22.9844 32.9691H26.535C30.1921 32.9691 32.3651 31.0749 32.3651 27.9343C32.3651 24.7937 30.1921 22.9077 26.535 22.9077H22.9844V32.9691ZM25.2312 24.6543H26.535C28.9047 24.6543 30.0937 25.8269 30.0937 27.9343C30.0937 30.0417 28.9047 31.2143 26.535 31.2143H25.2312V24.6543Z" fill="#003D79"/>
<path d="M44.2791 26.8601H40.0069V24.6543H44.8367V22.9077H37.752V32.9691H44.9925V31.2225H40.0069V28.6067H44.2791V26.8601Z" fill="#003D79"/>
<path d="M53.464 22.9077H51.209V32.9691H57.8018V31.2225H53.464V22.9077Z" fill="#003D79"/>
<path d="M60.9102 24.6543H64.2885V32.9691H66.5517V24.6543H69.9383V22.9077H60.9102V24.6543Z" fill="#003D79"/>
<path d="M82.9994 32.9691H80.646L79.662 30.4517H75.5703L74.5863 32.9691H72.3887L76.5953 22.8667H78.8666L82.9994 32.9691ZM79.0224 28.7625L77.6203 25.1873L76.2099 28.7625H79.0224Z" fill="#003D79"/>
</svg>
