<svg width="84" height="56" viewBox="0 0 84 56" fill="none" xmlns="http://www.w3.org/2000/svg">
<path fill-rule="evenodd" clip-rule="evenodd" d="M79.3803 24.6471C79.7053 25.0324 80.1799 25.1697 80.4833 24.9481C80.6735 24.8083 80.7438 24.5545 80.7024 24.2775C80.8827 24.3048 81.058 24.3593 81.2672 24.4437C81.3706 24.4784 81.4938 24.0459 81.3334 24.0311C79.6102 23.783 78.6535 25.1738 78.6766 25.1515C78.9429 24.9514 79.1628 24.7819 79.3803 24.6471ZM80.3634 24.8058C80.136 24.9902 79.7565 24.8753 79.4894 24.5809C79.8491 24.3585 80.1542 24.2535 80.4825 24.2576C80.5495 24.4693 80.4916 24.7041 80.3634 24.8058ZM71.7781 25.4194C72.0749 24.447 72.5917 23.5655 73.2631 22.8338C76.2324 21.5811 80.0608 21.5902 82.93 23.8996C81.1299 22.9818 75.8066 22.0052 71.7781 25.4194ZM71.6061 28.6028C71.4755 27.9008 71.4531 27.1765 71.5524 26.4662C73.6534 24.3304 76.798 22.9247 80.0988 23.6151C78.2921 23.6193 73.961 24.8571 71.6061 28.6028ZM72.7298 31.2331C72.3809 30.7436 72.0923 30.2044 71.8856 29.6306C73.1358 26.9838 75.5461 24.6785 78.7858 24.1766C77.1734 24.7843 73.813 27.2575 72.7298 31.2331ZM74.7689 33.1175C74.2711 32.8239 73.8213 32.4643 73.4178 32.0574C73.8494 29.2593 75.5585 26.3347 78.2921 24.8166C78.0912 25.1126 77.9986 25.4591 78.0151 25.8278C76.4218 27.4435 74.8391 29.9522 74.7689 33.1175ZM77.2974 33.9998C76.7583 33.9253 76.2374 33.7914 75.7437 33.6012C75.7619 31.0685 76.583 28.0612 78.0738 26.2173C78.1565 26.5406 78.3136 26.8722 78.5675 27.2046C79.7474 25.8163 81.1084 24.8348 82.7986 24.4007C80.4941 25.2755 76.9071 28.0662 77.2974 33.9998ZM13.3377 31.7978H15.9597C16.2077 31.7978 16.4905 31.6018 16.5964 31.3389L16.7039 31.0817H15.3255L15.9762 29.5537H19.6252V29.5587L18.1658 32.9521C17.883 33.5764 17.4389 34.0221 16.6104 33.9783L10.0385 33.97L13.3857 26.1545C13.6709 25.5244 14.1108 25.1068 14.9418 25.1242H21.5237L19.9534 28.7855H17.687L18.327 27.2806H15.4528C15.3519 27.2806 15.2312 27.3699 15.1932 27.475L13.3377 31.7978ZM13.9165 22.0168L7.32555 22.0284C6.48711 22.0052 6.05301 22.436 5.7603 23.0686C5.64784 23.3059 5.46841 23.7202 5.24599 24.2411L1.07031 33.9783H7.69764C8.53526 33.9832 8.97267 33.5673 9.26042 32.9372C9.36791 32.6999 9.55561 32.2824 9.77638 31.7656L4.37199 31.749L5.48412 29.1601H8.53526L9.48285 26.9474H6.4375L7.51573 24.4337C7.56204 24.3287 7.6811 24.2394 7.78446 24.2394H12.964L13.9165 22.0168ZM62.6933 28.8153H65.3046C65.5501 28.8153 65.8271 28.6036 65.9412 28.3514L66.4076 27.2815H63.5318C63.43 27.2815 63.3118 27.3708 63.2672 27.4758L62.6933 28.8153ZM62.8504 31.066H61.6878C61.3182 31.9144 61.0148 32.609 60.8568 32.9521C60.5741 33.5764 60.1408 33.9873 59.3015 33.9766H58.0992L59.3346 31.0776C60.1912 29.0658 61.1297 26.8639 61.4497 26.1553C61.7308 25.531 62.1765 25.0886 63.0075 25.1275L69.5836 25.1258C68.7319 27.1351 67.786 29.3395 67.4618 30.0506C67.1782 30.6716 66.7383 31.114 65.9082 31.0768L67.9555 33.9774H64.8093L62.8504 31.066ZM29.2143 25.1275L30.4232 25.1258C29.5699 27.1351 28.6339 29.3395 28.3114 30.0506C28.0286 30.6716 27.5887 31.114 26.7602 31.0768H25.2173C24.8518 31.9276 24.5492 32.6098 24.397 32.9529C24.1159 33.5772 23.6735 34.0229 22.8433 33.9791L21.6328 33.984L22.8781 31.0784H20.1841C21.0416 29.0658 21.9776 26.8639 22.296 26.1553C22.5837 25.531 23.0211 25.0886 23.8496 25.1275L25.0544 25.1233L23.4941 28.812L26.107 28.8153C26.355 28.8153 26.6403 28.6078 26.742 28.3514C27.0413 27.6147 27.3332 26.8813 27.6673 26.1553C27.9484 25.531 28.38 25.1076 29.2143 25.1275ZM54.5495 33.9774L55.7667 33.9791C56.5993 34.0229 57.0376 33.5772 57.3187 32.9529L60.6782 25.1258L59.4627 25.1275C58.6301 25.0894 58.1902 25.531 57.9091 26.1553C57.5825 26.8639 56.6431 29.0658 55.7898 31.0784L54.5495 33.9774ZM32.3961 28.8153H34.9702C35.2232 28.8153 35.4952 28.6036 35.6068 28.3514L36.0715 27.2806H33.2304C33.1296 27.2806 33.0088 27.3716 32.9642 27.475L32.3961 28.8153ZM31.4378 31.066L35.6672 31.0768C36.5222 31.0768 36.9331 30.6716 37.2168 30.0506C37.5392 29.3395 38.4761 27.1351 39.3261 25.1258L32.7434 25.1275C31.9091 25.1035 31.4775 25.531 31.1922 26.1553L27.8533 33.9783H29.0647C29.9073 33.9931 30.3331 33.5764 30.6184 32.9521C30.7746 32.609 31.0715 31.9144 31.4378 31.066ZM39.427 33.9749L40.6466 33.9791C41.4726 34.0229 41.91 33.5772 42.1937 32.9529C42.5054 32.2625 43.3976 30.154 44.2302 28.1869C44.255 28.134 44.5907 27.3344 44.6172 27.2815H47.2962L48.2058 25.13L41.6504 25.1258C40.8153 25.0894 40.3779 25.5318 40.0967 26.1561L39.6188 27.2897L42.2846 27.2815L39.427 33.9749ZM50.1903 28.8153H52.756C53.0024 28.8153 53.2852 28.6036 53.3927 28.3514L53.8541 27.2815H51.0295C50.927 27.2815 50.8088 27.3708 50.7658 27.4758L50.1903 28.8153ZM52.2335 31.0768H49.2319C48.864 31.9235 48.5638 32.6098 48.4092 32.9529C48.1223 33.5772 47.6865 34.0229 46.8266 33.9791L45.6516 33.9774L46.8828 31.0784C47.7394 29.0658 48.6779 26.8639 49.0037 26.1553C49.2849 25.531 49.6809 25.1233 50.5557 25.1275H57.1153L53.7665 32.9521C53.4853 33.5764 53.043 34.0221 52.2103 33.9783H51.0329L52.2335 31.0768Z" fill="#00265D"/>
</svg>
