<svg width="84" height="56" viewBox="0 0 84 56" fill="none" xmlns="http://www.w3.org/2000/svg">
<path fill-rule="evenodd" clip-rule="evenodd" d="M9.69141 23.3389H47.8285L46.9685 25.4954C46.9685 25.4954 36.4861 23.9436 16.4095 23.5049C10.1579 23.3684 9.70445 23.5049 9.70445 23.5049L9.69141 23.3389ZM13.4634 26.1033H17.5189L18.9415 30.3706L22.5689 26.0686H25.7736L19.8724 32.6589H16.0542L13.4634 26.1033ZM26.2655 26.1033H29.9563L27.7515 32.6589H24.0125L26.2655 26.1033ZM30.9558 26.1246H34.541L33.584 29.0328L38.3644 26.0685H42.0765L37.7035 28.6098L40.1883 32.6588H36.3653L34.8162 29.9689L32.8858 31.0741L32.3363 32.6588H28.6824L30.9558 26.1246ZM43.1818 26.1246H46.8091L44.6252 32.6588H40.9079L43.1818 26.1246ZM47.7872 26.1246H51.415L54.5349 29.5671L55.7879 26.0685H58.9292L56.724 32.6588H53.7523L50.035 28.8215L48.845 32.6588H45.5346L47.7872 26.1246ZM67.1203 28.335L70.6337 28.0789C70.6337 28.0789 70.6332 25.9333 65.0707 25.9481C60.3612 25.9602 58.3582 28.4193 58.3582 29.7784C58.3578 31.8606 60.2612 32.6014 63.7251 32.6588C66.5916 32.7071 67.2868 31.9353 67.2868 31.9353L67.2994 32.6588H69.2037L70.4145 29.0541H64.6403L64.212 30.4554H66.2316C66.2316 30.4554 65.8298 31.3701 64.3651 31.328C62.9003 31.2854 62.4299 30.9684 62.5355 29.6302C62.6412 28.2924 63.8551 27.4794 65.169 27.4837C66.8368 27.4885 67.1202 28.335 67.1202 28.335" fill="#00264F"/>
<path fill-rule="evenodd" clip-rule="evenodd" d="M72.7125 25.9881L73.0064 25.4355L73.2942 25.9812L73.5364 25.8655C73.5364 25.8655 73.3877 26.5764 73.4133 26.602C73.4394 26.6277 73.8007 26.2821 73.8007 26.2821C73.8007 26.2821 73.8007 26.4273 73.8724 26.4529C73.9659 26.4868 74.0537 26.479 74.1437 26.4564C74.2342 26.4333 74.2668 26.4307 74.2668 26.4307C74.2668 26.4307 74.1733 26.6203 74.1829 26.7151C74.1911 26.8068 74.199 26.8307 74.2437 26.8668C74.2889 26.9025 74.3085 26.9312 74.3085 26.9312C74.3085 26.9312 74.2181 27.022 74.0437 27.1512C73.869 27.2803 73.7851 27.3416 73.7429 27.3933C73.7011 27.4455 73.6881 27.5094 73.6881 27.5386C73.6881 27.5681 73.6985 27.6229 73.7111 27.6677C73.7237 27.7133 73.7203 27.7164 73.7203 27.7164C73.7203 27.7164 73.4394 27.6642 73.3264 27.6551C73.2133 27.6459 73.1807 27.6233 73.1324 27.6459C73.0838 27.6677 73.0972 27.6972 73.0972 27.6972L73.1098 28.2655L72.8933 28.269C72.8933 28.269 72.9224 27.7003 72.9129 27.6746C72.9029 27.6481 72.8738 27.639 72.832 27.639C72.7903 27.639 72.2829 27.7229 72.2829 27.7229C72.2829 27.7229 72.3703 27.5646 72.2864 27.4355C72.2016 27.3059 71.7012 26.9151 71.7012 26.9151C71.7012 26.9151 71.8203 26.8442 71.8272 26.7794C71.8338 26.7151 71.8207 26.6016 71.7951 26.5407C71.7804 26.5059 71.7653 26.4713 71.7499 26.4368C71.7499 26.4368 71.989 26.5381 72.1629 26.4434C72.2038 26.4212 72.2377 26.3138 72.2281 26.2981C72.2181 26.2821 72.4412 26.4951 72.4412 26.4951L72.5738 26.6142C72.5738 26.6142 72.5933 26.6051 72.5933 26.5855C72.5933 26.566 72.5185 26.0847 72.4894 26.0003C72.4603 25.9168 72.4542 25.8747 72.4733 25.8747C72.4925 25.8747 72.6059 25.9264 72.6059 25.9264L72.6833 25.9751L72.7125 25.9881Z" fill="#C92327"/>
</svg>
