<svg width="84" height="56" viewBox="0 0 84 56" fill="none" xmlns="http://www.w3.org/2000/svg">
<path fill-rule="evenodd" clip-rule="evenodd" d="M9.69141 23.3394H47.8285L46.9685 25.4958C46.9685 25.4958 36.4861 23.9441 16.4095 23.5054C10.1579 23.3689 9.70445 23.5054 9.70445 23.5054L9.69141 23.3394ZM13.4634 26.1038H17.5189L18.9415 30.3711L22.5689 26.069H25.7736L19.8724 32.6593H16.0542L13.4634 26.1038ZM26.2655 26.1038H29.9563L27.7515 32.6593H24.0125L26.2655 26.1038ZM30.9558 26.1251H34.541L33.584 29.0333L38.3644 26.069H42.0765L37.7035 28.6103L40.1883 32.6593H36.3653L34.8162 29.9693L32.8858 31.0745L32.3363 32.6593H28.6824L30.9558 26.1251ZM43.1818 26.1251H46.8091L44.6252 32.6593H40.9079L43.1818 26.1251ZM47.7872 26.1251H51.415L54.5349 29.5676L55.7879 26.069H58.9292L56.724 32.6593H53.7523L50.035 28.822L48.845 32.6593H45.5346L47.7872 26.1251ZM67.1203 28.3355L70.6337 28.0794C70.6337 28.0794 70.6332 25.9338 65.0707 25.9486C60.3612 25.9607 58.3582 28.4198 58.3582 29.7789C58.3578 31.8611 60.2612 32.6019 63.7251 32.6593C66.5916 32.7076 67.2868 31.9358 67.2868 31.9358L67.2994 32.6593H69.2037L70.4145 29.0546H64.6403L64.212 30.4559H66.2316C66.2316 30.4559 65.8298 31.3706 64.3651 31.3285C62.9003 31.2859 62.4299 30.9689 62.5355 29.6307C62.6412 28.2929 63.8551 27.4798 65.169 27.4842C66.8368 27.489 67.1202 28.3355 67.1202 28.3355" fill="#00264F"/>
<path fill-rule="evenodd" clip-rule="evenodd" d="M72.7125 25.9877L73.0064 25.4351L73.2942 25.9807L73.5364 25.8651C73.5364 25.8651 73.3877 26.5759 73.4133 26.6016C73.4394 26.6272 73.8007 26.2816 73.8007 26.2816C73.8007 26.2816 73.8007 26.4268 73.8724 26.4524C73.9659 26.4863 74.0537 26.4785 74.1437 26.4559C74.2342 26.4329 74.2668 26.4303 74.2668 26.4303C74.2668 26.4303 74.1733 26.6198 74.1829 26.7146C74.1911 26.8063 74.199 26.8303 74.2437 26.8663C74.2889 26.902 74.3085 26.9307 74.3085 26.9307C74.3085 26.9307 74.2181 27.0216 74.0437 27.1507C73.869 27.2798 73.7851 27.3411 73.7429 27.3929C73.7011 27.445 73.6881 27.5089 73.6881 27.5381C73.6881 27.5676 73.6985 27.6224 73.7111 27.6672C73.7237 27.7128 73.7203 27.7159 73.7203 27.7159C73.7203 27.7159 73.4394 27.6637 73.3264 27.6546C73.2133 27.6455 73.1807 27.6228 73.1324 27.6455C73.0838 27.6672 73.0972 27.6968 73.0972 27.6968L73.1098 28.265L72.8933 28.2685C72.8933 28.2685 72.9224 27.6998 72.9129 27.6742C72.9029 27.6476 72.8738 27.6385 72.832 27.6385C72.7903 27.6385 72.2829 27.7224 72.2829 27.7224C72.2829 27.7224 72.3703 27.5641 72.2864 27.435C72.2016 27.3055 71.7012 26.9146 71.7012 26.9146C71.7012 26.9146 71.8203 26.8437 71.8272 26.779C71.8338 26.7146 71.8207 26.6011 71.7951 26.5403C71.7804 26.5054 71.7653 26.4708 71.7499 26.4363C71.7499 26.4363 71.989 26.5377 72.1629 26.4429C72.2038 26.4207 72.2377 26.3133 72.2281 26.2976C72.2181 26.2816 72.4412 26.4946 72.4412 26.4946L72.5738 26.6137C72.5738 26.6137 72.5933 26.6046 72.5933 26.585C72.5933 26.5655 72.5185 26.0842 72.4894 25.9998C72.4603 25.9164 72.4542 25.8742 72.4733 25.8742C72.4925 25.8742 72.6059 25.9259 72.6059 25.9259L72.6833 25.9746L72.7125 25.9877Z" fill="#C92327"/>
</svg>
