<svg width="84" height="56" viewBox="0 0 84 56" fill="none" xmlns="http://www.w3.org/2000/svg">
<path d="M21.4514 22.866L18.0516 30.8872C17.9594 31.1062 17.752 31.256 17.4984 31.256H15.7812L14.3061 27.1417L12.5082 30.9218C12.416 31.1293 12.2086 31.2676 11.9665 31.2676H10.2839L7.31055 22.866H9.96124L11.6208 28.2135L13.3034 24.3297L12.7733 22.8545H15.1474L16.9568 28.202L19.0197 22.8545L21.4514 22.866Z" fill="#00467F"/>
<path d="M28.1233 22.866L27.9158 24.0646C27.8697 24.3412 27.6162 24.5602 27.3281 24.5602H24.4815L24.2049 26.1275H27.4433L27.2359 27.3261C27.1898 27.6027 26.9362 27.8217 26.6481 27.8217H23.9168L23.6171 29.5504H26.9708L26.7634 30.7489C26.7173 31.0255 26.4637 31.2445 26.1756 31.2445H20.8281L22.2918 22.8545L28.1233 22.866Z" fill="#00467F"/>
<path d="M34.9819 28.7667C34.9819 30.749 32.5501 31.3828 30.9021 31.3828C29.45 31.3828 28.6548 31.1062 27.7559 30.7144L28.1016 28.7552C28.505 29.1816 29.8303 29.6541 30.9597 29.6541C31.5936 29.6541 32.3427 29.4236 32.3427 28.8935C32.3427 27.5912 28.7355 27.764 28.7355 25.2632C28.7355 23.8341 30.0723 22.7393 32.3427 22.7393C33.6565 22.7393 34.59 23.0043 35.1432 23.2463L34.9473 24.3527C34.9127 24.5832 34.7053 24.7446 34.4748 24.7446C34.4172 24.7446 34.3595 24.733 34.3019 24.71C33.645 24.4564 33.0342 24.3873 32.5502 24.3873C32.239 24.3873 31.3055 24.4449 31.3055 25.0673C31.317 26.3004 34.9819 26.2082 34.9819 28.7667Z" fill="#00467F"/>
<path d="M43.3946 22.8662L43.1872 24.0648C43.1411 24.3414 42.8875 24.5603 42.5994 24.5603H40.6056L39.5223 30.7491C39.4762 31.0257 39.2227 31.2447 38.9346 31.2447H36.9408L38.1163 24.5603H35.627L35.9266 22.8662H43.3946Z" fill="#00467F"/>
<path d="M46.8181 22.8662L45.5043 30.3803C45.0318 33.0541 43.4068 34.391 41.6781 34.8635L40.3066 33.25C41.5398 33.0771 42.6577 32.3856 43.015 30.3919L44.3288 22.8777L46.8181 22.8662Z" fill="#00467F"/>
<path d="M53.928 22.866L53.7205 24.0646C53.6744 24.3412 53.4209 24.5602 53.1328 24.5602H50.2862L50.0096 26.1275H53.248L53.0406 27.3261C52.9945 27.6027 52.7409 27.8217 52.4528 27.8217H49.7214L49.4218 29.5504H52.7755L52.5681 30.7489C52.522 31.0255 52.2684 31.2445 51.9803 31.2445H46.6328L48.0965 22.8545L53.928 22.866Z" fill="#00467F"/>
<path d="M62.0292 22.8662L61.8218 24.0648C61.7757 24.3414 61.5221 24.5603 61.234 24.5603H59.2402L58.1569 30.7491C58.1108 31.0257 57.8572 31.2447 57.5691 31.2447H55.5753L56.7509 24.5603H54.25L54.5496 22.8662H62.0292Z" fill="#00467F"/>
<path d="M67.5394 26.4961L66.214 24.5254C66.214 24.5254 65.6147 25.1938 65.488 25.3436C65.3497 25.4935 65.2229 25.5857 65.0039 25.5626C64.7273 25.5165 63.4827 25.263 63.4827 25.263C63.4827 25.263 63.3905 26.7842 63.3674 26.9341C63.3559 27.0839 63.2983 27.2798 63.0332 27.5103L67.5394 26.4961Z" fill="#00AC9D"/>
<path d="M72.576 25.3784L74.1433 22.5318C74.1433 22.5318 73.1176 22.9813 72.7719 23.1311C72.4377 23.2809 72.2994 23.2579 72.2417 23.0159C72.1956 22.7854 71.9421 21.0451 71.9306 20.9414C71.8384 21.0451 70.1212 22.7854 69.8792 23.0159C69.6256 23.2579 69.4643 23.2809 69.2568 23.1311C69.0379 22.9813 68.3925 22.5433 68.3925 22.5433L67.5742 26.5079L72.576 25.3784Z" fill="#00AC9D"/>
<path d="M75.4686 26.9338C75.5724 26.784 76.7133 25.2627 76.7133 25.2627C76.7133 25.2627 75.3188 25.5278 74.9961 25.5623C74.7426 25.5969 74.708 25.4932 74.6965 25.3434C74.685 25.2627 74.6389 24.4214 74.6389 24.4214L72.6105 25.4125L67.9199 30.9444L71.3889 31.4861C71.3889 31.4861 71.4004 30.9559 71.4119 30.5641C71.435 30.1722 71.6539 30.1031 71.7922 30.0224C71.919 29.9417 75.8835 27.6598 75.8835 27.6598L75.4917 27.4409C75.2266 27.3026 75.3649 27.0836 75.4686 26.9338Z" fill="#00AC9D"/>
<path d="M62.4336 27.6258C62.4336 27.6258 64.1047 29.5965 64.1738 29.6887C64.5657 30.1612 64.5657 30.3456 64.1623 30.8412C63.8396 31.233 63.6437 31.4866 63.6437 31.4866C63.6437 31.4866 65.9717 31.0947 66.2829 31.0371C66.5825 30.991 66.8821 31.0717 66.8015 31.475C66.7554 31.7516 66.4788 33.2844 66.4788 33.2844L67.8617 30.9334L70.305 26.7729L62.9522 27.5682L62.4336 27.6258Z" fill="#00467F"/>
<path d="M67.8629 30.9333L70.3061 26.7729L62.9648 27.5681L63.034 27.5105L67.5402 26.5078L67.5863 26.4963L72.5765 25.3784L72.6111 25.413L67.9205 30.9449L67.8629 30.9333Z" fill="white"/>
</svg>
