<svg width="84" height="56" viewBox="0 0 84 56" fill="none" xmlns="http://www.w3.org/2000/svg">
<path d="M21.4514 22.866L18.0516 30.8872C17.9594 31.1062 17.752 31.256 17.4984 31.256H15.7812L14.3061 27.1417L12.5082 30.9218C12.416 31.1293 12.2086 31.2676 11.9665 31.2676H10.2839L7.31055 22.866H9.96124L11.6208 28.2135L13.3034 24.3297L12.7733 22.8545H15.1474L16.9568 28.202L19.0197 22.8545L21.4514 22.866Z" fill="#00467F"/>
<path d="M28.1243 22.866L27.9168 24.0646C27.8707 24.3412 27.6172 24.5602 27.3291 24.5602H24.4824L24.2059 26.1275H27.4443L27.2369 27.3261C27.1908 27.6027 26.9372 27.8217 26.6491 27.8217H23.9177L23.6181 29.5504H26.9718L26.7643 30.7489C26.7182 31.0255 26.4647 31.2445 26.1766 31.2445H20.8291L22.2927 22.8545L28.1243 22.866Z" fill="#00467F"/>
<path d="M34.9819 28.7667C34.9819 30.749 32.5501 31.3828 30.9021 31.3828C29.45 31.3828 28.6548 31.1062 27.7559 30.7144L28.1016 28.7552C28.505 29.1816 29.8303 29.6541 30.9597 29.6541C31.5936 29.6541 32.3427 29.4236 32.3427 28.8935C32.3427 27.5912 28.7355 27.764 28.7355 25.2632C28.7355 23.8341 30.0723 22.7393 32.3427 22.7393C33.6565 22.7393 34.59 23.0043 35.1432 23.2463L34.9473 24.3527C34.9127 24.5832 34.7053 24.7446 34.4748 24.7446C34.4172 24.7446 34.3595 24.733 34.3019 24.71C33.645 24.4564 33.0342 24.3873 32.5502 24.3873C32.239 24.3873 31.3055 24.4449 31.3055 25.0673C31.317 26.3004 34.9819 26.2082 34.9819 28.7667Z" fill="#00467F"/>
<path d="M43.3946 22.8662L43.1872 24.0648C43.1411 24.3414 42.8875 24.5603 42.5994 24.5603H40.6056L39.5223 30.7491C39.4762 31.0257 39.2227 31.2447 38.9346 31.2447H36.9408L38.1163 24.5603H35.627L35.9266 22.8662H43.3946Z" fill="#00467F"/>
<path d="M46.8181 22.8662L45.5043 30.3803C45.0318 33.0541 43.4068 34.391 41.6781 34.8635L40.3066 33.25C41.5398 33.0771 42.6577 32.3856 43.015 30.3919L44.3288 22.8777L46.8181 22.8662Z" fill="#00467F"/>
<path d="M53.929 22.866L53.7215 24.0646C53.6754 24.3412 53.4219 24.5602 53.1337 24.5602H50.2871L50.0105 26.1275H53.249L53.0415 27.3261C52.9954 27.6027 52.7419 27.8217 52.4538 27.8217H49.7224L49.4228 29.5504H52.7765L52.569 30.7489C52.5229 31.0255 52.2694 31.2445 51.9813 31.2445H46.6338L48.0974 22.8545L53.929 22.866Z" fill="#00467F"/>
<path d="M62.0302 22.8662L61.8227 24.0648C61.7766 24.3414 61.5231 24.5603 61.235 24.5603H59.2412L58.1579 30.7491C58.1118 31.0257 57.8582 31.2447 57.5701 31.2447H55.5763L56.7518 24.5603H54.251L54.5506 22.8662H62.0302Z" fill="#00467F"/>
<path d="M67.5384 26.4961L66.2131 24.5254C66.2131 24.5254 65.6138 25.1938 65.487 25.3436C65.3487 25.4935 65.2219 25.5857 65.003 25.5626C64.7264 25.5165 63.4817 25.263 63.4817 25.263C63.4817 25.263 63.3895 26.7842 63.3664 26.9341C63.3549 27.0839 63.2973 27.2798 63.0322 27.5103L67.5384 26.4961Z" fill="#00AC9D"/>
<path d="M72.575 25.3784L74.1423 22.5318C74.1423 22.5318 73.1166 22.9813 72.7709 23.1311C72.4367 23.2809 72.2984 23.2579 72.2408 23.0159C72.1947 22.7854 71.9411 21.0451 71.9296 20.9414C71.8374 21.0451 70.1202 22.7854 69.8782 23.0159C69.6246 23.2579 69.4633 23.2809 69.2559 23.1311C69.0369 22.9813 68.3915 22.5433 68.3915 22.5433L67.5732 26.5079L72.575 25.3784Z" fill="#00AC9D"/>
<path d="M75.4677 26.9343C75.5714 26.7844 76.7123 25.2632 76.7123 25.2632C76.7123 25.2632 75.3178 25.5282 74.9951 25.5628C74.7416 25.5974 74.707 25.4937 74.6955 25.3439C74.684 25.2632 74.6379 24.4219 74.6379 24.4219L72.6095 25.413L67.9189 30.9449L71.3879 31.4865C71.3879 31.4865 71.3994 30.9564 71.4109 30.5646C71.434 30.1727 71.653 30.1036 71.7913 30.0229C71.918 29.9422 75.8825 27.6603 75.8825 27.6603L75.4907 27.4414C75.2256 27.3031 75.3639 27.0841 75.4677 26.9343Z" fill="#00AC9D"/>
<path d="M62.4326 27.6253C62.4326 27.6253 64.1037 29.596 64.1729 29.6882C64.5647 30.1607 64.5647 30.3451 64.1613 30.8407C63.8386 31.2325 63.6427 31.4861 63.6427 31.4861C63.6427 31.4861 65.9707 31.0942 66.2819 31.0366C66.5815 30.9905 66.8812 31.0712 66.8005 31.4746C66.7544 31.7511 66.4778 33.2839 66.4778 33.2839L67.8608 30.9329L70.304 26.7725L62.9512 27.5677L62.4326 27.6253Z" fill="#00467F"/>
<path d="M67.8619 30.9338L70.3051 26.7734L62.9639 27.5686L63.033 27.511L67.5392 26.5083L67.5853 26.4968L72.5755 25.3789L72.6101 25.4135L67.9195 30.9454L67.8619 30.9338Z" fill="white"/>
</svg>
