<svg width="12" height="12" viewBox="0 0 12 12" fill="none" xmlns="http://www.w3.org/2000/svg">
<g clip-path="url(#clip0_469_12662)">
<path d="M1 0C0.725 0 0.5 0.225 0.5 0.5V11.5C0.5 11.775 0.725 12 1 12C1.275 12 1.5 11.775 1.5 11.5V6.475C2.12 6.085 3.505 5.465 5.515 6.075C8.745 7.055 11.33 3.245 11.435 3.085C11.525 2.955 11.52 2.785 11.43 2.655C11.34 2.53 11.175 2.47 11.025 2.515C11 2.52 8.42 3.2 6.09 1.57C4.455 0.425 2.52 0.42 1.5 0.525V0.5C1.5 0.225 1.275 0 1 0Z" fill="#8E8E8E"/>
</g>
<defs>
<clipPath id="clip0_469_12662">
<rect width="12" height="12" fill="white"/>
</clipPath>
</defs>
</svg>
