<svg width="16" height="16" viewBox="0 0 16 16" fill="none" xmlns="http://www.w3.org/2000/svg">
<path d="M13.6667 7.66675H2.33333C2.24493 7.66675 2.16014 7.70187 2.09763 7.76438C2.03512 7.82689 2 7.91168 2 8.00008V14.0001C2 14.2653 2.10536 14.5197 2.29289 14.7072C2.48043 14.8947 2.73478 15.0001 3 15.0001H13C13.2652 15.0001 13.5196 14.8947 13.7071 14.7072C13.8946 14.5197 14 14.2653 14 14.0001V8.00008C14 7.91168 13.9649 7.82689 13.9024 7.76438C13.8399 7.70187 13.7551 7.66675 13.6667 7.66675Z" fill="#FFC127"/>
<path d="M14 4.66675H2C1.44772 4.66675 1 5.11446 1 5.66675V7.33341C1 7.8857 1.44772 8.33341 2 8.33341H14C14.5523 8.33341 15 7.8857 15 7.33341V5.66675C15 5.11446 14.5523 4.66675 14 4.66675Z" fill="#EE4D2D"/>
<path d="M9.8067 5.33067C9.13036 5.33067 8.3877 5.09133 8.04536 4.50033C7.71703 3.93367 7.79603 3.09333 8.25036 2.30667C8.72336 1.48833 9.44436 1 10.18 1H10.1834C10.747 1.02169 11.2816 1.25538 11.6803 1.65433C12.079 2.05328 12.3124 2.58805 12.3337 3.15167C12.3314 4.33 11.2507 5.137 10.2337 5.298C10.0924 5.32001 9.94967 5.33093 9.8067 5.33067ZM10.18 1.66667C9.5977 1.66667 9.10036 2.16933 8.8277 2.64C8.50236 3.20333 8.4197 3.81667 8.62203 4.16633C8.8587 4.57433 9.57403 4.728 10.1307 4.63967C10.7677 4.53967 11.664 4.00967 11.667 3.15033C11.6427 2.76459 11.4784 2.401 11.205 2.12783C10.9315 1.85465 10.5678 1.69066 10.182 1.66667H10.18Z" fill="#EE4D2D"/>
<path d="M6.17945 5.31574C5.99258 5.31649 5.80607 5.29941 5.62245 5.26474C4.79211 5.10241 3.55578 4.40141 3.55078 3.13641C3.57887 2.58032 3.81185 2.05433 4.20479 1.65985C4.59773 1.26537 5.12281 1.03034 5.67878 1.00008C6.44145 0.993075 7.19345 1.47408 7.69945 2.31474C8.17245 3.10174 8.27111 3.93774 7.95745 4.49641C7.61045 5.11541 6.83345 5.31574 6.17945 5.31574ZM4.21745 3.13341C4.22011 3.99074 5.15945 4.49374 5.75078 4.60941C6.34711 4.72674 7.13945 4.59174 7.37611 4.16941C7.56378 3.83608 7.46178 3.21308 7.12778 2.65741C6.83411 2.16874 6.29445 1.63974 5.69445 1.66574C5.31378 1.69384 4.9557 1.85711 4.68485 2.12606C4.414 2.39502 4.24822 2.75195 4.21745 3.13241V3.13341Z" fill="#EE4D2D"/>
<path d="M6.66094 13.578C6.60002 13.5779 6.5403 13.5611 6.48825 13.5294C6.43621 13.4978 6.39383 13.4525 6.36572 13.3984C6.33762 13.3444 6.32486 13.2837 6.32884 13.2229C6.33281 13.1621 6.35337 13.1035 6.38827 13.0536L9.06627 9.23063C9.09138 9.19475 9.1233 9.16418 9.16022 9.14064C9.19714 9.11711 9.23834 9.10107 9.28146 9.09346C9.32458 9.08585 9.36877 9.0868 9.41152 9.09626C9.45427 9.10573 9.49473 9.12352 9.53061 9.14863C9.56648 9.17373 9.59706 9.20565 9.62059 9.24258C9.64413 9.2795 9.66016 9.32069 9.66777 9.36381C9.67539 9.40693 9.67444 9.45112 9.66497 9.49387C9.6555 9.53662 9.63771 9.57709 9.61261 9.61296L6.93461 13.436C6.9038 13.4799 6.86282 13.5158 6.81518 13.5405C6.76753 13.5652 6.71462 13.5781 6.66094 13.578Z" fill="white"/>
<path d="M6.49968 11.3333C6.26893 11.3333 6.04337 11.2649 5.85151 11.1367C5.65965 11.0085 5.51012 10.8263 5.42182 10.6131C5.33351 10.4 5.31041 10.1654 5.35543 9.93906C5.40044 9.71275 5.51156 9.50487 5.67472 9.34171C5.83788 9.17855 6.04576 9.06743 6.27207 9.02242C6.49838 8.9774 6.73296 9.00051 6.94614 9.08881C7.15932 9.17711 7.34153 9.32664 7.46972 9.5185C7.59792 9.71036 7.66634 9.93592 7.66634 10.1667C7.66634 10.4761 7.54343 10.7728 7.32463 10.9916C7.10584 11.2104 6.80909 11.3333 6.49968 11.3333ZM6.49968 9.66667C6.40078 9.66667 6.30411 9.69599 6.22189 9.75093C6.13967 9.80587 6.07558 9.88396 6.03774 9.97533C5.99989 10.0667 5.98999 10.1672 6.00928 10.2642C6.02858 10.3612 6.0762 10.4503 6.14612 10.5202C6.21605 10.5901 6.30514 10.6378 6.40213 10.6571C6.49912 10.6764 6.59965 10.6665 6.69102 10.6286C6.78238 10.5908 6.86047 10.5267 6.91541 10.4445C6.97035 10.3622 6.99968 10.2656 6.99968 10.1667C6.99968 10.0341 6.947 9.90688 6.85323 9.81311C6.75946 9.71935 6.63228 9.66667 6.49968 9.66667Z" fill="white"/>
<path d="M9.49968 13.6666C9.26893 13.6666 9.04337 13.5982 8.85151 13.47C8.65965 13.3418 8.51012 13.1596 8.42182 12.9464C8.33351 12.7332 8.31041 12.4986 8.35543 12.2723C8.40044 12.046 8.51156 11.8381 8.67472 11.675C8.83788 11.5118 9.04576 11.4007 9.27207 11.3557C9.49838 11.3107 9.73296 11.3338 9.94614 11.4221C10.1593 11.5104 10.3415 11.6599 10.4697 11.8518C10.5979 12.0436 10.6663 12.2692 10.6663 12.4999C10.6663 12.8093 10.5434 13.1061 10.3246 13.3249C10.1058 13.5437 9.80909 13.6666 9.49968 13.6666ZM9.49968 11.9999C9.40078 11.9999 9.30411 12.0292 9.22189 12.0842C9.13967 12.1391 9.07558 12.2172 9.03774 12.3086C8.99989 12.3999 8.98999 12.5005 9.00928 12.5975C9.02858 12.6945 9.0762 12.7835 9.14612 12.8535C9.21605 12.9234 9.30514 12.971 9.40213 12.9903C9.49912 13.0096 9.59965 12.9997 9.69102 12.9619C9.78238 12.924 9.86047 12.8599 9.91541 12.7777C9.97035 12.6955 9.99968 12.5988 9.99968 12.4999C9.99968 12.3673 9.947 12.2401 9.85323 12.1464C9.75946 12.0526 9.63228 11.9999 9.49968 11.9999Z" fill="white"/>
</svg>
