<svg width="24" height="24" viewBox="0 0 24 24" fill="none" xmlns="http://www.w3.org/2000/svg">
<g clip-path="url(#clip0_471_17676)">
<path d="M16.6025 1.42917C17.1949 1.95256 17.5694 2.71704 17.5694 3.56776C17.5694 3.76481 17.7291 3.92455 17.9262 3.92455C18.1232 3.92455 18.283 3.76481 18.283 3.56776C18.283 2.71399 17.9812 1.92953 17.4791 1.31476C17.1433 1.1514 16.8269 1.25496 16.6025 1.42917Z" fill="#C8D2DC"/>
<path d="M20.5052 2.93871C19.7236 2.35609 18.7523 2.01381 17.7008 2.02161C16.0969 2.03351 14.6945 2.87177 13.8715 4.12596L13.1978 5.74887C13.1323 6.06218 13.0977 6.38633 13.0977 6.71796V8.58092L13.5734 12.1782L13.0977 15.9561V21.1143C13.0977 21.2812 13.1266 21.4412 13.1792 21.5901L21.1849 22.0658C21.579 22.0658 21.8984 21.7463 21.8984 21.3522V6.18401C21.8984 5.1458 21.3381 3.73834 20.5052 2.93871Z" fill="#DA8BC1"/>
<path d="M20.5057 2.93896C21.082 3.71186 21.4233 4.67034 21.4233 5.70855V20.8767C21.4233 21.2708 21.1038 21.5903 20.7097 21.5903H13.1797C13.3756 22.1446 13.904 22.5418 14.5253 22.5418H20.9475C21.7357 22.5418 22.3747 21.9028 22.3747 21.1146V6.65999C22.3747 5.13645 21.64 3.78455 20.5057 2.93896Z" fill="#D273B3"/>
<path d="M18.7688 20.7578C18.9659 20.7578 19.1256 20.5981 19.1256 20.4011V17.4178C19.1256 17.2208 18.9659 17.061 18.7688 17.061C18.5718 17.061 18.412 17.2208 18.412 17.4178V18.5015H17.0612V17.4178C17.0612 17.2208 16.9015 17.061 16.7044 17.061C16.5074 17.061 16.3477 17.2208 16.3477 17.4178V20.4011C16.3477 20.5981 16.5074 20.7578 16.7044 20.7578C16.9015 20.7578 17.0612 20.5981 17.0612 20.4011V19.215H18.4121V20.4011C18.412 20.5981 18.5718 20.7578 18.7688 20.7578Z" fill="#F7F9FA"/>
<path d="M14.5303 6.0211C15.4829 6.57107 15.7204 7.46661 15.3153 8.16825C14.9151 8.86142 14.0373 9.10547 13.0977 8.58094V15.9561C15.3614 16.1042 17.2728 15.0693 18.3327 13.2335C19.9266 10.4727 18.9919 6.94903 15.2439 4.78513C14.7818 4.51835 14.3234 4.30033 13.8715 4.12598C13.5523 4.61235 13.3205 5.16128 13.1978 5.74889C13.5914 5.66902 14.0535 5.74585 14.5303 6.0211Z" fill="#D273B3"/>
<path d="M20.3922 9.87939C20.1951 9.87939 20.0354 10.0391 20.0354 10.2362V10.9945H19.055L18.9395 11.7081H20.3922C20.5892 11.7081 20.7489 11.5484 20.7489 11.3513V10.2362C20.7489 10.0391 20.5892 9.87939 20.3922 9.87939Z" fill="#F7F9FA"/>
<path d="M15.1751 10.9946C14.9781 10.9946 14.8184 11.1544 14.8184 11.3514C14.8184 11.5485 14.9781 11.7082 15.1751 11.7082H18.9396C18.9945 11.4724 19.033 11.2342 19.0551 10.9946H15.1751Z" fill="#DCE6EB"/>
<path d="M17.1709 14.6512L20.2488 16.0043C20.2948 16.0245 20.3437 16.0344 20.3924 16.0344C20.4607 16.0344 20.5286 16.0148 20.5875 15.9764C20.6884 15.9105 20.7492 15.7981 20.7492 15.6776V12.8075C20.7492 12.6104 20.5895 12.4507 20.3924 12.4507C20.1954 12.4507 20.0356 12.6104 20.0356 12.8075V15.131L17.711 14.1091L17.1709 14.6512Z" fill="#F7F9FA"/>
<path d="M14.8486 13.2406C14.7693 13.421 14.8513 13.6315 15.0317 13.7108L17.1709 14.6511C17.3624 14.4846 17.5427 14.3037 17.711 14.1091L15.3189 13.0575C15.1385 12.9784 14.9279 13.0602 14.8486 13.2406Z" fill="#DCE6EB"/>
<path d="M19.1193 9.80329C20.0521 9.80329 20.811 9.04438 20.811 8.11154C20.811 7.30491 20.2372 6.6068 19.4467 6.45152C19.2535 6.41375 19.0659 6.53953 19.0279 6.73286C18.9899 6.92619 19.1159 7.11372 19.3092 7.15173C19.7659 7.24145 20.0974 7.6451 20.0974 8.11154C20.0974 8.65091 19.6586 9.08972 19.1192 9.08972C19.0351 9.08972 18.9539 9.07792 18.876 9.05789L19.03 9.80068C19.0596 9.80225 19.0893 9.80329 19.1193 9.80329Z" fill="#F7F9FA"/>
<path d="M18.1403 8.11118C18.1403 7.91414 17.9806 7.75439 17.7835 7.75439C17.5865 7.75439 17.4268 7.91414 17.4268 8.11118C17.4268 8.65055 16.988 9.08936 16.4486 9.08936C15.9092 9.08936 15.4704 8.65055 15.4704 8.11118C15.4704 7.62586 15.8321 7.20936 16.3116 7.14248C16.3568 7.1362 16.4029 7.13301 16.4486 7.13301C16.6456 7.13301 16.8054 6.97327 16.8054 6.77622C16.8054 6.57918 16.6456 6.41943 16.4486 6.41943C16.37 6.41943 16.2908 6.4249 16.2131 6.43575C15.3829 6.55164 14.7568 7.27192 14.7568 8.11123C14.7568 9.04407 15.5157 9.80298 16.4486 9.80298C16.9905 9.80298 17.4737 9.54685 17.7835 9.1493C18.0763 9.52488 18.5238 9.77392 19.0293 9.80032C18.9957 9.55194 18.9445 9.30395 18.8753 9.05753C18.4535 8.94897 18.1403 8.56645 18.1403 8.11118Z" fill="#DCE6EB"/>
<path d="M13.5195 6.92858C13.8937 7.06216 14.2963 7.13557 14.7159 7.13557C16.188 7.13557 17.4901 6.25159 18.0331 4.88352C18.1058 4.70036 18.0163 4.493 17.8332 4.42026C17.6501 4.34762 17.4426 4.4371 17.3699 4.62025C16.9354 5.71474 15.8937 6.42199 14.7158 6.42199C14.3321 6.42199 13.966 6.3454 13.6315 6.20744L13.5195 6.92858Z" fill="#C8D2DC"/>
<path d="M16.0451 5.12277C15.5509 4.65732 14.9677 4.22342 14.2929 3.83376C10.5449 1.66986 7.02586 2.62215 5.43197 5.38289C4.23877 7.44955 4.46283 9.94375 6.22313 11.9751L5.6497 12.9683C5.45266 13.3095 5.56959 13.746 5.91087 13.943L6.11686 14.0619L1.7206 21.6765C1.5923 21.8987 1.5932 22.1728 1.72293 22.3941L2.10222 23.0413L3.55278 23.1911C3.80938 23.1928 4.0471 23.0565 4.1754 22.8343L8.71271 14.9755C8.81123 14.8049 9.02944 14.7464 9.20008 14.8449L9.8699 15.2316C9.94953 15.2776 10.0514 15.2503 10.0973 15.1707L10.5774 14.3393C10.649 14.2153 10.7879 14.147 10.9302 14.1639C13.4193 14.4604 15.4364 13.477 16.6206 11.4258C17.7396 9.48772 17.7363 7.11541 16.0451 5.12277ZM14.3643 7.21688C13.9593 7.91852 13.0649 8.16056 12.1123 7.61058C11.1598 7.06061 10.9222 6.16507 11.3273 5.46343C11.7324 4.76179 12.6267 4.51975 13.5793 5.06972C14.5319 5.6197 14.7694 6.51524 14.3643 7.21688Z" fill="#FFE07D"/>
<path d="M16.0454 5.12305C17.5174 7.07877 17.6448 9.39286 16.5258 11.3309C15.4101 13.2634 13.3511 14.3098 10.9306 14.0215C10.7883 14.0046 10.6494 14.0728 10.5778 14.1969L10.0977 15.0283C10.0517 15.1079 9.9499 15.1352 9.87026 15.0892L9.20045 14.7025C9.02981 14.604 8.8116 14.6624 8.71308 14.8331L4.17572 22.6919C4.04742 22.9142 3.8097 23.0504 3.5531 23.0487L2.10254 23.0417L2.52369 23.7391C2.65689 23.896 2.85318 23.9895 3.06301 23.9908L4.50449 24.0002C4.76109 24.0018 4.99881 23.8656 5.12711 23.6434L5.60283 22.8194C5.73032 22.5987 5.73032 22.3266 5.60283 22.1059L5.31692 21.6107C5.04229 21.135 5.38557 20.5403 5.93488 20.5403H6.50665C6.76158 20.5403 6.99716 20.4043 7.1246 20.1835L7.60032 19.3596C7.72782 19.1388 7.72782 18.8668 7.60032 18.646L7.31442 18.1508C7.03978 17.6751 7.38306 17.0805 7.93237 17.0805H8.50414C8.75908 17.0805 8.99465 16.9445 9.1221 16.7237L9.52327 16.0288L9.72926 16.1478C10.0705 16.3448 10.507 16.2279 10.704 15.8866L11.2774 14.8934C13.9167 15.4021 16.1887 14.3491 17.3819 12.2824C18.689 10.0188 18.2954 7.24242 16.0454 5.12305Z" fill="#FFC250"/>
<path d="M14.7154 0C12.748 0 11.1475 1.60056 11.1475 3.56789C11.1475 5.11569 12.1384 6.4359 13.519 6.92879C13.6222 6.70245 13.6604 6.45407 13.631 6.20765C12.5935 5.77989 11.861 4.75799 11.861 3.56789C11.861 1.99402 13.1415 0.713578 14.7154 0.713578C15.4385 0.713578 16.0993 0.984404 16.6028 1.4293C16.8873 1.36807 17.18 1.32921 17.4794 1.31489C16.8246 0.513062 15.8289 0 14.7154 0Z" fill="#DCE6EB"/>
<path d="M7.3741 9.98147C7.20341 9.88291 6.9852 9.94142 6.88673 10.1121C6.7882 10.2827 6.84667 10.5009 7.01731 10.5994L12.0714 13.5174C12.1276 13.5499 12.189 13.5653 12.2495 13.5653C12.3728 13.5653 12.4927 13.5013 12.5588 13.3869C12.6573 13.2162 12.5989 12.998 12.4282 12.8995L7.3741 9.98147Z" fill="#E3A93F"/>
<path d="M13.2007 11.9174C13.324 11.9174 13.4439 11.8534 13.51 11.7389C13.6085 11.5683 13.55 11.3501 13.3794 11.2516L8.32527 8.33355C8.15463 8.23493 7.93642 8.29349 7.8379 8.46413C7.73938 8.63477 7.79784 8.85298 7.96848 8.9515L13.0226 11.8695C13.0788 11.9019 13.1402 11.9174 13.2007 11.9174Z" fill="#E3A93F"/>
<path d="M7.49814 14.4097C7.32745 14.3111 7.10929 14.3697 7.01077 14.5403L2.10254 23.0416L2.51337 23.2814L2.9242 23.0456L7.62872 14.8971C7.72729 14.7265 7.66883 14.5082 7.49814 14.4097Z" fill="#FFC250"/>
<path d="M2.45205 23.6379C2.47317 23.6739 2.49743 23.7075 2.52398 23.7387L2.9242 23.0455L2.10254 23.0415L2.45205 23.6379Z" fill="#E3A93F"/>
</g>
<defs>
<clipPath id="clip0_471_17676">
<rect width="24" height="24" fill="white"/>
</clipPath>
</defs>
</svg>
