<svg width="16" height="16" viewBox="0 0 16 16" fill="none" xmlns="http://www.w3.org/2000/svg">
<g clip-path="url(#clip0_56_8193)">
<path d="M10 0.5H2C1.4485 0.5 1 0.9485 1 1.5V14.5C1 15.0515 1.4485 15.5 2 15.5H10C10.5515 15.5 11 15.0515 11 14.5V1.5C11 0.9485 10.5515 0.5 10 0.5ZM9 5.5C9 6.0515 8.5515 6.5 8 6.5H4C3.4485 6.5 3 6.0515 3 5.5V3.5C3 2.9485 3.4485 2.5 4 2.5H8C8.5515 2.5 9 2.9485 9 3.5V5.5Z" fill="#D6D7D8"/>
<path d="M12.5 6.5H10.5C10.224 6.5 10 6.276 10 6C10 5.724 10.224 5.5 10.5 5.5H12.5C12.776 5.5 13 5.724 13 6C13 6.276 12.776 6.5 12.5 6.5Z" fill="#D6D7D8"/>
<path d="M12.5 14.5C12.224 14.5 12 14.276 12 14V6C12 5.724 12.224 5.5 12.5 5.5C12.776 5.5 13 5.724 13 6V14C13 14.276 12.776 14.5 12.5 14.5Z" fill="#D6D7D8"/>
<path d="M14.5 14.5H12.5C12.224 14.5 12 14.276 12 14C12 13.724 12.224 13.5 12.5 13.5H14.5C14.776 13.5 15 13.724 15 14C15 14.276 14.776 14.5 14.5 14.5Z" fill="#D6D7D8"/>
<path d="M14.9614 2.80888C14.9359 2.74788 14.8994 2.69238 14.8534 2.64638L12.8534 0.646381C12.6579 0.450881 12.3419 0.450881 12.1464 0.646381C11.9509 0.841881 11.9509 1.15788 12.1464 1.35338L12.4934 1.70038C12.1829 2.06138 11.9999 2.51838 11.9999 2.99988C11.9999 4.10288 12.8969 4.99988 13.9999 4.99988V13.9999C13.9999 14.2759 14.2239 14.4999 14.4999 14.4999C14.7759 14.4999 14.9999 14.2759 14.9999 13.9999V2.99988C14.9999 2.93488 14.9864 2.86988 14.9614 2.80888Z" fill="#D6D7D8"/>
</g>
<defs>
<clipPath id="clip0_56_8193">
<rect width="16" height="16" fill="white"/>
</clipPath>
</defs>
</svg>
