<svg width="22" height="22" viewBox="0 0 22 22" fill="none" xmlns="http://www.w3.org/2000/svg">
<path d="M20.944 13.2001C20.548 11.1761 19.536 9.28411 18.0401 7.87611L17.864 8.05211L15.3561 10.5601C16.1481 11.3521 16.6761 12.3641 16.9401 13.4641C16.984 13.7281 17.2481 13.9481 17.5561 13.9481H20.3281C20.504 13.9481 20.724 13.8601 20.812 13.7281C20.944 13.5961 20.988 13.4201 20.944 13.2001ZM11.4401 5.06011V8.80011C12.628 8.88811 13.7721 9.32811 14.6961 10.0321L17.3801 7.34811C15.708 5.94011 13.5961 5.14811 11.4401 5.06011ZM4.13605 8.09611L3.96005 7.87611C2.46405 9.32811 1.45205 11.2201 1.05605 13.2001C1.01205 13.3761 1.05605 13.5961 1.18805 13.7281C1.32005 13.8601 1.49605 13.9481 1.67205 13.9481H4.44405C4.75205 13.9481 5.01605 13.7281 5.06005 13.4641C5.32405 12.3641 5.85205 11.3521 6.64405 10.5601L4.13605 8.09611ZM4.62005 7.30411L7.30405 9.98811C7.30405 9.98811 7.34805 9.94411 7.39205 9.94411C7.39205 9.68011 7.43605 9.46011 7.61205 9.28411C7.83205 9.02011 8.14005 8.84411 8.49205 8.84411C8.71205 8.84411 8.93205 8.93211 9.15205 9.06411C9.63605 8.88811 10.1201 8.80011 10.6041 8.75611V5.01611C8.40405 5.14811 6.29205 5.94011 4.62005 7.30411Z" fill="#D6D7D8"/>
<path d="M11 11.9242C10.868 11.9242 10.692 11.9242 10.56 11.9682C9.94398 11.3082 8.97598 10.2082 8.62398 9.81217C8.49198 9.68017 8.22798 9.81217 8.27198 9.98817C8.35998 10.2962 8.22798 9.81217 9.10798 12.8042C8.71198 13.2442 8.49198 13.8162 8.49198 14.4322C8.49198 15.7962 9.63598 16.9402 11 16.9402C12.408 16.9402 13.508 15.7962 13.508 14.4322C13.508 13.0242 12.364 11.9242 11 11.9242ZM11 15.5322C10.428 15.5322 9.98798 15.0922 9.98798 14.5202C9.98798 13.9482 10.472 13.5082 11 13.5082C11.572 13.5082 12.012 13.9482 12.012 14.5202C12.012 15.0482 11.572 15.5322 11 15.5322Z" fill="#D6D7D8"/>
</svg>
