<svg width="32" height="32" viewBox="0 0 32 32" fill="none" xmlns="http://www.w3.org/2000/svg">
<g clip-path="url(#clip0_156_3658)">
<path d="M32.0001 4.60257V9.33873H26.0618V4.60257C26.0589 2.96541 27.3838 1.63604 29.0207 1.63342H29.0356C30.671 1.63342 31.9972 2.95783 32.0001 4.59317V4.60257Z" fill="#00ACEA"/>
<path d="M7.67056 1.63342H29.0208C27.3839 1.63604 26.059 2.96541 26.0618 4.60257V26.358C26.0592 28.5601 24.2734 30.3438 22.0714 30.3438H22.0593C21.9671 30.3438 21.8759 30.3404 21.785 30.3339C19.693 30.1876 18.0712 28.4467 18.0736 26.3494V23.7696H4.70142V23.734L4.84251 4.42595C4.84251 2.87083 6.11545 1.63342 7.67056 1.63342ZM19.3055 11.0744V7.25793L15.0976 5.19097L10.8905 7.25192V11.0744C10.8905 12.0524 11.5239 13.2503 12.3325 13.8021L15.0976 15.6875L17.8627 13.8021C18.6714 13.2503 19.3055 12.0524 19.3055 11.0744Z" fill="#00EFD1"/>
<path d="M21.785 30.3338L21.7845 30.3438H3.99048C1.78844 30.3438 0.00261277 28.56 0 26.358V23.7695H18.0736V26.3494C18.0712 28.4466 19.6929 30.1875 21.785 30.3338Z" fill="#00ACEA"/>
<path d="M19.3054 7.258V11.0745C19.3054 12.0524 18.6713 13.2504 17.8627 13.8022L15.0976 15.6876L12.3325 13.8022C11.5238 13.2504 10.8905 12.0524 10.8905 11.0745V7.25199L15.0976 5.19104L19.3054 7.258Z" fill="#00ACEA"/>
<path d="M14.572 12.039H14.5707C14.4283 12.0385 14.2919 11.9815 14.1918 11.8804L13.1148 10.7927C12.9782 10.6574 12.9246 10.4591 12.9748 10.273C13.025 10.0873 13.171 9.94278 13.3573 9.89444C13.5436 9.84611 13.7414 9.90176 13.8754 10.0397L14.5741 10.7452L16.3228 8.99722C16.5318 8.7882 16.8707 8.7882 17.0795 8.99722C17.2885 9.20624 17.2885 9.54486 17.0795 9.75388L14.9506 11.8822C14.85 11.9826 14.7139 12.039 14.572 12.039Z" fill="#FEDB41"/>
<path d="M21.7524 18.7308H8.91009C8.61459 18.7308 8.375 18.4915 8.375 18.1957C8.375 17.9002 8.61459 17.6606 8.91009 17.6606H21.7524C22.0479 17.6606 22.2875 17.9002 22.2875 18.1957C22.2875 18.4915 22.0479 18.7308 21.7524 18.7308Z" fill="#00ACEA"/>
<path d="M21.7524 21.2057H8.91009C8.61459 21.2057 8.375 20.9664 8.375 20.6706C8.375 20.3751 8.61459 20.1355 8.91009 20.1355H21.7524C22.0479 20.1355 22.2875 20.3751 22.2875 20.6706C22.2875 20.9664 22.0479 21.2057 21.7524 21.2057Z" fill="#00ACEA"/>
</g>
<defs>
<clipPath id="clip0_156_3658">
<rect width="32" height="32" fill="white"/>
</clipPath>
</defs>
</svg>
