<svg width="24" height="24" viewBox="0 0 24 24" fill="none" xmlns="http://www.w3.org/2000/svg">
<path d="M20.3773 17.854C20.0942 17.3708 19.6426 17.0093 19.1092 16.8389L19.0443 16.8194C18.9663 16.7945 18.8858 16.7782 18.8043 16.7708C18.3878 16.8738 17.996 17.0584 17.6514 17.3139C17.3068 17.5695 17.0163 17.8908 16.7967 18.2594L16.4854 22.7026C16.4367 22.7026 16.4594 22.7026 16.4854 22.7026L16.4594 23.3513H16.7059C19.907 23.3513 20.507 20.6399 20.5589 20.3643C20.8248 19.3556 20.7567 18.5091 20.3773 17.854Z" fill="#D6D7D8"/>
<path d="M7.51447 22.7027L7.19015 18.2692C6.91447 18.0163 6.3015 16.8422 5.18258 16.7773C5.10139 16.787 5.02112 16.8033 4.94258 16.826H4.89718C4.35184 16.9916 3.88875 17.3563 3.59988 17.8476C3.21393 18.4963 3.15231 19.3492 3.41826 20.3579C3.47015 20.6303 4.06691 23.3449 7.27123 23.3449H7.51772L7.49177 22.6963C7.54042 22.7028 7.55988 22.7027 7.51447 22.7027Z" fill="#D6D7D8"/>
<path d="M9.51566 5.46169H10.1643V6.51899H9.06161V11.3255H14.9416V6.51899H13.8389V5.46169H14.4876C14.652 5.46174 14.8146 5.42715 14.9648 5.36016C15.115 5.29317 15.2494 5.19529 15.3593 5.0729C15.4691 4.95051 15.5519 4.80636 15.6023 4.64982C15.6528 4.49328 15.6696 4.32788 15.6519 4.16439L15.373 1.70277C15.3446 1.41262 15.2088 1.14358 14.9921 0.948523C14.7755 0.75347 14.4937 0.646525 14.2021 0.648715H9.79782C9.50737 0.647259 9.2268 0.754117 9.01091 0.948421C8.79501 1.14273 8.6593 1.41053 8.63025 1.69953L8.35134 4.16763C8.33357 4.33113 8.35044 4.49653 8.40086 4.65306C8.45128 4.8096 8.53411 4.95376 8.64395 5.07615C8.7538 5.19854 8.8882 5.29641 9.03839 5.3634C9.18858 5.43039 9.3512 5.46498 9.51566 5.46493V5.46169ZM13.1903 6.51899H10.8097V5.46169H13.1903V6.51899Z" fill="#D6D7D8"/>
<path d="M18.6648 16.1384L18.7621 16.1157H18.8594H18.9275C18.668 14.5265 18.3307 11.9449 18.4831 9.8984C18.5549 9.48727 18.5428 9.06587 18.4475 8.65955C18.3522 8.25323 18.1757 7.87039 17.9286 7.53407C17.4258 6.91461 16.6313 6.5611 15.5902 6.51245V17.7957H8.40963V6.53191C7.36206 6.59029 6.57396 6.93407 6.07125 7.55353C5.82357 7.88961 5.64646 8.27233 5.55059 8.67866C5.45472 9.08499 5.44208 9.50651 5.51342 9.91786C5.66585 11.9643 5.32855 14.546 5.06909 16.1352C5.08419 16.1367 5.0994 16.1367 5.1145 16.1352H5.17288H5.23125C6.40206 16.2033 7.10909 17.1081 7.50152 17.6076C7.54882 17.6751 7.59971 17.7401 7.65396 17.8022L7.82585 17.9708L7.86152 18.2303V18.4573L8.20531 23.3222H8.18585V23.3514H15.8075L15.8594 22.0541H15.8918L16.174 18.0584L16.2583 17.9222C16.52 17.4792 16.8678 17.0932 17.2811 16.7868C17.6944 16.4805 18.1649 16.26 18.6648 16.1384Z" fill="#D6D7D8"/>
<path d="M9.05835 11.9741H14.9416V17.1471H9.05835V11.9741Z" fill="#D6D7D8"/>
</svg>
