<svg width="36" height="36" viewBox="0 0 36 36" fill="none" xmlns="http://www.w3.org/2000/svg">
<g clip-path="url(#clip0_156_3620)">
<path d="M25.7205 19.7827L18.6764 21.6143C18.2411 21.7275 17.7843 21.7298 17.3479 21.621L9.91683 19.768C8.73839 19.4741 7.91138 18.4156 7.91138 17.201V9.08239C7.91131 4.0663 11.9777 0 16.9938 0H18.6179C23.634 0 27.7003 4.0663 27.7003 9.08239V17.2223C27.7003 18.427 26.8864 19.4795 25.7205 19.7827Z" fill="#FD9727"/>
<path d="M18.6179 0H16.9938C16.5858 0 16.1843 0.0273515 15.7905 0.079453C20.2378 0.668178 23.6697 4.47426 23.6697 9.08239V17.2223C23.6697 18.427 22.8559 19.4795 21.6899 19.7827L15.9556 21.2738L17.3479 21.621C17.7844 21.7298 18.2411 21.7275 18.6765 21.6143L25.7206 19.7827C26.8865 19.4795 27.7004 18.427 27.7004 17.2222V9.08239C27.7003 4.0663 23.634 0 18.6179 0Z" fill="#FF6D3A"/>
<path d="M8.33174 14.7525H10.259V10.0471H8.33174C7.76552 10.0471 7.30652 10.5061 7.30652 11.0723V13.7272C7.30652 14.2935 7.76552 14.7525 8.33174 14.7525Z" fill="#3D6687"/>
<path d="M27.6682 14.7525H25.741V10.0471H27.6682C28.2345 10.0471 28.6935 10.5061 28.6935 11.0723V13.7272C28.6935 14.2935 28.2345 14.7525 27.6682 14.7525Z" fill="#3D6687"/>
<path d="M22.3518 22.9625C21.6778 22.827 21.1928 22.2349 21.1928 21.5474V18.2938H18H14.8073V21.5474C14.8073 22.2349 14.3223 22.827 13.6483 22.9625L12.8704 23.1189V28.3437H18H23.1297V23.1189L22.3518 22.9625Z" fill="#FED9A8"/>
<path d="M28.9993 24.7168L22.5954 22.7201C22.3966 22.6581 22.1798 22.7084 22.0287 22.8516L18 26.6695L13.9713 22.8517C13.8201 22.7085 13.6033 22.6581 13.4046 22.7201L7.00066 24.7169C4.16145 25.5528 2.21204 28.159 2.21204 31.1187V35.385C2.21204 35.7246 2.48738 36 2.82699 36H33.173C33.5126 36 33.788 35.7246 33.788 35.385V31.1187C33.7879 28.1589 31.8385 25.5527 28.9993 24.7168Z" fill="#FF4C4C"/>
<path d="M28.9993 24.7168L22.5954 22.7201C22.3966 22.6581 22.1799 22.7084 22.0287 22.8516L21.2756 23.5653L24.9687 24.7168C27.8079 25.5527 29.7573 28.1589 29.7573 31.1187V35.9999H33.173C33.5127 35.9999 33.788 35.7245 33.788 35.3849V31.1187C33.7879 28.1589 31.8385 25.5527 28.9993 24.7168Z" fill="#EF2929"/>
<path d="M17.9999 20.999C13.6046 20.999 10.0415 17.4359 10.0415 13.0406V10.804C10.0415 6.40873 13.6047 2.84558 17.9999 2.84558C22.3952 2.84558 25.9584 6.40873 25.9584 10.804V13.0406C25.9584 17.436 22.3953 20.999 17.9999 20.999Z" fill="#FED9A8"/>
<path d="M21.9278 3.88123V13.0406C21.9278 16.7396 19.4041 19.849 15.9846 20.7414C16.6283 20.9093 17.3036 20.9991 17.9999 20.9991C22.3953 20.9991 25.9584 17.4359 25.9584 13.0406V10.804C25.9584 7.83721 24.3348 5.24986 21.9278 3.88123Z" fill="#F4C892"/>
<path d="M13.9712 22.8517L17.9999 26.6696L15.5154 27.516C14.9066 27.7233 14.2329 27.5431 13.809 27.0594L10.736 23.5522L13.4045 22.7202C13.6034 22.6582 13.8201 22.7085 13.9712 22.8517Z" fill="#D4145A"/>
<path d="M22.0286 22.8517L17.9999 26.6696L20.2517 27.4367C21.0013 27.692 21.8309 27.47 22.3528 26.8745L25.2638 23.5522L22.5953 22.7202C22.3964 22.6582 22.1797 22.7085 22.0286 22.8517Z" fill="#D4145A"/>
<path d="M13.2461 32.8421H9.14986C8.9224 32.8421 8.73804 32.6577 8.73804 32.4303V30.6159C8.73804 30.3885 8.9224 30.2041 9.14986 30.2041H13.2461C13.4736 30.2041 13.6579 30.3885 13.6579 30.6159V32.4303C13.658 32.6577 13.4736 32.8421 13.2461 32.8421Z" fill="#EDA558"/>
<path d="M27.7004 10.76C27.7004 10.76 24.2667 10.4874 23.0918 7.32908C23.0918 7.32908 14.7915 13.9744 7.91138 10.76V9.08239C7.91138 4.0663 11.9778 0 16.9938 0H18.618C23.6341 0 27.7004 4.0663 27.7004 9.08239V10.76Z" fill="#FD9727"/>
<path d="M18.6179 0H16.9938C16.5858 0 16.1843 0.0273515 15.7905 0.079453C20.0192 0.63921 23.3296 4.10793 23.6448 8.40901C25.0928 10.5526 27.7003 10.76 27.7003 10.76V9.08239C27.7003 4.0663 23.634 0 18.6179 0Z" fill="#FF6D3A"/>
<path d="M29.692 29.9415C29.3917 29.9415 29.1482 30.185 29.1482 30.4853V35.9999H30.2357V30.4853C30.2358 30.1849 29.9923 29.9415 29.692 29.9415Z" fill="#D4145A"/>
<path d="M6.30796 29.9415C6.00765 29.9415 5.76416 30.185 5.76416 30.4853V35.9999H6.85168V30.4853C6.85168 30.1849 6.60826 29.9415 6.30796 29.9415Z" fill="#D4145A"/>
<path d="M26.1801 14.7524V15.7443C26.1801 16.5993 25.5685 17.3249 24.7257 17.4693L19.2538 18.4077C18.9581 18.4583 18.7594 18.7392 18.8101 19.035C18.8555 19.2996 19.0852 19.4865 19.3449 19.4865C19.3755 19.4865 19.4063 19.484 19.4374 19.4786L24.9093 18.5403C26.2752 18.306 27.2666 17.1302 27.2666 15.7443V14.7524H26.1801Z" fill="#3D6687"/>
<path d="M19.4188 20.0096C18.9162 20.0096 18.4717 19.648 18.3838 19.1359C18.2857 18.5637 18.6701 18.0202 19.2423 17.922L21.015 17.618C21.5873 17.5197 22.1307 17.9042 22.2289 18.4764C22.327 19.0486 21.9426 19.5922 21.3704 19.6903L19.5977 19.9943C19.5376 20.0046 19.4777 20.0096 19.4188 20.0096Z" fill="#D4145A"/>
</g>
<defs>
<clipPath id="clip0_156_3620">
<rect width="36" height="36" fill="white"/>
</clipPath>
</defs>
</svg>
