<svg width="24" height="24" viewBox="0 0 24 24" fill="none" xmlns="http://www.w3.org/2000/svg">
<path d="M15.3427 8.65709C15.202 8.51649 15.0113 8.4375 14.8124 8.4375C14.6136 8.4375 14.4228 8.51649 14.2822 8.65709L8.65719 14.2821C8.58556 14.3513 8.52842 14.434 8.48911 14.5255C8.44981 14.617 8.42912 14.7155 8.42825 14.815C8.42739 14.9146 8.44636 15.0134 8.48407 15.1056C8.52178 15.1977 8.57747 15.2815 8.64789 15.3519C8.71831 15.4223 8.80205 15.478 8.89422 15.5157C8.9864 15.5534 9.08516 15.5724 9.18474 15.5715C9.28432 15.5707 9.38274 15.55 9.47424 15.5107C9.56575 15.4714 9.6485 15.4142 9.71769 15.3426L15.3427 9.71759C15.4833 9.57694 15.5623 9.38621 15.5623 9.18734C15.5623 8.98847 15.4833 8.79774 15.3427 8.65709Z" fill="black"/>
<path d="M12 9C12 8.55499 11.868 8.11998 11.6208 7.74997C11.3736 7.37996 11.0222 7.09157 10.611 6.92127C10.1999 6.75097 9.74751 6.70642 9.31105 6.79323C8.87459 6.88005 8.47368 7.09434 8.15901 7.40901C7.84434 7.72368 7.63005 8.12459 7.54323 8.56105C7.45642 8.99751 7.50097 9.44991 7.67127 9.86104C7.84157 10.2722 8.12996 10.6236 8.49997 10.8708C8.86998 11.118 9.30499 11.25 9.75 11.25C10.3467 11.25 10.919 11.0129 11.341 10.591C11.7629 10.169 12 9.59674 12 9ZM9 9C9 8.85167 9.04399 8.70666 9.1264 8.58332C9.20881 8.45999 9.32594 8.36386 9.46299 8.30709C9.60003 8.25033 9.75083 8.23547 9.89632 8.26441C10.0418 8.29335 10.1754 8.36478 10.2803 8.46967C10.3852 8.57456 10.4567 8.7082 10.4856 8.85368C10.5145 8.99917 10.4997 9.14997 10.4429 9.28701C10.3861 9.42406 10.29 9.54119 10.1667 9.6236C10.0433 9.70601 9.89834 9.75 9.75 9.75C9.55109 9.75 9.36032 9.67098 9.21967 9.53033C9.07902 9.38968 9 9.19891 9 9Z" fill="black"/>
<path d="M14.25 12.75C13.805 12.75 13.37 12.882 13 13.1292C12.63 13.3764 12.3416 13.7278 12.1713 14.139C12.001 14.5501 11.9564 15.0025 12.0432 15.439C12.1301 15.8754 12.3443 16.2763 12.659 16.591C12.9737 16.9057 13.3746 17.12 13.811 17.2068C14.2475 17.2936 14.6999 17.249 15.111 17.0787C15.5222 16.9084 15.8736 16.62 16.1208 16.25C16.368 15.88 16.5 15.445 16.5 15C16.5 14.4033 16.2629 13.831 15.841 13.409C15.419 12.9871 14.8467 12.75 14.25 12.75ZM14.25 15.75C14.1017 15.75 13.9567 15.706 13.8333 15.6236C13.71 15.5412 13.6139 15.4241 13.5571 15.287C13.5003 15.15 13.4855 14.9992 13.5144 14.8537C13.5434 14.7082 13.6148 14.5746 13.7197 14.4697C13.8246 14.3648 13.9582 14.2933 14.1037 14.2644C14.2492 14.2355 14.4 14.2503 14.537 14.3071C14.6741 14.3639 14.7912 14.46 14.8736 14.5833C14.956 14.7067 15 14.8517 15 15C15 15.1989 14.921 15.3897 14.7803 15.5303C14.6397 15.671 14.4489 15.75 14.25 15.75Z" fill="black"/>
<path d="M21.546 9.87904L20.6895 9.02179C20.5498 8.88288 20.439 8.71762 20.3635 8.53558C20.2881 8.35354 20.2495 8.15834 20.25 7.96129V6.75004C20.25 5.95439 19.934 5.19133 19.3714 4.62872C18.8088 4.06611 18.0457 3.75004 17.25 3.75004H16.0388C15.8417 3.75058 15.6465 3.712 15.4645 3.63656C15.2825 3.56112 15.1172 3.45031 14.9783 3.31054L14.121 2.45404C13.5585 1.89163 12.7955 1.57568 12 1.57568C11.2045 1.57568 10.4416 1.89163 9.87904 2.45404L9.02179 3.31054C8.88288 3.45031 8.71762 3.56112 8.53558 3.63656C8.35354 3.712 8.15834 3.75058 7.96129 3.75004H6.75004C5.95439 3.75004 5.19133 4.06611 4.62872 4.62872C4.06611 5.19133 3.75004 5.95439 3.75004 6.75004V7.96129C3.75058 8.15834 3.712 8.35354 3.63656 8.53558C3.56112 8.71762 3.45031 8.88288 3.31054 9.02179L2.45404 9.87904C1.89163 10.4416 1.57568 11.2045 1.57568 12C1.57568 12.7955 1.89163 13.5585 2.45404 14.121L3.31054 14.9783C3.45031 15.1172 3.56112 15.2825 3.63656 15.4645C3.712 15.6465 3.75058 15.8417 3.75004 16.0388V17.25C3.75004 18.0457 4.06611 18.8088 4.62872 19.3714C5.19133 19.934 5.95439 20.25 6.75004 20.25H7.96129C8.15834 20.2495 8.35354 20.2881 8.53558 20.3635C8.71762 20.439 8.88288 20.5498 9.02179 20.6895L9.87904 21.546C10.4416 22.1085 11.2045 22.4244 12 22.4244C12.7955 22.4244 13.5585 22.1085 14.121 21.546L14.9783 20.6895C15.1172 20.5498 15.2825 20.439 15.4645 20.3635C15.6465 20.2881 15.8417 20.2495 16.0388 20.25H17.25C18.0457 20.25 18.8088 19.934 19.3714 19.3714C19.934 18.8088 20.25 18.0457 20.25 17.25V16.0388C20.2495 15.8417 20.2881 15.6465 20.3635 15.4645C20.439 15.2825 20.5498 15.1172 20.6895 14.9783L21.546 14.121C22.1085 13.5585 22.4244 12.7955 22.4244 12C22.4244 11.2045 22.1085 10.4416 21.546 9.87904ZM20.4855 13.0605L19.629 13.9178C19.3494 14.1955 19.1277 14.526 18.9768 14.8901C18.8259 15.2542 18.7488 15.6447 18.75 16.0388V17.25C18.75 17.6479 18.592 18.0294 18.3107 18.3107C18.0294 18.592 17.6479 18.75 17.25 18.75H16.0388C15.6447 18.749 15.2543 18.8262 14.8902 18.9771C14.5262 19.1279 14.1956 19.3495 13.9178 19.629L13.0605 20.4855C12.7793 20.7667 12.3978 20.9247 12 20.9247C11.6023 20.9247 11.2208 20.7667 10.9395 20.4855L10.083 19.629C9.80499 19.3496 9.47431 19.1281 9.11013 18.9772C8.74595 18.8263 8.35549 18.7491 7.96129 18.75H6.75004C6.35222 18.75 5.97069 18.592 5.68938 18.3107C5.40808 18.0294 5.25004 17.6479 5.25004 17.25V16.0388C5.25107 15.6447 5.17391 15.2543 5.02303 14.8902C4.87214 14.5262 4.65054 14.1956 4.37104 13.9178L3.51454 13.0605C3.23334 12.7793 3.07536 12.3978 3.07536 12C3.07536 11.6023 3.23334 11.2208 3.51454 10.9395L4.37104 10.083C4.65046 9.80499 4.87201 9.47431 5.02288 9.11013C5.17375 8.74595 5.25096 8.35549 5.25004 7.96129V6.75004C5.25004 6.35222 5.40808 5.97069 5.68938 5.68938C5.97069 5.40808 6.35222 5.25004 6.75004 5.25004H7.96129C8.35539 5.25107 8.74578 5.17391 9.10985 5.02303C9.47392 4.87214 9.80445 4.65054 10.0823 4.37104L10.9395 3.51454C11.2208 3.23334 11.6023 3.07536 12 3.07536C12.3978 3.07536 12.7793 3.23334 13.0605 3.51454L13.917 4.37104C14.1951 4.65046 14.5258 4.87201 14.8899 5.02288C15.2541 5.17375 15.6446 5.25096 16.0388 5.25004H17.25C17.6479 5.25004 18.0294 5.40808 18.3107 5.68938C18.592 5.97069 18.75 6.35222 18.75 6.75004V7.96129C18.749 8.35539 18.8262 8.74578 18.9771 9.10985C19.1279 9.47392 19.3495 9.80445 19.629 10.0823L20.4855 10.9395C20.7667 11.2208 20.9247 11.6023 20.9247 12C20.9247 12.3978 20.7667 12.7793 20.4855 13.0605Z" fill="black"/>
</svg>
