<svg width="24" height="24" viewBox="0 0 24 24" fill="none" xmlns="http://www.w3.org/2000/svg">
<path d="M17 2.5H3.5C2.11929 2.5 1 3.61929 1 5V18C1 19.3807 2.11929 20.5 3.5 20.5H17C18.3807 20.5 19.5 19.3807 19.5 18V5C19.5 3.61929 18.3807 2.5 17 2.5Z" fill="#EFF3F9"/>
<path d="M19.5 12.7549V17.9999C19.5 18.2999 19.45 18.5849 19.35 18.8499C19.005 19.8099 18.08 20.4999 17 20.4999H3.5C2.12 20.4999 1 19.3799 1 17.9999V4.9999C1 3.9199 1.69 2.9949 2.65 2.6499C2.55 2.9149 2.5 3.1999 2.5 3.4999V17.4999C2.5 18.3299 3.17 18.9999 4 18.9999H10.875C10.635 18.3799 10.5 17.7049 10.5 16.9999C10.5 13.9599 12.96 11.4999 16 11.4999C17.33 11.4999 18.55 11.9699 19.5 12.7549Z" fill="#CFE0F3"/>
<path d="M17 2.5H3.5C2.1195 2.5 1 3.6195 1 5V7.5H19.5V5C19.5 3.6195 18.3805 2.5 17 2.5Z" fill="#0588E2"/>
<path d="M2.5 3.50024C2.5 3.20274 2.561 2.92124 2.6565 2.65674C1.693 3.00374 1 3.91724 1 5.00024V7.50024H2.5V3.50024Z" fill="#0075D3"/>
<path d="M6 9.5H5C4.44772 9.5 4 9.94772 4 10.5V11.5C4 12.0523 4.44772 12.5 5 12.5H6C6.55228 12.5 7 12.0523 7 11.5V10.5C7 9.94772 6.55228 9.5 6 9.5Z" fill="#AECEE8"/>
<path d="M10.5 9.5H9.5C8.94772 9.5 8.5 9.94772 8.5 10.5V11.5C8.5 12.0523 8.94772 12.5 9.5 12.5H10.5C11.0523 12.5 11.5 12.0523 11.5 11.5V10.5C11.5 9.94772 11.0523 9.5 10.5 9.5Z" fill="#AECEE8"/>
<path d="M15 9.5H14C13.4477 9.5 13 9.94772 13 10.5V11.5C13 12.0523 13.4477 12.5 14 12.5H15C15.5523 12.5 16 12.0523 16 11.5V10.5C16 9.94772 15.5523 9.5 15 9.5Z" fill="#AECEE8"/>
<path d="M14.0001 12.5H15.0001C15.5526 12.5 16.0001 12.0525 16.0001 11.5C15.0171 11.5 14.0966 11.7605 13.2981 12.2115C13.4786 12.3895 13.7261 12.5 14.0001 12.5Z" fill="#7EAFD0"/>
<path d="M6 14.5H5C4.44772 14.5 4 14.9477 4 15.5V16.5C4 17.0523 4.44772 17.5 5 17.5H6C6.55228 17.5 7 17.0523 7 16.5V15.5C7 14.9477 6.55228 14.5 6 14.5Z" fill="#AECEE8"/>
<path d="M10.5 14.5H9.5C8.94772 14.5 8.5 14.9477 8.5 15.5V16.5C8.5 17.0523 8.94772 17.5 9.5 17.5H10.5C11.0523 17.5 11.5 17.0523 11.5 16.5V15.5C11.5 14.9477 11.0523 14.5 10.5 14.5Z" fill="#AECEE8"/>
<path d="M10.5235 17.4973C11.0645 17.4843 11.5 17.0438 11.5 16.4998V15.4998C11.5 15.1428 11.3115 14.8313 11.0295 14.6548C10.6935 15.3668 10.5 16.1598 10.5 16.9998C10.5 17.1678 10.509 17.3333 10.5235 17.4973Z" fill="#7EAFD0"/>
<path d="M17.5 23C20.5376 23 23 20.5376 23 17.5C23 14.4624 20.5376 12 17.5 12C14.4624 12 12 14.4624 12 17.5C12 20.5376 14.4624 23 17.5 23Z" fill="#0588E2"/>
<path d="M17.5 22C19.9853 22 22 19.9853 22 17.5C22 15.0147 19.9853 13 17.5 13C15.0147 13 13 15.0147 13 17.5C13 19.9853 15.0147 22 17.5 22Z" fill="#EFF3F9"/>
<path d="M17.5001 13C16.1301 13 14.9056 13.614 14.0801 14.58C14.8661 13.908 15.8846 13.5 17.0001 13.5C19.4856 13.5 21.5001 15.5145 21.5001 18C21.5001 19.1155 21.0921 20.134 20.4201 20.92C21.3861 20.0945 22.0001 18.87 22.0001 17.5C22.0001 15.0145 19.9856 13 17.5001 13Z" fill="#CFE0F3"/>
<path d="M7 2.25C7 1.55964 6.44036 1 5.75 1C5.05964 1 4.5 1.55964 4.5 2.25V3.75C4.5 4.44036 5.05964 5 5.75 5C6.44036 5 7 4.44036 7 3.75V2.25Z" fill="#FFC343"/>
<path d="M16 2.25C16 1.55964 15.4404 1 14.75 1C14.0596 1 13.5 1.55964 13.5 2.25V3.75C13.5 4.44036 14.0596 5 14.75 5C15.4404 5 16 4.44036 16 3.75V2.25Z" fill="#FFC343"/>
<path d="M6.75 3.99995C6.0595 3.99995 5.5 3.44045 5.5 2.74995V1.24995C5.5 1.17195 5.5095 1.09645 5.523 1.02295C4.9415 1.12995 4.5 1.63745 4.5 2.24995V3.74995C4.5 4.44045 5.0595 4.99995 5.75 4.99995C6.3625 4.99995 6.87 4.55845 6.977 3.97695C6.903 3.99045 6.8275 3.99995 6.75 3.99995Z" fill="#FFA221"/>
<path d="M15.75 3.99995C15.0595 3.99995 14.5 3.44045 14.5 2.74995V1.24995C14.5 1.17195 14.5095 1.09645 14.523 1.02295C13.9415 1.12995 13.5 1.63745 13.5 2.24995V3.74995C13.5 4.44045 14.0595 4.99995 14.75 4.99995C15.3625 4.99995 15.87 4.55845 15.977 3.97695C15.903 3.99045 15.8275 3.99995 15.75 3.99995Z" fill="#FFA221"/>
<path d="M18.5 19C18.372 19 18.244 18.951 18.1465 18.8535L17.1465 17.8535C17.0525 17.7595 17 17.6325 17 17.5V15C17 14.724 17.2235 14.5 17.5 14.5C17.7765 14.5 18 14.724 18 15V17.293L18.8535 18.1465C19.049 18.342 19.049 18.658 18.8535 18.8535C18.756 18.951 18.628 19 18.5 19Z" fill="#0D3B8D"/>
</svg>
