<svg width="24" height="24" viewBox="0 0 24 24" fill="none" xmlns="http://www.w3.org/2000/svg">
<path d="M21.3915 2.60838C19.247 0.463875 15.758 0.463875 13.6135 2.60838L8.66404 7.55788C6.51954 9.70238 6.51954 13.1914 8.66404 15.3359C10.8085 17.4804 14.2975 17.4804 16.442 15.3359L21.3915 10.3864C23.536 8.24188 23.536 4.75288 21.3915 2.60838ZM14.3205 13.2149C13.346 14.1894 11.7595 14.1894 10.785 13.2149C9.81054 12.2404 9.81054 10.6539 10.785 9.67937L15.7345 4.72988C16.709 3.75538 18.2955 3.75538 19.27 4.72988C20.2445 5.70438 20.2445 7.29087 19.27 8.26538L14.3205 13.2149Z" fill="#FFC343"/>
<path d="M21.3916 2.60844C21.2651 2.48194 21.1331 2.36394 20.9976 2.25244C22.7771 4.41094 22.6591 7.61844 20.6416 9.63644L15.6921 14.5859C13.6741 16.6039 10.4661 16.7214 8.30762 14.9419C8.41912 15.0774 8.53712 15.2094 8.66362 15.3359C10.8081 17.4804 14.2971 17.4804 16.4416 15.3359L21.3911 10.3864C23.5356 8.24194 23.5361 4.75294 21.3916 2.60844Z" fill="#FFA221"/>
<path d="M10.4521 12.7979C9.83007 11.8304 9.93907 10.5249 10.7851 9.67941L15.7346 4.72941C16.5806 3.88341 17.8856 3.77441 18.8531 4.39641C18.7581 4.24891 18.6491 4.10841 18.5201 3.97941C17.5456 3.00491 15.9591 3.00491 14.9846 3.97941L10.0351 8.92941C9.06057 9.90391 9.06057 11.4904 10.0351 12.4649C10.1641 12.5939 10.3046 12.7029 10.4521 12.7979Z" fill="#FFA221"/>
<path d="M15.3366 8.66355C13.1921 6.51905 9.70312 6.51905 7.55862 8.66355L2.60862 13.6136C0.464119 15.7581 0.464119 19.2471 2.60862 21.3916C4.75312 23.5361 8.24212 23.5361 10.3866 21.3916L15.3361 16.4421C17.4806 14.2976 17.4806 10.8086 15.3361 8.66405L15.3366 8.66355ZM8.26562 19.2701C7.29112 20.2446 5.70462 20.2446 4.73012 19.2701C3.75562 18.2956 3.75562 16.7091 4.73012 15.7346L9.67962 10.7851C10.6541 9.81055 12.2406 9.81055 13.2151 10.7851C14.1896 11.7596 14.1896 13.3461 13.2151 14.3206L8.26562 19.2701Z" fill="#0588E2"/>
<path d="M15.3364 8.66362C15.2099 8.53712 15.0779 8.41912 14.9424 8.30762C16.7219 10.4661 16.6044 13.6741 14.5864 15.6916L9.63644 20.6416C7.61844 22.6596 4.41094 22.7771 2.25244 20.9976C2.36394 21.1331 2.48194 21.2651 2.60844 21.3916C4.75294 23.5361 8.24194 23.5361 10.3864 21.3916L15.3364 16.4416C17.4809 14.2971 17.4809 10.8081 15.3364 8.66362Z" fill="#0075D3"/>
<path d="M4.39641 18.8536C3.77441 17.8861 3.88341 16.5806 4.72941 15.7351L9.67891 10.7856C10.5249 9.93956 11.8299 9.83056 12.7974 10.4526C12.7024 10.3051 12.5934 10.1646 12.4644 10.0356C11.4899 9.06106 9.90341 9.06106 8.92891 10.0356L3.97941 14.9851C3.00491 15.9596 3.00491 17.5461 3.97941 18.5206C4.10841 18.6496 4.24891 18.7586 4.39641 18.8536Z" fill="#0075D3"/>
<path d="M10.208 12.2918C9.892 11.4093 10.079 10.3848 10.785 9.67934L13.982 6.48234L11.8605 4.36084L8.6635 7.55784C6.7755 9.44584 6.5515 12.3748 7.9875 14.5118L10.208 12.2918Z" fill="#FFC343"/>
<path d="M10.7851 9.67942L13.9821 6.48242L13.2321 5.73242L10.0351 8.92942C9.06057 9.90392 9.06057 11.4904 10.0351 12.4649L10.2081 12.2919C9.89207 11.4094 10.0791 10.3849 10.7851 9.67942Z" fill="#FFA221"/>
</svg>
