<svg width="24" height="24" viewBox="0 0 24 24" fill="none" xmlns="http://www.w3.org/2000/svg">
<path d="M20.6719 11.0625V0.703125C20.6719 0.314812 20.3571 0 19.9688 0H4.03125C3.64294 0 3.32812 0.314812 3.32812 0.703125V11.0625C3.32812 11.249 3.40223 11.4278 3.53409 11.5597L3.97439 12L3.53409 12.4403C3.40223 12.5722 3.32812 12.751 3.32812 12.9375V23.2969C3.32812 23.6852 3.64294 24 4.03125 24H19.9688C20.3571 24 20.6719 23.6852 20.6719 23.2969V12.9375C20.6719 12.751 20.5978 12.5722 20.4659 12.4403L20.0256 12L20.466 11.5597C20.5978 11.4278 20.6719 11.249 20.6719 11.0625ZM19.2656 10.7713L18.5341 11.5028C18.2595 11.7774 18.2595 12.2226 18.5341 12.4972L19.2656 13.2287V22.5938H4.73438V13.2287L5.46591 12.4972C5.7405 12.2226 5.7405 11.7774 5.46591 11.5028L4.73438 10.7713V1.40625H19.2656V10.7713Z" fill="#737373"/>
<path d="M7.32549 7.58274L8.43455 8.56618C8.661 8.76699 8.99053 8.80032 9.25261 8.64901L12.5803 6.72779L12.4473 8.78991C12.4223 9.17743 12.7162 9.51183 13.1037 9.53687C13.4912 9.5619 13.8256 9.26794 13.8507 8.88043L14.044 5.88277L16.5597 4.4303C16.896 4.23615 17.0113 3.80612 16.8171 3.46983C16.6229 3.13351 16.1929 3.01833 15.8566 3.21249L13.3409 4.66496L10.6481 3.33357C10.3 3.16149 9.87835 3.30413 9.70617 3.65222C9.53405 4.00032 9.67674 4.42205 10.0248 4.59418L11.8771 5.51007L8.98838 7.17788L8.25849 6.53063C7.96795 6.27305 7.52358 6.29968 7.26591 6.59021C7.00828 6.88069 7.03495 7.32507 7.32549 7.58274Z" fill="#737373"/>
<path d="M6.84375 15.5625H17.1562C17.5446 15.5625 17.8594 15.2477 17.8594 14.8594C17.8594 14.4711 17.5446 14.1562 17.1562 14.1562H6.84375C6.45544 14.1562 6.14062 14.4711 6.14062 14.8594C6.14062 15.2477 6.45544 15.5625 6.84375 15.5625Z" fill="#737373"/>
<path d="M6.84375 18.375H12C12.3883 18.375 12.7031 18.0602 12.7031 17.6719C12.7031 17.2836 12.3883 16.9688 12 16.9688H6.84375C6.45544 16.9688 6.14062 17.2836 6.14062 17.6719C6.14062 18.0602 6.45544 18.375 6.84375 18.375Z" fill="#737373"/>
<path d="M6.84375 21.1875H12C12.3883 21.1875 12.7031 20.8727 12.7031 20.4844C12.7031 20.0961 12.3883 19.7812 12 19.7812H6.84375C6.45544 19.7812 6.14062 20.0961 6.14062 20.4844C6.14062 20.8727 6.45544 21.1875 6.84375 21.1875Z" fill="#737373"/>
<path d="M7.78125 12.7031H8.71875C9.10706 12.7031 9.42188 12.3883 9.42188 12C9.42188 11.6117 9.10706 11.2969 8.71875 11.2969H7.78125C7.39294 11.2969 7.07812 11.6117 7.07812 12C7.07812 12.3883 7.39294 12.7031 7.78125 12.7031Z" fill="#737373"/>
<path d="M12.4688 11.2969H11.5312C11.1429 11.2969 10.8281 11.6117 10.8281 12C10.8281 12.3883 11.1429 12.7031 11.5312 12.7031H12.4688C12.8571 12.7031 13.1719 12.3883 13.1719 12C13.1719 11.6117 12.8571 11.2969 12.4688 11.2969Z" fill="#737373"/>
<path d="M16.2188 11.2969H15.2812C14.8929 11.2969 14.5781 11.6117 14.5781 12C14.5781 12.3883 14.8929 12.7031 15.2812 12.7031H16.2188C16.6071 12.7031 16.9219 12.3883 16.9219 12C16.9219 11.6117 16.6071 11.2969 16.2188 11.2969Z" fill="#737373"/>
<path d="M15.75 16.9688C14.5869 16.9688 13.6406 17.915 13.6406 19.0781C13.6406 20.2412 14.5869 21.1875 15.75 21.1875C16.9131 21.1875 17.8594 20.2412 17.8594 19.0781C17.8594 17.915 16.9131 16.9688 15.75 16.9688ZM15.75 19.7812C15.3623 19.7812 15.0469 19.4658 15.0469 19.0781C15.0469 18.6904 15.3623 18.375 15.75 18.375C16.1377 18.375 16.4531 18.6904 16.4531 19.0781C16.4531 19.4658 16.1377 19.7812 15.75 19.7812Z" fill="#737373"/>
</svg>
