<svg width="12" height="12" viewBox="0 0 12 12" fill="none" xmlns="http://www.w3.org/2000/svg">
<path d="M11.3332 5.33334V8.66667C11.3332 8.75508 11.298 8.83986 11.2355 8.90238C11.173 8.96489 11.0882 9.00001 10.9998 9.00001H6.33315V11.6667C6.33315 11.7551 6.29803 11.8399 6.23552 11.9024C6.17301 11.9649 6.08822 12 5.99982 12C5.91141 12 5.82663 11.9649 5.76411 11.9024C5.7016 11.8399 5.66648 11.7551 5.66648 11.6667V9.00001H2.66648C2.62261 9.00026 2.57913 8.99185 2.53851 8.97526C2.4979 8.95867 2.46096 8.93423 2.42982 8.90334L0.76315 7.23667C0.731907 7.20568 0.707109 7.16882 0.690187 7.1282C0.673264 7.08758 0.664551 7.04401 0.664551 7.00001C0.664551 6.956 0.673264 6.91243 0.690187 6.87181C0.707109 6.83119 0.731907 6.79433 0.76315 6.76334L2.42982 5.09667C2.46096 5.06578 2.4979 5.04134 2.53851 5.02475C2.57913 5.00816 2.62261 4.99975 2.66648 5.00001H5.66648V4.00001H0.999817C0.911411 4.00001 0.826627 3.96489 0.764115 3.90238C0.701603 3.83986 0.666484 3.75508 0.666484 3.66667V0.333339C0.666484 0.244933 0.701603 0.160149 0.764115 0.0976367C0.826627 0.0351246 0.911411 5.57143e-06 0.999817 5.57143e-06H9.33315C9.37702 -0.00024806 9.42051 0.00816029 9.46112 0.0247485C9.50173 0.0413367 9.53867 0.0657784 9.56982 0.0966722L11.2365 1.76334C11.2677 1.79433 11.2925 1.83119 11.3094 1.87181C11.3264 1.91243 11.3351 1.956 11.3351 2.00001C11.3351 2.04401 11.3264 2.08758 11.3094 2.1282C11.2925 2.16882 11.2677 2.20568 11.2365 2.23667L9.56982 3.90334C9.53867 3.93423 9.50173 3.95867 9.46112 3.97526C9.42051 3.99185 9.37702 4.00026 9.33315 4.00001H6.33315V5.00001H10.9998C11.0882 5.00001 11.173 5.03512 11.2355 5.09764C11.298 5.16015 11.3332 5.24493 11.3332 5.33334Z" fill="#8E8E8E"/>
</svg>
