<svg width="56" height="56" viewBox="0 0 56 56" fill="none" xmlns="http://www.w3.org/2000/svg">
<g clip-path="url(#clip0_88_6783)">
<circle cx="28" cy="28" r="28" fill="#FEFA17"/>
<g clip-path="url(#clip1_88_6783)">
<path d="M56 56.0001H1.75C4.1288 54.8259 6.40881 53.4532 8.56685 51.8959C12.6276 48.9656 18.1398 46.026 24.479 45.4625C35.2555 44.5045 48.6044 52.4312 56 56.0001Z" fill="black"/>
<path d="M28.8705 37.7334C26.5738 32.2205 22.4395 29.8256 20.253 29.6095C19.6266 29.5682 18.9985 29.6585 18.4075 29.875C17.8165 30.0914 17.2752 30.4294 16.817 30.868C17.1621 30.4405 17.5366 30.0387 17.9379 29.6659C17.3591 29.1306 16.6792 28.614 16.6792 28.614C17.2856 28.9052 17.947 29.2902 18.1859 29.4405C18.8137 28.8808 19.4833 28.3721 20.1887 27.919C19.5848 27.4199 18.9495 26.9619 18.287 26.5478C19.118 26.8292 19.9209 27.1908 20.6848 27.6279C21.6322 27.0732 22.6178 26.5898 23.6339 26.1816C23.2381 25.8449 22.824 25.5313 22.3936 25.2424C22.9881 25.4565 23.5655 25.7171 24.1208 26.0219C25.2145 25.5981 26.3348 25.2498 27.4741 24.9794C21.8332 23.3734 17.4234 25.1672 15.8799 26.792C15.2531 27.4621 14.8565 28.3225 14.7499 29.2433C14.0768 27.6757 12.9003 26.3901 11.415 25.5993C8.0525 24.1623 4.69001 26.9799 4.69001 26.9799C6.08743 26.7036 7.53415 26.8741 8.83341 27.4682L10.0829 26.6324L9.23764 27.6561C10.5605 28.3542 11.7567 29.2786 12.7747 30.3891C11.9284 29.859 10.9269 29.6496 9.94505 29.7974C7.7677 30.1637 3.80805 32.8497 1.88794 38.5129C2.7333 37.7335 3.63294 37.0178 4.57977 36.3716C4.65741 35.7379 4.77712 35.1104 4.93807 34.4933C4.93087 35.0265 4.95541 35.5597 5.01156 36.0899C5.91854 35.4631 6.87059 34.9074 7.85957 34.4275C7.93942 33.5363 8.10561 32.6555 8.35568 31.7978C8.30273 32.5921 8.30273 33.3891 8.35568 34.1833C9.11401 33.845 9.89736 33.5687 10.6984 33.3569C10.6984 33.0657 10.7811 32.2956 10.8913 31.6194C10.8913 31.6194 10.8913 32.4834 11.0199 33.2723C11.3201 33.2035 11.6263 33.1471 11.9387 33.1033C10.8362 34.2115 9.72456 36.6064 9.82562 41.7531C9.82562 41.7531 10.4779 40.2222 11.3139 38.6256C11.1522 37.9841 11.0659 37.3252 11.0567 36.6628C11.0567 36.6628 11.2956 37.4423 11.562 38.1467C11.81 37.6771 12.0765 37.2075 12.3337 36.8036L12.398 36.7003C12.3061 36.1932 12.1408 35.1789 12.0948 34.4745C12.0948 34.4745 12.3613 35.4137 12.6736 36.2683C13.3006 35.28 14.0374 34.3692 14.8694 33.5541C19.9958 42.5514 19.4629 55.6529 19.4629 55.6529L21.8699 55.4369C21.2085 42.9459 17.2396 35.4982 15.7605 33.1221C16.9543 32.9005 18.1773 32.9005 19.371 33.1221C19.371 32.3238 19.371 31.4597 19.371 31.4597C19.5272 32.1265 19.6375 32.8967 19.6742 33.1784C20.4891 33.3332 21.2908 33.5531 22.0721 33.8358C22.0891 33.0297 22.0522 32.2232 21.9618 31.4222C22.2689 32.2613 22.4935 33.1297 22.6325 34.0143C23.6672 34.4094 24.6714 34.8835 25.6367 35.4324C25.6667 34.9007 25.6667 34.3676 25.6367 33.8358C25.8383 34.4499 25.9979 35.0775 26.1144 35.7142C27.0794 36.3187 28.0005 36.9936 28.8705 37.7334Z" fill="black"/>
<path d="M14.8876 27.7215C16.2105 19.3534 21.0797 14.6388 24.0196 13.5775C24.864 13.3006 25.7553 13.2052 26.6375 13.2973C27.5197 13.3894 28.3738 13.6671 29.146 14.1128C28.5303 13.6573 27.8824 13.2492 27.2075 12.8919C27.823 11.9527 28.5856 11.0135 28.5856 11.0135C27.8506 11.624 27.0789 12.3847 26.7941 12.6665C25.7504 12.1247 24.6659 11.6693 23.551 11.3047C24.2085 10.4027 24.9236 9.54617 25.6916 8.74073C24.6428 9.3962 23.661 10.1576 22.7609 11.0135C21.2724 10.5882 19.7556 10.2743 18.2225 10.0744C18.6505 9.46094 19.1105 8.87153 19.6006 8.3087C18.8618 8.81827 18.1588 9.38001 17.4967 9.98983C15.8849 9.78484 14.2604 9.70322 12.6367 9.74565C19.8486 5.55692 26.4909 6.4867 29.1368 8.196C30.2173 8.89867 31.0507 9.93489 31.5163 11.1544C32.0491 8.84403 33.0413 6.374 34.8696 4.99341C38.9487 1.89412 44.4977 4.58017 44.4977 4.58017C42.4911 4.68694 40.5659 5.42499 38.9854 6.69332L36.9918 5.97954L38.4985 7.09717C36.9141 8.50712 35.5779 10.1844 34.548 12.056C35.5412 11.0607 36.8384 10.4441 38.2229 10.3092C41.3465 10.0744 47.6856 12.3659 52.1781 19.4661C50.7504 18.6712 49.2708 17.9777 47.7499 17.3905C47.44 16.5371 47.0684 15.7083 46.6383 14.9111C46.8233 15.6409 46.9675 16.381 47.0701 17.1276C45.6147 16.5871 44.1224 16.1571 42.6051 15.8409C42.2038 14.6439 41.6836 13.4921 41.0525 12.4035C41.3742 13.4804 41.6229 14.5787 41.7967 15.6906C40.6433 15.4865 39.476 15.3766 38.3056 15.3619C38.1769 14.9769 37.837 13.9344 37.4603 13.0515C37.4603 13.0515 37.7084 14.2537 37.837 15.3619C37.4052 15.3619 36.9183 15.3619 36.5416 15.4371C38.3791 16.5829 40.7402 19.4755 42.302 26.5757C42.302 26.5757 40.8963 24.6973 39.2243 22.819C39.2377 21.8706 39.1358 20.9242 38.9211 20.0015C38.9211 20.0015 38.8568 21.1566 38.7282 22.2179C38.2321 21.6638 37.7176 21.1191 37.2215 20.6401L37.102 20.5274C37.102 19.7948 36.9459 18.3579 36.7713 17.3718C36.7713 17.3718 36.7713 18.7617 36.5692 20.039C35.4002 18.9227 34.1084 17.9488 32.7198 17.137C28.6866 31.2246 33.7396 49.069 33.7396 49.069L30.3587 49.6137C27.1432 32.2671 30.1106 20.6307 31.3509 16.8458C29.6408 16.9444 27.9613 17.3514 26.3899 18.048C26.0591 16.9773 25.8111 15.7752 25.8111 15.7752C25.8192 16.6005 25.8683 17.4249 25.9581 18.2452C24.888 18.735 23.8587 19.3129 22.8804 19.9733C22.603 18.8803 22.3974 17.7696 22.2648 16.6486C22.1262 17.896 22.1077 19.1542 22.2097 20.4053C20.9478 21.3228 19.7533 22.3335 18.6359 23.4295C18.4339 22.7035 18.2714 21.9667 18.149 21.2224C18.0872 22.1323 18.0872 23.0455 18.149 23.9554C16.9731 25.1274 15.883 26.3862 14.8876 27.7215Z" fill="black"/>
</g>
</g>
<defs>
<clipPath id="clip0_88_6783">
<rect width="56" height="56" rx="28" fill="white"/>
</clipPath>
<clipPath id="clip1_88_6783">
<rect width="54.25" height="52.5" fill="white" transform="translate(1.75 3.5)"/>
</clipPath>
</defs>
</svg>
