<svg width="42" height="42" viewBox="0 0 42 42" fill="none" xmlns="http://www.w3.org/2000/svg">
<g clip-path="url(#clip0_774_21087)">
<path d="M29.9659 37.8718H12.0335C11.6799 37.8718 11.3955 37.5873 11.3955 37.2338C11.3955 36.8803 11.6799 36.5958 12.0335 36.5958H29.9685C30.3221 36.5958 30.6065 36.8803 30.6065 37.2338C30.6065 37.5873 30.3194 37.8718 29.9659 37.8718Z" fill="black"/>
<path d="M37.5875 37.8718H36.6465C36.2929 37.8718 36.0085 37.5874 36.0085 37.2338C36.0085 36.8803 36.2929 36.5958 36.6465 36.5958H37.5875C38.9937 36.5958 40.1394 35.4502 40.1394 34.0439V32.2443C40.1394 31.0721 39.3446 30.054 38.2095 29.7695L33.9138 28.6903C33.2439 28.5228 32.6299 28.1746 32.1408 27.6855L26.702 22.2467C26.2262 21.7709 25.5696 21.4998 24.8971 21.4998H9.59901C8.91851 21.4998 8.27521 21.7656 7.79408 22.2467L2.60787 27.4276C2.12673 27.9114 1.86091 28.552 1.86091 29.2326V34.0439C1.86091 35.4502 3.00661 36.5958 4.41281 36.5958H5.35382C5.70737 36.5958 5.9918 36.8803 5.9918 37.2338C5.9918 37.5874 5.70737 37.8718 5.35382 37.8718H4.41281C2.30218 37.8718 0.584961 36.1546 0.584961 34.0439V29.2326C0.584961 28.2091 0.983695 27.2495 1.70673 26.5265L6.89294 21.3403C7.61597 20.6172 8.57825 20.2185 9.59901 20.2185H24.8971C25.9205 20.2185 26.8802 20.6172 27.6032 21.3403L33.0419 26.779C33.3689 27.106 33.7783 27.3372 34.2248 27.4489L38.5205 28.5281C40.2245 28.9561 41.4153 30.4819 41.4153 32.2417V34.0439C41.4153 36.1546 39.6981 37.8718 37.5875 37.8718Z" fill="black"/>
<path d="M29.0626 29.7615H5.43096C4.95514 29.7615 4.53248 29.477 4.34906 29.0384C4.1683 28.5998 4.26666 28.1001 4.6016 27.7651L8.72451 23.6422C9.04615 23.3206 9.47413 23.1451 9.92868 23.1451H24.5649C25.0194 23.1451 25.4474 23.3232 25.7691 23.6422L29.892 27.7651C30.2269 28.1001 30.3279 28.5998 30.1445 29.0384C29.9611 29.477 29.5384 29.7615 29.0626 29.7615ZM5.68615 28.4855H28.8048L24.8653 24.5434C24.7855 24.4636 24.6792 24.4184 24.5649 24.4184H9.92868C9.81438 24.4184 9.70805 24.4636 9.6283 24.5434L5.68615 28.4855Z" fill="black"/>
<path d="M12.2786 29.7614C11.9251 29.7614 11.6406 29.477 11.6406 29.1235V23.7804C11.6406 23.4269 11.9251 23.1425 12.2786 23.1425C12.6321 23.1425 12.9166 23.4269 12.9166 23.7804V29.1208C12.9166 29.4744 12.6295 29.7614 12.2786 29.7614Z" fill="black"/>
<path d="M17.9622 29.7614C17.6086 29.7614 17.3242 29.477 17.3242 29.1235V23.7804C17.3242 23.4269 17.6086 23.1425 17.9622 23.1425C18.3157 23.1425 18.6002 23.4269 18.6002 23.7804V29.1208C18.6002 29.4744 18.3157 29.7614 17.9622 29.7614Z" fill="black"/>
<path d="M8.69253 41.2132C6.49949 41.2132 4.71582 39.4295 4.71582 37.2365C4.71582 35.0434 6.49949 33.2598 8.69253 33.2598C10.8856 33.2598 12.6692 35.0434 12.6692 37.2365C12.6692 39.4295 10.8856 41.2132 8.69253 41.2132ZM8.69253 34.5331C7.20392 34.5331 5.99177 35.7452 5.99177 37.2338C5.99177 38.7224 7.20392 39.9346 8.69253 39.9346C10.1811 39.9346 11.3933 38.7224 11.3933 37.2338C11.3959 35.7452 10.1838 34.5331 8.69253 34.5331Z" fill="black"/>
<path d="M8.69291 38.9882C7.72531 38.9882 6.93848 38.2014 6.93848 37.2338C6.93848 36.2662 7.72531 35.4794 8.69291 35.4794C9.6605 35.4794 10.4473 36.2662 10.4473 37.2338C10.4473 38.2014 9.6605 38.9882 8.69291 38.9882ZM8.69291 36.7553C8.42974 36.7553 8.21443 36.9706 8.21443 37.2338C8.21443 37.497 8.42974 37.7123 8.69291 37.7123C8.95607 37.7123 9.17139 37.497 9.17139 37.2338C9.17139 36.9706 8.95873 36.7553 8.69291 36.7553Z" fill="black"/>
<path d="M33.3078 41.2132C31.1147 41.2132 29.3311 39.4295 29.3311 37.2365C29.3311 35.0434 31.1147 33.2598 33.3078 33.2598C35.5008 33.2598 37.2845 35.0434 37.2845 37.2365C37.2845 39.4295 35.5008 41.2132 33.3078 41.2132ZM33.3078 34.5331C31.8192 34.5331 30.607 35.7452 30.607 37.2338C30.607 38.7224 31.8192 39.9346 33.3078 39.9346C34.7964 39.9346 36.0085 38.7224 36.0085 37.2338C36.0085 35.7452 34.7964 34.5331 33.3078 34.5331Z" fill="black"/>
<path d="M33.3081 38.9882C32.3405 38.9882 31.5537 38.2014 31.5537 37.2338C31.5537 36.2662 32.3405 35.4794 33.3081 35.4794C34.2757 35.4794 35.0626 36.2662 35.0626 37.2338C35.0626 38.2014 34.2757 38.9882 33.3081 38.9882ZM33.3081 36.7553C33.045 36.7553 32.8297 36.9706 32.8297 37.2338C32.8297 37.497 33.045 37.7123 33.3081 37.7123C33.5713 37.7123 33.7866 37.497 33.7866 37.2338C33.7866 36.9706 33.5713 36.7553 33.3081 36.7553Z" fill="black"/>
<path d="M40.777 33.6904H38.7913C38.4378 33.6904 38.1533 33.4059 38.1533 33.0524C38.1533 32.6989 38.4378 32.4144 38.7913 32.4144H40.777C41.1305 32.4144 41.415 32.6989 41.415 33.0524C41.415 33.4059 41.1305 33.6904 40.777 33.6904Z" fill="black"/>
<path d="M13.7646 33.1455H15.3729V34.7537H13.7646V33.1455Z" fill="black"/>
<path d="M15.373 31.5372H16.9813V33.1455H15.373V31.5372Z" fill="black"/>
<path d="M16.9814 33.1455H18.5897V34.7537H16.9814V33.1455Z" fill="black"/>
<path d="M18.5889 31.5372H20.1971V33.1455H18.5889V31.5372Z" fill="black"/>
<path d="M20.1973 33.1455H21.8055V34.7537H20.1973V33.1455Z" fill="black"/>
<path d="M21.8027 31.5372H23.411V33.1455H21.8027V31.5372Z" fill="black"/>
<path d="M23.4111 33.1455H25.0194V34.7537H23.4111V33.1455Z" fill="black"/>
<path d="M25.0195 31.5372H26.6278V33.1455H25.0195V31.5372Z" fill="black"/>
<path d="M26.6279 33.1455H28.2362V34.7537H26.6279V33.1455Z" fill="black"/>
<path d="M20.0221 21.4944H14.4717C14.2697 21.4944 14.0783 21.3987 13.9587 21.2366C13.8391 21.0744 13.8018 20.8644 13.863 20.6704L14.4292 18.8255C14.6498 18.1078 15.3037 17.624 16.056 17.624H18.4405C19.1927 17.624 19.8467 18.1078 20.0673 18.8255L20.6335 20.6704C20.692 20.8644 20.6574 21.0744 20.5378 21.2366C20.4155 21.3987 20.2241 21.4944 20.0221 21.4944ZM15.3356 20.2185H19.1582L18.8445 19.1977C18.7887 19.0169 18.6265 18.8973 18.4378 18.8973H16.056C15.8673 18.8973 15.7051 19.0169 15.6493 19.1977L15.3356 20.2185Z" fill="black"/>
<path d="M37.6462 15.1253H30.9209C30.5673 15.1253 30.2829 14.8409 30.2829 14.4873C30.2829 14.1338 30.5673 13.8493 30.9209 13.8493H37.6462C38.1885 13.8493 38.6988 13.6393 39.0816 13.2539L39.1826 13.1529C39.3714 12.9641 39.5202 12.7409 39.6212 12.4936C39.7249 12.2464 39.7754 11.9859 39.7754 11.7174C39.7754 11.2522 39.6133 10.795 39.3182 10.4335C39.2757 10.3803 39.2278 10.3298 39.18 10.282L36.8115 7.91351C36.4287 7.53073 35.9183 7.31807 35.3761 7.31807H16.4309C16.1331 7.31807 15.878 7.11339 15.8088 6.82364L15.4287 5.18351C15.2107 4.2425 14.602 3.43174 13.762 2.95858L12.9778 2.51731V8.28301C12.9752 11.3506 15.4739 13.8493 18.5415 13.8493H26.1786C26.5321 13.8493 26.8166 14.1338 26.8166 14.4873C26.8166 14.8409 26.5321 15.1253 26.1786 15.1253H18.5415C16.7126 15.1253 14.9954 14.4129 13.7035 13.121C12.4116 11.8291 11.6992 10.1092 11.6992 8.28301V1.42478C11.6992 1.19883 11.8188 0.988829 12.0155 0.874525C12.2123 0.760221 12.4542 0.757563 12.6509 0.869209L14.3867 1.84744C15.5377 2.49604 16.3724 3.60718 16.6701 4.89377L16.9386 6.04478H35.3787C36.2612 6.04478 37.0906 6.38769 37.7153 7.01237L40.0838 9.38085C40.1609 9.45794 40.238 9.54301 40.3071 9.62807C40.7882 10.2155 41.0514 10.9572 41.0514 11.7174C41.0514 12.1534 40.9663 12.5787 40.7988 12.9828C40.6314 13.3868 40.3921 13.7457 40.0838 14.054L39.9828 14.155C39.3581 14.7797 38.5287 15.1253 37.6462 15.1253Z" fill="black"/>
<path d="M24.682 17.8978C24.4561 17.8978 24.2488 17.7809 24.1345 17.5868C24.0201 17.3928 24.0148 17.1535 24.1212 16.9568L26.6332 12.3049C26.7448 12.0976 26.9601 11.97 27.1941 11.97H32.1251C32.3351 11.97 32.5345 12.0736 32.6514 12.2491C32.7684 12.4245 32.795 12.6452 32.7179 12.8419C32.6966 12.895 32.1969 14.1417 30.9581 15.3858C30.2298 16.1168 29.3951 16.699 28.4753 17.1163C27.3296 17.632 26.0537 17.8978 24.682 17.8978ZM27.5742 13.2433L25.7879 16.5528C27.4599 16.3454 28.8927 15.649 30.057 14.482C30.4956 14.0434 30.8226 13.6048 31.0565 13.2433H27.5742Z" fill="black"/>
<path d="M39.8131 10.6701H34.3584C33.2845 10.6701 32.2717 10.2581 31.5008 9.51376C30.7326 8.76946 30.2887 7.77262 30.2514 6.70401C30.2381 6.35313 30.5146 6.0554 30.8655 6.04477C31.2164 6.03148 31.5141 6.30794 31.5247 6.65882C31.5779 8.19262 32.8246 9.39414 34.3584 9.39414H39.8131C40.1666 9.39414 40.4511 9.67857 40.4511 10.0321C40.4511 10.3857 40.1666 10.6701 39.8131 10.6701Z" fill="black"/>
<path d="M28.8662 9.64131H27.5345C27.1809 9.64131 26.8965 9.35688 26.8965 9.00333C26.8965 8.64979 27.1809 8.36536 27.5345 8.36536H28.8662C29.2198 8.36536 29.5042 8.64979 29.5042 9.00333C29.5042 9.35688 29.2198 9.64131 28.8662 9.64131Z" fill="black"/>
<path d="M25.3018 9.64131H23.97C23.6165 9.64131 23.332 9.35688 23.332 9.00333C23.332 8.64979 23.6165 8.36536 23.97 8.36536H25.3018C25.6553 8.36536 25.9398 8.64979 25.9398 9.00333C25.9398 9.35688 25.6553 9.64131 25.3018 9.64131Z" fill="black"/>
<path d="M21.7363 9.64131H20.4046C20.051 9.64131 19.7666 9.35688 19.7666 9.00333C19.7666 8.64979 20.051 8.36536 20.4046 8.36536H21.7363C22.0899 8.36536 22.3743 8.64979 22.3743 9.00333C22.3743 9.35688 22.0872 9.64131 21.7363 9.64131Z" fill="black"/>
<path d="M18.1719 9.64131H16.8401C16.4866 9.64131 16.2021 9.35688 16.2021 9.00333C16.2021 8.64979 16.4866 8.36536 16.8401 8.36536H18.1719C18.5254 8.36536 18.8099 8.64979 18.8099 9.00333C18.8099 9.35688 18.5228 9.64131 18.1719 9.64131Z" fill="black"/>
<path d="M9.4715 7.45368H1.58719C1.23365 7.45368 0.949219 7.16925 0.949219 6.81571C0.949219 6.46216 1.23365 6.17773 1.58719 6.17773H9.4715C9.82504 6.17773 10.1095 6.46216 10.1095 6.81571C10.1095 7.16925 9.82504 7.45368 9.4715 7.45368Z" fill="black"/>
<path d="M9.47169 9.97895H4.26688C3.91334 9.97895 3.62891 9.69452 3.62891 9.34098C3.62891 8.98743 3.91334 8.703 4.26688 8.703H9.47169C9.82523 8.703 10.1097 8.98743 10.1097 9.34098C10.1097 9.69452 9.82523 9.97895 9.47169 9.97895Z" fill="black"/>
<path d="M9.4715 12.507H1.58719C1.23365 12.507 0.949219 12.2226 0.949219 11.8691C0.949219 11.5155 1.23365 11.2311 1.58719 11.2311H9.4715C9.82504 11.2311 10.1095 11.5155 10.1095 11.8691C10.1095 12.2226 9.82504 12.507 9.4715 12.507Z" fill="black"/>
</g>
<defs>
<clipPath id="clip0_774_21087">
<rect width="42" height="42" fill="white"/>
</clipPath>
</defs>
</svg>
