<svg width="42" height="42" viewBox="0 0 42 42" fill="none" xmlns="http://www.w3.org/2000/svg">
<path d="M21.0001 5.90624C24.7132 5.90367 28.2965 7.27225 31.0625 9.74941L31.9378 8.77143C28.9298 6.08109 25.0357 4.59375 21.0001 4.59375C16.9645 4.59375 13.0705 6.08109 10.0625 8.77143L10.9378 9.74941C13.7038 7.27222 17.287 5.90364 21.0001 5.90624Z" fill="black"/>
<path d="M21 36.0937C18.8587 36.0928 16.742 35.6368 14.7903 34.7557C12.8387 33.8746 11.0966 32.5887 9.67969 30.9832L8.69531 31.8517C10.2349 33.5974 12.1284 34.9954 14.2499 35.9531C16.3714 36.9107 18.6724 37.406 21 37.406C23.3276 37.406 25.6286 36.9107 27.7501 35.9531C29.8716 34.9954 31.7651 33.5974 33.3047 31.8517L32.3203 30.9832C30.9034 32.5887 29.1613 33.8746 27.2097 34.7557C25.258 35.6367 23.1413 36.0928 21 36.0937Z" fill="black"/>
<path d="M32.0019 19.1398C32.1047 19.7545 32.1563 20.3767 32.1562 20.9999C32.1572 22.1343 31.9846 23.262 31.6443 24.3441C31.4042 24.0429 31.1013 23.7975 30.7569 23.6249C29.8775 23.1805 28.9473 22.8449 27.9868 22.6255C29.1797 21.564 29.9448 20.1041 30.1388 18.5191C30.3328 16.9341 29.9426 15.3327 29.041 14.0148C28.1394 12.6969 26.7884 11.7527 25.2408 11.3591C23.6933 10.9656 22.0553 11.1495 20.6336 11.8766C20.2675 11.5596 19.8291 11.3376 19.3569 11.2302C18.8847 11.1227 18.3934 11.133 17.9261 11.2603C17.4589 11.3875 17.0302 11.6278 16.6777 11.9599C16.3253 12.2919 16.0599 12.7056 15.9051 13.1645C15.4823 13.095 15.0494 13.1182 14.6364 13.2326C14.2234 13.347 13.8403 13.5498 13.5134 13.8269C13.1866 14.104 12.9239 14.4489 12.7435 14.8376C12.5631 15.2263 12.4694 15.6495 12.4688 16.0781C12.4683 16.4668 12.5451 16.8517 12.6946 17.2105C12.6561 17.2308 12.6167 17.2515 12.5769 17.272C12.2088 17.4635 11.7915 17.6805 11.4953 18.0875C11.2013 18.4914 11.1233 18.9544 11.0544 19.3629C11.0295 19.5381 10.9926 19.7113 10.9438 19.8813C10.8858 20.0391 10.8168 20.1926 10.7372 20.3407C10.5492 20.7146 10.3359 21.1387 10.3359 21.6562C10.3359 22.1737 10.5492 22.5977 10.7372 22.9717C10.8168 23.1198 10.8858 23.2733 10.9437 23.4311C10.9925 23.6011 11.0294 23.7743 11.0543 23.9494C11.1232 24.358 11.2013 24.821 11.4953 25.225C11.7915 25.632 12.209 25.849 12.5769 26.0404C12.7341 26.1168 12.8857 26.2042 13.0306 26.3019C13.1657 26.4081 13.2932 26.5237 13.4121 26.6477C13.7088 26.9411 14.0451 27.2734 14.5301 27.4309C14.9981 27.5829 15.4592 27.5147 15.8661 27.4546C16.0446 27.4233 16.2251 27.4045 16.4062 27.3984C16.5874 27.4044 16.7679 27.4232 16.9464 27.4544C16.9847 27.46 17.0233 27.4657 17.0624 27.4713C16.94 27.6704 16.8509 27.888 16.7984 28.1157C16.7373 28.3573 16.7311 28.6095 16.7806 28.8537C16.83 29.098 16.9338 29.3279 17.0841 29.5267C17.6978 30.3216 18.8774 30.5328 19.8927 30.0271C21.0512 29.444 22.3301 29.1405 23.6269 29.1408C24.9238 29.1411 26.2025 29.4452 27.3607 30.0287C27.398 30.0473 27.4355 30.0649 27.4732 30.0815C25.5857 31.4333 23.3217 32.1589 21 32.1562C14.8485 32.1562 9.84375 27.1515 9.84375 20.9999C9.84375 14.8483 14.8485 9.84369 21 9.84369C23.4449 9.8358 25.8235 10.6388 27.7634 12.1269C29.6634 13.5811 31.0497 15.6039 31.7203 17.9006L32.9814 17.5367C32.2321 14.9699 30.6831 12.7092 28.5599 11.0837C26.3916 9.42018 23.7329 8.52252 21 8.53119C14.1247 8.53119 8.53125 14.1247 8.53125 20.9999C8.53125 27.8752 14.1247 33.4687 21 33.4687C24.207 33.471 27.2906 32.2333 29.6061 30.0144C29.8222 29.8904 30.012 29.7253 30.1646 29.5283C30.2297 29.4446 30.2862 29.3546 30.3332 29.2595C32.3555 26.9838 33.4714 24.0444 33.4688 20.9999C33.4689 20.3039 33.4112 19.6091 33.2965 18.9226L32.0019 19.1398ZM30.7945 25.5163C30.8102 25.5697 30.8143 25.6259 30.8067 25.6811C30.7991 25.7363 30.78 25.7893 30.7505 25.8366C30.5264 26.1269 30.0083 26.1838 29.5711 25.9666C27.5217 24.9355 25.1714 24.6705 22.9439 25.2193L22.9317 25.22V25.2223C22.2377 25.394 21.5653 25.6434 20.9272 25.9659C20.4893 26.1841 19.9707 26.1273 19.745 25.835C19.7159 25.7878 19.6971 25.735 19.6897 25.6801C19.6824 25.6252 19.6866 25.5693 19.7023 25.5161C19.7515 25.2966 19.9429 24.9922 20.3321 24.7959C21.8572 24.0281 23.541 23.6281 25.2485 23.6281C26.956 23.6281 28.6398 24.0281 30.1649 24.7959C30.5538 24.9923 30.7453 25.2967 30.7945 25.5163ZM28.875 17.7187C28.8768 18.6686 28.6202 19.6011 28.1326 20.4163C27.6449 21.2315 26.9447 21.8987 26.1069 22.3463C24.7973 22.2546 23.4816 22.3733 22.2096 22.6978C22.3753 22.3749 22.4665 22.019 22.4766 21.6562C22.4766 21.1387 22.2633 20.7147 22.0753 20.3407C21.9957 20.1926 21.9267 20.0391 21.8688 19.8813C21.8406 19.7904 21.8179 19.698 21.8009 19.6044C22.2361 20.0248 22.8033 20.2819 23.4063 20.3321C24.0094 20.3822 24.6112 20.2224 25.1099 19.8796C25.6086 19.5368 25.9735 19.0322 26.1428 18.4512C26.3121 17.8703 26.2753 17.2486 26.0388 16.6917C25.8022 16.1347 25.3804 15.6766 24.8448 15.395C24.3092 15.1134 23.6927 15.0255 23.0998 15.1464C22.5068 15.2673 21.9739 15.5894 21.5912 16.0581C21.2085 16.5269 20.9997 17.1136 21 17.7187C21 17.7288 21 17.7389 21 17.749C20.764 17.5617 20.5075 17.4017 20.2355 17.2721C20.0783 17.1957 19.9266 17.1083 19.7817 17.0106C19.7395 16.9798 19.6965 16.9445 19.6527 16.9058C20.0376 16.775 20.3914 16.5663 20.6919 16.2925C20.9923 16.0188 21.2331 15.6859 21.399 15.3149C21.5649 14.9438 21.6524 14.5424 21.6561 14.136C21.6597 13.7295 21.5794 13.3267 21.4202 12.9527C22.1107 12.6316 22.8635 12.4663 23.625 12.4687C25.0169 12.4703 26.3514 13.0239 27.3356 14.0081C28.3198 14.9923 28.8734 16.3268 28.875 17.7187ZM22.3125 17.7187C22.3125 17.4591 22.3895 17.2053 22.5337 16.9895C22.6779 16.7737 22.8829 16.6054 23.1227 16.5061C23.3626 16.4068 23.6265 16.3808 23.8811 16.4314C24.1357 16.4821 24.3695 16.6071 24.5531 16.7906C24.7366 16.9742 24.8616 17.208 24.9123 17.4626C24.9629 17.7172 24.9369 17.9811 24.8376 18.221C24.7383 18.4608 24.57 18.6658 24.3542 18.81C24.1383 18.9542 23.8846 19.0312 23.625 19.0312C23.277 19.0308 22.9434 18.8924 22.6974 18.6463C22.4513 18.4003 22.3129 18.0667 22.3125 17.7187ZM18.7031 12.4687C19.0276 12.4687 19.3448 12.5649 19.6146 12.7452C19.8844 12.9255 20.0947 13.1817 20.2189 13.4815C20.343 13.7813 20.3755 14.1111 20.3122 14.4294C20.2489 14.7476 20.0927 15.04 19.8632 15.2694C19.6338 15.4989 19.3414 15.6551 19.0232 15.7184C18.7049 15.7817 18.3751 15.7492 18.0753 15.6251C17.7755 15.5009 17.5193 15.2906 17.339 15.0208C17.1587 14.751 17.0625 14.4338 17.0625 14.1093C17.063 13.6743 17.236 13.2573 17.5436 12.9498C17.8511 12.6422 18.2682 12.4692 18.7031 12.4687ZM15.4219 14.4374C15.5398 14.4373 15.6573 14.4498 15.7726 14.4747C15.8238 14.8826 15.9595 15.2753 16.1712 15.6278C16.3828 15.9803 16.6656 16.2847 17.0016 16.5217C16.919 16.8157 16.756 17.0808 16.5309 17.2872C16.3059 17.4936 16.0277 17.6331 15.7276 17.69C15.4276 17.7469 15.1177 17.7189 14.8327 17.6092C14.5477 17.4995 14.299 17.3124 14.1145 17.069C13.9301 16.8257 13.8172 16.5357 13.7886 16.2316C13.76 15.9276 13.8169 15.6216 13.9527 15.3481C14.0886 15.0746 14.2981 14.8445 14.5576 14.6836C14.8172 14.5227 15.1165 14.4375 15.4219 14.4374ZM16.4062 26.0859C16.1608 26.091 15.916 26.1144 15.674 26.156C15.3843 26.1988 15.1108 26.2394 14.9358 26.1824C14.7471 26.1211 14.5468 25.9235 14.3351 25.7141C14.1702 25.5429 13.9924 25.3847 13.8032 25.2406C13.606 25.1035 13.3985 24.9815 13.1827 24.8758C12.9198 24.7391 12.6713 24.6099 12.5569 24.4526C12.4445 24.2982 12.398 24.0226 12.3488 23.7308C12.3143 23.492 12.262 23.2562 12.1924 23.0253C12.115 22.8039 12.0206 22.5887 11.9102 22.3818C11.7754 22.1147 11.6484 21.8623 11.6484 21.6562C11.6484 21.45 11.7754 21.1976 11.9099 20.9302C12.0204 20.7233 12.1147 20.5081 12.1921 20.2867C12.2617 20.0557 12.314 19.8199 12.3486 19.5812C12.3978 19.2895 12.4441 19.0141 12.5565 18.8593C12.6714 18.7021 12.9194 18.5729 13.1824 18.4361C13.2752 18.3879 13.3694 18.3389 13.4634 18.2862C13.8109 18.5948 14.2265 18.817 14.6761 18.9346C15.1258 19.0523 15.5969 19.062 16.0511 18.9631C16.5052 18.8641 16.9296 18.6593 17.2896 18.3653C17.6496 18.0713 17.9351 17.6964 18.1228 17.2712C18.247 17.3733 18.3655 17.4823 18.4775 17.5978C18.6425 17.7689 18.8203 17.9272 19.0093 18.0713C19.2067 18.2085 19.4141 18.3305 19.6299 18.4361C19.8929 18.5729 20.1414 18.7021 20.2558 18.8593C20.3682 19.0138 20.4146 19.2893 20.4638 19.5812C20.4984 19.8199 20.5506 20.0557 20.6203 20.2867C20.6977 20.5081 20.792 20.7233 20.9025 20.9302C21.0371 21.1976 21.1641 21.45 21.1641 21.6562C21.1641 21.8623 21.0371 22.1148 20.9026 22.3822C20.7921 22.5891 20.6978 22.8042 20.6204 23.0256C20.5976 23.0958 20.577 23.1686 20.5576 23.2486C20.2815 23.3634 20.0092 23.4887 19.7405 23.6244C19.064 23.9656 18.5711 24.565 18.4218 25.2277C18.378 25.418 18.3645 25.614 18.3819 25.8084C18.2054 25.9807 18.0374 26.1304 17.8771 26.1824C17.7018 26.2393 17.4283 26.1988 17.1388 26.156C16.8967 26.1144 16.6518 26.0909 16.4062 26.0859ZM27.9496 28.8555C26.6087 28.1803 25.1283 27.8285 23.627 27.8282C22.1257 27.8279 20.6451 28.1791 19.3039 28.8538C18.866 29.072 18.3474 29.0153 18.1218 28.7225C18.0927 28.6753 18.0738 28.6225 18.0665 28.5676C18.0591 28.5126 18.0633 28.4567 18.0789 28.4035C18.1282 28.1841 18.3196 27.8797 18.7088 27.6834C18.9994 27.5364 19.2989 27.4016 19.6029 27.2809C19.9151 27.3869 20.2454 27.4289 20.5742 27.4044C20.903 27.3799 21.2234 27.2894 21.5165 27.1384C22.0346 26.8765 22.5791 26.6703 23.1407 26.5232C23.5084 26.5069 23.8767 26.5092 24.2443 26.5299C25.7412 26.6126 27.2046 27.0055 28.5418 27.6834C28.9305 27.8797 29.1218 28.1838 29.1712 28.4037C29.1843 28.4596 29.1885 28.5172 29.1834 28.5744C29.0724 28.6943 28.9589 28.8116 28.8428 28.9265C28.6967 28.9751 28.5424 28.9938 28.389 28.9816C28.2356 28.9694 28.0861 28.9265 27.9496 28.8555Z" fill="black"/>
<path d="M39.375 3.28125V9.84375H37.4062V3.28125H36.0938V9.84375H34.125V3.28125H32.8125V14.1094C32.8132 14.6512 33.0052 15.1755 33.3546 15.5897C33.704 16.0038 34.1884 16.2814 34.7224 16.3734L34.1293 35.9443C34.1265 35.9935 34.125 36.0435 34.125 36.0936C34.125 36.7898 34.4016 37.4575 34.8938 37.9497C35.3861 38.442 36.0538 38.7186 36.75 38.7186C37.4462 38.7186 38.1139 38.442 38.6062 37.9497C39.0984 37.4575 39.375 36.7898 39.375 36.0936C39.375 36.0435 39.3735 35.9937 39.3707 35.9443L39.2355 31.4801L37.9237 31.5199L38.0592 35.9933C38.0592 35.9999 38.0597 36.0065 38.0601 36.013C38.0617 36.0397 38.0626 36.0667 38.0626 36.0938C38.0626 36.4418 37.9243 36.7757 37.6782 37.0218C37.432 37.268 37.0982 37.4062 36.7501 37.4062C36.402 37.4062 36.0681 37.268 35.822 37.0218C35.5759 36.7757 35.4376 36.4418 35.4376 36.0938C35.4376 36.0667 35.4385 36.0397 35.44 36.013C35.4405 36.0065 35.4408 35.9999 35.4409 35.9933L36.0344 16.4062H37.4656L37.8839 30.2074L39.1958 30.1676L38.7774 16.3736C39.3115 16.2816 39.7959 16.0041 40.1454 15.5898C40.4948 15.1756 40.6868 14.6513 40.6875 14.1094V3.28125H39.375ZM39.375 14.1094C39.3747 14.3704 39.2709 14.6206 39.0864 14.8051C38.9018 14.9897 38.6516 15.0935 38.3906 15.0938H35.1094C34.8484 15.0935 34.5982 14.9897 34.4136 14.8051C34.2291 14.6206 34.1253 14.3704 34.125 14.1094V11.1562H39.375V14.1094Z" fill="black"/>
<path d="M7.25566 15.6468C8.52715 14.555 9.37502 12.3902 9.37502 9.84375C9.37502 6.16383 7.6043 3.28125 5.34376 3.28125C3.08323 3.28125 1.3125 6.16383 1.3125 9.84375C1.3125 12.2664 2.07998 14.3435 3.24942 15.48L3.10259 20.3239L4.41443 20.3636L4.53821 16.2806C4.99963 16.4282 5.49275 16.4461 5.96367 16.3324L6.55946 35.9933C6.55946 35.9998 6.55996 36.0064 6.56037 36.013C6.56193 36.0396 6.56283 36.0666 6.56283 36.0937C6.56283 36.4418 6.42455 36.7756 6.17841 37.0217C5.93226 37.2679 5.59842 37.4062 5.25033 37.4062C4.90223 37.4062 4.56839 37.2679 4.32225 37.0217C4.07611 36.7756 3.93783 36.4418 3.93783 36.0937C3.93783 36.0666 3.93873 36.0396 3.94029 36.013C3.94029 36.0064 3.94103 35.9998 3.94119 35.9933L4.37497 21.676L3.06313 21.6363L2.62927 35.9445C2.62648 35.9937 2.625 36.0437 2.625 36.0938C2.625 36.7899 2.90156 37.4576 3.39384 37.9499C3.88613 38.4422 4.55381 38.7188 5.25 38.7188C5.94619 38.7188 6.61387 38.4422 7.10616 37.9499C7.59844 37.4576 7.875 36.7899 7.875 36.0938C7.875 36.0437 7.87352 35.9938 7.87073 35.9445L7.25566 15.6468ZM2.625 9.84375C2.625 6.70335 4.03077 4.59375 5.34376 4.59375C6.65675 4.59375 8.06252 6.70335 8.06252 9.84375C8.06252 12.9842 6.65667 15.0938 5.34376 15.0938C4.03085 15.0938 2.625 12.9842 2.625 9.84375Z" fill="black"/>
<path d="M13.8154 20.1362L13.1592 22.105L14.4044 22.52L15.0606 20.5513L13.8154 20.1362Z" fill="black"/>
<path d="M17.5117 23.0024L15.543 23.6587L15.958 24.9038L17.9268 24.2476L17.5117 23.0024Z" fill="black"/>
<path d="M17.4263 19.7977L16.6982 20.8898L18.667 22.2022L19.395 21.1102L17.4263 19.7977Z" fill="black"/>
</svg>
