<svg width="42" height="42" viewBox="0 0 42 42" fill="none" xmlns="http://www.w3.org/2000/svg">
<path d="M40.2773 35.4244H35.1332V33.769H36.3587C37.7221 33.769 38.832 32.6599 38.832 31.2958V26.8923C38.832 25.6971 37.9796 24.6972 36.8509 24.4683V22.3978C36.8509 21.014 35.7246 19.8877 34.3407 19.8877H20.096C18.7121 19.8877 17.5859 21.014 17.5859 22.3978V24.4683C17.2175 24.5429 16.8787 24.6996 16.5892 24.9186V12.002H17.8303V15.4933C17.8303 15.7648 18.051 15.9854 18.3225 15.9854C18.594 15.9854 18.8147 15.7648 18.8147 15.4933V12.002H20.1165C20.2658 12.002 20.4077 11.9339 20.5012 11.8174C20.5948 11.7009 20.63 11.5475 20.5972 11.4015L18.9574 4.12536C18.9066 3.9006 18.7072 3.74146 18.4775 3.74146H13.7164C13.4859 3.74146 13.2866 3.9006 13.2366 4.12536L11.5968 11.4024C11.5639 11.5484 11.5992 11.7009 11.6927 11.8183C11.7862 11.9347 11.9273 12.0028 12.0775 12.0028H15.6056V26.8931V31.2966C15.6056 32.6599 16.7147 33.7698 18.0789 33.7698H19.3044V35.4252H14.4596V26.195C14.4596 25.9235 14.239 25.7029 13.9675 25.7029H10.943L12.4491 22.0459C12.5114 21.8941 12.4942 21.7211 12.4031 21.5849C12.3121 21.4487 12.1587 21.3667 11.9938 21.3667H11.8814C12.098 21.2059 12.3022 21.0271 12.4909 20.8269C13.4285 19.8335 13.8731 18.4849 13.7123 17.1265C13.6845 16.8902 13.4909 16.7073 13.253 16.6934C12.3121 16.6368 11.3974 16.864 10.6091 17.3398C10.3614 16.4563 9.85113 15.659 9.12926 15.0552C8.94633 14.9026 8.68055 14.9026 8.49762 15.0552C7.77574 15.659 7.26551 16.4563 7.01777 17.3398C6.22863 16.8648 5.3148 16.6368 4.37391 16.6934C4.13602 16.7073 3.94242 16.8902 3.91453 17.1265C3.75375 18.4841 4.19836 19.8335 5.13598 20.8269C5.32465 21.0263 5.52891 21.2059 5.74547 21.3667H5.63309C5.46902 21.3667 5.31563 21.4487 5.22375 21.5849C5.13188 21.7211 5.11547 21.8941 5.17781 22.0459L6.68391 25.7029H3.66023C3.38871 25.7029 3.16805 25.9235 3.16805 26.195V35.4244H1.72266C1.45113 35.4244 1.23047 35.645 1.23047 35.9166V37.7656C1.23047 38.0371 1.45113 38.2577 1.72266 38.2577H40.2773C40.5489 38.2577 40.7695 38.0371 40.7695 37.7656V35.9166C40.7695 35.645 40.5489 35.4244 40.2773 35.4244ZM14.1102 4.72665H18.0838L19.5013 11.0184H12.6919L14.1102 4.72665ZM34.1488 35.4244H33.431L32.2227 33.769H34.1496V35.4244H34.1488ZM31.0037 33.769L32.212 35.4244H22.2247L23.433 33.769H31.0037ZM20.096 20.8737H34.3416C35.1824 20.8737 35.8673 21.5578 35.8673 22.3995V24.4699C34.7386 24.6988 33.8863 25.6988 33.8863 26.894V28.8242H20.5513V26.894C20.5513 25.6988 19.699 24.6988 18.5702 24.4699V22.3995C18.5702 21.5578 19.2544 20.8737 20.096 20.8737ZM16.5892 31.2966V26.8931C16.5892 26.072 17.2569 25.4043 18.078 25.4043C18.8992 25.4043 19.5669 26.072 19.5669 26.8931V29.3155C19.5669 29.587 19.7876 29.8077 20.0591 29.8077H34.3785C34.65 29.8077 34.8707 29.587 34.8707 29.3155V26.8931C34.8707 26.072 35.5384 25.4043 36.3595 25.4043C37.1807 25.4043 37.8484 26.072 37.8484 26.8931V31.2966C37.8484 32.1177 37.1807 32.7854 36.3595 32.7854H18.078C17.2569 32.7846 16.5892 32.1169 16.5892 31.2966ZM20.288 33.769H22.2149L21.0066 35.4244H20.2888V33.769H20.288ZM12.76 17.6753C12.7591 18.5924 12.4113 19.4767 11.7748 20.1518C11.2826 20.6735 10.6542 21.0295 9.97254 21.1895C10.4943 20.4315 10.7805 19.5267 10.7805 18.585C10.7805 18.5284 10.7781 18.4718 10.7756 18.416C11.3507 17.9731 12.0373 17.7171 12.76 17.6753ZM8.81344 16.1077C9.4418 16.7754 9.79535 17.6564 9.79535 18.585C9.79535 19.5128 9.4418 20.3946 8.81344 21.0624C8.18508 20.3946 7.83152 19.5136 7.83152 18.585C7.83152 17.6564 8.18508 16.7754 8.81344 16.1077ZM4.86691 17.6753C5.58961 17.7171 6.27703 17.9731 6.85125 18.416C6.84879 18.4726 6.84633 18.5284 6.84633 18.585C6.84633 19.5275 7.13262 20.4315 7.65434 21.1895C6.97184 21.0295 6.3443 20.6735 5.85129 20.151C5.21555 19.4759 4.86773 18.5924 4.86691 17.6753ZM6.36891 22.3511H11.2588L9.8782 25.7037H7.74949L6.36891 22.3511ZM13.4753 26.6872V31.5984H4.15242V26.6872H13.4753ZM4.15242 32.5828H13.4753V35.4244H4.15242V32.5828ZM39.7852 37.2734H2.21484V36.4088H39.7852V37.2734ZM6.9743 29.1432C6.9743 28.8717 7.19496 28.6511 7.46648 28.6511H10.1604C10.4319 28.6511 10.6526 28.8717 10.6526 29.1432C10.6526 29.4148 10.4319 29.6354 10.1604 29.6354H7.46648C7.19496 29.6354 6.9743 29.4148 6.9743 29.1432Z" fill="black"/>
</svg>
