<svg width="42" height="42" viewBox="0 0 42 42" fill="none" xmlns="http://www.w3.org/2000/svg">
<g clip-path="url(#clip0_774_21266)">
<path d="M40.6362 34.3527C40.2399 34.1332 39.7408 34.2763 39.5211 34.6726C38.3345 36.8142 36.0783 38.1445 33.6328 38.1445H27.077C27.5356 37.829 27.9684 37.4708 28.368 37.0712C30.4669 34.9722 31.4369 31.9659 30.9627 29.0291C30.9063 28.68 30.6327 28.4063 30.2836 28.35C28.2124 28.0155 26.1069 28.4004 24.3089 29.3922C23.7683 27.5331 22.6607 25.9001 21.1106 24.6914H33.6328C36.1357 24.6914 38.4168 26.0677 39.5861 28.2834C39.7331 28.562 40.0177 28.721 40.3123 28.721C40.4413 28.721 40.5723 28.6905 40.6944 28.626C41.0951 28.4146 41.2485 27.9184 41.037 27.5177C39.9315 25.4227 38.0261 23.9321 35.808 23.3376C37.1821 22.2237 38.0625 20.5236 38.0625 18.6211C38.0625 15.2739 35.3394 12.5508 31.9922 12.5508H30.4961C31.2227 11.7151 31.6641 10.6253 31.6641 9.43359C31.6641 6.81015 29.5297 4.67578 26.9062 4.67578H22.7509C20.1274 4.67578 17.9931 6.81015 17.9931 9.43359C17.9931 10.6253 18.4345 11.7151 19.161 12.5508H17.9287C16.3857 12.5508 14.9272 13.1283 13.8129 14.1587L11.9762 11.8489C11.8206 11.6534 11.5846 11.5394 11.3348 11.5392C11.3346 11.5392 11.3343 11.5392 11.3341 11.5392C11.0846 11.5392 10.8486 11.6527 10.693 11.8478L8.03135 15.1947C6.80884 16.7321 6.82041 18.8814 7.99378 20.3986H6.49909C6.36759 20.3986 6.23798 20.4303 6.12134 20.4908C2.34552 22.4497 0 26.3067 0 30.5566C0 32.3686 0.415078 34.1003 1.23367 35.7035C2.01403 37.232 3.15336 38.5865 4.52862 39.6204C4.6707 39.7274 4.84378 39.7852 5.02163 39.7852H33.6328C36.6744 39.7852 39.4807 38.1308 40.9562 35.4679C41.1758 35.0716 41.0325 34.5723 40.6362 34.3527ZM17.296 32.1048C18.8794 33.6881 19.6821 35.8994 19.5042 38.1193C17.2851 38.2967 15.0731 37.4944 13.4898 35.9111C11.9065 34.3277 11.1038 32.1164 11.2816 29.8965C13.5009 29.7188 15.7127 30.5214 17.296 32.1048ZM29.4161 29.8965C29.5938 32.1165 28.7912 34.3278 27.2078 35.9111C25.6245 37.4944 23.4142 38.2974 21.1933 38.1193C21.0156 35.8993 21.8183 33.688 23.4015 32.1048C24.9848 30.5214 27.1955 29.7191 29.4161 29.8965ZM22.8651 30.3761C22.6496 30.5552 22.4413 30.7448 22.2414 30.9447C21.4399 31.7463 20.8035 32.6805 20.3488 33.6924C19.8941 32.6805 19.2578 31.7463 18.4562 30.9447C18.2556 30.7442 18.0466 30.5541 17.8303 30.3744C18.1853 28.7328 19.0633 27.2728 20.3479 26.1845C21.6334 27.2735 22.5107 28.7337 22.8651 30.3761ZM19.6337 9.43359C19.6337 7.71479 21.0321 6.31641 22.7509 6.31641H26.9062C28.6251 6.31641 30.0234 7.71479 30.0234 9.43359C30.0234 11.1524 28.6251 12.5508 26.9062 12.5508H22.7509C21.0321 12.5508 19.6337 11.1524 19.6337 9.43359ZM31.9922 14.1914C34.4347 14.1914 36.4219 16.1786 36.4219 18.6211C36.4219 21.0636 34.4347 23.0508 31.9922 23.0508H19.8254C18.9025 22.007 17.7927 21.1372 16.5467 20.4907C16.43 20.4301 16.3003 20.3985 16.1689 20.3985H14.6744C15.7824 18.9656 15.8535 16.9697 14.8284 15.4572C15.653 14.6474 16.7575 14.1914 17.9287 14.1914H31.9922ZM9.31539 16.2158L11.334 13.6773L13.3526 16.2158C14.1693 17.2427 14.0855 18.7167 13.1576 19.6446C12.8659 19.9362 12.5212 20.1427 12.1543 20.2651V17.7064C12.1543 17.2535 11.787 16.8861 11.334 16.8861C10.881 16.8861 10.5137 17.2535 10.5137 17.7064V20.2651C10.1468 20.1426 9.80191 19.9361 9.51038 19.6446C8.58244 18.7168 8.49868 17.2427 9.31539 16.2158ZM1.64062 30.5566C1.64062 26.9871 3.57525 23.7416 6.70343 22.0391H15.9644C17.2704 22.7505 18.394 23.7517 19.2516 24.9637C17.8768 26.1399 16.8888 27.6689 16.3874 29.3915C14.5898 28.4001 12.4848 28.0155 10.414 28.35C10.065 28.4064 9.79133 28.6799 9.73498 29.029C9.26067 31.9658 10.2306 34.9722 12.3296 37.0712C12.7292 37.4708 13.162 37.829 13.6206 38.1445H5.3016C2.97125 36.2928 1.64062 33.5426 1.64062 30.5566Z" fill="black"/>
<path d="M6.72118 9.01753C6.40084 9.33786 6.40084 9.85729 6.72118 10.1777C6.88138 10.3378 7.09122 10.418 7.30122 10.418C7.51122 10.418 7.72106 10.3378 7.88126 10.1777C9.10574 8.95314 9.10574 6.96084 7.88126 5.73628C7.29646 5.15148 7.29646 4.19992 7.88126 3.6152C8.20159 3.29487 8.20159 2.77545 7.88126 2.45503C7.56085 2.13478 7.04159 2.13478 6.72109 2.45503C5.49661 3.67959 5.49661 5.67189 6.72109 6.89645C7.30598 7.48125 7.30598 8.43281 6.72118 9.01753Z" fill="black"/>
<path d="M2.34416 12.2987C2.02383 12.6191 2.02383 13.1385 2.34416 13.4589C2.50437 13.619 2.71429 13.6992 2.9242 13.6992C3.13412 13.6992 3.34404 13.619 3.50425 13.4589C4.72873 12.2343 4.72873 10.2421 3.50425 9.01757C2.91945 8.43269 2.91945 7.48121 3.50425 6.89633C3.82458 6.576 3.82458 6.05666 3.50417 5.73624C3.18392 5.41583 2.66441 5.41591 2.34408 5.73632C1.11968 6.9608 1.11968 8.9531 2.34408 10.1777C2.92896 10.7625 2.92896 11.714 2.34416 12.2987Z" fill="black"/>
<path d="M41.7596 30.9199C41.6071 30.7673 41.3954 30.6796 41.1797 30.6796C40.9639 30.6796 40.7523 30.7673 40.5997 30.9199C40.4471 31.0726 40.3594 31.2842 40.3594 31.5C40.3594 31.7157 40.4471 31.9273 40.5997 32.0798C40.7523 32.2324 40.9639 32.3203 41.1797 32.3203C41.3954 32.3203 41.6071 32.2325 41.7596 32.0798C41.9122 31.9273 42 31.7157 42 31.5C42 31.2842 41.9122 31.0726 41.7596 30.9199Z" fill="black"/>
</g>
<defs>
<clipPath id="clip0_774_21266">
<rect width="42" height="42" fill="white"/>
</clipPath>
</defs>
</svg>
