<svg width="42" height="42" viewBox="0 0 42 42" fill="none" xmlns="http://www.w3.org/2000/svg">
<path d="M31.4974 3.27997V19.0312C30.7637 19.0312 30.1878 19.6254 30.1874 20.3412L30.185 26.2513H3.93878C2.47051 26.2513 1.3125 27.4347 1.3125 28.8776V35.4362C1.3125 36.8791 2.4754 38.0625 3.93878 38.0625H4.59247V40.0287C4.59108 40.3931 4.88686 40.6889 5.25129 40.6875H9.84377C10.2062 40.6861 10.5014 40.3911 10.5 40.0287V38.0625H31.4974V40.0287C31.4961 40.3936 31.7926 40.6896 32.1576 40.6875H36.7487C37.1137 40.6896 37.4102 40.3936 37.4088 40.0287V38.0625H38.0625C39.5308 38.0625 40.6875 36.8791 40.6875 35.4362V28.8776C40.6875 27.4347 39.531 26.2513 38.0625 26.2513H36.7487V20.3412C36.7487 19.6254 36.1687 19.0312 35.4375 19.0312L35.4362 3.27997C35.4361 2.20063 34.5647 1.3125 33.47 1.3125C32.3752 1.3125 31.4974 2.20063 31.4974 3.27997ZM33.47 2.62628C33.8269 2.62628 34.1236 2.90506 34.1236 3.27997L34.1249 19.0312H32.8124L32.8111 3.27997C32.8111 2.90506 33.113 2.62628 33.47 2.62628ZM14.804 8.73376C10.3053 8.73376 5.9936 10.5471 2.81463 13.7633C2.17466 14.3611 3.15882 15.335 3.74901 14.6836C6.68367 11.7146 10.657 10.0475 14.804 10.0475C18.9514 10.0475 22.9294 11.7141 25.8641 14.6836C26.4583 15.3394 27.4334 14.3563 26.7985 13.7633C23.6195 10.5466 19.3031 8.73376 14.804 8.73376ZM14.804 12.8622C11.3857 12.8622 8.11208 14.2358 5.69725 16.6793C5.01881 17.2563 6.07396 18.2621 6.62652 17.5995C8.79702 15.4033 11.7374 14.1696 14.804 14.1696C17.8703 14.1696 20.8111 15.4037 22.9815 17.5995C23.5834 18.2347 24.5398 17.2892 23.9172 16.6793C21.5024 14.2362 18.2219 12.8622 14.804 12.8622ZM14.804 16.9843C12.4668 16.9843 10.2304 17.9202 8.5799 19.5901C7.94268 20.178 8.91278 21.1673 9.50915 20.5155C10.9154 19.0928 12.8185 18.2968 14.804 18.2968C16.7898 18.2968 18.6977 19.0925 20.104 20.5155C20.7131 21.1577 21.6656 20.1966 21.0384 19.5901C19.3878 17.9199 17.1415 16.9843 14.804 16.9843ZM31.4999 20.3438H35.4362V26.2513H31.4974L31.4999 20.3438ZM14.804 21.1064C13.5471 21.1064 12.3438 21.6101 11.4574 22.5073C10.8131 23.1302 11.7751 24.083 12.3918 23.4327C13.0339 22.7828 13.8988 22.4202 14.804 22.4202C15.7087 22.4202 16.5794 22.7834 17.2214 23.4327C17.8381 24.0784 18.7942 23.1276 18.1519 22.5073C17.2656 21.611 16.0603 21.1064 14.804 21.1064ZM3.93871 27.5651H38.0624C38.8009 27.5651 39.3749 28.1493 39.3749 28.8776V35.4362C39.3749 36.1747 38.7828 36.7487 38.0624 36.7487H3.93871C3.21049 36.7487 2.62622 36.1747 2.62622 35.4362V28.8776C2.62622 28.1493 3.20024 27.5651 3.93871 27.5651ZM7.21612 28.8776C6.12121 28.8776 5.24993 29.7642 5.24993 30.8438C5.24993 31.9233 6.12208 32.8112 7.21612 32.8112C8.31016 32.8112 9.18871 31.9233 9.18871 30.8438C9.18871 29.7642 8.31103 28.8776 7.21612 28.8776ZM12.4725 28.8776C11.3676 28.8776 10.4999 29.7642 10.4999 30.8438C10.4999 31.9233 11.3802 32.8112 12.4725 32.8112C13.5649 32.8112 14.4387 31.9233 14.4387 30.8438C14.4387 29.7642 13.5774 28.8776 12.4725 28.8776ZM17.7212 28.8776C16.6236 28.8776 15.7487 29.7642 15.7487 30.8438C15.7487 31.9233 16.6289 32.8112 17.7212 32.8112C18.8136 32.8112 19.6874 31.9233 19.6874 30.8438C19.6874 29.7642 18.8189 28.8776 17.7212 28.8776ZM7.21612 30.1849C7.56582 30.1849 7.87621 30.4735 7.87621 30.8438C7.87621 31.214 7.57095 31.4974 7.21612 31.4974C6.86129 31.4974 6.56243 31.214 6.56243 30.8438C6.56243 30.4735 6.86642 30.1849 7.21612 30.1849ZM12.4725 30.1849C12.8246 30.1849 13.1262 30.4735 13.1262 30.8438C13.1262 31.214 12.8274 31.4974 12.4725 31.4974C12.1177 31.4974 11.8124 31.214 11.8124 30.8438C11.8124 30.4735 12.1204 30.1849 12.4725 30.1849ZM17.7212 30.1849C18.0661 30.1849 18.3749 30.4735 18.3749 30.8438C18.3749 31.214 18.0786 31.4974 17.7212 31.4974C17.3639 31.4974 17.0612 31.214 17.0612 30.8438C17.0612 30.4735 17.3764 30.1849 17.7212 30.1849ZM21.6536 30.1849C20.7976 30.1849 20.7976 31.4974 21.6536 31.4974H27.565C28.421 31.4974 28.421 30.1849 27.565 30.1849H21.6536ZM30.5143 30.1849C29.6583 30.1849 29.6583 31.4974 30.5143 31.4974H32.1575C33.0135 31.4974 33.0135 30.1849 32.1575 30.1849H30.5143ZM5.9049 38.0625H9.18743V39.375H5.9049V38.0625ZM32.8124 38.0625H36.0937V39.375H32.8124V38.0625Z" fill="black"/>
</svg>
