<svg width="60" height="31" viewBox="0 0 60 31" fill="none" xmlns="http://www.w3.org/2000/svg">
<line x1="4.23885e-10" y1="30.5001" x2="60" y2="30.5001" stroke="black"/>
<path d="M46.9042 14.1993C47.0111 14.7143 46.8861 15.2407 46.5665 15.6388C46.0061 16.3308 45.0887 16.791 44.1929 17.2328L44.0883 17.2846L43.239 17.6237C40.3108 18.4996 37.3029 19.3169 34.1785 20.0845C29.8916 21.1377 25.3855 22.0948 20.5632 22.9861C20.3188 23.0266 20.0796 22.9289 19.9329 22.7301L16.6092 18.1207C16.49 17.9543 16.4617 17.733 16.5301 17.5336C16.6062 17.3388 16.7712 17.1874 16.9741 17.1375L18.8931 16.6661C19.053 16.6268 19.2295 16.6552 19.3674 16.7387L22.3646 18.5588L28.875 16.5484L24.4748 10.3187C24.3542 10.1462 24.3259 9.92484 24.3958 9.73158C24.4704 9.53066 24.6369 9.38541 24.8398 9.33554L26.7219 8.87315C27.3984 8.70694 28.1167 8.84349 28.6941 9.25597L35.6714 14.4547L41.8234 12.552C42.0541 12.4823 42.2985 12.4418 42.5566 12.4305C44.1281 12.4031 45.2226 12.5842 46.0181 13.0083C46.4748 13.2483 46.7972 13.6843 46.9042 14.1993Z" fill="black"/>
</svg>
