<svg width="173" height="47" viewBox="0 0 173 47" fill="none" xmlns="http://www.w3.org/2000/svg">
<g clip-path="url(#clip0_31_160)">
<rect x="0.214355" y="0.214355" width="46.2857" height="46.2857" rx="23.1429" fill="#FEFA17"/>
<g clip-path="url(#clip1_31_160)">
<path d="M46.5004 46.4996H1.66113C3.62728 45.5291 5.51178 44.3945 7.29547 43.1073C10.6518 40.6854 15.2078 38.2557 20.4473 37.79C29.3544 36.9982 40.3877 43.5498 46.5004 46.4996Z" fill="black"/>
<path d="M24.0764 31.4013C22.178 26.8447 18.7609 24.8652 16.9537 24.6867C16.4359 24.6525 15.9168 24.7272 15.4283 24.9061C14.9399 25.085 14.4925 25.3643 14.1138 25.7269C14.3989 25.3735 14.7085 25.0414 15.0402 24.7333C14.5618 24.2908 13.9999 23.8639 13.9999 23.8639C14.501 24.1045 15.0478 24.4228 15.2452 24.547C15.7641 24.0843 16.3176 23.6639 16.9006 23.2894C16.4014 22.8769 15.8763 22.4983 15.3287 22.1561C16.0156 22.3886 16.6792 22.6876 17.3106 23.0488C18.0936 22.5903 18.9083 22.1908 19.7481 21.8534C19.4209 21.5751 19.0787 21.3159 18.723 21.0771C19.2143 21.2541 19.6916 21.4695 20.1505 21.7214C21.0545 21.3711 21.9805 21.0833 22.9222 20.8598C18.2598 19.5323 14.6149 21.015 13.3392 22.3579C12.8211 22.9118 12.4933 23.6229 12.4052 24.384C11.8489 23.0883 10.8764 22.0257 9.64882 21.3721C6.86962 20.1844 4.09041 22.5132 4.09041 22.5132C5.24542 22.2849 6.44118 22.4258 7.51506 22.9168L8.54777 22.226L7.84917 23.0721C8.94252 23.6491 9.93127 24.4131 10.7726 25.331C10.0732 24.8929 9.24543 24.7198 8.43386 24.842C6.63422 25.1447 3.36144 27.3648 1.77441 32.0456C2.47313 31.4014 3.21671 30.8099 3.99929 30.2758C4.06347 29.752 4.16241 29.2333 4.29544 28.7232C4.28949 29.164 4.30978 29.6047 4.35618 30.0429C5.10583 29.5249 5.89273 29.0656 6.71015 28.6689C6.77615 27.9323 6.91351 27.2042 7.1202 26.4954C7.07644 27.1519 7.07644 27.8106 7.1202 28.4671C7.74698 28.1875 8.39445 27.959 9.05653 27.784C9.05653 27.5433 9.12487 26.9068 9.21599 26.3479C9.21599 26.3479 9.21599 27.0621 9.3223 27.7141C9.57035 27.6572 9.82346 27.6106 10.0816 27.5744C9.17043 28.4904 8.25162 30.4698 8.33515 34.7237C8.33515 34.7237 8.87428 33.4584 9.56529 32.1388C9.43163 31.6085 9.36026 31.0639 9.35267 30.5164C9.35267 30.5164 9.5501 31.1607 9.77031 31.7429C9.97533 31.3548 10.1955 30.9666 10.4082 30.6328L10.4613 30.5475C10.3854 30.1283 10.2487 29.2899 10.2107 28.7077C10.2107 28.7077 10.4309 29.484 10.6891 30.1904C11.2073 29.3735 11.8163 28.6207 12.504 27.947C16.7411 35.3835 16.3007 46.2124 16.3007 46.2124L18.2902 46.0338C17.7434 35.7096 14.4631 29.5538 13.2405 27.5899C14.2272 27.4068 15.2381 27.4068 16.2247 27.5899C16.2247 26.9301 16.2247 26.2159 16.2247 26.2159C16.3538 26.7671 16.4449 27.4036 16.4753 27.6365C17.1488 27.7645 17.8115 27.9461 18.4572 28.1799C18.4713 27.5135 18.4408 26.847 18.3661 26.1849C18.6199 26.8785 18.8056 27.5962 18.9204 28.3274C19.7756 28.6539 20.6057 29.0458 21.4035 29.4995C21.4283 29.06 21.4283 28.6194 21.4035 28.1799C21.5701 28.6874 21.702 29.2062 21.7983 29.7324C22.5959 30.2321 23.3572 30.7898 24.0764 31.4013Z" fill="black"/>
<path d="M12.5196 23.1267C13.613 16.2103 17.6376 12.3135 20.0675 11.4363C20.7654 11.2074 21.5021 11.1286 22.2313 11.2047C22.9605 11.2808 23.6663 11.5103 24.3046 11.8788C23.7957 11.5022 23.2602 11.1649 22.7024 10.8696C23.2111 10.0934 23.8414 9.3171 23.8414 9.3171C23.2339 9.82167 22.5961 10.4504 22.3607 10.6833C21.4981 10.2355 20.6017 9.85907 19.6802 9.55774C20.2236 8.81222 20.8146 8.10428 21.4495 7.43855C20.5826 7.98033 19.7711 8.60966 19.0272 9.3171C17.7969 8.96555 16.5432 8.70611 15.276 8.54084C15.6298 8.03383 16.01 7.54667 16.415 7.08147C15.8044 7.50265 15.2234 7.96694 14.6761 8.47098C13.3439 8.30154 12.0012 8.23408 10.6592 8.26915C16.62 4.80704 22.1101 5.57553 24.297 6.98832C25.19 7.5691 25.8789 8.42557 26.2637 9.43354C26.7041 7.52394 27.5242 5.48238 29.0353 4.34128C32.4068 1.77963 36.9932 3.99973 36.9932 3.99973C35.3348 4.08797 33.7435 4.698 32.4372 5.74631L30.7894 5.15635L32.0347 6.0801C30.7252 7.24547 29.6208 8.63177 28.7695 10.1787C29.5904 9.35611 30.6626 8.84643 31.8069 8.73491C34.3887 8.54084 39.6282 10.4349 43.3414 16.3034C42.1613 15.6464 40.9384 15.0732 39.6813 14.5879C39.4251 13.8825 39.118 13.1975 38.7625 12.5386C38.9155 13.1418 39.0346 13.7534 39.1194 14.3705C37.9165 13.9238 36.683 13.5684 35.429 13.3071C35.0973 12.3177 34.6673 11.3657 34.1457 10.466C34.4116 11.3561 34.6171 12.2638 34.7608 13.1829C33.8075 13.0142 32.8426 12.9233 31.8753 12.9112C31.769 12.5929 31.488 11.7313 31.1767 11.0016C31.1767 11.0016 31.3817 11.9952 31.488 12.9112C31.1311 12.9112 30.7287 12.9112 30.4173 12.9733C31.936 13.9203 33.8875 16.3112 35.1784 22.1797C35.1784 22.1797 34.0166 20.6272 32.6346 19.0747C32.6457 18.2908 32.5615 17.5086 32.384 16.7459C32.384 16.7459 32.3309 17.7007 32.2246 18.5779C31.8145 18.1199 31.3893 17.6696 30.9792 17.2738L30.8805 17.1806C30.8805 16.5751 30.7514 15.3874 30.6072 14.5724C30.6072 14.5724 30.6072 15.7212 30.4401 16.7769C29.4739 15.8542 28.4062 15.0493 27.2584 14.3783C23.9249 26.0222 28.1013 40.7711 28.1013 40.7711L25.3069 41.2213C22.6492 26.8838 25.1019 17.266 26.127 14.1377C24.7136 14.2191 23.3254 14.5555 22.0266 15.1313C21.7532 14.2463 21.5482 13.2527 21.5482 13.2527C21.5549 13.9349 21.5954 14.6163 21.6697 15.2943C20.7853 15.6991 19.9345 16.1768 19.1259 16.7226C18.8966 15.8192 18.7267 14.9012 18.6171 13.9747C18.5025 15.0056 18.4872 16.0456 18.5715 17.0797C17.5285 17.838 16.5413 18.6734 15.6177 19.5792C15.4508 18.9792 15.3164 18.3702 15.2152 17.755C15.1642 18.5071 15.1642 19.2619 15.2152 20.0139C14.2433 20.9826 13.3423 22.023 12.5196 23.1267Z" fill="black"/>
</g>
</g>
<path d="M60.4632 34.1426V18.534H54.4717V15.6283H69.5532V18.534H63.5617V34.1426H60.4632ZM70.3282 34.1426V20.2569H73.0668V23.6383L72.7325 23.2011C72.9039 22.7383 73.1311 22.3183 73.4139 21.9411C73.7054 21.5554 74.0525 21.2383 74.4554 20.9897C74.7982 20.7583 75.1754 20.5783 75.5868 20.4497C76.0068 20.3126 76.4354 20.2311 76.8725 20.2054C77.3096 20.1711 77.7339 20.1883 78.1454 20.2569V23.1497C77.7339 23.0297 77.2582 22.9911 76.7182 23.034C76.1868 23.0769 75.7068 23.2269 75.2782 23.484C74.8496 23.7154 74.4982 24.0111 74.2239 24.3711C73.9582 24.7311 73.7611 25.1426 73.6325 25.6054C73.5039 26.0597 73.4396 26.5526 73.4396 27.084V34.1426H70.3282ZM84.1553 34.5283C83.1524 34.5283 82.3038 34.3397 81.6096 33.9626C80.9153 33.5769 80.3881 33.0669 80.0281 32.4326C79.6767 31.7983 79.501 31.0997 79.501 30.3369C79.501 29.6683 79.6124 29.0683 79.8353 28.5369C80.0581 27.9969 80.401 27.534 80.8638 27.1483C81.3267 26.754 81.9267 26.4326 82.6638 26.184C83.221 26.004 83.8724 25.8411 84.6181 25.6954C85.3724 25.5497 86.1867 25.4169 87.061 25.2969C87.9438 25.1683 88.8653 25.0311 89.8253 24.8854L88.7196 25.5154C88.7281 24.5554 88.5138 23.8483 88.0767 23.394C87.6396 22.9397 86.9024 22.7126 85.8653 22.7126C85.2396 22.7126 84.6353 22.8583 84.0524 23.1497C83.4696 23.4411 83.0624 23.9426 82.831 24.654L80.0024 23.7669C80.3453 22.5926 80.9967 21.6497 81.9567 20.9383C82.9253 20.2269 84.2281 19.8711 85.8653 19.8711C87.0996 19.8711 88.1838 20.0726 89.1181 20.4754C90.061 20.8783 90.7596 21.5383 91.2138 22.4554C91.4624 22.944 91.6124 23.4454 91.6638 23.9597C91.7153 24.4654 91.741 25.0183 91.741 25.6183V34.1426H89.0281V31.134L89.4781 31.6226C88.8524 32.6254 88.1196 33.3626 87.2796 33.834C86.4481 34.2969 85.4067 34.5283 84.1553 34.5283ZM84.7724 32.0597C85.4753 32.0597 86.0753 31.9354 86.5724 31.6869C87.0696 31.4383 87.4638 31.134 87.7553 30.774C88.0553 30.414 88.2567 30.0754 88.3596 29.7583C88.5224 29.364 88.6124 28.914 88.6296 28.4083C88.6553 27.894 88.6681 27.4783 88.6681 27.1611L89.6196 27.444C88.6853 27.5897 87.8838 27.7183 87.2153 27.8297C86.5467 27.9411 85.9724 28.0483 85.4924 28.1511C85.0124 28.2454 84.5881 28.3526 84.2196 28.4726C83.8596 28.6011 83.5553 28.7511 83.3067 28.9226C83.0581 29.094 82.8653 29.2911 82.7281 29.514C82.5996 29.7369 82.5353 29.9983 82.5353 30.2983C82.5353 30.6411 82.621 30.9454 82.7924 31.2111C82.9638 31.4683 83.2124 31.674 83.5381 31.8283C83.8724 31.9826 84.2838 32.0597 84.7724 32.0597ZM98.3403 34.1426L93.3003 20.2569H96.3989L99.896 30.324L103.38 20.2569H106.492L101.452 34.1426H98.3403ZM109.056 18.1483V15.3069H112.155V18.1483H109.056ZM109.056 34.1426V20.2569H112.155V34.1426H109.056ZM116.263 34.1426V15.2426H119.362V34.1426H116.263ZM127.096 34.5283C126.093 34.5283 125.245 34.3397 124.55 33.9626C123.856 33.5769 123.329 33.0669 122.969 32.4326C122.618 31.7983 122.442 31.0997 122.442 30.3369C122.442 29.6683 122.553 29.0683 122.776 28.5369C122.999 27.9969 123.342 27.534 123.805 27.1483C124.268 26.754 124.868 26.4326 125.605 26.184C126.162 26.004 126.813 25.8411 127.559 25.6954C128.313 25.5497 129.128 25.4169 130.002 25.2969C130.885 25.1683 131.806 25.0311 132.766 24.8854L131.66 25.5154C131.669 24.5554 131.455 23.8483 131.018 23.394C130.58 22.9397 129.843 22.7126 128.806 22.7126C128.18 22.7126 127.576 22.8583 126.993 23.1497C126.41 23.4411 126.003 23.9426 125.772 24.654L122.943 23.7669C123.286 22.5926 123.938 21.6497 124.898 20.9383C125.866 20.2269 127.169 19.8711 128.806 19.8711C130.04 19.8711 131.125 20.0726 132.059 20.4754C133.002 20.8783 133.7 21.5383 134.155 22.4554C134.403 22.944 134.553 23.4454 134.605 23.9597C134.656 24.4654 134.682 25.0183 134.682 25.6183V34.1426H131.969V31.134L132.419 31.6226C131.793 32.6254 131.06 33.3626 130.22 33.834C129.389 34.2969 128.348 34.5283 127.096 34.5283ZM127.713 32.0597C128.416 32.0597 129.016 31.9354 129.513 31.6869C130.01 31.4383 130.405 31.134 130.696 30.774C130.996 30.414 131.198 30.0754 131.3 29.7583C131.463 29.364 131.553 28.914 131.57 28.4083C131.596 27.894 131.609 27.4783 131.609 27.1611L132.56 27.444C131.626 27.5897 130.825 27.7183 130.156 27.8297C129.488 27.9411 128.913 28.0483 128.433 28.1511C127.953 28.2454 127.529 28.3526 127.16 28.4726C126.8 28.6011 126.496 28.7511 126.248 28.9226C125.999 29.094 125.806 29.2911 125.669 29.514C125.54 29.7369 125.476 29.9983 125.476 30.2983C125.476 30.6411 125.562 30.9454 125.733 31.2111C125.905 31.4683 126.153 31.674 126.479 31.8283C126.813 31.9826 127.225 32.0597 127.713 32.0597Z" fill="white"/>
<defs>
<clipPath id="clip0_31_160">
<rect x="0.214355" y="0.214355" width="46.2857" height="46.2857" rx="23.1429" fill="white"/>
</clipPath>
<clipPath id="clip1_31_160">
<rect width="44.8393" height="43.3929" fill="white" transform="translate(1.66113 3.10693)"/>
</clipPath>
</defs>
</svg>
