<svg width="134" height="36" viewBox="0 0 134 36" fill="none" xmlns="http://www.w3.org/2000/svg">
<rect width="36" height="36" rx="18" fill="#FEFA17"/>
<g clip-path="url(#clip0_14_6255)">
<path d="M36 36.0002H1.125C2.65423 35.2454 4.11995 34.3629 5.50726 33.3618C8.11772 31.478 11.6613 29.5883 15.7365 29.226C22.6642 28.6102 31.2457 33.7059 36 36.0002Z" fill="black"/>
<path d="M18.5595 24.2569C17.083 20.7129 14.4253 19.1733 13.0197 19.0344C12.617 19.0078 12.2132 19.0659 11.8333 19.2051C11.4534 19.3442 11.1054 19.5615 10.8108 19.8435C11.0326 19.5686 11.2734 19.3103 11.5314 19.0707C11.1593 18.7265 10.7222 18.3944 10.7222 18.3944C11.112 18.5816 11.5373 18.8292 11.6908 18.9258C12.0944 18.5659 12.5249 18.2389 12.9783 17.9477C12.5901 17.6268 12.1817 17.3324 11.7558 17.0662C12.29 17.247 12.8062 17.4795 13.2973 17.7605C13.9063 17.4039 14.5399 17.0932 15.1931 16.8307C14.9386 16.6143 14.6724 16.4127 14.3958 16.227C14.7779 16.3646 15.1491 16.5321 15.5061 16.7281C16.2092 16.4557 16.9294 16.2318 17.6618 16.0579C14.0355 15.0255 11.2006 16.1787 10.2084 17.2232C9.80545 17.654 9.55048 18.207 9.48198 18.799C9.04929 17.7912 8.29292 16.9648 7.3381 16.4564C5.1765 15.5326 3.0149 17.3439 3.0149 17.3439C3.91323 17.1663 4.84327 17.276 5.67851 17.6579L6.48172 17.1205L5.93837 17.7786C6.78876 18.2274 7.55779 18.8217 8.21219 19.5355C7.66816 19.1948 7.02435 19.0602 6.39313 19.1552C4.99341 19.3906 2.44792 21.1174 1.21356 24.758C1.75701 24.2569 2.33535 23.7969 2.94402 23.3815C2.99394 22.9741 3.07089 22.5707 3.17436 22.174C3.16973 22.5168 3.18551 22.8595 3.22161 23.2004C3.80466 22.7975 4.4167 22.4402 5.05247 22.1317C5.1038 21.5588 5.21063 20.9925 5.37139 20.4412C5.33736 20.9518 5.33736 21.4641 5.37139 21.9747C5.85889 21.7572 6.36248 21.5796 6.87743 21.4434C6.87743 21.2563 6.93058 20.7612 7.00145 20.3265C7.00145 20.3265 7.00145 20.8819 7.08414 21.3891C7.27707 21.3448 7.47393 21.3086 7.67474 21.2804C6.96602 21.9928 6.25139 23.5324 6.31636 26.841C6.31636 26.841 6.73568 25.8569 7.27313 24.8305C7.16918 24.4181 7.11366 23.9945 7.10776 23.5686C7.10776 23.5686 7.26132 24.0698 7.43259 24.5226C7.59205 24.2207 7.76333 23.9188 7.9287 23.6592L7.97004 23.5928C7.91098 23.2668 7.80467 22.6147 7.77514 22.1619C7.77514 22.1619 7.94642 22.7656 8.14722 23.3151C8.55028 22.6797 9.02395 22.0942 9.55876 21.5702C12.8543 27.3542 12.5118 35.7766 12.5118 35.7766L14.0591 35.6377C13.6339 27.6078 11.0825 22.82 10.1316 21.2925C10.8991 21.15 11.6853 21.15 12.4527 21.2925C12.4527 20.7793 12.4527 20.2238 12.4527 20.2238C12.5531 20.6525 12.624 21.1476 12.6476 21.3287C13.1714 21.4282 13.6868 21.5695 14.1891 21.7513C14.2 21.2331 14.1763 20.7146 14.1182 20.1997C14.3156 20.7392 14.46 21.2974 14.5493 21.866C15.2145 22.1201 15.8601 22.4248 16.4806 22.7777C16.4999 22.4359 16.4999 22.0932 16.4806 21.7513C16.6102 22.1461 16.7128 22.5496 16.7877 22.9588C17.408 23.3475 18.0002 23.7813 18.5595 24.2569Z" fill="black"/>
<path d="M9.57063 17.821C10.4211 12.4415 13.5513 9.41063 15.4412 8.72838C15.984 8.55036 16.557 8.48904 17.1242 8.54826C17.6913 8.60749 18.2403 8.78598 18.7368 9.07253C18.341 8.77967 17.9244 8.51732 17.4906 8.28764C17.8863 7.68389 18.3765 7.08013 18.3765 7.08013C17.904 7.47257 17.4079 7.96161 17.2248 8.14274C16.5539 7.79442 15.8567 7.50166 15.14 7.26729C15.5626 6.68745 16.0223 6.13683 16.5161 5.61904C15.8419 6.04042 15.2107 6.5299 14.6321 7.08013C13.6752 6.8067 12.7001 6.60491 11.7145 6.47637C11.9897 6.08203 12.2854 5.70313 12.6004 5.34131C12.1255 5.66889 11.6736 6.03001 11.2479 6.42203C10.2118 6.29025 9.16745 6.23778 8.12366 6.26506C12.7599 3.5723 17.0299 4.17002 18.7309 5.26886C19.4254 5.72057 19.9612 6.38672 20.2605 7.17069C20.6031 5.68545 21.2409 4.09757 22.4162 3.21005C25.0385 1.21765 28.6057 2.9444 28.6057 2.9444C27.3158 3.01303 26.0781 3.48749 25.0621 4.30285L23.7805 3.84399L24.7491 4.56246C23.7305 5.46886 22.8715 6.5471 22.2095 7.7503C22.8479 7.11047 23.6819 6.71405 24.5719 6.62731C26.5799 6.47637 30.6551 7.94954 33.5431 12.5139C32.6253 12.0029 31.6742 11.5571 30.6964 11.1796C30.4972 10.631 30.2583 10.0982 29.9818 9.58572C30.1008 10.0549 30.1934 10.5306 30.2594 11.0106C29.3238 10.6632 28.3644 10.3867 27.3891 10.1834C27.1311 9.41393 26.7966 8.67348 26.391 7.97369C26.5978 8.66598 26.7576 9.37204 26.8693 10.0868C26.1279 9.95561 25.3775 9.88495 24.6251 9.87552C24.5424 9.62798 24.3238 8.95781 24.0817 8.39028C24.0817 8.39028 24.2412 9.16309 24.3238 9.87552C24.0463 9.87552 23.7332 9.87552 23.4911 9.92382C24.6723 10.6604 26.1901 12.52 27.1942 17.0844C27.1942 17.0844 26.2906 15.8769 25.2157 14.6694C25.2243 14.0597 25.1588 13.4513 25.0208 12.8581C25.0208 12.8581 24.9794 13.6007 24.8967 14.2829C24.5778 13.9267 24.2471 13.5766 23.9281 13.2686L23.8514 13.1962C23.8514 12.7253 23.751 11.8015 23.6388 11.1676C23.6388 11.1676 23.6388 12.0611 23.5088 12.8822C22.7573 12.1646 21.9269 11.5385 21.0342 11.0166C18.4415 20.073 21.6898 31.5444 21.6898 31.5444L19.5164 31.8945C17.4492 20.7431 19.3569 13.2626 20.1542 10.8295C19.0549 10.8928 17.9752 11.1544 16.965 11.6023C16.7523 10.914 16.5929 10.1412 16.5929 10.1412C16.5981 10.6718 16.6296 11.2017 16.6874 11.7291C15.9995 12.0439 15.3378 12.4154 14.7089 12.84C14.5306 12.1373 14.3984 11.4233 14.3132 10.7027C14.224 11.5045 14.2121 12.3134 14.2777 13.1177C13.4665 13.7075 12.6986 14.3573 11.9803 15.0618C11.8504 14.5951 11.7459 14.1214 11.6673 13.643C11.6275 14.2279 11.6275 14.815 11.6673 15.3999C10.9113 16.1533 10.2106 16.9625 9.57063 17.821Z" fill="black"/>
</g>
<path d="M46.86 26.5V14.36H42.2V12.1H53.93V14.36H49.27V26.5H46.86ZM54.5328 26.5V15.7H56.6628V18.33L56.4028 17.99C56.5361 17.63 56.7128 17.3033 56.9328 17.01C57.1595 16.71 57.4295 16.4633 57.7428 16.27C58.0095 16.09 58.3028 15.95 58.6228 15.85C58.9495 15.7433 59.2828 15.68 59.6228 15.66C59.9628 15.6333 60.2928 15.6467 60.6128 15.7V17.95C60.2928 17.8567 59.9228 17.8267 59.5028 17.86C59.0895 17.8933 58.7161 18.01 58.3828 18.21C58.0495 18.39 57.7761 18.62 57.5628 18.9C57.3561 19.18 57.2028 19.5 57.1028 19.86C57.0028 20.2133 56.9528 20.5967 56.9528 21.01V26.5H54.5328ZM65.2872 26.8C64.5072 26.8 63.8472 26.6533 63.3072 26.36C62.7672 26.06 62.3572 25.6633 62.0772 25.17C61.8039 24.6767 61.6672 24.1333 61.6672 23.54C61.6672 23.02 61.7539 22.5533 61.9272 22.14C62.1005 21.72 62.3672 21.36 62.7272 21.06C63.0872 20.7533 63.5539 20.5033 64.1272 20.31C64.5605 20.17 65.0672 20.0433 65.6472 19.93C66.2339 19.8167 66.8672 19.7133 67.5472 19.62C68.2339 19.52 68.9505 19.4133 69.6972 19.3L68.8372 19.79C68.8439 19.0433 68.6772 18.4933 68.3372 18.14C67.9972 17.7867 67.4239 17.61 66.6172 17.61C66.1305 17.61 65.6605 17.7233 65.2072 17.95C64.7539 18.1767 64.4372 18.5667 64.2572 19.12L62.0572 18.43C62.3239 17.5167 62.8305 16.7833 63.5772 16.23C64.3305 15.6767 65.3439 15.4 66.6172 15.4C67.5772 15.4 68.4205 15.5567 69.1472 15.87C69.8805 16.1833 70.4239 16.6967 70.7772 17.41C70.9705 17.79 71.0872 18.18 71.1272 18.58C71.1672 18.9733 71.1872 19.4033 71.1872 19.87V26.5H69.0772V24.16L69.4272 24.54C68.9405 25.32 68.3705 25.8933 67.7172 26.26C67.0705 26.62 66.2605 26.8 65.2872 26.8ZM65.7672 24.88C66.3139 24.88 66.7805 24.7833 67.1672 24.59C67.5539 24.3967 67.8605 24.16 68.0872 23.88C68.3205 23.6 68.4772 23.3367 68.5572 23.09C68.6839 22.7833 68.7539 22.4333 68.7672 22.04C68.7872 21.64 68.7972 21.3167 68.7972 21.07L69.5372 21.29C68.8105 21.4033 68.1872 21.5033 67.6672 21.59C67.1472 21.6767 66.7005 21.76 66.3272 21.84C65.9539 21.9133 65.6239 21.9967 65.3372 22.09C65.0572 22.19 64.8205 22.3067 64.6272 22.44C64.4339 22.5733 64.2839 22.7267 64.1772 22.9C64.0772 23.0733 64.0272 23.2767 64.0272 23.51C64.0272 23.7767 64.0939 24.0133 64.2272 24.22C64.3605 24.42 64.5539 24.58 64.8072 24.7C65.0672 24.82 65.3872 24.88 65.7672 24.88ZM76.32 26.5L72.4 15.7H74.81L77.53 23.53L80.24 15.7H82.66L78.74 26.5H76.32ZM84.6547 14.06V11.85H87.0647V14.06H84.6547ZM84.6547 26.5V15.7H87.0647V26.5H84.6547ZM90.2602 26.5V11.8H92.6702V26.5H90.2602ZM98.6856 26.8C97.9056 26.8 97.2456 26.6533 96.7056 26.36C96.1656 26.06 95.7556 25.6633 95.4756 25.17C95.2023 24.6767 95.0656 24.1333 95.0656 23.54C95.0656 23.02 95.1523 22.5533 95.3256 22.14C95.499 21.72 95.7656 21.36 96.1256 21.06C96.4856 20.7533 96.9523 20.5033 97.5256 20.31C97.959 20.17 98.4656 20.0433 99.0456 19.93C99.6323 19.8167 100.266 19.7133 100.946 19.62C101.632 19.52 102.349 19.4133 103.096 19.3L102.236 19.79C102.242 19.0433 102.076 18.4933 101.736 18.14C101.396 17.7867 100.822 17.61 100.016 17.61C99.529 17.61 99.059 17.7233 98.6056 17.95C98.1523 18.1767 97.8356 18.5667 97.6556 19.12L95.4556 18.43C95.7223 17.5167 96.229 16.7833 96.9756 16.23C97.729 15.6767 98.7423 15.4 100.016 15.4C100.976 15.4 101.819 15.5567 102.546 15.87C103.279 16.1833 103.822 16.6967 104.176 17.41C104.369 17.79 104.486 18.18 104.526 18.58C104.566 18.9733 104.586 19.4033 104.586 19.87V26.5H102.476V24.16L102.826 24.54C102.339 25.32 101.769 25.8933 101.116 26.26C100.469 26.62 99.659 26.8 98.6856 26.8ZM99.1656 24.88C99.7123 24.88 100.179 24.7833 100.566 24.59C100.952 24.3967 101.259 24.16 101.486 23.88C101.719 23.6 101.876 23.3367 101.956 23.09C102.082 22.7833 102.152 22.4333 102.166 22.04C102.186 21.64 102.196 21.3167 102.196 21.07L102.936 21.29C102.209 21.4033 101.586 21.5033 101.066 21.59C100.546 21.6767 100.099 21.76 99.7256 21.84C99.3523 21.9133 99.0223 21.9967 98.7356 22.09C98.4556 22.19 98.219 22.3067 98.0256 22.44C97.8323 22.5733 97.6823 22.7267 97.5756 22.9C97.4756 23.0733 97.4256 23.2767 97.4256 23.51C97.4256 23.7767 97.4923 24.0133 97.6256 24.22C97.759 24.42 97.9523 24.58 98.2056 24.7C98.4656 24.82 98.7856 24.88 99.1656 24.88Z" fill="black"/>
<defs>
<clipPath id="clip0_14_6255">
<rect width="34.875" height="33.75" fill="white" transform="translate(1.125 2.25)"/>
</clipPath>
</defs>
</svg>
