<svg width="173" height="47" viewBox="0 0 173 47" fill="none" xmlns="http://www.w3.org/2000/svg">
<g clip-path="url(#clip0_39_10251)">
<rect x="0.214355" y="0.214355" width="46.2857" height="46.2857" rx="23.1429" fill="#FEFA17"/>
<g clip-path="url(#clip1_39_10251)">
<path d="M46.5004 46.4996H1.66113C3.62728 45.5291 5.51178 44.3945 7.29547 43.1073C10.6518 40.6854 15.2078 38.2557 20.4473 37.79C29.3544 36.9982 40.3877 43.5498 46.5004 46.4996Z" fill="black"/>
<path d="M24.0764 31.4013C22.178 26.8447 18.7609 24.8652 16.9537 24.6867C16.4359 24.6525 15.9168 24.7272 15.4283 24.9061C14.9399 25.085 14.4925 25.3643 14.1138 25.7269C14.3989 25.3735 14.7085 25.0414 15.0402 24.7333C14.5618 24.2908 13.9999 23.8639 13.9999 23.8639C14.501 24.1045 15.0478 24.4228 15.2452 24.547C15.7641 24.0843 16.3176 23.6639 16.9006 23.2894C16.4014 22.8769 15.8763 22.4983 15.3287 22.1561C16.0156 22.3886 16.6792 22.6876 17.3106 23.0488C18.0936 22.5903 18.9083 22.1908 19.7481 21.8534C19.4209 21.5751 19.0787 21.3159 18.723 21.0771C19.2143 21.2541 19.6916 21.4695 20.1505 21.7214C21.0545 21.3711 21.9805 21.0833 22.9222 20.8598C18.2598 19.5323 14.6149 21.015 13.3392 22.3579C12.8211 22.9118 12.4933 23.6229 12.4052 24.384C11.8489 23.0883 10.8764 22.0257 9.64882 21.3721C6.86962 20.1844 4.09041 22.5132 4.09041 22.5132C5.24542 22.2849 6.44118 22.4258 7.51506 22.9168L8.54777 22.226L7.84917 23.0721C8.94252 23.6491 9.93127 24.4131 10.7726 25.331C10.0732 24.8929 9.24543 24.7198 8.43386 24.842C6.63422 25.1447 3.36144 27.3648 1.77441 32.0456C2.47313 31.4014 3.21671 30.8099 3.99929 30.2758C4.06347 29.752 4.16241 29.2333 4.29544 28.7232C4.28949 29.164 4.30978 29.6047 4.35618 30.0429C5.10583 29.5249 5.89273 29.0656 6.71015 28.6689C6.77615 27.9323 6.91351 27.2042 7.1202 26.4954C7.07644 27.1519 7.07644 27.8106 7.1202 28.4671C7.74698 28.1875 8.39445 27.959 9.05653 27.784C9.05653 27.5433 9.12487 26.9068 9.21599 26.3479C9.21599 26.3479 9.21599 27.0621 9.3223 27.7141C9.57035 27.6572 9.82346 27.6106 10.0816 27.5744C9.17043 28.4904 8.25162 30.4698 8.33515 34.7237C8.33515 34.7237 8.87428 33.4584 9.56529 32.1388C9.43163 31.6085 9.36026 31.0639 9.35267 30.5164C9.35267 30.5164 9.5501 31.1607 9.77031 31.7429C9.97533 31.3548 10.1955 30.9666 10.4082 30.6328L10.4613 30.5475C10.3854 30.1283 10.2487 29.2899 10.2107 28.7077C10.2107 28.7077 10.4309 29.484 10.6891 30.1904C11.2073 29.3735 11.8163 28.6207 12.504 27.947C16.7411 35.3835 16.3007 46.2124 16.3007 46.2124L18.2902 46.0338C17.7434 35.7096 14.4631 29.5538 13.2405 27.5899C14.2272 27.4068 15.2381 27.4068 16.2247 27.5899C16.2247 26.9301 16.2247 26.2159 16.2247 26.2159C16.3538 26.7671 16.4449 27.4036 16.4753 27.6365C17.1488 27.7645 17.8115 27.9461 18.4572 28.1799C18.4713 27.5135 18.4408 26.847 18.3661 26.1849C18.6199 26.8785 18.8056 27.5962 18.9204 28.3274C19.7756 28.6539 20.6057 29.0458 21.4035 29.4995C21.4283 29.06 21.4283 28.6194 21.4035 28.1799C21.5701 28.6874 21.702 29.2062 21.7983 29.7324C22.5959 30.2321 23.3572 30.7898 24.0764 31.4013Z" fill="black"/>
<path d="M12.5196 23.1267C13.613 16.2103 17.6376 12.3135 20.0675 11.4363C20.7654 11.2074 21.5021 11.1286 22.2313 11.2047C22.9605 11.2808 23.6663 11.5103 24.3046 11.8788C23.7957 11.5022 23.2602 11.1649 22.7024 10.8696C23.2111 10.0934 23.8414 9.3171 23.8414 9.3171C23.2339 9.82167 22.5961 10.4504 22.3607 10.6833C21.4981 10.2355 20.6017 9.85907 19.6802 9.55774C20.2236 8.81222 20.8146 8.10428 21.4495 7.43855C20.5826 7.98033 19.7711 8.60966 19.0272 9.3171C17.7969 8.96555 16.5432 8.70611 15.276 8.54084C15.6298 8.03383 16.01 7.54667 16.415 7.08147C15.8044 7.50265 15.2234 7.96694 14.6761 8.47098C13.3439 8.30154 12.0012 8.23408 10.6592 8.26915C16.62 4.80704 22.1101 5.57553 24.297 6.98832C25.19 7.5691 25.8789 8.42557 26.2637 9.43354C26.7041 7.52394 27.5242 5.48238 29.0353 4.34128C32.4068 1.77963 36.9932 3.99973 36.9932 3.99973C35.3348 4.08797 33.7435 4.698 32.4372 5.74631L30.7894 5.15635L32.0347 6.0801C30.7252 7.24547 29.6208 8.63177 28.7695 10.1787C29.5904 9.35611 30.6626 8.84643 31.8069 8.73491C34.3887 8.54084 39.6282 10.4349 43.3414 16.3034C42.1613 15.6464 40.9384 15.0732 39.6813 14.5879C39.4251 13.8825 39.118 13.1975 38.7625 12.5386C38.9155 13.1418 39.0346 13.7534 39.1194 14.3705C37.9165 13.9238 36.683 13.5684 35.429 13.3071C35.0973 12.3177 34.6673 11.3657 34.1457 10.466C34.4116 11.3561 34.6171 12.2638 34.7608 13.1829C33.8075 13.0142 32.8426 12.9233 31.8753 12.9112C31.769 12.5929 31.488 11.7313 31.1767 11.0016C31.1767 11.0016 31.3817 11.9952 31.488 12.9112C31.1311 12.9112 30.7287 12.9112 30.4173 12.9733C31.936 13.9203 33.8875 16.3112 35.1784 22.1797C35.1784 22.1797 34.0166 20.6272 32.6346 19.0747C32.6457 18.2908 32.5615 17.5086 32.384 16.7459C32.384 16.7459 32.3309 17.7007 32.2246 18.5779C31.8145 18.1199 31.3893 17.6696 30.9792 17.2738L30.8805 17.1806C30.8805 16.5751 30.7514 15.3874 30.6072 14.5724C30.6072 14.5724 30.6072 15.7212 30.4401 16.7769C29.4739 15.8542 28.4062 15.0493 27.2584 14.3783C23.9249 26.0222 28.1013 40.7711 28.1013 40.7711L25.3069 41.2213C22.6492 26.8838 25.1019 17.266 26.127 14.1377C24.7136 14.2191 23.3254 14.5555 22.0266 15.1313C21.7532 14.2463 21.5482 13.2527 21.5482 13.2527C21.5549 13.9349 21.5954 14.6163 21.6697 15.2943C20.7853 15.6991 19.9345 16.1768 19.1259 16.7226C18.8966 15.8192 18.7267 14.9012 18.6171 13.9747C18.5025 15.0056 18.4872 16.0456 18.5715 17.0797C17.5285 17.838 16.5413 18.6734 15.6177 19.5792C15.4508 18.9792 15.3164 18.3702 15.2152 17.755C15.1642 18.5071 15.1642 19.2619 15.2152 20.0139C14.2433 20.9826 13.3423 22.023 12.5196 23.1267Z" fill="black"/>
</g>
</g>
<path d="M60.4629 34.1426V18.534H54.4715V15.6283H69.5529V18.534H63.5615V34.1426H60.4629ZM70.328 34.1426V20.2569H73.0665V23.6383L72.7323 23.2011C72.9037 22.7383 73.1308 22.3183 73.4137 21.9411C73.7051 21.5554 74.0523 21.2383 74.4551 20.9897C74.798 20.7583 75.1751 20.5783 75.5865 20.4497C76.0065 20.3126 76.4351 20.2311 76.8723 20.2054C77.3094 20.1711 77.7337 20.1883 78.1451 20.2569V23.1497C77.7337 23.0297 77.258 22.9911 76.718 23.034C76.1865 23.0769 75.7065 23.2269 75.278 23.484C74.8494 23.7154 74.498 24.0111 74.2237 24.3711C73.958 24.7311 73.7608 25.1426 73.6323 25.6054C73.5037 26.0597 73.4394 26.5526 73.4394 27.084V34.1426H70.328ZM84.155 34.5283C83.1522 34.5283 82.3036 34.3397 81.6093 33.9626C80.915 33.5769 80.3879 33.0669 80.0279 32.4326C79.6765 31.7983 79.5007 31.0997 79.5007 30.3369C79.5007 29.6683 79.6122 29.0683 79.835 28.5369C80.0579 27.9969 80.4007 27.534 80.8636 27.1483C81.3265 26.754 81.9265 26.4326 82.6636 26.184C83.2207 26.004 83.8722 25.8411 84.6179 25.6954C85.3722 25.5497 86.1865 25.4169 87.0607 25.2969C87.9436 25.1683 88.865 25.0311 89.825 24.8854L88.7193 25.5154C88.7279 24.5554 88.5136 23.8483 88.0765 23.394C87.6393 22.9397 86.9022 22.7126 85.865 22.7126C85.2393 22.7126 84.635 22.8583 84.0522 23.1497C83.4693 23.4411 83.0622 23.9426 82.8307 24.654L80.0022 23.7669C80.345 22.5926 80.9965 21.6497 81.9565 20.9383C82.925 20.2269 84.2279 19.8711 85.865 19.8711C87.0993 19.8711 88.1836 20.0726 89.1179 20.4754C90.0607 20.8783 90.7593 21.5383 91.2136 22.4554C91.4622 22.944 91.6122 23.4454 91.6636 23.9597C91.715 24.4654 91.7407 25.0183 91.7407 25.6183V34.1426H89.0279V31.134L89.4779 31.6226C88.8522 32.6254 88.1193 33.3626 87.2793 33.834C86.4479 34.2969 85.4065 34.5283 84.155 34.5283ZM84.7722 32.0597C85.475 32.0597 86.075 31.9354 86.5722 31.6869C87.0693 31.4383 87.4636 31.134 87.755 30.774C88.055 30.414 88.2565 30.0754 88.3593 29.7583C88.5222 29.364 88.6122 28.914 88.6293 28.4083C88.655 27.894 88.6679 27.4783 88.6679 27.1611L89.6193 27.444C88.685 27.5897 87.8836 27.7183 87.215 27.8297C86.5465 27.9411 85.9722 28.0483 85.4922 28.1511C85.0122 28.2454 84.5879 28.3526 84.2193 28.4726C83.8593 28.6011 83.555 28.7511 83.3065 28.9226C83.0579 29.094 82.865 29.2911 82.7279 29.514C82.5993 29.7369 82.535 29.9983 82.535 30.2983C82.535 30.6411 82.6207 30.9454 82.7922 31.2111C82.9636 31.4683 83.2122 31.674 83.5379 31.8283C83.8722 31.9826 84.2836 32.0597 84.7722 32.0597ZM98.3401 34.1426L93.3001 20.2569H96.3986L99.8958 30.324L103.38 20.2569H106.491L101.451 34.1426H98.3401ZM109.056 18.1483V15.3069H112.155V18.1483H109.056ZM109.056 34.1426V20.2569H112.155V34.1426H109.056ZM116.263 34.1426V15.2426H119.362V34.1426H116.263ZM127.096 34.5283C126.093 34.5283 125.244 34.3397 124.55 33.9626C123.856 33.5769 123.329 33.0669 122.969 32.4326C122.617 31.7983 122.442 31.0997 122.442 30.3369C122.442 29.6683 122.553 29.0683 122.776 28.5369C122.999 27.9969 123.342 27.534 123.804 27.1483C124.267 26.754 124.867 26.4326 125.604 26.184C126.162 26.004 126.813 25.8411 127.559 25.6954C128.313 25.5497 129.127 25.4169 130.002 25.2969C130.884 25.1683 131.806 25.0311 132.766 24.8854L131.66 25.5154C131.669 24.5554 131.454 23.8483 131.017 23.394C130.58 22.9397 129.843 22.7126 128.806 22.7126C128.18 22.7126 127.576 22.8583 126.993 23.1497C126.41 23.4411 126.003 23.9426 125.772 24.654L122.943 23.7669C123.286 22.5926 123.937 21.6497 124.897 20.9383C125.866 20.2269 127.169 19.8711 128.806 19.8711C130.04 19.8711 131.124 20.0726 132.059 20.4754C133.002 20.8783 133.7 21.5383 134.154 22.4554C134.403 22.944 134.553 23.4454 134.604 23.9597C134.656 24.4654 134.682 25.0183 134.682 25.6183V34.1426H131.969V31.134L132.419 31.6226C131.793 32.6254 131.06 33.3626 130.22 33.834C129.389 34.2969 128.347 34.5283 127.096 34.5283ZM127.713 32.0597C128.416 32.0597 129.016 31.9354 129.513 31.6869C130.01 31.4383 130.404 31.134 130.696 30.774C130.996 30.414 131.197 30.0754 131.3 29.7583C131.463 29.364 131.553 28.914 131.57 28.4083C131.596 27.894 131.609 27.4783 131.609 27.1611L132.56 27.444C131.626 27.5897 130.824 27.7183 130.156 27.8297C129.487 27.9411 128.913 28.0483 128.433 28.1511C127.953 28.2454 127.529 28.3526 127.16 28.4726C126.8 28.6011 126.496 28.7511 126.247 28.9226C125.999 29.094 125.806 29.2911 125.669 29.514C125.54 29.7369 125.476 29.9983 125.476 30.2983C125.476 30.6411 125.562 30.9454 125.733 31.2111C125.904 31.4683 126.153 31.674 126.479 31.8283C126.813 31.9826 127.224 32.0597 127.713 32.0597Z" fill="black"/>
<defs>
<clipPath id="clip0_39_10251">
<rect x="0.214355" y="0.214355" width="46.2857" height="46.2857" rx="23.1429" fill="white"/>
</clipPath>
<clipPath id="clip1_39_10251">
<rect width="44.8393" height="43.3929" fill="white" transform="translate(1.66113 3.10693)"/>
</clipPath>
</defs>
</svg>
