<svg width="20" height="20" viewBox="0 0 20 20" fill="none" xmlns="http://www.w3.org/2000/svg">
<g clip-path="url(#clip0_66_25854)">
<path d="M0.78125 13.5034V15.1151C0.78125 16.9777 2.15012 18.5264 3.93465 18.8084V19.9999H5.10656V18.8544H14.8917V19.9999H16.0636V18.8084C17.8482 18.5264 19.217 16.9777 19.217 15.1151V13.5034H0.78125Z" fill="#D6D7D8"/>
<path d="M1.95375 9.9859V3.22484C1.95375 2.09285 2.87473 1.17191 4.00672 1.17191C5.05508 1.17191 5.9218 1.96191 6.04426 2.97777C4.82395 3.25262 3.90945 4.34445 3.90945 5.64656V6.42797H9.3818V5.64656C9.3818 4.33508 8.45414 3.23672 7.22074 2.97172C7.09101 1.31152 5.69961 0 4.00672 0C2.22852 0 0.781836 1.44664 0.781836 3.22484V9.9859H0V12.3316H19.9995V9.9859H1.95375Z" fill="#D6D7D8"/>
</g>
<defs>
<clipPath id="clip0_66_25854">
<rect width="20" height="20" fill="white"/>
</clipPath>
</defs>
</svg>
