<svg width="22" height="22" viewBox="0 0 22 22" fill="none" xmlns="http://www.w3.org/2000/svg">
<path d="M20.625 12.375V17.1875C20.625 17.567 20.317 17.875 19.9375 17.875C19.558 17.875 19.25 17.567 19.25 17.1875V16.5H2.75V17.1875C2.75 17.567 2.442 17.875 2.0625 17.875C1.683 17.875 1.375 17.567 1.375 17.1875V12.375C1.375 11.2379 2.30037 10.3125 3.4375 10.3125H18.5625C19.6996 10.3125 20.625 11.2379 20.625 12.375Z" fill="#D6D7D8"/>
<path d="M3.4375 8.9375V4.8125C3.4375 4.433 3.7455 4.125 4.125 4.125H17.875C18.2545 4.125 18.5625 4.433 18.5625 4.8125V8.9375H16.5V8.25C16.5 7.49169 15.8833 6.875 15.125 6.875H13.0625C12.3042 6.875 11.6875 7.49169 11.6875 8.25V8.9375H10.3125V8.25C10.3125 7.49169 9.69581 6.875 8.9375 6.875H6.875C6.11669 6.875 5.5 7.49169 5.5 8.25V8.9375H3.4375Z" fill="#D6D7D8"/>
</svg>
