<svg width="15" height="15" viewBox="0 0 15 15" fill="none" xmlns="http://www.w3.org/2000/svg">
<path d="M13.4971 9.67131C13.4971 11.7574 12.2535 13.001 10.1674 13.001H9.48542C9.17022 13.001 8.91232 12.7431 8.91232 12.4279V9.12114C8.91232 8.96641 9.0384 8.8346 9.19313 8.8346L10.2018 8.8174C10.282 8.81167 10.3508 8.75436 10.368 8.67413L10.5686 7.57951C10.5858 7.47635 10.5055 7.37892 10.3966 7.37892L9.17594 7.39612C9.01547 7.39612 8.8894 7.27004 8.88367 7.1153L8.86074 5.71121C8.86074 5.61951 8.93524 5.53929 9.03267 5.53929L10.4081 5.51636C10.5055 5.51636 10.58 5.44186 10.58 5.34444L10.5571 3.96899C10.5571 3.87156 10.4826 3.79707 10.3852 3.79707L8.83782 3.82C7.88648 3.83719 7.13 4.61659 7.14719 5.56793L7.17584 7.14395C7.18157 7.30442 7.05549 7.43051 6.89503 7.43624L6.2073 7.44769C6.10988 7.44769 6.03538 7.52219 6.03538 7.61961L6.05257 8.70851C6.05257 8.80594 6.12707 8.88043 6.22449 8.88043L6.91222 8.86898C7.07269 8.86898 7.19875 8.99506 7.20449 9.14979L7.25606 12.4165C7.26179 12.7374 7.0039 13.001 6.68297 13.001H5.36485C3.27878 13.001 2.03516 11.7574 2.03516 9.66558V4.86876C2.03516 2.78268 3.27878 1.53906 5.36485 1.53906H10.1674C12.2535 1.53906 13.4971 2.78268 13.4971 4.86876V9.67131Z" fill="black"/>
</svg>
