<svg width="15" height="15" viewBox="0 0 15 15" fill="none" xmlns="http://www.w3.org/2000/svg">
<path d="M10.1567 1.53906H5.35411C3.26803 1.53906 2.02441 2.78268 2.02441 4.86876V9.66558C2.02441 11.7574 3.26803 13.001 5.35411 13.001H10.1509C12.237 13.001 13.4806 11.7574 13.4806 9.67131V4.86876C13.4864 2.78268 12.2427 1.53906 10.1567 1.53906ZM7.75539 9.49365C6.52896 9.49365 5.53177 8.49646 5.53177 7.27003C5.53177 6.04361 6.52896 5.04642 7.75539 5.04642C8.98181 5.04642 9.979 6.04361 9.979 7.27003C9.979 8.49646 8.98181 9.49365 7.75539 9.49365ZM11.1481 4.33578C11.1195 4.40455 11.0793 4.46759 11.0278 4.5249C10.9705 4.57648 10.9074 4.61659 10.8386 4.64525C10.7699 4.6739 10.6954 4.6911 10.6209 4.6911C10.4661 4.6911 10.3229 4.63379 10.214 4.5249C10.1624 4.46759 10.1223 4.40455 10.0936 4.33578C10.065 4.267 10.0478 4.1925 10.0478 4.118C10.0478 4.0435 10.065 3.96899 10.0936 3.90022C10.1223 3.82572 10.1624 3.76841 10.214 3.7111C10.3458 3.57929 10.5464 3.51625 10.7298 3.55636C10.7699 3.5621 10.8043 3.57356 10.8386 3.59075C10.873 3.60221 10.9074 3.61941 10.9418 3.64233C10.9705 3.65952 10.9991 3.68818 11.0278 3.7111C11.0793 3.76841 11.1195 3.82572 11.1481 3.90022C11.1768 3.96899 11.194 4.0435 11.194 4.118C11.194 4.1925 11.1768 4.267 11.1481 4.33578Z" fill="black"/>
</svg>
