<svg width="16" height="16" viewBox="0 0 16 16" fill="none" xmlns="http://www.w3.org/2000/svg">
<path d="M14.3997 14.6666H1.59967C1.43967 14.6666 1.33301 14.56 1.33301 14.4C1.33301 14.24 1.43967 14.1333 1.59967 14.1333H14.3997C14.5597 14.1333 14.6663 14.24 14.6663 14.4C14.6663 14.56 14.5597 14.6666 14.3997 14.6666Z" fill="#8E8E8E"/>
<path d="M6.93281 4.5333H5.89281V3.19997C5.89281 3.06663 5.75948 2.9333 5.62615 2.9333H4.82615V2.39997C4.82615 2.26663 4.69281 2.1333 4.55948 2.1333C4.42615 2.1333 4.29281 2.26663 4.29281 2.39997V2.9333H3.49281C3.35948 2.9333 3.22615 3.06663 3.22615 3.19997V4.5333H2.39948C2.26615 4.5333 2.13281 4.66663 2.13281 4.79997V14.4C2.13281 14.5333 2.26615 14.6666 2.39948 14.6666H3.73281V13.0933C3.73281 12.5066 4.18615 12 4.74615 12C5.35948 11.9733 5.86615 12.4533 5.86615 13.0666V14.6666H6.98615C6.95948 14.5866 6.93281 14.5066 6.93281 14.4V4.5333ZM5.86615 11.2C5.86615 11.3333 5.73281 11.4666 5.59948 11.4666H3.99948C3.86615 11.4666 3.73281 11.3333 3.73281 11.2V10.1333C3.73281 9.99997 3.86615 9.86663 3.99948 9.86663H5.59948C5.73281 9.86663 5.86615 9.99997 5.86615 10.1333V11.2ZM5.86615 9.06663C5.86615 9.19997 5.73281 9.3333 5.59948 9.3333H3.99948C3.86615 9.3333 3.73281 9.19997 3.73281 9.06663V7.99997C3.73281 7.86663 3.86615 7.7333 3.99948 7.7333H5.59948C5.73281 7.7333 5.86615 7.86663 5.86615 7.99997V9.06663ZM5.86615 6.9333C5.86615 7.06663 5.73281 7.19997 5.59948 7.19997H3.99948C3.86615 7.19997 3.73281 7.06663 3.73281 6.9333V5.86663C3.73281 5.7333 3.86615 5.59997 3.99948 5.59997H5.59948C5.73281 5.59997 5.86615 5.7333 5.86615 5.86663V6.9333Z" fill="#8E8E8E"/>
<path d="M13.6258 1.33331H7.70582C7.57249 1.33331 7.46582 1.46665 7.46582 1.59998V14.4C7.46582 14.5333 7.57249 14.6666 7.70582 14.6666H9.43915V12.32C9.43915 11.5733 9.99915 10.9066 10.6925 10.9333C11.3592 10.96 11.8925 11.5466 11.8925 12.2666V14.6666H13.6258C13.7592 14.6666 13.8658 14.5333 13.8658 14.4V1.59998C13.8658 1.46665 13.7592 1.33331 13.6258 1.33331ZM10.4258 10.1333C10.4258 10.2666 10.3192 10.4 10.1858 10.4H8.71915C8.58582 10.4 8.47915 10.2666 8.47915 10.1333V9.06665C8.47915 8.93331 8.58582 8.79998 8.71915 8.79998H10.1858C10.3192 8.79998 10.4258 8.93331 10.4258 9.06665V10.1333ZM10.4258 7.99998C10.4258 8.13331 10.3192 8.26665 10.1858 8.26665H8.71915C8.58582 8.26665 8.47915 8.13331 8.47915 7.99998V6.93331C8.47915 6.79998 8.58582 6.66665 8.71915 6.66665H10.1858C10.3192 6.66665 10.4258 6.79998 10.4258 6.93331V7.99998ZM10.4258 5.86665C10.4258 5.99998 10.3192 6.13331 10.1858 6.13331H8.71915C8.58582 6.13331 8.47915 5.99998 8.47915 5.86665V4.79998C8.47915 4.66665 8.58582 4.53331 8.71915 4.53331H10.1858C10.3192 4.53331 10.4258 4.66665 10.4258 4.79998V5.86665ZM10.4258 3.73331C10.4258 3.86665 10.3192 3.99998 10.1858 3.99998H8.71915C8.58582 3.99998 8.47915 3.86665 8.47915 3.73331V2.66665C8.47915 2.53331 8.58582 2.39998 8.71915 2.39998H10.1858C10.3192 2.39998 10.4258 2.53331 10.4258 2.66665V3.73331ZM12.8792 10.1333C12.8792 10.2666 12.7725 10.4 12.6392 10.4H11.1725C11.0392 10.4 10.9325 10.2666 10.9325 10.1333V9.06665C10.9325 8.93331 11.0392 8.79998 11.1725 8.79998H12.6392C12.7725 8.79998 12.8792 8.93331 12.8792 9.06665V10.1333ZM12.8792 7.99998C12.8792 8.13331 12.7725 8.26665 12.6392 8.26665H11.1725C11.0392 8.26665 10.9325 8.13331 10.9325 7.99998V6.93331C10.9325 6.79998 11.0392 6.66665 11.1725 6.66665H12.6392C12.7725 6.66665 12.8792 6.79998 12.8792 6.93331V7.99998ZM12.8792 5.86665C12.8792 5.99998 12.7725 6.13331 12.6392 6.13331H11.1725C11.0392 6.13331 10.9325 5.99998 10.9325 5.86665V4.79998C10.9325 4.66665 11.0392 4.53331 11.1725 4.53331H12.6392C12.7725 4.53331 12.8792 4.66665 12.8792 4.79998V5.86665ZM12.8792 3.73331C12.8792 3.86665 12.7725 3.99998 12.6392 3.99998H11.1725C11.0392 3.99998 10.9325 3.86665 10.9325 3.73331V2.66665C10.9325 2.53331 11.0392 2.39998 11.1725 2.39998H12.6392C12.7725 2.39998 12.8792 2.53331 12.8792 2.66665V3.73331Z" fill="#8E8E8E"/>
</svg>
