<svg width="22" height="23" viewBox="0 0 22 23" fill="none" xmlns="http://www.w3.org/2000/svg">
<path d="M4.0625 3.37522H3.6875V1.87522C3.68751 1.8404 3.6972 1.80627 3.71551 1.77665C3.73381 1.74704 3.76 1.7231 3.79114 1.70752L5.29114 0.95752L5.45886 1.29292L4.0625 1.9911V3.37522Z" fill="#EDEDED"/>
<path d="M5 6.375V12.75L6.5 12V5.625L5 6.375Z" fill="#BEBEBE"/>
<path d="M21.875 15L11 9.375L0.125 15L11 20.625L21.875 15Z" fill="#8380F3"/>
<path d="M11 20.625L21.875 15V17.25L11 22.875" fill="#4B48D7"/>
<path d="M9.125 2.625V12.375L12.125 13.875V4.125L9.125 2.625Z" fill="#E2AC40"/>
<path d="M12.125 1.125L9.125 2.625L12.125 4.125L15.125 2.625L12.125 1.125Z" fill="#F4C762"/>
<path d="M12.125 4.125V13.875L15.125 12.375V2.625L12.125 4.125Z" fill="#CC993E"/>
<path d="M0.125 15V17.25L11 22.875V20.625L0.125 15Z" fill="#5350EF"/>
<path d="M14 5.625V14.625L17 16.125V7.125L14 5.625Z" fill="#E2AC40"/>
<path d="M17 4.125L14 5.625L17 7.125L20 5.625L17 4.125Z" fill="#F4C762"/>
<path d="M17 16.125L20 14.625V5.625L17 7.125V16.125Z" fill="#CC993E"/>
<path d="M16.8125 1.875H17.1875V5.625H16.8125V1.875Z" fill="#DFDFDF"/>
<path d="M1.625 11.25V14.25L6.125 16.5V13.5L1.625 11.25Z" fill="#DFDFDF"/>
<path d="M1.62109 11.25L3.12037 8.25144L7.61821 10.5004L6.11893 13.4989L1.62109 11.25Z" fill="#EDEDED"/>
<path d="M3.5 3.375V7.125L8 4.875V1.125L3.5 3.375Z" fill="#DFDFDF"/>
<path d="M15.0332 11.2354L15.2008 10.9001L15.9505 11.2749L15.7829 11.6102L15.0332 11.2354Z" fill="#F4C762"/>
<path d="M15.0332 9.36084L15.2008 9.02559L15.9505 9.40042L15.7829 9.73567L15.0332 9.36084Z" fill="#F4C762"/>
<path d="M18.0312 11.271L18.7809 10.8962L18.9485 11.2314L18.1989 11.6062L18.0312 11.271Z" fill="#F4C762"/>
<path d="M18.0312 9.39648L18.7809 9.02165L18.9485 9.3569L18.1989 9.73173L18.0312 9.39648Z" fill="#F4C762"/>
<path d="M10.1602 8.79639L10.3278 8.46114L11.0774 8.83597L10.9098 9.17122L10.1602 8.79639Z" fill="#F4C762"/>
<path d="M7.5293 17.46L12.4031 14.9407L12.5752 15.2737L7.70142 17.793L7.5293 17.46Z" fill="#9B99F5"/>
<path d="M9.0293 18.2104L13.9031 15.6912L14.0752 16.0242L9.20142 18.5434L9.0293 18.2104Z" fill="#9B99F5"/>
<path d="M10.5293 18.9609L15.4031 16.4417L15.5752 16.7747L10.7014 19.2939L10.5293 18.9609Z" fill="#9B99F5"/>
<path d="M4.53711 4.52002L6.78605 3.39555L6.95367 3.7308L4.70473 4.85527L4.53711 4.52002Z" fill="#BEBEBE"/>
<path d="M15.3125 15.2812L15.6875 15.4688V12.375H15.3125V15.2812Z" fill="#F4C762"/>
<path d="M10.4375 13.0312L10.8125 13.2188V10.5H10.4375V13.0312Z" fill="#F4C762"/>
<path d="M7.625 10.5L6.125 13.5V16.5L9.125 15V12L7.625 10.5Z" fill="#BEBEBE"/>
</svg>
