<svg width="22" height="22" viewBox="0 0 22 22" fill="none" xmlns="http://www.w3.org/2000/svg">
<g clip-path="url(#clip0_66_25837)">
<path d="M18.7647 9.12127C18.7647 8.85156 18.5974 8.61012 18.3449 8.51541L15.1096 7.30219C14.6865 7.14355 14.2353 7.45628 14.2353 7.90805V13.6977L11.6471 12.7184V4.30662L22 8.22396V16.6357L18.7647 15.4116V9.12127ZM17.4706 14.9219L15.5294 14.1874V8.84172L17.4706 9.56965V14.9219ZM10.3529 4.30662V12.7184L0 16.6357V8.22396L10.3529 4.30662ZM2.26471 12.8419C2.26471 13.2936 2.71597 13.6064 3.13895 13.4477L8.31544 11.5066C8.56801 11.4118 8.73529 11.1704 8.73529 10.9007V7.66541C8.73529 7.21363 8.28403 6.90091 7.86105 7.05955L2.68456 9.00075C2.43199 9.09545 2.26471 9.33689 2.26471 9.60661V12.8419ZM21.3055 17.7566L11.2272 21.5359C11.0807 21.5908 10.9193 21.5908 10.7728 21.5359L0.694504 17.7566L11 13.8572L21.3055 17.7566ZM10.3529 0.422852V3.01249L0 6.92982V4.75359C0 4.48387 0.16732 4.24243 0.419847 4.14773L10.3529 0.422852ZM11.6471 0.422852L21.5802 4.14773C21.8327 4.24243 22 4.48387 22 4.75359V6.92982L11.6471 3.01249V0.422852ZM3.55884 11.9081V10.0549L7.4412 8.59908V10.4523L3.55884 11.9081Z" fill="#D6D7D8"/>
</g>
<defs>
<clipPath id="clip0_66_25837">
<rect width="22" height="22" fill="white"/>
</clipPath>
</defs>
</svg>
