<svg width="20" height="20" viewBox="0 0 20 20" fill="none" xmlns="http://www.w3.org/2000/svg">
<path fill-rule="evenodd" clip-rule="evenodd" d="M0.833984 9.99992C0.833984 5.67871 0.833984 3.5181 2.17642 2.17568C3.51884 0.833252 5.67944 0.833252 10.0007 0.833252C14.3218 0.833252 16.4825 0.833252 17.8249 2.17568C19.1673 3.5181 19.1673 5.67871 19.1673 9.99992C19.1673 14.3211 19.1673 16.4818 17.8249 17.8241C16.4825 19.1666 14.3218 19.1666 10.0007 19.1666C5.67944 19.1666 3.51884 19.1666 2.17642 17.8241C0.833984 16.4818 0.833984 14.3211 0.833984 9.99992ZM10.459 5.41658C10.459 5.03689 10.7668 4.72909 11.1465 4.72909H14.584C14.9637 4.72909 15.2715 5.03689 15.2715 5.41658V8.85408C15.2715 9.23377 14.9637 9.54158 14.584 9.54158C14.2043 9.54158 13.8965 9.23377 13.8965 8.85408V7.07636L7.07709 13.8958H8.85482C9.2345 13.8958 9.54232 14.2036 9.54232 14.5833C9.54232 14.9629 9.2345 15.2708 8.85482 15.2708H5.41732C5.03762 15.2708 4.72982 14.9629 4.72982 14.5833V11.1458C4.72982 10.7661 5.03762 10.4583 5.41732 10.4583C5.79701 10.4583 6.10482 10.7661 6.10482 11.1458V12.9234L12.9242 6.10408H11.1465C10.7668 6.10408 10.459 5.79628 10.459 5.41658Z" fill="#D6D7D8"/>
</svg>
