<svg width="14" height="11" viewBox="0 0 14 11" fill="none" xmlns="http://www.w3.org/2000/svg">
<path d="M5.66557 7.52727L9.17195 5.50046L5.66557 3.47365V7.52727ZM13.4755 2.2373C13.5634 2.55483 13.6242 2.98046 13.6647 3.52095C13.712 4.06143 13.7323 4.52759 13.7323 4.93296L13.7728 5.50046C13.7728 6.98003 13.6647 8.06776 13.4755 8.76363C13.3066 9.37167 12.9148 9.76352 12.3067 9.93242C11.9892 10.0202 11.4082 10.0811 10.5164 10.1216C9.63812 10.1689 8.83415 10.1892 8.09098 10.1892L7.01678 10.2297C4.186 10.2297 2.42267 10.1216 1.7268 9.93242C1.11876 9.76352 0.726909 9.37167 0.558008 8.76363C0.470179 8.44609 0.409375 8.02046 0.368839 7.47998C0.321547 6.9395 0.301278 6.47333 0.301278 6.06797L0.260742 5.50046C0.260742 4.02089 0.368839 2.93317 0.558008 2.2373C0.726909 1.62926 1.11876 1.23741 1.7268 1.06851C2.04434 0.980677 2.62535 0.919873 3.51715 0.879337C4.39543 0.832044 5.1994 0.811776 5.94257 0.811776L7.01678 0.77124C9.84755 0.77124 11.6109 0.879337 12.3067 1.06851C12.9148 1.23741 13.3066 1.62926 13.4755 2.2373Z" fill="black"/>
</svg>
