<svg width="25" height="24" viewBox="0 0 25 24" fill="none" xmlns="http://www.w3.org/2000/svg">
<g clip-path="url(#clip0_786_36767)">
<path d="M22.8132 4.72034H6.20644C6.01187 4.72034 5.85413 4.87803 5.85413 5.07265C5.85413 5.26727 6.01187 5.42496 6.20644 5.42496H22.8132C23.3548 5.42496 23.7954 5.86559 23.7954 6.40721V13.9087C23.7954 14.4503 23.3548 14.891 22.8132 14.891H21.9695V12.5954C21.9695 12.4008 21.8118 12.2431 21.6172 12.2431H3.38277C3.1882 12.2431 3.03045 12.4008 3.03045 12.5954V14.891H2.18688C1.64525 14.891 1.20463 14.4503 1.20463 13.9087V6.40721C1.20463 5.86559 1.64525 5.42496 2.18688 5.42496H4.79719C4.99176 5.42496 5.1495 5.26727 5.1495 5.07265C5.1495 4.87803 4.99176 4.72034 4.79719 4.72034H2.18688C1.25672 4.72034 0.5 5.47706 0.5 6.40721V13.9087C0.5 14.8389 1.25672 15.5956 2.18688 15.5956H5.85427C6.04884 15.5956 6.20658 15.4379 6.20658 15.2433C6.20658 15.0487 6.04884 14.891 5.85427 14.891H3.73508V14.2716H17.7365C17.9311 14.2716 18.0888 14.1139 18.0888 13.9193C18.0888 13.7247 17.9311 13.567 17.7365 13.567H3.73508V12.9477H21.2649V13.567H19.1458C18.9512 13.567 18.7935 13.7247 18.7935 13.9193C18.7935 14.1139 18.9512 14.2716 19.1458 14.2716H21.2649V14.891H7.26347C7.0689 14.891 6.91116 15.0487 6.91116 15.2433C6.91116 15.4379 7.0689 15.5956 7.26347 15.5956H22.8132C23.7433 15.5956 24.5 14.8389 24.5 13.9087V6.40721C24.5 5.47711 23.7433 4.72034 22.8132 4.72034Z" fill="black"/>
<path d="M21.6169 7.58488C21.8115 7.58488 21.9692 7.42718 21.9692 7.23256C21.9692 7.03794 21.8115 6.88025 21.6169 6.88025H20.575C20.3804 6.88025 20.2227 7.03794 20.2227 7.23256C20.2227 7.42718 20.3804 7.58488 20.575 7.58488H21.6169Z" fill="black"/>
<path d="M18.968 7.58488C19.1625 7.58488 19.3203 7.42718 19.3203 7.23256C19.3203 7.03794 19.1625 6.88025 18.968 6.88025H12.2996C12.105 6.88025 11.9473 7.03794 11.9473 7.23256C11.9473 7.42718 12.105 7.58488 12.2996 7.58488H18.968Z" fill="black"/>
<path d="M7.12693 16.5382C6.93236 16.5382 6.77461 16.6959 6.77461 16.8905C6.77461 16.901 6.76329 17.9454 5.78593 18.6401C5.62734 18.7528 5.59014 18.9728 5.70288 19.1314C5.7716 19.2281 5.88011 19.2796 5.99036 19.2796C6.06097 19.2796 6.13228 19.2584 6.19419 19.2144C7.46468 18.3114 7.47929 16.9481 7.47929 16.8905C7.47924 16.6959 7.3215 16.5382 7.12693 16.5382Z" fill="black"/>
<path d="M9.65016 16.5382C9.45559 16.5382 9.29785 16.6959 9.29785 16.8905V18.9273C9.29785 19.1219 9.45559 19.2796 9.65016 19.2796C9.84474 19.2796 10.0025 19.1219 10.0025 18.9273V16.8905C10.0025 16.6959 9.84474 16.5382 9.65016 16.5382Z" fill="black"/>
<path d="M12.5994 16.5382C12.4048 16.5382 12.2471 16.6959 12.2471 16.8905V18.9273C12.2471 19.1219 12.4048 19.2796 12.5994 19.2796C12.794 19.2796 12.9517 19.1219 12.9517 18.9273V16.8905C12.9517 16.6959 12.794 16.5382 12.5994 16.5382Z" fill="black"/>
<path d="M19.2138 18.6401C18.2496 17.9548 18.2257 16.9358 18.2251 16.8889C18.2243 16.6951 18.0669 16.5382 17.8728 16.5382C17.6783 16.5382 17.5205 16.6959 17.5205 16.8905C17.5205 16.9481 17.5351 18.3114 18.8056 19.2145C18.8675 19.2585 18.9388 19.2797 19.0094 19.2797C19.1196 19.2796 19.2282 19.228 19.2969 19.1314C19.4096 18.9728 19.3724 18.7528 19.2138 18.6401Z" fill="black"/>
<path d="M15.3504 16.5382C15.1558 16.5382 14.998 16.6959 14.998 16.8905V18.9273C14.998 19.1219 15.1558 19.2796 15.3504 19.2796C15.5449 19.2796 15.7027 19.1219 15.7027 18.9273V16.8905C15.7027 16.6959 15.5449 16.5382 15.3504 16.5382Z" fill="black"/>
</g>
<defs>
<clipPath id="clip0_786_36767">
<rect width="24" height="24" fill="white" transform="translate(0.5)"/>
</clipPath>
</defs>
</svg>
