<svg width="24" height="24" viewBox="0 0 24 24" fill="none" xmlns="http://www.w3.org/2000/svg">
<g clip-path="url(#clip0_821_70379)">
<path d="M22.3132 4.72021H5.70644C5.51187 4.72021 5.35413 4.87791 5.35413 5.07253C5.35413 5.26715 5.51187 5.42484 5.70644 5.42484H22.3132C22.8548 5.42484 23.2954 5.86547 23.2954 6.40709V13.9086C23.2954 14.4502 22.8548 14.8908 22.3132 14.8908H21.4695V12.5953C21.4695 12.4007 21.3118 12.243 21.1172 12.243H2.88277C2.6882 12.243 2.53045 12.4007 2.53045 12.5953V14.8908H1.68688C1.14525 14.8908 0.704626 14.4502 0.704626 13.9086V6.40709C0.704626 5.86547 1.14525 5.42484 1.68688 5.42484H4.29719C4.49176 5.42484 4.6495 5.26715 4.6495 5.07253C4.6495 4.87791 4.49176 4.72021 4.29719 4.72021H1.68688C0.756722 4.72021 0 5.47694 0 6.40709V13.9086C0 14.8387 0.756722 15.5955 1.68688 15.5955H5.35427C5.54884 15.5955 5.70658 15.4378 5.70658 15.2432C5.70658 15.0486 5.54884 14.8908 5.35427 14.8908H3.23508V14.2715H17.2365C17.4311 14.2715 17.5888 14.1138 17.5888 13.9192C17.5888 13.7246 17.4311 13.5669 17.2365 13.5669H3.23508V12.9476H20.7649V13.5669H18.6458C18.4512 13.5669 18.2935 13.7246 18.2935 13.9192C18.2935 14.1138 18.4512 14.2715 18.6458 14.2715H20.7649V14.8908H6.76347C6.5689 14.8908 6.41116 15.0486 6.41116 15.2432C6.41116 15.4378 6.5689 15.5955 6.76347 15.5955H22.3132C23.2433 15.5955 24 14.8387 24 13.9086V6.40709C24 5.47698 23.2433 4.72021 22.3132 4.72021Z" fill="#F2F2F2"/>
<path d="M21.1174 7.585C21.312 7.585 21.4697 7.4273 21.4697 7.23268C21.4697 7.03807 21.312 6.88037 21.1174 6.88037H20.0755C19.8809 6.88037 19.7231 7.03807 19.7231 7.23268C19.7231 7.4273 19.8809 7.585 20.0755 7.585H21.1174Z" fill="#F2F2F2"/>
<path d="M18.468 7.585C18.6625 7.585 18.8203 7.4273 18.8203 7.23268C18.8203 7.03807 18.6625 6.88037 18.468 6.88037H11.7996C11.605 6.88037 11.4473 7.03807 11.4473 7.23268C11.4473 7.4273 11.605 7.585 11.7996 7.585H18.468Z" fill="#F2F2F2"/>
<path d="M6.62741 16.5381C6.43284 16.5381 6.2751 16.6958 6.2751 16.8904C6.2751 16.9009 6.26378 17.9453 5.28642 18.64C5.12783 18.7527 5.09062 18.9727 5.20336 19.1313C5.27209 19.228 5.3806 19.2795 5.49085 19.2795C5.56146 19.2795 5.63276 19.2583 5.69468 19.2143C6.96517 18.3113 6.97977 16.9479 6.97977 16.8904C6.97973 16.6958 6.82199 16.5381 6.62741 16.5381Z" fill="#F2F2F2"/>
<path d="M9.15016 16.5381C8.95559 16.5381 8.79785 16.6958 8.79785 16.8904V18.9271C8.79785 19.1218 8.95559 19.2795 9.15016 19.2795C9.34474 19.2795 9.50248 19.1218 9.50248 18.9271V16.8904C9.50248 16.6958 9.34474 16.5381 9.15016 16.5381Z" fill="#F2F2F2"/>
<path d="M12.0989 16.5381C11.9043 16.5381 11.7466 16.6958 11.7466 16.8904V18.9271C11.7466 19.1218 11.9043 19.2795 12.0989 19.2795C12.2935 19.2795 12.4512 19.1218 12.4512 18.9271V16.8904C12.4512 16.6958 12.2935 16.5381 12.0989 16.5381Z" fill="#F2F2F2"/>
<path d="M18.7138 18.64C17.7496 17.9547 17.7257 16.9357 17.7251 16.8888C17.7243 16.6949 17.5669 16.5381 17.3728 16.5381C17.1783 16.5381 17.0205 16.6958 17.0205 16.8904C17.0205 16.948 17.0351 18.3113 18.3056 19.2144C18.3675 19.2584 18.4388 19.2796 18.5094 19.2796C18.6196 19.2795 18.7282 19.2279 18.7969 19.1313C18.9096 18.9727 18.8724 18.7527 18.7138 18.64Z" fill="#F2F2F2"/>
<path d="M14.8499 16.5381C14.6553 16.5381 14.4976 16.6958 14.4976 16.8904V18.9271C14.4976 19.1218 14.6553 19.2795 14.8499 19.2795C15.0444 19.2795 15.2022 19.1218 15.2022 18.9271V16.8904C15.2022 16.6958 15.0444 16.5381 14.8499 16.5381Z" fill="#F2F2F2"/>
</g>
<defs>
<clipPath id="clip0_821_70379">
<rect width="24" height="24" fill="white"/>
</clipPath>
</defs>
</svg>
