<svg width="24" height="24" viewBox="0 0 24 24" fill="none" xmlns="http://www.w3.org/2000/svg">
<path d="M17.1236 21.6407H6.87652C6.67449 21.6407 6.51196 21.4782 6.51196 21.2762C6.51196 21.0742 6.67449 20.9116 6.87652 20.9116H17.1251C17.3272 20.9116 17.4897 21.0742 17.4897 21.2762C17.4897 21.4782 17.3256 21.6407 17.1236 21.6407Z" fill="#F2F2F2"/>
<path d="M21.4785 21.6408H20.9408C20.7388 21.6408 20.5763 21.4783 20.5763 21.2763C20.5763 21.0742 20.7388 20.9117 20.9408 20.9117H21.4785C22.2821 20.9117 22.9368 20.257 22.9368 19.4535V18.4251C22.9368 17.7552 22.4826 17.1735 21.834 17.0109L19.3793 16.3942C18.9965 16.2985 18.6456 16.0996 18.3661 15.8201L15.2583 12.7122C14.9864 12.4403 14.6112 12.2854 14.2269 12.2854H5.48512C5.09625 12.2854 4.72866 12.4373 4.45372 12.7122L1.49018 15.6727C1.21524 15.9492 1.06334 16.3152 1.06334 16.7041V19.4535C1.06334 20.257 1.71803 20.9117 2.52157 20.9117H3.05929C3.26132 20.9117 3.42385 21.0742 3.42385 21.2763C3.42385 21.4783 3.26132 21.6408 3.05929 21.6408H2.52157C1.31549 21.6408 0.334229 20.6596 0.334229 19.4535V16.7041C0.334229 16.1193 0.562077 15.5709 0.975241 15.1578L3.93879 12.1942C4.35195 11.7811 4.90182 11.5532 5.48512 11.5532H14.2269C14.8117 11.5532 15.3601 11.7811 15.7732 12.1942L18.8811 15.3021C19.0679 15.4889 19.3018 15.6211 19.557 15.6849L22.0117 16.3016C22.9854 16.5461 23.6659 17.418 23.6659 18.4236V19.4535C23.6659 20.6596 22.6846 21.6408 21.4785 21.6408Z" fill="#F2F2F2"/>
<path d="M16.6071 17.0063H3.10334C2.83144 17.0063 2.58992 16.8438 2.48511 16.5932C2.38182 16.3425 2.43802 16.057 2.62941 15.8656L4.98536 13.5096C5.16916 13.3258 5.41372 13.2256 5.67346 13.2256H14.037C14.2968 13.2256 14.5413 13.3274 14.7251 13.5096L17.0811 15.8656C17.2725 16.057 17.3302 16.3425 17.2254 16.5932C17.1206 16.8438 16.879 17.0063 16.6071 17.0063ZM3.24916 16.2772H16.4598L14.2087 14.0246C14.1631 13.979 14.1023 13.9532 14.037 13.9532H5.67346C5.60815 13.9532 5.54739 13.979 5.50182 14.0246L3.24916 16.2772Z" fill="#F2F2F2"/>
<path d="M7.01617 17.0064C6.81414 17.0064 6.65161 16.8439 6.65161 16.6418V13.5887C6.65161 13.3867 6.81414 13.2241 7.01617 13.2241C7.21819 13.2241 7.38073 13.3867 7.38073 13.5887V16.6403C7.38073 16.8423 7.21667 17.0064 7.01617 17.0064Z" fill="#F2F2F2"/>
<path d="M10.264 17.0064C10.0619 17.0064 9.89941 16.8439 9.89941 16.6418V13.5887C9.89941 13.3867 10.0619 13.2241 10.264 13.2241C10.466 13.2241 10.6285 13.3867 10.6285 13.5887V16.6403C10.6285 16.8423 10.466 17.0064 10.264 17.0064Z" fill="#F2F2F2"/>
<path d="M4.96723 23.5502C3.71406 23.5502 2.69482 22.5309 2.69482 21.2778C2.69482 20.0246 3.71406 19.0054 4.96723 19.0054C6.22039 19.0054 7.23963 20.0246 7.23963 21.2778C7.23963 22.5309 6.22039 23.5502 4.96723 23.5502ZM4.96723 19.733C4.1166 19.733 3.42394 20.4256 3.42394 21.2763C3.42394 22.1269 4.1166 22.8195 4.96723 22.8195C5.81786 22.8195 6.51052 22.1269 6.51052 21.2763C6.51204 20.4256 5.81938 19.733 4.96723 19.733Z" fill="#F2F2F2"/>
<path d="M4.96713 22.279C4.41422 22.279 3.9646 21.8294 3.9646 21.2765C3.9646 20.7235 4.41422 20.2739 4.96713 20.2739C5.52004 20.2739 5.96966 20.7235 5.96966 21.2765C5.96966 21.8294 5.52004 22.279 4.96713 22.279ZM4.96713 21.003C4.81675 21.003 4.69371 21.1261 4.69371 21.2765C4.69371 21.4268 4.81675 21.5499 4.96713 21.5499C5.11751 21.5499 5.24055 21.4268 5.24055 21.2765C5.24055 21.1261 5.11903 21.003 4.96713 21.003Z" fill="#F2F2F2"/>
<path d="M19.0331 23.5502C17.78 23.5502 16.7607 22.5309 16.7607 21.2778C16.7607 20.0246 17.78 19.0054 19.0331 19.0054C20.2863 19.0054 21.3056 20.0246 21.3056 21.2778C21.3056 22.5309 20.2863 23.5502 19.0331 23.5502ZM19.0331 19.733C18.1825 19.733 17.4899 20.4256 17.4899 21.2763C17.4899 22.1269 18.1825 22.8195 19.0331 22.8195C19.8838 22.8195 20.5764 22.1269 20.5764 21.2763C20.5764 20.4256 19.8838 19.733 19.0331 19.733Z" fill="#F2F2F2"/>
<path d="M19.033 22.279C18.4801 22.279 18.0305 21.8294 18.0305 21.2765C18.0305 20.7235 18.4801 20.2739 19.033 20.2739C19.586 20.2739 20.0356 20.7235 20.0356 21.2765C20.0356 21.8294 19.586 22.279 19.033 22.279ZM19.033 21.003C18.8827 21.003 18.7596 21.1261 18.7596 21.2765C18.7596 21.4268 18.8827 21.5499 19.033 21.5499C19.1834 21.5499 19.3065 21.4268 19.3065 21.2765C19.3065 21.1261 19.1834 21.003 19.033 21.003Z" fill="#F2F2F2"/>
<path d="M23.3012 19.2516H22.1666C21.9645 19.2516 21.802 19.089 21.802 18.887C21.802 18.685 21.9645 18.5225 22.1666 18.5225H23.3012C23.5033 18.5225 23.6658 18.685 23.6658 18.887C23.6658 19.089 23.5033 19.2516 23.3012 19.2516Z" fill="#F2F2F2"/>
<path d="M7.86548 18.9399H8.78447V19.8589H7.86548V18.9399Z" fill="#F2F2F2"/>
<path d="M8.78442 18.021H9.70341V18.94H8.78442V18.021Z" fill="#F2F2F2"/>
<path d="M9.70337 18.9399H10.6224V19.8589H9.70337V18.9399Z" fill="#F2F2F2"/>
<path d="M10.6226 18.021H11.5415V18.94H10.6226V18.021Z" fill="#F2F2F2"/>
<path d="M11.5415 18.9399H12.4605V19.8589H11.5415V18.9399Z" fill="#F2F2F2"/>
<path d="M12.459 18.021H13.378V18.94H12.459V18.021Z" fill="#F2F2F2"/>
<path d="M13.3779 18.9399H14.2969V19.8589H13.3779V18.9399Z" fill="#F2F2F2"/>
<path d="M14.2969 18.021H15.2159V18.94H14.2969V18.021Z" fill="#F2F2F2"/>
<path d="M15.2158 18.9399H16.1348V19.8589H15.2158V18.9399Z" fill="#F2F2F2"/>
<path d="M11.4411 12.2824H8.26945C8.15401 12.2824 8.04464 12.2278 7.97629 12.1351C7.90793 12.0424 7.88667 11.9224 7.9216 11.8116L8.24515 10.7574C8.37122 10.3473 8.74489 10.0708 9.17477 10.0708H10.5373C10.9672 10.0708 11.3408 10.3473 11.4669 10.7574L11.7905 11.8116C11.8239 11.9224 11.8041 12.0424 11.7358 12.1351C11.6659 12.2278 11.5565 12.2824 11.4411 12.2824ZM8.76312 11.5533H10.9474L10.7682 10.97C10.7363 10.8668 10.6436 10.7984 10.5358 10.7984H9.17477C9.06692 10.7984 8.97426 10.8668 8.94236 10.97L8.76312 11.5533Z" fill="#F2F2F2"/>
<path d="M21.5119 8.64295H17.6689C17.4668 8.64295 17.3043 8.48042 17.3043 8.27839C17.3043 8.07637 17.4668 7.91384 17.6689 7.91384H21.5119C21.8218 7.91384 22.1134 7.79384 22.3321 7.57358L22.3899 7.51586C22.4977 7.40801 22.5828 7.28042 22.6405 7.13915C22.6997 6.99789 22.7286 6.84903 22.7286 6.69561C22.7286 6.42979 22.6359 6.16852 22.4673 5.96194C22.443 5.93156 22.4157 5.9027 22.3884 5.87535L21.0349 4.52194C20.8162 4.3032 20.5246 4.18168 20.2147 4.18168H9.38886C9.21873 4.18168 9.07291 4.06472 9.03341 3.89915L8.8162 2.96194C8.69164 2.42422 8.34379 1.96092 7.86379 1.69054L7.41569 1.43839V4.73308C7.41417 6.48599 8.84202 7.91384 10.5949 7.91384H14.959C15.161 7.91384 15.3235 8.07637 15.3235 8.27839C15.3235 8.48042 15.161 8.64295 14.959 8.64295H10.5949C9.54987 8.64295 8.5686 8.23586 7.83037 7.49763C7.09215 6.75941 6.68506 5.77662 6.68506 4.73308V0.814089C6.68506 0.684975 6.75341 0.564975 6.86582 0.499659C6.97822 0.434342 7.11645 0.432823 7.22886 0.496621L8.22075 1.05561C8.87848 1.42624 9.35544 2.06118 9.52556 2.79637L9.67898 3.45409H20.2162C20.7205 3.45409 21.1944 3.65004 21.5514 4.007L22.9048 5.36042C22.9489 5.40447 22.9929 5.45308 23.0324 5.50168C23.3073 5.83738 23.4577 6.26118 23.4577 6.69561C23.4577 6.94472 23.4091 7.18776 23.3134 7.41865C23.2177 7.64953 23.081 7.8546 22.9048 8.0308L22.8471 8.08852C22.4901 8.44548 22.0162 8.64295 21.5119 8.64295Z" fill="#F2F2F2"/>
<path d="M14.1038 10.2272C13.9747 10.2272 13.8562 10.1603 13.7909 10.0495C13.7256 9.93858 13.7226 9.80187 13.7833 9.68946L15.2188 7.03124C15.2826 6.91276 15.4056 6.83984 15.5393 6.83984H18.357C18.477 6.83984 18.5909 6.89908 18.6577 6.99934C18.7246 7.09959 18.7398 7.22567 18.6957 7.33807C18.6836 7.36845 18.398 8.08086 17.6901 8.79174C17.2739 9.20946 16.797 9.54212 16.2714 9.7806C15.6167 10.0753 14.8876 10.2272 14.1038 10.2272ZM15.7565 7.56744L14.7357 9.45858C15.6912 9.3401 16.5099 8.94212 17.1752 8.27529C17.4258 8.02465 17.6127 7.77402 17.7463 7.56744H15.7565Z" fill="#F2F2F2"/>
<path d="M22.7499 6.09691H19.633C19.0193 6.09691 18.4406 5.86147 18.0001 5.43615C17.5611 5.01084 17.3074 4.44122 17.2862 3.83059C17.2786 3.63008 17.4365 3.45995 17.637 3.45388C17.8375 3.44628 18.0077 3.60426 18.0137 3.80476C18.0441 4.68122 18.7565 5.3678 19.633 5.3678H22.7499C22.952 5.3678 23.1145 5.53033 23.1145 5.73236C23.1145 5.93438 22.952 6.09691 22.7499 6.09691Z" fill="#F2F2F2"/>
<path d="M16.4947 5.50939H15.7337C15.5317 5.50939 15.3691 5.34686 15.3691 5.14483C15.3691 4.94281 15.5317 4.78027 15.7337 4.78027H16.4947C16.6967 4.78027 16.8593 4.94281 16.8593 5.14483C16.8593 5.34686 16.6967 5.50939 16.4947 5.50939Z" fill="#F2F2F2"/>
<path d="M14.4576 5.50939H13.6966C13.4946 5.50939 13.332 5.34686 13.332 5.14483C13.332 4.94281 13.4946 4.78027 13.6966 4.78027H14.4576C14.6596 4.78027 14.8222 4.94281 14.8222 5.14483C14.8222 5.34686 14.6596 5.50939 14.4576 5.50939Z" fill="#F2F2F2"/>
<path d="M12.4207 5.50939H11.6597C11.4577 5.50939 11.2952 5.34686 11.2952 5.14483C11.2952 4.94281 11.4577 4.78027 11.6597 4.78027H12.4207C12.6228 4.78027 12.7853 4.94281 12.7853 5.14483C12.7853 5.34686 12.6212 5.50939 12.4207 5.50939Z" fill="#F2F2F2"/>
<path d="M10.3839 5.50939H9.62286C9.42083 5.50939 9.2583 5.34686 9.2583 5.14483C9.2583 4.94281 9.42083 4.78027 9.62286 4.78027H10.3839C10.5859 4.78027 10.7484 4.94281 10.7484 5.14483C10.7484 5.34686 10.5844 5.50939 10.3839 5.50939Z" fill="#F2F2F2"/>
<path d="M5.41211 4.25939H0.906793C0.704768 4.25939 0.542236 4.09686 0.542236 3.89483C0.542236 3.69281 0.704768 3.53027 0.906793 3.53027H5.41211C5.61413 3.53027 5.77667 3.69281 5.77667 3.89483C5.77667 4.09686 5.61413 4.25939 5.41211 4.25939Z" fill="#F2F2F2"/>
<path d="M5.41222 5.70226H2.43804C2.23602 5.70226 2.07349 5.53973 2.07349 5.3377C2.07349 5.13568 2.23602 4.97314 2.43804 4.97314H5.41222C5.61425 4.97314 5.77678 5.13568 5.77678 5.3377C5.77678 5.53973 5.61425 5.70226 5.41222 5.70226Z" fill="#F2F2F2"/>
<path d="M5.41211 7.14708H0.906793C0.704768 7.14708 0.542236 6.98455 0.542236 6.78253C0.542236 6.5805 0.704768 6.41797 0.906793 6.41797H5.41211C5.61413 6.41797 5.77667 6.5805 5.77667 6.78253C5.77667 6.98455 5.61413 7.14708 5.41211 7.14708Z" fill="#F2F2F2"/>
</svg>
