<svg width="25" height="24" viewBox="0 0 25 24" fill="none" xmlns="http://www.w3.org/2000/svg">
<g clip-path="url(#clip0_786_36746)">
<path d="M17.6234 21.6411H7.37628C7.17425 21.6411 7.01172 21.4786 7.01172 21.2765C7.01172 21.0745 7.17425 20.912 7.37628 20.912H17.6249C17.8269 20.912 17.9894 21.0745 17.9894 21.2765C17.9894 21.4786 17.8254 21.6411 17.6234 21.6411Z" fill="black"/>
<path d="M21.9783 21.6411H21.4406C21.2385 21.6411 21.076 21.4785 21.076 21.2765C21.076 21.0745 21.2385 20.9119 21.4406 20.9119H21.9783C22.7818 20.9119 23.4365 20.2573 23.4365 19.4537V18.4254C23.4365 17.7555 22.9823 17.1737 22.3337 17.0112L19.879 16.3945C19.4963 16.2988 19.1454 16.0998 18.8659 15.8203L15.758 12.7125C15.4861 12.4406 15.1109 12.2856 14.7266 12.2856H5.98487C5.59601 12.2856 5.22842 12.4375 4.95348 12.7125L1.98993 15.673C1.715 15.9494 1.5631 16.3155 1.5631 16.7044V19.4537C1.5631 20.2573 2.21778 20.9119 3.02133 20.9119H3.55905C3.76107 20.9119 3.9236 21.0745 3.9236 21.2765C3.9236 21.4785 3.76107 21.6411 3.55905 21.6411H3.02133C1.81525 21.6411 0.833984 20.6598 0.833984 19.4537V16.7044C0.833984 16.1195 1.06183 15.5712 1.475 15.158L4.43854 12.1945C4.85171 11.7813 5.40158 11.5535 5.98487 11.5535H14.7266C15.3115 11.5535 15.8598 11.7813 16.273 12.1945L19.3808 15.3023C19.5677 15.4892 19.8016 15.6213 20.0568 15.6851L22.5115 16.3018C23.4851 16.5464 24.1656 17.4183 24.1656 18.4238V19.4537C24.1656 20.6598 23.1844 21.6411 21.9783 21.6411Z" fill="black"/>
<path d="M17.1066 17.0066H3.60285C3.33095 17.0066 3.08943 16.8441 2.98462 16.5934C2.88133 16.3428 2.93753 16.0572 3.12892 15.8658L5.48487 13.5099C5.66867 13.3261 5.91323 13.2258 6.17298 13.2258H14.5365C14.7963 13.2258 15.0408 13.3276 15.2246 13.5099L17.5806 15.8658C17.772 16.0572 17.8297 16.3428 17.7249 16.5934C17.6201 16.8441 17.3785 17.0066 17.1066 17.0066ZM3.74867 16.2775H16.9593L14.7082 14.0248C14.6626 13.9792 14.6018 13.9534 14.5365 13.9534H6.17298C6.10766 13.9534 6.0469 13.9792 6.00133 14.0248L3.74867 16.2775Z" fill="black"/>
<path d="M7.51592 17.0066C7.3139 17.0066 7.15137 16.8441 7.15137 16.6421V13.5889C7.15137 13.3869 7.3139 13.2244 7.51592 13.2244C7.71795 13.2244 7.88048 13.3869 7.88048 13.5889V16.6406C7.88048 16.8426 7.71643 17.0066 7.51592 17.0066Z" fill="black"/>
<path d="M10.764 17.0066C10.5619 17.0066 10.3994 16.8441 10.3994 16.6421V13.5889C10.3994 13.3869 10.5619 13.2244 10.764 13.2244C10.966 13.2244 11.1285 13.3869 11.1285 13.5889V16.6406C11.1285 16.8426 10.966 17.0066 10.764 17.0066Z" fill="black"/>
<path d="M5.46674 23.5504C4.21358 23.5504 3.19434 22.5312 3.19434 21.278C3.19434 20.0249 4.21358 19.0056 5.46674 19.0056C6.71991 19.0056 7.73915 20.0249 7.73915 21.278C7.73915 22.5312 6.71991 23.5504 5.46674 23.5504ZM5.46674 19.7332C4.61611 19.7332 3.92345 20.4259 3.92345 21.2765C3.92345 22.1271 4.61611 22.8198 5.46674 22.8198C6.31737 22.8198 7.01003 22.1271 7.01003 21.2765C7.01155 20.4259 6.31889 19.7332 5.46674 19.7332Z" fill="black"/>
<path d="M5.4664 22.279C4.91349 22.279 4.46387 21.8294 4.46387 21.2765C4.46387 20.7235 4.91349 20.2739 5.4664 20.2739C6.01931 20.2739 6.46893 20.7235 6.46893 21.2765C6.46893 21.8294 6.01931 22.279 5.4664 22.279ZM5.4664 21.003C5.31602 21.003 5.19298 21.1261 5.19298 21.2765C5.19298 21.4268 5.31602 21.5499 5.4664 21.5499C5.61678 21.5499 5.73982 21.4268 5.73982 21.2765C5.73982 21.1261 5.6183 21.003 5.4664 21.003Z" fill="black"/>
<path d="M19.5322 23.5504C18.279 23.5504 17.2598 22.5312 17.2598 21.278C17.2598 20.0249 18.279 19.0056 19.5322 19.0056C20.7853 19.0056 21.8046 20.0249 21.8046 21.278C21.8046 22.5312 20.7853 23.5504 19.5322 23.5504ZM19.5322 19.7332C18.6815 19.7332 17.9889 20.4259 17.9889 21.2765C17.9889 22.1271 18.6815 22.8198 19.5322 22.8198C20.3828 22.8198 21.0755 22.1271 21.0755 21.2765C21.0755 20.4259 20.3828 19.7332 19.5322 19.7332Z" fill="black"/>
<path d="M19.5328 22.279C18.9799 22.279 18.5303 21.8294 18.5303 21.2765C18.5303 20.7235 18.9799 20.2739 19.5328 20.2739C20.0857 20.2739 20.5353 20.7235 20.5353 21.2765C20.5353 21.8294 20.0857 22.279 19.5328 22.279ZM19.5328 21.003C19.3824 21.003 19.2594 21.1261 19.2594 21.2765C19.2594 21.4268 19.3824 21.5499 19.5328 21.5499C19.6832 21.5499 19.8062 21.4268 19.8062 21.2765C19.8062 21.1261 19.6832 21.003 19.5328 21.003Z" fill="black"/>
<path d="M23.801 19.2517H22.6663C22.4643 19.2517 22.3018 19.0892 22.3018 18.8871C22.3018 18.6851 22.4643 18.5226 22.6663 18.5226H23.801C24.003 18.5226 24.1656 18.6851 24.1656 18.8871C24.1656 19.0892 24.003 19.2517 23.801 19.2517Z" fill="black"/>
<path d="M8.36523 18.9403H9.28422V19.8593H8.36523V18.9403Z" fill="black"/>
<path d="M9.28418 18.0214H10.2032V18.9403H9.28418V18.0214Z" fill="black"/>
<path d="M10.2031 18.9403H11.1221V19.8593H10.2031V18.9403Z" fill="black"/>
<path d="M11.1221 18.0214H12.0411V18.9403H11.1221V18.0214Z" fill="black"/>
<path d="M12.041 18.9403H12.96V19.8593H12.041V18.9403Z" fill="black"/>
<path d="M12.959 18.0214H13.878V18.9403H12.959V18.0214Z" fill="black"/>
<path d="M13.8779 18.9403H14.7969V19.8593H13.8779V18.9403Z" fill="black"/>
<path d="M14.7969 18.0214H15.7159V18.9403H14.7969V18.0214Z" fill="black"/>
<path d="M15.7158 18.9403H16.6348V19.8593H15.7158V18.9403Z" fill="black"/>
<path d="M11.9404 12.2826H8.76872C8.65327 12.2826 8.54391 12.2279 8.47555 12.1352C8.4072 12.0426 8.38593 11.9226 8.42087 11.8117L8.74441 10.7575C8.87049 10.3474 9.24416 10.0709 9.67403 10.0709H11.0366C11.4664 10.0709 11.8401 10.3474 11.9662 10.7575L12.2897 11.8117C12.3231 11.9226 12.3034 12.0426 12.235 12.1352C12.1652 12.2279 12.0558 12.2826 11.9404 12.2826ZM9.26239 11.5535H11.4467L11.2675 10.9702C11.2356 10.8669 11.1429 10.7985 11.035 10.7985H9.67403C9.56619 10.7985 9.47353 10.8669 9.44163 10.9702L9.26239 11.5535Z" fill="black"/>
<path d="M22.0114 8.64307H18.1684C17.9663 8.64307 17.8038 8.48054 17.8038 8.27852C17.8038 8.07649 17.9663 7.91396 18.1684 7.91396H22.0114C22.3213 7.91396 22.6129 7.79396 22.8317 7.57371L22.8894 7.51598C22.9972 7.40814 23.0823 7.28054 23.14 7.13927C23.1993 6.99801 23.2281 6.84915 23.2281 6.69573C23.2281 6.42991 23.1355 6.16864 22.9668 5.96206C22.9425 5.93168 22.9152 5.90282 22.8879 5.87548L21.5344 4.52206C21.3157 4.30333 21.0241 4.18181 20.7142 4.18181H9.88837C9.71824 4.18181 9.57242 4.06484 9.53292 3.89927L9.31571 2.96206C9.19115 2.42434 8.8433 1.96105 8.3633 1.69067L7.9152 1.43852V4.7332C7.91368 6.48611 9.34153 7.91396 11.0944 7.91396H15.4585C15.6605 7.91396 15.8231 8.07649 15.8231 8.27852C15.8231 8.48054 15.6605 8.64307 15.4585 8.64307H11.0944C10.0494 8.64307 9.06811 8.23598 8.32989 7.49776C7.59166 6.75953 7.18457 5.77674 7.18457 4.7332V0.814211C7.18457 0.685097 7.25292 0.565097 7.36533 0.499781C7.47773 0.434464 7.61596 0.432945 7.72837 0.496743L8.72027 1.05573C9.37799 1.42636 9.85495 2.0613 10.0251 2.79649L10.1785 3.45421H20.7157C21.22 3.45421 21.6939 3.65016 22.0509 4.00712L23.4043 5.36054C23.4484 5.40459 23.4924 5.4532 23.5319 5.50181C23.8069 5.8375 23.9572 6.2613 23.9572 6.69573C23.9572 6.94484 23.9086 7.18788 23.8129 7.41877C23.7172 7.64965 23.5805 7.85472 23.4043 8.03092L23.3466 8.08864C22.9896 8.4456 22.5157 8.64307 22.0114 8.64307Z" fill="black"/>
<path d="M14.6033 10.2274C14.4742 10.2274 14.3557 10.1606 14.2904 10.0497C14.2251 9.93882 14.2221 9.80211 14.2828 9.68971L15.7183 7.03148C15.7821 6.913 15.9051 6.84009 16.0388 6.84009H18.8565C18.9765 6.84009 19.0904 6.89933 19.1573 6.99958C19.2241 7.09983 19.2393 7.22591 19.1952 7.33832C19.1831 7.3687 18.8975 8.0811 18.1897 8.79199C17.7735 9.20971 17.2965 9.54237 16.7709 9.78085C16.1162 10.0755 15.3871 10.2274 14.6033 10.2274ZM16.256 7.56768L15.2352 9.45882C16.1907 9.34034 17.0094 8.94237 17.6747 8.27553C17.9254 8.0249 18.1122 7.77427 18.2459 7.56768H16.256Z" fill="black"/>
<path d="M23.2492 6.09728H20.1323C19.5186 6.09728 18.9398 5.86184 18.4993 5.43652C18.0604 5.0112 17.8067 4.44158 17.7854 3.83095C17.7778 3.63044 17.9358 3.46032 18.1363 3.45424C18.3368 3.44665 18.5069 3.60462 18.513 3.80513C18.5434 4.68158 19.2558 5.36817 20.1323 5.36817H23.2492C23.4512 5.36817 23.6138 5.5307 23.6138 5.73272C23.6138 5.93475 23.4512 6.09728 23.2492 6.09728Z" fill="black"/>
<path d="M16.9937 5.50939H16.2327C16.0307 5.50939 15.8682 5.34686 15.8682 5.14483C15.8682 4.94281 16.0307 4.78027 16.2327 4.78027H16.9937C17.1958 4.78027 17.3583 4.94281 17.3583 5.14483C17.3583 5.34686 17.1958 5.50939 16.9937 5.50939Z" fill="black"/>
<path d="M14.9576 5.50939H14.1966C13.9946 5.50939 13.832 5.34686 13.832 5.14483C13.832 4.94281 13.9946 4.78027 14.1966 4.78027H14.9576C15.1596 4.78027 15.3222 4.94281 15.3222 5.14483C15.3222 5.34686 15.1596 5.50939 14.9576 5.50939Z" fill="black"/>
<path d="M12.9205 5.50939H12.1595C11.9575 5.50939 11.7949 5.34686 11.7949 5.14483C11.7949 4.94281 11.9575 4.78027 12.1595 4.78027H12.9205C13.1225 4.78027 13.285 4.94281 13.285 5.14483C13.285 5.34686 13.121 5.50939 12.9205 5.50939Z" fill="black"/>
<path d="M10.8834 5.50939H10.1224C9.92034 5.50939 9.75781 5.34686 9.75781 5.14483C9.75781 4.94281 9.92034 4.78027 10.1224 4.78027H10.8834C11.0854 4.78027 11.2479 4.94281 11.2479 5.14483C11.2479 5.34686 11.0839 5.50939 10.8834 5.50939Z" fill="black"/>
<path d="M5.91187 4.25927H1.40655C1.20452 4.25927 1.04199 4.09673 1.04199 3.89471C1.04199 3.69268 1.20452 3.53015 1.40655 3.53015H5.91187C6.11389 3.53015 6.27642 3.69268 6.27642 3.89471C6.27642 4.09673 6.11389 4.25927 5.91187 4.25927Z" fill="black"/>
<path d="M5.91198 5.70226H2.9378C2.73577 5.70226 2.57324 5.53973 2.57324 5.3377C2.57324 5.13568 2.73577 4.97314 2.9378 4.97314H5.91198C6.114 4.97314 6.27653 5.13568 6.27653 5.3377C6.27653 5.53973 6.114 5.70226 5.91198 5.70226Z" fill="black"/>
<path d="M5.91187 7.14684H1.40655C1.20452 7.14684 1.04199 6.98431 1.04199 6.78228C1.04199 6.58026 1.20452 6.41772 1.40655 6.41772H5.91187C6.11389 6.41772 6.27642 6.58026 6.27642 6.78228C6.27642 6.98431 6.11389 7.14684 5.91187 7.14684Z" fill="black"/>
</g>
<defs>
<clipPath id="clip0_786_36746">
<rect width="24" height="24" fill="white" transform="translate(0.5)"/>
</clipPath>
</defs>
</svg>
