<svg width="25" height="24" viewBox="0 0 25 24" fill="none" xmlns="http://www.w3.org/2000/svg">
<path d="M17.8852 8.24997C17.7389 8.24997 17.5964 8.16372 17.5364 8.01747L17.4464 7.79622C17.1877 7.16622 17.0002 6.70872 17.0002 6.37497C17.0002 5.48622 17.9827 5.24997 18.5002 5.24997C19.7752 5.24997 20.2214 4.46247 20.3564 4.12122C20.3677 4.08747 20.3752 4.04997 20.3752 4.00872C20.3752 3.85122 20.2589 3.71622 20.1052 3.69372C19.5352 3.61122 18.7514 3.40497 18.2339 2.88747C18.1814 2.83497 18.1477 2.76747 18.1327 2.69622C18.1177 2.63247 17.7764 1.12122 15.8752 1.12122C13.8127 1.12122 12.5002 2.84622 12.5002 3.74622C12.5002 4.19247 12.5639 4.27497 12.5677 4.27872C12.5789 4.28622 12.6277 4.30497 12.6652 4.31997C12.7852 4.36497 12.9652 4.43247 13.1414 4.60872C13.3177 4.78497 13.4114 4.98372 13.5014 5.16372C13.6852 5.53122 13.7564 5.62122 14.0002 5.62122C14.2739 5.62122 14.6527 5.56122 14.9002 5.26872C15.1927 4.92372 15.2752 4.28622 15.1327 3.43122C15.0989 3.22872 15.2377 3.03372 15.4402 2.99997C15.6427 2.96247 15.8377 3.10497 15.8714 3.30747C16.0552 4.40247 15.9202 5.22372 15.4739 5.75247C15.1327 6.15747 14.6227 6.37122 14.0039 6.37122C13.2727 6.37122 13.0102 5.84622 12.8339 5.49747C12.7627 5.35497 12.6952 5.21997 12.6127 5.13747C12.5527 5.07747 12.4927 5.05497 12.4064 5.02122C11.9827 4.86372 11.7539 4.61247 11.7539 3.74622C11.7539 2.40372 13.4002 0.371216 15.8789 0.371216C17.7952 0.371216 18.6314 1.64997 18.8414 2.42247C19.1414 2.67747 19.6214 2.86122 20.2177 2.95122C20.7352 3.02622 21.1289 3.47997 21.1289 4.00872C21.1289 4.14372 21.1064 4.27122 21.0577 4.39122C20.9114 4.76997 20.2889 5.99622 18.5039 5.99622C18.4964 5.99622 17.7539 6.01872 17.7539 6.37122C17.7539 6.55872 17.9414 7.01997 18.1439 7.50747L18.2339 7.72872C18.3127 7.91997 18.2189 8.14122 18.0277 8.21622C17.9827 8.23497 17.9339 8.24247 17.8852 8.24247V8.24997Z" fill="black"/>
<path d="M4.63288 19.5H4.62538C4.41912 19.4962 4.25413 19.3237 4.25788 19.1175C4.29163 17.4975 4.48287 16.44 5.45037 15.15C5.92287 14.52 6.44038 14.1975 7.06663 13.845C7.24663 13.7437 7.47538 13.8075 7.57663 13.9875C7.67788 14.1675 7.61412 14.3962 7.43412 14.4975C6.86787 14.82 6.43663 15.0862 6.05038 15.6C5.19538 16.74 5.03788 17.61 5.00788 19.1325C5.00413 19.3387 4.83538 19.5 4.63288 19.5Z" fill="black"/>
<path d="M10.6266 11.625C10.5478 11.625 10.4691 11.5988 10.4016 11.55C10.2366 11.4263 10.2028 11.19 10.3266 11.025C11.5416 9.40502 12.1903 7.90127 12.5203 6.92627C12.5878 6.73127 12.8016 6.62627 12.9966 6.69002C13.1916 6.75752 13.2966 6.97127 13.2328 7.16627C12.8841 8.19377 12.2016 9.77627 10.9266 11.475C10.8516 11.5725 10.7391 11.625 10.6266 11.625Z" fill="black"/>
<path d="M9.87559 23.25H7.62559C6.91309 23.25 4.77934 23.25 4.28809 21.2175C1.52059 19.1588 1.25809 16.0088 2.42809 14.055C3.25684 12.675 4.82434 12.03 5.91559 11.895C6.32809 11.8425 6.87184 11.8388 7.14184 12.1088C7.23559 12.2025 7.27309 12.3338 7.24309 12.4613C7.21309 12.5888 7.11934 12.69 6.99559 12.7313C6.97684 12.7388 4.91059 13.4588 4.23184 15.495C3.59059 17.415 4.78309 18.0338 4.79434 18.0413C4.97809 18.135 5.05309 18.36 4.96309 18.5438C4.87309 18.7275 4.64434 18.8025 4.46059 18.7125C4.44184 18.705 2.67934 17.7863 3.52309 15.2588C3.91684 14.07 4.68934 13.275 5.38309 12.7688C4.60309 13.0013 3.64309 13.5 3.07684 14.445C2.06059 16.1363 2.33809 18.9038 4.84684 20.6963C4.92559 20.7525 4.97809 20.835 4.99684 20.9288C5.20684 22.0163 6.01684 22.5 7.62934 22.5H9.87934C10.0856 22.5 10.2543 22.6688 10.2543 22.875C10.2543 23.0813 10.0856 23.25 9.87934 23.25H9.87559Z" fill="black"/>
<path d="M19.626 23.25H17.376C17.1697 23.25 17.001 23.0812 17.001 22.875C17.001 22.4062 16.9297 21.9375 16.7872 21.4875C16.7272 21.2887 16.836 21.0787 17.0347 21.0187C17.2335 20.9587 17.4435 21.0675 17.5035 21.2662C17.6272 21.6712 17.706 22.0837 17.736 22.5037H19.1647C19.0747 22.3125 18.8835 22.1287 18.4972 22.1287C18.3622 22.1287 18.2385 22.0575 18.171 21.9375C18.1447 21.8925 17.5597 20.835 18.1485 19.365C18.381 18.78 18.7597 18.4275 19.0897 18.1162C19.5772 17.6587 19.9972 17.265 19.9972 16.1287C19.9972 14.205 19.3372 13.3612 19.3335 13.35C19.281 13.2825 19.251 13.1962 19.251 13.1137C19.251 12.8025 19.476 12.4762 19.8885 12.4762H19.9635C21.021 12.4837 21.381 12.3712 21.4897 12.315C21.456 12.1837 21.3247 12.0187 21.201 11.8575C20.9872 11.5837 20.7472 11.2687 20.7472 10.8787C20.7472 10.35 20.7472 10.1287 19.9972 10.1287C19.8472 10.1287 19.7085 10.0387 19.6522 9.89621C19.5922 9.75746 19.626 9.59621 19.7347 9.48746C19.7985 9.42371 19.8697 9.22121 19.9222 8.99621C19.3035 9.01496 18.1672 9.16121 17.6947 9.94496C17.4022 10.4325 17.3947 11.0887 17.3872 11.7825C17.376 12.7462 17.3647 13.8375 16.4797 14.5462C16.2322 14.745 15.8722 14.9475 15.456 15.18C13.7047 16.1587 11.0647 17.64 11.9647 21.2887C12.0135 21.4912 11.8935 21.6937 11.691 21.7425C11.4885 21.7912 11.286 21.6712 11.2372 21.4687C10.1985 17.2612 13.3785 15.48 15.0885 14.5237C15.4747 14.3062 15.8085 14.1187 16.0072 13.9612C16.6147 13.4775 16.6222 12.69 16.6335 11.775C16.641 11.01 16.6485 10.2225 17.046 9.55871C17.9497 8.05496 20.301 8.24621 20.4022 8.25371C20.5035 8.26121 20.5972 8.31371 20.661 8.39246C20.7247 8.47121 20.7547 8.57246 20.7397 8.67371C20.721 8.80871 20.6722 9.12746 20.571 9.43871C21.4935 9.65996 21.4935 10.4325 21.4935 10.8787C21.4935 11.0137 21.6435 11.2087 21.7897 11.4C22.0035 11.6737 22.2435 11.9887 22.2435 12.3787C22.2435 12.5437 22.176 12.6975 22.0522 12.8212C21.771 13.1025 21.1897 13.2262 20.1285 13.2262C20.376 13.6912 20.7397 14.6287 20.7397 16.1287C20.7397 17.6287 20.1322 18.1612 19.596 18.6637C19.281 18.96 19.011 19.2112 18.8385 19.6425C18.5085 20.4675 18.6435 21.1012 18.7447 21.3937C19.6522 21.5212 19.9897 22.3237 19.9897 22.875C19.9897 23.0812 19.821 23.25 19.6147 23.25H19.626Z" fill="black"/>
<path d="M16.6251 23.25H12.1251C10.9626 23.25 8.75009 21.0075 8.75009 19.5C8.75009 18.6338 9.44009 17.6063 10.1076 16.6163C10.5238 15.9975 11.0001 15.2963 11.0001 15C11.0001 14.2538 10.7488 13.875 10.2501 13.875C10.0176 13.875 9.71384 14.0213 9.44759 14.1488C9.03884 14.3438 8.35634 14.6738 8.03759 14.0438C7.87259 13.7138 7.89134 13.3612 8.08634 13.0425C8.50259 12.3712 9.62759 12 10.2463 12C11.1313 12 12.8713 12.9075 12.8713 15C12.8713 15.7725 12.2976 16.5788 11.6901 17.43C11.1651 18.1688 10.6213 18.93 10.6213 19.5C10.6213 20.3325 11.4576 20.6325 11.4913 20.6438C11.6863 20.7113 11.7913 20.925 11.7238 21.12C11.6563 21.315 11.4463 21.42 11.2513 21.3563C11.1951 21.3375 9.87134 20.88 9.87134 19.5C9.87134 18.69 10.4863 17.8275 11.0826 16.995C11.5926 16.2788 12.1213 15.5363 12.1213 15C12.1213 13.3988 10.7976 12.75 10.2463 12.75C9.76259 12.75 8.94884 13.0725 8.72384 13.4363C8.67509 13.515 8.66384 13.5825 8.68634 13.6575C8.79509 13.6312 8.98259 13.5375 9.11759 13.4738C9.45509 13.3088 9.84134 13.125 10.2463 13.125C11.1838 13.125 11.7463 13.8263 11.7463 15C11.7463 15.525 11.2963 16.1925 10.7263 17.0363C10.1788 17.85 9.49634 18.8625 9.49634 19.5C9.49634 20.64 11.4126 22.5 12.1213 22.5H16.1338C16.0326 22.3088 15.8451 22.125 15.4963 22.125C15.3313 22.125 15.1888 22.02 15.1363 21.8625C15.0876 21.705 15.1476 21.5363 15.2826 21.4425C15.3201 21.4163 16.2463 20.7375 16.2463 19.125C16.2463 18.9188 16.4151 18.75 16.6213 18.75C16.8276 18.75 16.9963 18.9188 16.9963 19.125C16.9963 20.2988 16.5801 21.0863 16.2201 21.5475C16.7713 21.8475 16.9701 22.4738 16.9963 22.8525C17.0038 22.9575 16.9663 23.0588 16.8951 23.1337C16.8238 23.2088 16.7263 23.2537 16.6213 23.2537L16.6251 23.25Z" fill="black"/>
</svg>
