<svg width="24" height="24" viewBox="0 0 24 24" fill="none" xmlns="http://www.w3.org/2000/svg">
<path d="M17.3852 8.24984C17.2389 8.24984 17.0964 8.16359 17.0364 8.01734L16.9464 7.79609C16.6877 7.16609 16.5002 6.70859 16.5002 6.37484C16.5002 5.48609 17.4827 5.24984 18.0002 5.24984C19.2752 5.24984 19.7214 4.46234 19.8564 4.12109C19.8677 4.08734 19.8752 4.04984 19.8752 4.00859C19.8752 3.85109 19.7589 3.71609 19.6052 3.69359C19.0352 3.61109 18.2514 3.40484 17.7339 2.88734C17.6814 2.83484 17.6477 2.76734 17.6327 2.69609C17.6177 2.63234 17.2764 1.12109 15.3752 1.12109C13.3127 1.12109 12.0002 2.84609 12.0002 3.74609C12.0002 4.19234 12.0639 4.27484 12.0677 4.27859C12.0789 4.28609 12.1277 4.30484 12.1652 4.31984C12.2852 4.36484 12.4652 4.43234 12.6414 4.60859C12.8177 4.78484 12.9114 4.98359 13.0014 5.16359C13.1852 5.53109 13.2564 5.62109 13.5002 5.62109C13.7739 5.62109 14.1527 5.56109 14.4002 5.26859C14.6927 4.92359 14.7752 4.28609 14.6327 3.43109C14.5989 3.22859 14.7377 3.03359 14.9402 2.99984C15.1427 2.96234 15.3377 3.10484 15.3714 3.30734C15.5552 4.40234 15.4202 5.22359 14.9739 5.75234C14.6327 6.15734 14.1227 6.37109 13.5039 6.37109C12.7727 6.37109 12.5102 5.84609 12.3339 5.49734C12.2627 5.35484 12.1952 5.21984 12.1127 5.13734C12.0527 5.07734 11.9927 5.05484 11.9064 5.02109C11.4827 4.86359 11.2539 4.61234 11.2539 3.74609C11.2539 2.40359 12.9002 0.371094 15.3789 0.371094C17.2952 0.371094 18.1314 1.64984 18.3414 2.42234C18.6414 2.67734 19.1214 2.86109 19.7177 2.95109C20.2352 3.02609 20.6289 3.47984 20.6289 4.00859C20.6289 4.14359 20.6064 4.27109 20.5577 4.39109C20.4114 4.76984 19.7889 5.99609 18.0039 5.99609C17.9964 5.99609 17.2539 6.01859 17.2539 6.37109C17.2539 6.55859 17.4414 7.01984 17.6439 7.50734L17.7339 7.72859C17.8127 7.91984 17.7189 8.14109 17.5277 8.21609C17.4827 8.23484 17.4339 8.24234 17.3852 8.24234V8.24984Z" fill="#F2F2F2"/>
<path d="M4.13239 19.5H4.12489C3.91864 19.4962 3.75364 19.3237 3.75739 19.1175C3.79114 17.4975 3.98239 16.44 4.94989 15.15C5.42239 14.52 5.93989 14.1975 6.56614 13.845C6.74614 13.7437 6.97489 13.8075 7.07614 13.9875C7.17739 14.1675 7.11364 14.3962 6.93364 14.4975C6.36739 14.82 5.93614 15.0862 5.54989 15.6C4.69489 16.74 4.53739 17.61 4.50739 19.1325C4.50364 19.3387 4.33489 19.5 4.13239 19.5Z" fill="#F2F2F2"/>
<path d="M10.1251 11.625C10.0463 11.625 9.96759 11.5988 9.90009 11.55C9.73509 11.4263 9.70134 11.19 9.82509 11.025C11.0401 9.40502 11.6888 7.90127 12.0188 6.92627C12.0863 6.73127 12.3001 6.62627 12.4951 6.69002C12.6901 6.75752 12.7951 6.97127 12.7313 7.16627C12.3826 8.19377 11.7001 9.77627 10.4251 11.475C10.3501 11.5725 10.2376 11.625 10.1251 11.625Z" fill="#F2F2F2"/>
<path d="M9.3751 23.2498H7.1251C6.4126 23.2498 4.27885 23.2498 3.7876 21.2173C1.0201 19.1585 0.757602 16.0085 1.9276 14.0548C2.75635 12.6748 4.32385 12.0298 5.4151 11.8948C5.8276 11.8423 6.37135 11.8385 6.64135 12.1085C6.7351 12.2023 6.7726 12.3335 6.7426 12.461C6.7126 12.5885 6.61885 12.6898 6.4951 12.731C6.47635 12.7385 4.4101 13.4585 3.73135 15.4948C3.0901 17.4148 4.2826 18.0335 4.29385 18.041C4.4776 18.1348 4.5526 18.3598 4.4626 18.5435C4.3726 18.7273 4.14385 18.8023 3.9601 18.7123C3.94135 18.7048 2.17885 17.786 3.0226 15.2585C3.41635 14.0698 4.18885 13.2748 4.8826 12.7685C4.1026 13.001 3.1426 13.4998 2.57635 14.4448C1.5601 16.136 1.8376 18.9035 4.34635 20.696C4.4251 20.7523 4.4776 20.8348 4.49635 20.9285C4.70635 22.016 5.51635 22.4998 7.12885 22.4998H9.37885C9.5851 22.4998 9.75385 22.6685 9.75385 22.8748C9.75385 23.081 9.5851 23.2498 9.37885 23.2498H9.3751Z" fill="#F2F2F2"/>
<path d="M19.125 23.2501H16.875C16.6688 23.2501 16.5 23.0813 16.5 22.8751C16.5 22.4063 16.4288 21.9376 16.2863 21.4876C16.2263 21.2888 16.335 21.0788 16.5338 21.0188C16.7325 20.9588 16.9425 21.0676 17.0025 21.2663C17.1263 21.6713 17.205 22.0838 17.235 22.5038H18.6638C18.5738 22.3126 18.3825 22.1288 17.9963 22.1288C17.8613 22.1288 17.7375 22.0576 17.67 21.9376C17.6438 21.8926 17.0588 20.8351 17.6475 19.3651C17.88 18.7801 18.2588 18.4276 18.5888 18.1163C19.0763 17.6588 19.4963 17.2651 19.4963 16.1288C19.4963 14.2051 18.8363 13.3613 18.8325 13.3501C18.78 13.2826 18.75 13.1963 18.75 13.1138C18.75 12.8026 18.975 12.4763 19.3875 12.4763H19.4625C20.52 12.4838 20.88 12.3713 20.9888 12.3151C20.955 12.1838 20.8238 12.0188 20.7 11.8576C20.4863 11.5838 20.2463 11.2688 20.2463 10.8788C20.2463 10.3501 20.2463 10.1288 19.4963 10.1288C19.3463 10.1288 19.2075 10.0388 19.1513 9.89633C19.0913 9.75758 19.125 9.59633 19.2338 9.48758C19.2975 9.42383 19.3688 9.22134 19.4213 8.99634C18.8025 9.01509 17.6663 9.16134 17.1938 9.94509C16.9013 10.4326 16.8938 11.0888 16.8863 11.7826C16.875 12.7463 16.8638 13.8376 15.9788 14.5463C15.7313 14.7451 15.3713 14.9476 14.955 15.1801C13.2038 16.1588 10.5638 17.6401 11.4638 21.2888C11.5125 21.4913 11.3925 21.6938 11.19 21.7426C10.9875 21.7913 10.785 21.6713 10.7363 21.4688C9.69751 17.2613 12.8775 15.4801 14.5875 14.5238C14.9738 14.3063 15.3075 14.1188 15.5063 13.9613C16.1138 13.4776 16.1213 12.6901 16.1325 11.7751C16.14 11.0101 16.1475 10.2226 16.545 9.55884C17.4488 8.05509 19.8 8.24634 19.9013 8.25384C20.0025 8.26134 20.0963 8.31383 20.16 8.39258C20.2238 8.47133 20.2538 8.57258 20.2388 8.67383C20.22 8.80883 20.1713 9.12759 20.07 9.43884C20.9925 9.66009 20.9925 10.4326 20.9925 10.8788C20.9925 11.0138 21.1425 11.2088 21.2888 11.4001C21.5025 11.6738 21.7425 11.9888 21.7425 12.3788C21.7425 12.5438 21.675 12.6976 21.5513 12.8213C21.27 13.1026 20.6888 13.2263 19.6275 13.2263C19.875 13.6913 20.2388 14.6288 20.2388 16.1288C20.2388 17.6288 19.6313 18.1613 19.095 18.6638C18.78 18.9601 18.51 19.2113 18.3375 19.6426C18.0075 20.4676 18.1425 21.1013 18.2438 21.3938C19.1513 21.5213 19.4888 22.3238 19.4888 22.8751C19.4888 23.0813 19.32 23.2501 19.1138 23.2501H19.125Z" fill="#F2F2F2"/>
<path d="M16.1251 23.25H11.6251C10.4626 23.25 8.25009 21.0075 8.25009 19.5C8.25009 18.6338 8.94009 17.6063 9.60759 16.6163C10.0238 15.9975 10.5001 15.2963 10.5001 15C10.5001 14.2538 10.2488 13.875 9.75009 13.875C9.51759 13.875 9.21384 14.0213 8.94759 14.1488C8.53884 14.3438 7.85634 14.6738 7.53759 14.0438C7.37259 13.7138 7.39134 13.3612 7.58634 13.0425C8.00259 12.3712 9.12759 12 9.74634 12C10.6313 12 12.3713 12.9075 12.3713 15C12.3713 15.7725 11.7976 16.5788 11.1901 17.43C10.6651 18.1688 10.1213 18.93 10.1213 19.5C10.1213 20.3325 10.9576 20.6325 10.9913 20.6438C11.1863 20.7113 11.2913 20.925 11.2238 21.12C11.1563 21.315 10.9463 21.42 10.7513 21.3563C10.6951 21.3375 9.37134 20.88 9.37134 19.5C9.37134 18.69 9.98634 17.8275 10.5826 16.995C11.0926 16.2788 11.6213 15.5363 11.6213 15C11.6213 13.3988 10.2976 12.75 9.74634 12.75C9.26259 12.75 8.44884 13.0725 8.22384 13.4363C8.17509 13.515 8.16384 13.5825 8.18634 13.6575C8.29509 13.6312 8.48259 13.5375 8.61759 13.4738C8.95509 13.3088 9.34134 13.125 9.74634 13.125C10.6838 13.125 11.2463 13.8263 11.2463 15C11.2463 15.525 10.7963 16.1925 10.2263 17.0363C9.67884 17.85 8.99634 18.8625 8.99634 19.5C8.99634 20.64 10.9126 22.5 11.6213 22.5H15.6338C15.5326 22.3088 15.3451 22.125 14.9963 22.125C14.8313 22.125 14.6888 22.02 14.6363 21.8625C14.5876 21.705 14.6476 21.5363 14.7826 21.4425C14.8201 21.4163 15.7463 20.7375 15.7463 19.125C15.7463 18.9188 15.9151 18.75 16.1213 18.75C16.3276 18.75 16.4963 18.9188 16.4963 19.125C16.4963 20.2988 16.0801 21.0863 15.7201 21.5475C16.2713 21.8475 16.4701 22.4738 16.4963 22.8525C16.5038 22.9575 16.4663 23.0588 16.3951 23.1337C16.3238 23.2088 16.2263 23.2537 16.1213 23.2537L16.1251 23.25Z" fill="#F2F2F2"/>
</svg>
