<svg width="24" height="24" viewBox="0 0 24 24" fill="none" xmlns="http://www.w3.org/2000/svg">
<g clip-path="url(#clip0_821_70385)">
<path d="M20 14.4203V10.3999C20 8.8211 14.9716 8.3999 12 8.3999C9.0284 8.3999 4 8.8211 4 10.3999V14.4203C1.73609 14.6289 0.00301005 16.5264 0 18.7999C0 19.6836 0.716344 20.3999 1.6 20.3999V22.7999C1.6 23.4626 2.13726 23.9999 2.8 23.9999H3.6C4.2305 23.997 4.75123 23.5067 4.792 22.8775C5.1788 22.5103 7.8996 21.9999 12 21.9999C16.1004 21.9999 18.8212 22.5103 19.2076 22.8763C19.2478 23.5061 19.7689 23.9972 20.4 23.9999H21.2C21.8627 23.9999 22.4 23.4626 22.4 22.7999V20.3999C23.2837 20.3999 24 19.6836 24 18.7999C23.997 16.5264 22.2639 14.6289 20 14.4203ZM12 9.1999C16.4352 9.1999 19.0356 9.9839 19.2 10.4083V14.3999H18.3264C18.3738 14.2718 18.3987 14.1365 18.4 13.9999V11.9999C18.4 11.3372 17.8627 10.7999 17.2 10.7999H13.6C12.9373 10.7999 12.4 11.3372 12.4 11.9999V13.9999C12.4013 14.1365 12.4262 14.2718 12.4736 14.3999H11.5264C11.5738 14.2718 11.5987 14.1365 11.6 13.9999V11.9999C11.6 11.3372 11.0627 10.7999 10.4 10.7999H6.8C6.13726 10.7999 5.6 11.3372 5.6 11.9999V13.9999C5.60133 14.1365 5.62622 14.2718 5.6736 14.3999H4.8V10.4127C4.9456 9.9895 7.5492 9.1999 12 9.1999ZM13.2 13.9999V11.9999C13.2 11.779 13.3791 11.5999 13.6 11.5999H17.2C17.4209 11.5999 17.6 11.779 17.6 11.9999V13.9999C17.6 14.2208 17.4209 14.3999 17.2 14.3999H13.6C13.3791 14.3999 13.2 14.2208 13.2 13.9999ZM6.4 13.9999V11.9999C6.4 11.779 6.57909 11.5999 6.8 11.5999H10.4C10.6209 11.5999 10.8 11.779 10.8 11.9999V13.9999C10.8 14.2208 10.6209 14.3999 10.4 14.3999H6.8C6.57909 14.3999 6.4 14.2208 6.4 13.9999ZM3.6 23.1999H2.8C2.57909 23.1999 2.4 23.0208 2.4 22.7999V20.3999H4V22.7999C4 23.0208 3.82091 23.1999 3.6 23.1999ZM4.8 22.0079V20.3999H19.2V22.0079C17.3896 21.2479 13.05 21.1999 12 21.1999C10.95 21.1999 6.6104 21.2479 4.8 22.0079ZM21.6 22.7999C21.6 23.0208 21.4209 23.1999 21.2 23.1999H20.4C20.1791 23.1999 20 23.0208 20 22.7999V20.3999H21.6V22.7999ZM22.4 19.5999H1.6C1.15817 19.5999 0.8 19.2417 0.8 18.7999C0.802204 16.8126 2.41269 15.2021 4.4 15.1999H19.6C21.5873 15.2021 23.1978 16.8126 23.2 18.7999C23.2 19.2417 22.8418 19.5999 22.4 19.5999Z" fill="#F2F2F2"/>
<path d="M4.39988 16C3.03253 15.997 1.86421 16.9848 1.63988 18.3336C1.60324 18.5514 1.75008 18.7577 1.96788 18.7944C1.98955 18.7982 2.0115 18.8 2.03348 18.8C2.2286 18.7998 2.39509 18.6588 2.42748 18.4664C2.58798 17.5028 3.42298 16.7973 4.39988 16.8C4.6208 16.8 4.79988 16.6209 4.79988 16.4C4.79988 16.1791 4.6208 16 4.39988 16Z" fill="#F2F2F2"/>
<path d="M6.0001 16.8C6.22101 16.8 6.4001 16.6209 6.4001 16.4C6.4001 16.1791 6.22101 16 6.0001 16C5.77918 16 5.6001 16.1791 5.6001 16.4C5.6001 16.6209 5.77918 16.8 6.0001 16.8Z" fill="#F2F2F2"/>
<path d="M16.7999 7.20004C17.2417 7.20004 17.5999 6.84187 17.5999 6.40004V1.24204C17.5999 0.894335 17.3753 0.58646 17.0442 0.480294C16.7131 0.374127 16.3513 0.493981 16.1491 0.776837L15.2375 2.05324L14.2943 0.403237C14.1518 0.154168 13.8868 0.000488281 13.5999 0.000488281C13.313 0.000488281 13.048 0.154168 12.9055 0.403237L11.9999 1.98764L11.0943 0.403237C10.9518 0.154168 10.6868 0.000488281 10.3999 0.000488281C10.113 0.000488281 9.84799 0.154168 9.7055 0.403237L8.7623 2.05324L7.8507 0.776837C7.64849 0.493981 7.28673 0.374127 6.95563 0.480294C6.62453 0.58646 6.39992 0.894335 6.3999 1.24204V6.40004C6.3999 6.84187 6.75807 7.20004 7.1999 7.20004H16.7999ZM7.1999 1.24004L8.4747 3.02444C8.552 3.13763 8.68357 3.20129 8.8203 3.19164C8.95616 3.18487 9.07926 3.10953 9.1471 2.99164L10.3999 0.800037L11.6527 2.99204C11.7296 3.10888 11.86 3.17922 11.9999 3.17922C12.1398 3.17922 12.2702 3.10888 12.3471 2.99204L13.5999 0.800037L14.8527 2.99204C14.9205 3.10993 15.0437 3.18527 15.1795 3.19204C15.3159 3.20015 15.4468 3.13685 15.5251 3.02484L16.7999 1.24204V6.40004H7.1999V1.24004Z" fill="#F2F2F2"/>
<path d="M10.7999 4.8C11.0208 4.8 11.1999 4.62091 11.1999 4.4C11.1999 4.17909 11.0208 4 10.7999 4C10.579 4 10.3999 4.17909 10.3999 4.4C10.3999 4.62091 10.579 4.8 10.7999 4.8Z" fill="#F2F2F2"/>
<path d="M8.4 4.8C8.62091 4.8 8.8 4.62091 8.8 4.4C8.8 4.17909 8.62091 4 8.4 4C8.17909 4 8 4.17909 8 4.4C8 4.62091 8.17909 4.8 8.4 4.8Z" fill="#F2F2F2"/>
<path d="M15.6002 4.8C15.8211 4.8 16.0002 4.62091 16.0002 4.4C16.0002 4.17909 15.8211 4 15.6002 4C15.3793 4 15.2002 4.17909 15.2002 4.4C15.2002 4.62091 15.3793 4.8 15.6002 4.8Z" fill="#F2F2F2"/>
<path d="M13.1998 4.8C13.4207 4.8 13.5998 4.62091 13.5998 4.4C13.5998 4.17909 13.4207 4 13.1998 4C12.9789 4 12.7998 4.17909 12.7998 4.4C12.7998 4.62091 12.9789 4.8 13.1998 4.8Z" fill="#F2F2F2"/>
</g>
<defs>
<clipPath id="clip0_821_70385">
<rect width="24" height="24" fill="white"/>
</clipPath>
</defs>
</svg>
