<svg width="25" height="24" viewBox="0 0 25 24" fill="none" xmlns="http://www.w3.org/2000/svg">
<g clip-path="url(#clip0_786_36773)">
<path d="M20.5 14.4204V10.4C20.5 8.82122 15.4716 8.40002 12.5 8.40002C9.5284 8.40002 4.5 8.82122 4.5 10.4V14.4204C2.23609 14.629 0.50301 16.5265 0.5 18.8C0.5 19.6837 1.21634 20.4 2.1 20.4V22.8C2.1 23.4628 2.63726 24 3.3 24H4.1C4.7305 23.9971 5.25123 23.5068 5.292 22.8776C5.6788 22.5104 8.3996 22 12.5 22C16.6004 22 19.3212 22.5104 19.7076 22.8764C19.7478 23.5062 20.2689 23.9973 20.9 24H21.7C22.3627 24 22.9 23.4628 22.9 22.8V20.4C23.7837 20.4 24.5 19.6837 24.5 18.8C24.497 16.5265 22.7639 14.629 20.5 14.4204ZM12.5 9.20002C16.9352 9.20002 19.5356 9.98402 19.7 10.4084V14.4H18.8264C18.8738 14.2719 18.8987 14.1366 18.9 14V12C18.9 11.3373 18.3627 10.8 17.7 10.8H14.1C13.4373 10.8 12.9 11.3373 12.9 12V14C12.9013 14.1366 12.9262 14.2719 12.9736 14.4H12.0264C12.0738 14.2719 12.0987 14.1366 12.1 14V12C12.1 11.3373 11.5627 10.8 10.9 10.8H7.3C6.63726 10.8 6.1 11.3373 6.1 12V14C6.10133 14.1366 6.12622 14.2719 6.1736 14.4H5.3V10.4128C5.4456 9.98962 8.0492 9.20002 12.5 9.20002ZM13.7 14V12C13.7 11.7791 13.8791 11.6 14.1 11.6H17.7C17.9209 11.6 18.1 11.7791 18.1 12V14C18.1 14.2209 17.9209 14.4 17.7 14.4H14.1C13.8791 14.4 13.7 14.2209 13.7 14ZM6.9 14V12C6.9 11.7791 7.07909 11.6 7.3 11.6H10.9C11.1209 11.6 11.3 11.7791 11.3 12V14C11.3 14.2209 11.1209 14.4 10.9 14.4H7.3C7.07909 14.4 6.9 14.2209 6.9 14ZM4.1 23.2H3.3C3.07909 23.2 2.9 23.0209 2.9 22.8V20.4H4.5V22.8C4.5 23.0209 4.32091 23.2 4.1 23.2ZM5.3 22.008V20.4H19.7V22.008C17.8896 21.248 13.55 21.2 12.5 21.2C11.45 21.2 7.1104 21.248 5.3 22.008ZM22.1 22.8C22.1 23.0209 21.9209 23.2 21.7 23.2H20.9C20.6791 23.2 20.5 23.0209 20.5 22.8V20.4H22.1V22.8ZM22.9 19.6H2.1C1.65817 19.6 1.3 19.2419 1.3 18.8C1.3022 16.8127 2.91269 15.2022 4.9 15.2H20.1C22.0873 15.2022 23.6978 16.8127 23.7 18.8C23.7 19.2419 23.3418 19.6 22.9 19.6Z" fill="black"/>
<path d="M4.90037 16C3.53302 15.997 2.3647 16.9848 2.14037 18.3336C2.10373 18.5514 2.25057 18.7577 2.46837 18.7944C2.49003 18.7982 2.51198 18.8 2.53397 18.8C2.72909 18.7998 2.89558 18.6588 2.92797 18.4664C3.08847 17.5028 3.92347 16.7973 4.90037 16.8C5.12129 16.8 5.30037 16.6209 5.30037 16.4C5.30037 16.1791 5.12129 16 4.90037 16Z" fill="black"/>
<path d="M6.49961 16.8C6.72052 16.8 6.89961 16.6209 6.89961 16.4C6.89961 16.1791 6.72052 16 6.49961 16C6.2787 16 6.09961 16.1791 6.09961 16.4C6.09961 16.6209 6.2787 16.8 6.49961 16.8Z" fill="black"/>
<path d="M17.3004 7.20004C17.7422 7.20004 18.1004 6.84187 18.1004 6.40004V1.24204C18.1004 0.894335 17.8758 0.58646 17.5447 0.480294C17.2136 0.374127 16.8518 0.493981 16.6496 0.776837L15.738 2.05324L14.7948 0.403237C14.6523 0.154168 14.3873 0.000488281 14.1004 0.000488281C13.8134 0.000488281 13.5485 0.154168 13.406 0.403237L12.5004 1.98764L11.5948 0.403237C11.4523 0.154168 11.1873 0.000488281 10.9004 0.000488281C10.6134 0.000488281 10.3485 0.154168 10.206 0.403237L9.26279 2.05324L8.35119 0.776837C8.14898 0.493981 7.78722 0.374127 7.45612 0.480294C7.12502 0.58646 6.90041 0.894335 6.90039 1.24204V6.40004C6.90039 6.84187 7.25856 7.20004 7.70039 7.20004H17.3004ZM7.70039 1.24004L8.97519 3.02444C9.05249 3.13763 9.18406 3.20129 9.32079 3.19164C9.45664 3.18487 9.57975 3.10953 9.64759 2.99164L10.9004 0.800037L12.1532 2.99204C12.2301 3.10888 12.3605 3.17922 12.5004 3.17922C12.6402 3.17922 12.7707 3.10888 12.8476 2.99204L14.1004 0.800037L15.3532 2.99204C15.421 3.10993 15.5441 3.18527 15.68 3.19204C15.8164 3.20015 15.9473 3.13685 16.0256 3.02484L17.3004 1.24204V6.40004H7.70039V1.24004Z" fill="black"/>
<path d="M11.3004 4.8C11.5213 4.8 11.7004 4.62091 11.7004 4.4C11.7004 4.17909 11.5213 4 11.3004 4C11.0795 4 10.9004 4.17909 10.9004 4.4C10.9004 4.62091 11.0795 4.8 11.3004 4.8Z" fill="black"/>
<path d="M8.9 4.8C9.12091 4.8 9.3 4.62091 9.3 4.4C9.3 4.17909 9.12091 4 8.9 4C8.67909 4 8.5 4.17909 8.5 4.4C8.5 4.62091 8.67909 4.8 8.9 4.8Z" fill="black"/>
<path d="M16.0992 4.8C16.3201 4.8 16.4992 4.62091 16.4992 4.4C16.4992 4.17909 16.3201 4 16.0992 4C15.8783 4 15.6992 4.17909 15.6992 4.4C15.6992 4.62091 15.8783 4.8 16.0992 4.8Z" fill="black"/>
<path d="M13.7008 4.8C13.9217 4.8 14.1008 4.62091 14.1008 4.4C14.1008 4.17909 13.9217 4 13.7008 4C13.4799 4 13.3008 4.17909 13.3008 4.4C13.3008 4.62091 13.4799 4.8 13.7008 4.8Z" fill="black"/>
</g>
<defs>
<clipPath id="clip0_786_36773">
<rect width="24" height="24" fill="white" transform="translate(0.5)"/>
</clipPath>
</defs>
</svg>
