<svg width="24" height="24" viewBox="0 0 24 24" fill="none" xmlns="http://www.w3.org/2000/svg">
<g clip-path="url(#clip0_821_70364)">
<path d="M23.625 21.375H22.0575L21.4575 18.375H21.75C21.8495 18.375 21.9448 18.3355 22.0152 18.2652C22.0855 18.1948 22.125 18.0995 22.125 18V12.75C22.125 12.6505 22.0855 12.5552 22.0152 12.4848C21.9448 12.4145 21.8495 12.375 21.75 12.375C20.2587 12.3767 18.8289 12.9698 17.7744 14.0244C16.7198 15.0789 16.1267 16.5087 16.125 18C16.125 18.0995 16.1645 18.1948 16.2348 18.2652C16.3052 18.3355 16.4005 18.375 16.5 18.375H16.7925L16.1925 21.375H15V20.625C15 20.5255 14.9605 20.4302 14.8902 20.3598C14.8198 20.2895 14.7245 20.25 14.625 20.25H13.125V16.125H15.75C15.8495 16.125 15.9448 16.0855 16.0152 16.0152C16.0855 15.9448 16.125 15.8495 16.125 15.75V14.625C16.125 14.5255 16.0855 14.4302 16.0152 14.3598C15.9448 14.2895 15.8495 14.25 15.75 14.25H12.375V5.25H22.125C22.2245 5.25 22.3198 5.21049 22.3902 5.14016C22.4605 5.06984 22.5 4.97446 22.5 4.875C22.4992 4.17904 22.2224 3.51181 21.7303 3.01969C21.2382 2.52758 20.571 2.25077 19.875 2.25H13.125V1.125C13.125 1.02554 13.0855 0.930161 13.0152 0.859835C12.9448 0.789509 12.8495 0.75 12.75 0.75H11.25C11.1505 0.75 11.0552 0.789509 10.9848 0.859835C10.9145 0.930161 10.875 1.02554 10.875 1.125V2.25H4.125C3.42904 2.25077 2.76181 2.52758 2.26969 3.01969C1.77758 3.51181 1.50077 4.17904 1.5 4.875C1.5 4.97446 1.53951 5.06984 1.60984 5.14016C1.68016 5.21049 1.77554 5.25 1.875 5.25H11.625V14.25H8.25C8.15054 14.25 8.05516 14.2895 7.98483 14.3598C7.91451 14.4302 7.875 14.5255 7.875 14.625V15.75C7.875 15.8495 7.91451 15.9448 7.98483 16.0152C8.05516 16.0855 8.15054 16.125 8.25 16.125H10.875V20.25H9.375C9.27554 20.25 9.18016 20.2895 9.10983 20.3598C9.03951 20.4302 9 20.5255 9 20.625V21.375H7.8075L7.2075 18.375H7.5C7.59946 18.375 7.69484 18.3355 7.76517 18.2652C7.83549 18.1948 7.875 18.0995 7.875 18C7.87334 16.5087 7.28017 15.0789 6.22564 14.0244C5.17111 12.9698 3.74133 12.3767 2.25 12.375C2.15054 12.375 2.05516 12.4145 1.98484 12.4848C1.91451 12.5552 1.875 12.6505 1.875 12.75V18C1.875 18.0995 1.91451 18.1948 1.98484 18.2652C2.05516 18.3355 2.15054 18.375 2.25 18.375H2.5425L1.9425 21.375H0.375C0.275544 21.375 0.180161 21.4145 0.109835 21.4848C0.0395088 21.5552 0 21.6505 0 21.75L0 22.875C0 22.9745 0.0395088 23.0698 0.109835 23.1402C0.180161 23.2105 0.275544 23.25 0.375 23.25H23.625C23.7245 23.25 23.8198 23.2105 23.8902 23.1402C23.9605 23.0698 24 22.9745 24 22.875V21.75C24 21.6505 23.9605 21.5552 23.8902 21.4848C23.8198 21.4145 23.7245 21.375 23.625 21.375ZM21.375 13.1391V17.625H16.8891C16.9802 16.4656 17.4821 15.3768 18.3044 14.5544C19.1268 13.7321 20.2156 13.2302 21.375 13.1391ZM21.2925 21.375H16.9575L17.5575 18.375H20.6925L21.2925 21.375ZM11.625 1.5H12.375V2.25H11.625V1.5ZM2.2875 4.5C2.37451 4.07677 2.60479 3.69648 2.93951 3.42324C3.27422 3.15 3.69292 3.00052 4.125 3H19.875C20.3071 3.00052 20.7258 3.15 21.0605 3.42324C21.3952 3.69648 21.6255 4.07677 21.7125 4.5H2.2875ZM8.625 15.375V15H15.375V15.375H8.625ZM12.375 16.125V20.25H11.625V16.125H12.375ZM9.75 21H14.25V21.375H9.75V21ZM2.625 13.1391C3.78439 13.2302 4.87321 13.7321 5.69555 14.5544C6.5179 15.3768 7.01979 16.4656 7.11094 17.625H2.625V13.1391ZM7.0425 21.375H2.7075L3.3075 18.375H6.4425L7.0425 21.375ZM23.25 22.5H0.75V22.125H23.25V22.5Z" fill="#F2F2F2"/>
</g>
<defs>
<clipPath id="clip0_821_70364">
<rect width="24" height="24" fill="white"/>
</clipPath>
</defs>
</svg>
