<svg width="25" height="24" viewBox="0 0 25 24" fill="none" xmlns="http://www.w3.org/2000/svg">
<g clip-path="url(#clip0_786_36752)">
<path d="M24.125 21.375H22.5575L21.9575 18.375H22.25C22.3495 18.375 22.4448 18.3355 22.5152 18.2652C22.5855 18.1948 22.625 18.0995 22.625 18V12.75C22.625 12.6505 22.5855 12.5552 22.5152 12.4848C22.4448 12.4145 22.3495 12.375 22.25 12.375C20.7587 12.3767 19.3289 12.9698 18.2744 14.0244C17.2198 15.0789 16.6267 16.5087 16.625 18C16.625 18.0995 16.6645 18.1948 16.7348 18.2652C16.8052 18.3355 16.9005 18.375 17 18.375H17.2925L16.6925 21.375H15.5V20.625C15.5 20.5255 15.4605 20.4302 15.3902 20.3598C15.3198 20.2895 15.2245 20.25 15.125 20.25H13.625V16.125H16.25C16.3495 16.125 16.4448 16.0855 16.5152 16.0152C16.5855 15.9448 16.625 15.8495 16.625 15.75V14.625C16.625 14.5255 16.5855 14.4302 16.5152 14.3598C16.4448 14.2895 16.3495 14.25 16.25 14.25H12.875V5.25H22.625C22.7245 5.25 22.8198 5.21049 22.8902 5.14016C22.9605 5.06984 23 4.97446 23 4.875C22.9992 4.17904 22.7224 3.51181 22.2303 3.01969C21.7382 2.52758 21.071 2.25077 20.375 2.25H13.625V1.125C13.625 1.02554 13.5855 0.930161 13.5152 0.859835C13.4448 0.789509 13.3495 0.75 13.25 0.75H11.75C11.6505 0.75 11.5552 0.789509 11.4848 0.859835C11.4145 0.930161 11.375 1.02554 11.375 1.125V2.25H4.625C3.92904 2.25077 3.26181 2.52758 2.76969 3.01969C2.27758 3.51181 2.00077 4.17904 2 4.875C2 4.97446 2.03951 5.06984 2.10984 5.14016C2.18016 5.21049 2.27554 5.25 2.375 5.25H12.125V14.25H8.75C8.65054 14.25 8.55516 14.2895 8.48483 14.3598C8.41451 14.4302 8.375 14.5255 8.375 14.625V15.75C8.375 15.8495 8.41451 15.9448 8.48483 16.0152C8.55516 16.0855 8.65054 16.125 8.75 16.125H11.375V20.25H9.875C9.77554 20.25 9.68016 20.2895 9.60983 20.3598C9.53951 20.4302 9.5 20.5255 9.5 20.625V21.375H8.3075L7.7075 18.375H8C8.09946 18.375 8.19484 18.3355 8.26517 18.2652C8.33549 18.1948 8.375 18.0995 8.375 18C8.37334 16.5087 7.78017 15.0789 6.72564 14.0244C5.67111 12.9698 4.24133 12.3767 2.75 12.375C2.65054 12.375 2.55516 12.4145 2.48484 12.4848C2.41451 12.5552 2.375 12.6505 2.375 12.75V18C2.375 18.0995 2.41451 18.1948 2.48484 18.2652C2.55516 18.3355 2.65054 18.375 2.75 18.375H3.0425L2.4425 21.375H0.875C0.775544 21.375 0.680161 21.4145 0.609835 21.4848C0.539509 21.5552 0.5 21.6505 0.5 21.75L0.5 22.875C0.5 22.9745 0.539509 23.0698 0.609835 23.1402C0.680161 23.2105 0.775544 23.25 0.875 23.25H24.125C24.2245 23.25 24.3198 23.2105 24.3902 23.1402C24.4605 23.0698 24.5 22.9745 24.5 22.875V21.75C24.5 21.6505 24.4605 21.5552 24.3902 21.4848C24.3198 21.4145 24.2245 21.375 24.125 21.375ZM21.875 13.1391V17.625H17.3891C17.4802 16.4656 17.9821 15.3768 18.8044 14.5544C19.6268 13.7321 20.7156 13.2302 21.875 13.1391ZM21.7925 21.375H17.4575L18.0575 18.375H21.1925L21.7925 21.375ZM12.125 1.5H12.875V2.25H12.125V1.5ZM2.7875 4.5C2.87451 4.07677 3.10479 3.69648 3.43951 3.42324C3.77422 3.15 4.19292 3.00052 4.625 3H20.375C20.8071 3.00052 21.2258 3.15 21.5605 3.42324C21.8952 3.69648 22.1255 4.07677 22.2125 4.5H2.7875ZM9.125 15.375V15H15.875V15.375H9.125ZM12.875 16.125V20.25H12.125V16.125H12.875ZM10.25 21H14.75V21.375H10.25V21ZM3.125 13.1391C4.28439 13.2302 5.37321 13.7321 6.19555 14.5544C7.0179 15.3768 7.51979 16.4656 7.61094 17.625H3.125V13.1391ZM7.5425 21.375H3.2075L3.8075 18.375H6.9425L7.5425 21.375ZM23.75 22.5H1.25V22.125H23.75V22.5Z" fill="black"/>
</g>
<defs>
<clipPath id="clip0_786_36752">
<rect width="24" height="24" fill="white" transform="translate(0.5)"/>
</clipPath>
</defs>
</svg>
