<svg width="24" height="24" viewBox="0 0 24 24" fill="none" xmlns="http://www.w3.org/2000/svg">
<path d="M12.0001 3.375C14.1218 3.37353 16.1694 4.15557 17.75 5.57109L18.2502 5.01225C16.5313 3.47491 14.3061 2.625 12.0001 2.625C9.69402 2.625 7.46886 3.47491 5.75 5.01225L6.25016 5.57109C7.83072 4.15556 9.87831 3.37351 12.0001 3.375Z" fill="#F2F2F2"/>
<path d="M12 20.6249C10.7764 20.6244 9.56685 20.3638 8.45161 19.8603C7.33637 19.3568 6.34091 18.622 5.53125 17.7046L4.96875 18.2009C5.84854 19.1984 6.93052 19.9973 8.1428 20.5445C9.35508 21.0918 10.6699 21.3748 12 21.3748C13.3301 21.3748 14.6449 21.0918 15.8572 20.5445C17.0695 19.9973 18.1515 19.1984 19.0312 18.2009L18.4688 17.7046C17.6591 18.622 16.6636 19.3568 15.5484 19.8603C14.4331 20.3638 13.2236 20.6244 12 20.6249Z" fill="#F2F2F2"/>
<path d="M18.2868 10.9371C18.3455 11.2884 18.375 11.6439 18.375 12C18.3755 12.6482 18.2769 13.2927 18.0825 13.911C17.9452 13.7388 17.7722 13.5986 17.5754 13.5C17.0729 13.2461 16.5413 13.0543 15.9924 12.9289C16.6741 12.3223 17.1113 11.4881 17.2222 10.5824C17.3331 9.6767 17.11 8.76163 16.5948 8.00853C16.0797 7.25542 15.3076 6.71591 14.4233 6.491C13.539 6.2661 12.603 6.37122 11.7907 6.78669C11.5814 6.60558 11.3309 6.47872 11.0611 6.4173C10.7913 6.35588 10.5105 6.36179 10.2435 6.43451C9.97652 6.50723 9.73152 6.64452 9.53012 6.83428C9.32872 7.02404 9.17711 7.26044 9.08864 7.52263C8.84701 7.48292 8.59964 7.49621 8.36366 7.56157C8.12768 7.62693 7.90872 7.7428 7.72195 7.90115C7.53518 8.05951 7.38506 8.25657 7.28198 8.47869C7.17891 8.7008 7.12535 8.94267 7.125 9.18754C7.12477 9.40965 7.16863 9.62961 7.25405 9.83464C7.23206 9.84627 7.20956 9.85808 7.18678 9.8698C6.97645 9.97921 6.738 10.1032 6.56873 10.3358C6.40073 10.5666 6.35616 10.8312 6.31678 11.0646C6.30259 11.1647 6.28148 11.2636 6.25359 11.3608C6.22047 11.451 6.18103 11.5387 6.13556 11.6233C6.02812 11.837 5.90625 12.0793 5.90625 12.375C5.90625 12.6708 6.02812 12.913 6.13556 13.1268C6.18102 13.2114 6.22045 13.2991 6.25355 13.3893C6.28142 13.4864 6.30254 13.5854 6.31673 13.6854C6.35611 13.9189 6.40073 14.1835 6.56873 14.4144C6.738 14.6469 6.97655 14.7709 7.18678 14.8803C7.2766 14.924 7.36324 14.9739 7.44605 15.0298C7.52325 15.0904 7.5961 15.1565 7.66406 15.2273C7.83361 15.395 8.0258 15.5849 8.30292 15.6749C8.57034 15.7618 8.83383 15.7228 9.06633 15.6884C9.16834 15.6705 9.27149 15.6598 9.375 15.6563C9.47851 15.6598 9.58165 15.6705 9.68367 15.6883C9.70552 15.6915 9.72759 15.6948 9.74995 15.698C9.68001 15.8117 9.62906 15.9361 9.59911 16.0662C9.56414 16.2042 9.56066 16.3484 9.58891 16.4879C9.61716 16.6275 9.67643 16.7589 9.76233 16.8725C10.113 17.3267 10.7871 17.4474 11.3673 17.1584C12.0292 16.8252 12.76 16.6518 13.5011 16.6519C14.2422 16.6521 14.9729 16.8259 15.6347 17.1593C15.656 17.17 15.6774 17.18 15.699 17.1895C14.6204 17.962 13.3267 18.3766 12 18.375C8.48484 18.375 5.625 15.5152 5.625 12C5.625 8.48483 8.48484 5.62504 12 5.62504C13.3971 5.62053 14.7563 6.07936 15.8648 6.92971C16.9505 7.76071 17.7427 8.91657 18.1259 10.229L18.8465 10.0211C18.4183 8.55429 17.5332 7.26246 16.32 6.3336C15.0809 5.38303 13.5617 4.87008 12 4.87504C8.07127 4.87504 4.875 8.0713 4.875 12C4.875 15.9288 8.07127 19.125 12 19.125C13.8326 19.1264 15.5947 18.4191 16.9177 17.1511C17.0413 17.0803 17.1497 16.9859 17.2369 16.8734C17.2741 16.8256 17.3064 16.7741 17.3333 16.7198C18.4889 15.4194 19.1265 13.7397 19.125 12C19.1251 11.6023 19.0921 11.2053 19.0266 10.813L18.2868 10.9371ZM17.5969 14.5808C17.6058 14.6113 17.6082 14.6435 17.6038 14.675C17.5995 14.7065 17.5885 14.7368 17.5717 14.7638C17.4436 14.9297 17.1476 14.9623 16.8978 14.8381C15.7267 14.2489 14.3837 14.0975 13.1108 14.4111L13.1038 14.4115V14.4128C12.7072 14.5109 12.323 14.6534 11.9584 14.8377C11.7082 14.9624 11.4118 14.93 11.2829 14.7629C11.2662 14.736 11.2555 14.7058 11.2513 14.6744C11.2471 14.643 11.2495 14.6111 11.2584 14.5807C11.2866 14.4553 11.396 14.2813 11.6183 14.1691C12.4899 13.7304 13.452 13.5019 14.4277 13.5019C15.4034 13.5019 16.3656 13.7304 17.2371 14.1691C17.4593 14.2814 17.5687 14.4553 17.5969 14.5808ZM16.5 10.125C16.5011 10.6678 16.3544 11.2007 16.0758 11.6665C15.7971 12.1324 15.397 12.5136 14.9182 12.7694C14.1699 12.717 13.4181 12.7848 12.6912 12.9703C12.7859 12.7857 12.838 12.5823 12.8438 12.375C12.8438 12.0793 12.7219 11.8371 12.6144 11.6233C12.569 11.5387 12.5296 11.451 12.4965 11.3608C12.4803 11.3089 12.4674 11.2561 12.4576 11.2026C12.7063 11.4428 13.0304 11.5897 13.3751 11.6184C13.7197 11.647 14.0636 11.5557 14.3485 11.3598C14.6335 11.164 14.842 10.8756 14.9387 10.5436C15.0355 10.2117 15.0145 9.85644 14.8793 9.53816C14.7441 9.21988 14.5031 8.95812 14.197 8.79719C13.891 8.63627 13.5387 8.58609 13.1999 8.65515C12.861 8.72422 12.5565 8.90827 12.3378 9.17615C12.1192 9.44402 11.9998 9.77924 12 10.125C12 10.1308 12 10.1366 12 10.1423C11.8651 10.0353 11.7186 9.94391 11.5631 9.86985C11.4733 9.82617 11.3866 9.77624 11.3038 9.72041C11.2797 9.70283 11.2552 9.68263 11.2301 9.6605C11.4501 9.58581 11.6522 9.46651 11.8239 9.31009C11.9956 9.15366 12.1332 8.96347 12.228 8.75142C12.3228 8.53937 12.3728 8.31004 12.3749 8.07777C12.377 7.84551 12.3311 7.61531 12.2401 7.4016C12.6347 7.21811 13.0648 7.12369 13.5 7.12504C14.2954 7.12593 15.0579 7.44229 15.6203 8.0047C16.1827 8.56712 16.4991 9.32966 16.5 10.125ZM12.75 10.125C12.75 9.9767 12.794 9.83169 12.8764 9.70836C12.9588 9.58502 13.0759 9.48889 13.213 9.43213C13.35 9.37536 13.5008 9.36051 13.6463 9.38945C13.7918 9.41839 13.9254 9.48982 14.0303 9.59471C14.1352 9.69959 14.2066 9.83323 14.2356 9.97872C14.2645 10.1242 14.2497 10.275 14.1929 10.412C14.1361 10.5491 14.04 10.6662 13.9167 10.7486C13.7933 10.831 13.6483 10.875 13.5 10.875C13.3012 10.8748 13.1105 10.7957 12.9699 10.6551C12.8293 10.5145 12.7502 10.3239 12.75 10.125ZM10.6875 7.12504C10.8729 7.12504 11.0542 7.18002 11.2083 7.28303C11.3625 7.38605 11.4827 7.53246 11.5536 7.70377C11.6246 7.87508 11.6432 8.06358 11.607 8.24543C11.5708 8.42729 11.4815 8.59434 11.3504 8.72545C11.2193 8.85656 11.0523 8.94585 10.8704 8.98202C10.6885 9.0182 10.5 8.99963 10.3287 8.92867C10.1574 8.85772 10.011 8.73755 9.908 8.58338C9.80498 8.42921 9.75 8.24796 9.75 8.06254C9.75029 7.81398 9.84915 7.57569 10.0249 7.39994C10.2007 7.22418 10.4389 7.12532 10.6875 7.12504ZM8.8125 8.25004C8.87987 8.24995 8.94705 8.25708 9.01289 8.27132C9.04216 8.50441 9.11974 8.72883 9.24066 8.93024C9.36159 9.13166 9.5232 9.30563 9.71517 9.44104C9.66799 9.60903 9.57485 9.76053 9.44625 9.87847C9.31764 9.99641 9.15867 10.0761 8.98723 10.1086C8.81578 10.1411 8.63867 10.1251 8.47582 10.0625C8.31297 9.99977 8.17084 9.89288 8.06544 9.75381C7.96004 9.61474 7.89554 9.44902 7.87921 9.27528C7.86288 9.10155 7.89536 8.92671 7.97299 8.77043C8.05063 8.61415 8.17034 8.48265 8.31866 8.39071C8.46697 8.29877 8.638 8.25005 8.8125 8.25004ZM9.375 14.9063C9.23473 14.9092 9.09487 14.9226 8.95659 14.9464C8.79103 14.9708 8.63475 14.994 8.53472 14.9615C8.42691 14.9264 8.31248 14.8135 8.1915 14.6938C8.09724 14.596 7.99563 14.5056 7.88756 14.4233C7.77484 14.3449 7.65631 14.2752 7.533 14.2148C7.38272 14.1367 7.24073 14.0629 7.17534 13.973C7.11113 13.8847 7.08459 13.7273 7.05647 13.5605C7.03675 13.4241 7.00687 13.2893 6.96708 13.1574C6.92285 13.0308 6.86894 12.9079 6.80583 12.7896C6.72881 12.6371 6.65625 12.4928 6.65625 12.375C6.65625 12.2572 6.72881 12.113 6.80564 11.9602C6.86878 11.8419 6.92269 11.719 6.96689 11.5925C7.0067 11.4605 7.03659 11.3257 7.05633 11.1893C7.08445 11.0226 7.11094 10.8653 7.17516 10.7768C7.24078 10.687 7.38253 10.6131 7.53281 10.535C7.58583 10.5074 7.63964 10.4795 7.69336 10.4493C7.89196 10.6257 8.1294 10.7526 8.38636 10.8199C8.64332 10.8871 8.91252 10.8926 9.17204 10.8361C9.43155 10.7796 9.67405 10.6625 9.87977 10.4945C10.0855 10.3265 10.2486 10.1123 10.3559 9.86933C10.4269 9.92767 10.4946 9.98997 10.5585 10.0559C10.6528 10.1537 10.7544 10.2442 10.8625 10.3266C10.9752 10.4049 11.0938 10.4746 11.2171 10.535C11.3674 10.6131 11.5094 10.687 11.5747 10.7768C11.639 10.8651 11.6655 11.0226 11.6936 11.1893C11.7133 11.3257 11.7432 11.4605 11.783 11.5925C11.8272 11.719 11.8812 11.8419 11.9443 11.9602C12.0212 12.113 12.0938 12.2572 12.0938 12.375C12.0938 12.4928 12.0212 12.6371 11.9444 12.7899C11.8812 12.9081 11.8273 13.031 11.7831 13.1576C11.7701 13.1977 11.7583 13.2393 11.7472 13.285C11.5895 13.3506 11.4338 13.4222 11.2803 13.4997C10.8937 13.6947 10.6121 14.0372 10.5268 14.4159C10.5017 14.5246 10.494 14.6366 10.5039 14.7478C10.4031 14.8462 10.3071 14.9317 10.2155 14.9615C10.1153 14.9939 9.95902 14.9708 9.79359 14.9464C9.65526 14.9226 9.51534 14.9092 9.375 14.9063ZM15.9712 16.4889C15.205 16.1031 14.359 15.9021 13.5011 15.9019C12.6432 15.9017 11.7972 16.1024 11.0308 16.4879C10.7806 16.6126 10.4842 16.5802 10.3553 16.4129C10.3387 16.386 10.3279 16.3558 10.3237 16.3244C10.3195 16.293 10.3219 16.261 10.3308 16.2306C10.359 16.1053 10.4684 15.9313 10.6907 15.8191C10.8568 15.7352 11.028 15.6581 11.2017 15.5892C11.3801 15.6497 11.5688 15.6737 11.7567 15.6597C11.9445 15.6457 12.1277 15.594 12.2951 15.5077C12.5912 15.3581 12.9023 15.2402 13.2233 15.1562C13.4334 15.1469 13.6439 15.1482 13.8539 15.16C14.7093 15.2073 15.5455 15.4318 16.3096 15.8192C16.5317 15.9313 16.641 16.1051 16.6693 16.2307C16.6768 16.2627 16.6791 16.2956 16.6763 16.3283C16.6128 16.3968 16.5479 16.4639 16.4816 16.5295C16.3981 16.5573 16.3099 16.568 16.2223 16.561C16.1346 16.554 16.0492 16.5295 15.9712 16.4889Z" fill="#F2F2F2"/>
<path d="M22.5 1.875V5.625H21.375V1.875H20.625V5.625H19.5V1.875H18.75V8.0625C18.7504 8.37214 18.8601 8.6717 19.0598 8.90837C19.2594 9.14505 19.5362 9.30366 19.8413 9.35625L19.5024 20.5396C19.5008 20.5677 19.5 20.5963 19.5 20.6249C19.5 21.0227 19.658 21.4043 19.9393 21.6856C20.2206 21.9669 20.6022 22.1249 21 22.1249C21.3978 22.1249 21.7794 21.9669 22.0607 21.6856C22.342 21.4043 22.5 21.0227 22.5 20.6249C22.5 20.5963 22.4992 20.5678 22.4976 20.5396L22.4203 17.9887L21.6707 18.0113L21.7481 20.5676C21.7481 20.5714 21.7484 20.5751 21.7486 20.5789C21.7495 20.5941 21.75 20.6095 21.75 20.625C21.75 20.8239 21.671 21.0147 21.5304 21.1553C21.3897 21.296 21.199 21.375 21 21.375C20.8011 21.375 20.6104 21.296 20.4697 21.1553C20.3291 21.0147 20.25 20.8239 20.25 20.625C20.25 20.6095 20.2506 20.5941 20.2515 20.5789C20.2517 20.5751 20.2519 20.5714 20.252 20.5676L20.5911 9.375H21.4089L21.648 17.2613L22.3976 17.2387L22.1585 9.35634C22.4637 9.30378 22.7405 9.14517 22.9402 8.90847C23.1399 8.67177 23.2496 8.37218 23.25 8.0625V1.875H22.5ZM22.5 8.0625C22.4998 8.21163 22.4405 8.35461 22.3351 8.46007C22.2296 8.56552 22.0866 8.62484 21.9375 8.625H20.0625C19.9134 8.62484 19.7704 8.56552 19.6649 8.46007C19.5595 8.35461 19.5002 8.21163 19.5 8.0625V6.375H22.5V8.0625Z" fill="#F2F2F2"/>
<path d="M4.14609 8.94103C4.87266 8.31713 5.35716 7.08009 5.35716 5.625C5.35716 3.52219 4.34531 1.875 3.05358 1.875C1.76184 1.875 0.75 3.52219 0.75 5.625C0.75 7.00936 1.18856 8.19628 1.85681 8.84569L1.77291 11.6137L2.52253 11.6363L2.59327 9.30319C2.85693 9.38755 3.13871 9.39779 3.40781 9.33281L3.74827 20.5676C3.74827 20.5713 3.74855 20.5751 3.74878 20.5788C3.74967 20.5941 3.75019 20.6095 3.75019 20.625C3.75019 20.8239 3.67117 21.0146 3.53052 21.1553C3.38987 21.2959 3.1991 21.375 3.00019 21.375C2.80128 21.375 2.61051 21.2959 2.46986 21.1553C2.32921 21.0146 2.25019 20.8239 2.25019 20.625C2.25019 20.6095 2.2507 20.5941 2.25159 20.5788C2.25159 20.5751 2.25202 20.5713 2.25211 20.5676L2.49998 12.3863L1.75036 12.3636L1.50244 20.5397C1.50084 20.5678 1.5 20.5964 1.5 20.625C1.5 21.0228 1.65804 21.4044 1.93934 21.6857C2.22064 21.967 2.60218 22.125 3 22.125C3.39782 22.125 3.77936 21.967 4.06066 21.6857C4.34196 21.4044 4.5 21.0228 4.5 20.625C4.5 20.5964 4.49916 20.5679 4.49756 20.5397L4.14609 8.94103ZM1.5 5.625C1.5 3.83048 2.3033 2.625 3.05358 2.625C3.80386 2.625 4.60716 3.83048 4.60716 5.625C4.60716 7.41952 3.80381 8.625 3.05358 8.625C2.30334 8.625 1.5 7.41952 1.5 5.625Z" fill="#F2F2F2"/>
<path d="M7.89402 11.5064L7.51904 12.6313L8.2306 12.8685L8.60558 11.7435L7.89402 11.5064Z" fill="#F2F2F2"/>
<path d="M10.0063 13.144L8.88135 13.519L9.11852 14.2306L10.2435 13.8556L10.0063 13.144Z" fill="#F2F2F2"/>
<path d="M9.95802 11.313L9.54199 11.937L10.667 12.687L11.083 12.063L9.95802 11.313Z" fill="#F2F2F2"/>
</svg>
