<svg width="25" height="24" viewBox="0 0 25 24" fill="none" xmlns="http://www.w3.org/2000/svg">
<path d="M12.5001 3.375C14.6218 3.37353 16.6694 4.15557 18.25 5.57109L18.7502 5.01225C17.0313 3.47491 14.8061 2.625 12.5001 2.625C10.194 2.625 7.96886 3.47491 6.25 5.01225L6.75016 5.57109C8.33072 4.15556 10.3783 3.37351 12.5001 3.375Z" fill="black"/>
<path d="M12.5 20.625C11.2764 20.6245 10.0668 20.3639 8.95161 19.8604C7.83637 19.357 6.84091 18.6221 6.03125 17.7047L5.46875 18.201C6.34854 19.1985 7.43052 19.9975 8.6428 20.5447C9.85508 21.0919 11.1699 21.3749 12.5 21.3749C13.8301 21.3749 15.1449 21.0919 16.3572 20.5447C17.5695 19.9975 18.6515 19.1985 19.5312 18.201L18.9688 17.7047C18.1591 18.6221 17.1636 19.357 16.0484 19.8604C14.9331 20.3639 13.7236 20.6245 12.5 20.625Z" fill="black"/>
<path d="M18.7868 10.9371C18.8455 11.2884 18.875 11.6439 18.875 12C18.8755 12.6482 18.7769 13.2927 18.5825 13.911C18.4452 13.7388 18.2722 13.5986 18.0754 13.5C17.5729 13.2461 17.0413 13.0543 16.4924 12.9289C17.1741 12.3223 17.6113 11.4881 17.7222 10.5824C17.8331 9.6767 17.61 8.76163 17.0948 8.00853C16.5797 7.25542 15.8076 6.71591 14.9233 6.491C14.039 6.2661 13.103 6.37122 12.2907 6.78669C12.0814 6.60558 11.8309 6.47872 11.5611 6.4173C11.2913 6.35588 11.0105 6.36179 10.7435 6.43451C10.4765 6.50723 10.2315 6.64452 10.0301 6.83428C9.82872 7.02404 9.67711 7.26044 9.58864 7.52263C9.34701 7.48292 9.09964 7.49621 8.86366 7.56157C8.62768 7.62693 8.40872 7.7428 8.22195 7.90115C8.03518 8.05951 7.88506 8.25657 7.78198 8.47869C7.67891 8.7008 7.62535 8.94267 7.625 9.18754C7.62477 9.40965 7.66863 9.62961 7.75405 9.83464C7.73206 9.84627 7.70956 9.85808 7.68678 9.8698C7.47645 9.97921 7.238 10.1032 7.06873 10.3358C6.90073 10.5666 6.85616 10.8312 6.81678 11.0646C6.80259 11.1647 6.78148 11.2636 6.75359 11.3608C6.72047 11.451 6.68103 11.5387 6.63556 11.6233C6.52812 11.837 6.40625 12.0793 6.40625 12.375C6.40625 12.6708 6.52812 12.913 6.63556 13.1268C6.68102 13.2114 6.72045 13.2991 6.75355 13.3893C6.78142 13.4864 6.80254 13.5854 6.81673 13.6854C6.85611 13.9189 6.90073 14.1835 7.06873 14.4144C7.238 14.6469 7.47655 14.7709 7.68678 14.8803C7.7766 14.924 7.86324 14.9739 7.94605 15.0298C8.02325 15.0904 8.0961 15.1565 8.16406 15.2273C8.33361 15.395 8.5258 15.5849 8.80292 15.6749C9.07034 15.7618 9.33383 15.7228 9.56633 15.6884C9.66834 15.6705 9.77149 15.6598 9.875 15.6563C9.97851 15.6598 10.0817 15.6705 10.1837 15.6883C10.2055 15.6915 10.2276 15.6948 10.25 15.698C10.18 15.8117 10.1291 15.9361 10.0991 16.0662C10.0641 16.2042 10.0607 16.3484 10.0889 16.4879C10.1172 16.6275 10.1764 16.7589 10.2623 16.8725C10.613 17.3267 11.2871 17.4474 11.8673 17.1584C12.5292 16.8252 13.26 16.6518 14.0011 16.6519C14.7422 16.6521 15.4729 16.8259 16.1347 17.1593C16.156 17.17 16.1774 17.18 16.199 17.1895C15.1204 17.962 13.8267 18.3766 12.5 18.375C8.98484 18.375 6.125 15.5152 6.125 12C6.125 8.48483 8.98484 5.62504 12.5 5.62504C13.8971 5.62053 15.2563 6.07936 16.3648 6.92971C17.4505 7.76071 18.2427 8.91657 18.6259 10.229L19.3465 10.0211C18.9183 8.55429 18.0332 7.26246 16.82 6.3336C15.5809 5.38303 14.0617 4.87008 12.5 4.87504C8.57127 4.87504 5.375 8.0713 5.375 12C5.375 15.9288 8.57127 19.125 12.5 19.125C14.3326 19.1264 16.0947 18.4191 17.4177 17.1511C17.5413 17.0803 17.6497 16.9859 17.7369 16.8734C17.7741 16.8256 17.8064 16.7741 17.8333 16.7198C18.9889 15.4194 19.6265 13.7397 19.625 12C19.6251 11.6023 19.5921 11.2053 19.5266 10.813L18.7868 10.9371ZM18.0969 14.5808C18.1058 14.6113 18.1082 14.6435 18.1038 14.675C18.0995 14.7065 18.0885 14.7368 18.0717 14.7638C17.9436 14.9297 17.6476 14.9623 17.3978 14.8381C16.2267 14.2489 14.8837 14.0975 13.6108 14.4111L13.6038 14.4115V14.4128C13.2072 14.5109 12.823 14.6534 12.4584 14.8377C12.2082 14.9624 11.9118 14.93 11.7829 14.7629C11.7662 14.736 11.7555 14.7058 11.7513 14.6744C11.7471 14.643 11.7495 14.6111 11.7584 14.5807C11.7866 14.4553 11.896 14.2813 12.1183 14.1691C12.9899 13.7304 13.952 13.5019 14.9277 13.5019C15.9034 13.5019 16.8656 13.7304 17.7371 14.1691C17.9593 14.2814 18.0687 14.4553 18.0969 14.5808ZM17 10.125C17.0011 10.6678 16.8544 11.2007 16.5758 11.6665C16.2971 12.1324 15.897 12.5136 15.4182 12.7694C14.6699 12.717 13.9181 12.7848 13.1912 12.9703C13.2859 12.7857 13.338 12.5823 13.3438 12.375C13.3438 12.0793 13.2219 11.8371 13.1144 11.6233C13.069 11.5387 13.0296 11.451 12.9965 11.3608C12.9803 11.3089 12.9674 11.2561 12.9576 11.2026C13.2063 11.4428 13.5304 11.5897 13.8751 11.6184C14.2197 11.647 14.5636 11.5557 14.8485 11.3598C15.1335 11.164 15.342 10.8756 15.4387 10.5436C15.5355 10.2117 15.5145 9.85644 15.3793 9.53816C15.2441 9.21988 15.0031 8.95812 14.697 8.79719C14.391 8.63627 14.0387 8.58609 13.6999 8.65515C13.361 8.72422 13.0565 8.90827 12.8378 9.17615C12.6192 9.44402 12.4998 9.77924 12.5 10.125C12.5 10.1308 12.5 10.1366 12.5 10.1423C12.3651 10.0353 12.2186 9.94391 12.0631 9.86985C11.9733 9.82617 11.8866 9.77624 11.8038 9.72041C11.7797 9.70283 11.7552 9.68263 11.7301 9.6605C11.9501 9.58581 12.1522 9.46651 12.3239 9.31009C12.4956 9.15366 12.6332 8.96347 12.728 8.75142C12.8228 8.53937 12.8728 8.31004 12.8749 8.07777C12.877 7.84551 12.8311 7.61531 12.7401 7.4016C13.1347 7.21811 13.5648 7.12369 14 7.12504C14.7954 7.12593 15.5579 7.44229 16.1203 8.0047C16.6827 8.56712 16.9991 9.32966 17 10.125ZM13.25 10.125C13.25 9.9767 13.294 9.83169 13.3764 9.70836C13.4588 9.58502 13.5759 9.48889 13.713 9.43213C13.85 9.37536 14.0008 9.36051 14.1463 9.38945C14.2918 9.41839 14.4254 9.48982 14.5303 9.59471C14.6352 9.69959 14.7066 9.83323 14.7356 9.97872C14.7645 10.1242 14.7497 10.275 14.6929 10.412C14.6361 10.5491 14.54 10.6662 14.4167 10.7486C14.2933 10.831 14.1483 10.875 14 10.875C13.8012 10.8748 13.6105 10.7957 13.4699 10.6551C13.3293 10.5145 13.2502 10.3239 13.25 10.125ZM11.1875 7.12504C11.3729 7.12504 11.5542 7.18002 11.7083 7.28303C11.8625 7.38605 11.9827 7.53246 12.0536 7.70377C12.1246 7.87508 12.1432 8.06358 12.107 8.24543C12.0708 8.42729 11.9815 8.59434 11.8504 8.72545C11.7193 8.85656 11.5523 8.94585 11.3704 8.98202C11.1885 9.0182 11 8.99963 10.8287 8.92867C10.6574 8.85772 10.511 8.73755 10.408 8.58338C10.305 8.42921 10.25 8.24796 10.25 8.06254C10.2503 7.81398 10.3491 7.57569 10.5249 7.39994C10.7007 7.22418 10.9389 7.12532 11.1875 7.12504ZM9.3125 8.25004C9.37987 8.24995 9.44705 8.25708 9.51289 8.27132C9.54216 8.50441 9.61974 8.72883 9.74066 8.93024C9.86159 9.13166 10.0232 9.30563 10.2152 9.44104C10.168 9.60903 10.0749 9.76053 9.94625 9.87847C9.81764 9.99641 9.65867 10.0761 9.48723 10.1086C9.31578 10.1411 9.13867 10.1251 8.97582 10.0625C8.81297 9.99977 8.67084 9.89288 8.56544 9.75381C8.46004 9.61474 8.39554 9.44902 8.37921 9.27528C8.36288 9.10155 8.39536 8.92671 8.47299 8.77043C8.55063 8.61415 8.67034 8.48265 8.81866 8.39071C8.96697 8.29877 9.138 8.25005 9.3125 8.25004ZM9.875 14.9063C9.73473 14.9092 9.59487 14.9226 9.45659 14.9464C9.29103 14.9708 9.13475 14.994 9.03472 14.9615C8.92691 14.9264 8.81248 14.8135 8.6915 14.6938C8.59724 14.596 8.49563 14.5056 8.38756 14.4233C8.27484 14.3449 8.15631 14.2752 8.033 14.2148C7.88272 14.1367 7.74073 14.0629 7.67534 13.973C7.61113 13.8847 7.58459 13.7273 7.55647 13.5605C7.53675 13.4241 7.50687 13.2893 7.46708 13.1574C7.42285 13.0308 7.36894 12.9079 7.30583 12.7896C7.22881 12.6371 7.15625 12.4928 7.15625 12.375C7.15625 12.2572 7.22881 12.113 7.30564 11.9602C7.36878 11.8419 7.42269 11.719 7.46689 11.5925C7.5067 11.4605 7.53659 11.3257 7.55633 11.1893C7.58445 11.0226 7.61094 10.8653 7.67516 10.7768C7.74078 10.687 7.88253 10.6131 8.03281 10.535C8.08583 10.5074 8.13964 10.4795 8.19336 10.4493C8.39196 10.6257 8.6294 10.7526 8.88636 10.8199C9.14332 10.8871 9.41252 10.8926 9.67204 10.8361C9.93155 10.7796 10.174 10.6625 10.3798 10.4945C10.5855 10.3265 10.7486 10.1123 10.8559 9.86933C10.9269 9.92767 10.9946 9.98997 11.0585 10.0559C11.1528 10.1537 11.2544 10.2442 11.3625 10.3266C11.4752 10.4049 11.5938 10.4746 11.7171 10.535C11.8674 10.6131 12.0094 10.687 12.0747 10.7768C12.139 10.8651 12.1655 11.0226 12.1936 11.1893C12.2133 11.3257 12.2432 11.4605 12.283 11.5925C12.3272 11.719 12.3812 11.8419 12.4443 11.9602C12.5212 12.113 12.5938 12.2572 12.5938 12.375C12.5938 12.4928 12.5212 12.6371 12.4444 12.7899C12.3812 12.9081 12.3273 13.031 12.2831 13.1576C12.2701 13.1977 12.2583 13.2393 12.2472 13.285C12.0895 13.3506 11.9338 13.4222 11.7803 13.4997C11.3937 13.6947 11.1121 14.0372 11.0268 14.4159C11.0017 14.5246 10.994 14.6366 11.0039 14.7478C10.9031 14.8462 10.8071 14.9317 10.7155 14.9615C10.6153 14.9939 10.459 14.9708 10.2936 14.9464C10.1553 14.9226 10.0153 14.9092 9.875 14.9063ZM16.4712 16.4889C15.705 16.1031 14.859 15.9021 14.0011 15.9019C13.1432 15.9017 12.2972 16.1024 11.5308 16.4879C11.2806 16.6126 10.9842 16.5802 10.8553 16.4129C10.8387 16.386 10.8279 16.3558 10.8237 16.3244C10.8195 16.293 10.8219 16.261 10.8308 16.2306C10.859 16.1053 10.9684 15.9313 11.1907 15.8191C11.3568 15.7352 11.528 15.6581 11.7017 15.5892C11.8801 15.6497 12.0688 15.6737 12.2567 15.6597C12.4445 15.6457 12.6277 15.594 12.7951 15.5077C13.0912 15.3581 13.4023 15.2402 13.7233 15.1562C13.9334 15.1469 14.1439 15.1482 14.3539 15.16C15.2093 15.2073 16.0455 15.4318 16.8096 15.8192C17.0317 15.9313 17.141 16.1051 17.1693 16.2307C17.1768 16.2627 17.1791 16.2956 17.1763 16.3283C17.1128 16.3968 17.0479 16.4639 16.9816 16.5295C16.8981 16.5573 16.8099 16.568 16.7223 16.561C16.6346 16.554 16.5492 16.5295 16.4712 16.4889Z" fill="black"/>
<path d="M23 1.875V5.625H21.875V1.875H21.125V5.625H20V1.875H19.25V8.0625C19.2504 8.37214 19.3601 8.6717 19.5598 8.90837C19.7594 9.14505 20.0362 9.30366 20.3413 9.35625L20.0024 20.5396C20.0008 20.5677 20 20.5963 20 20.6249C20 21.0227 20.158 21.4043 20.4393 21.6856C20.7206 21.9669 21.1022 22.1249 21.5 22.1249C21.8978 22.1249 22.2794 21.9669 22.5607 21.6856C22.842 21.4043 23 21.0227 23 20.6249C23 20.5963 22.9992 20.5678 22.9976 20.5396L22.9203 17.9887L22.1707 18.0113L22.2481 20.5676C22.2481 20.5714 22.2484 20.5751 22.2486 20.5789C22.2495 20.5941 22.25 20.6095 22.25 20.625C22.25 20.8239 22.171 21.0147 22.0304 21.1553C21.8897 21.296 21.699 21.375 21.5 21.375C21.3011 21.375 21.1104 21.296 20.9697 21.1553C20.8291 21.0147 20.75 20.8239 20.75 20.625C20.75 20.6095 20.7506 20.5941 20.7515 20.5789C20.7517 20.5751 20.7519 20.5714 20.752 20.5676L21.0911 9.375H21.9089L22.148 17.2613L22.8976 17.2387L22.6585 9.35634C22.9637 9.30378 23.2405 9.14517 23.4402 8.90847C23.6399 8.67177 23.7496 8.37218 23.75 8.0625V1.875H23ZM23 8.0625C22.9998 8.21163 22.9405 8.35461 22.8351 8.46007C22.7296 8.56552 22.5866 8.62484 22.4375 8.625H20.5625C20.4134 8.62484 20.2704 8.56552 20.1649 8.46007C20.0595 8.35461 20.0002 8.21163 20 8.0625V6.375H23V8.0625Z" fill="black"/>
<path d="M4.64609 8.94103C5.37266 8.31713 5.85716 7.08009 5.85716 5.625C5.85716 3.52219 4.84531 1.875 3.55358 1.875C2.26184 1.875 1.25 3.52219 1.25 5.625C1.25 7.00936 1.68856 8.19628 2.35681 8.84569L2.27291 11.6137L3.02253 11.6363L3.09327 9.30319C3.35693 9.38755 3.63871 9.39779 3.90781 9.33281L4.24827 20.5676C4.24827 20.5713 4.24855 20.5751 4.24878 20.5788C4.24967 20.5941 4.25019 20.6095 4.25019 20.625C4.25019 20.8239 4.17117 21.0146 4.03052 21.1553C3.88987 21.2959 3.6991 21.375 3.50019 21.375C3.30128 21.375 3.11051 21.2959 2.96986 21.1553C2.82921 21.0146 2.75019 20.8239 2.75019 20.625C2.75019 20.6095 2.7507 20.5941 2.75159 20.5788C2.75159 20.5751 2.75202 20.5713 2.75211 20.5676L2.99998 12.3863L2.25036 12.3636L2.00244 20.5397C2.00084 20.5678 2 20.5964 2 20.625C2 21.0228 2.15804 21.4044 2.43934 21.6857C2.72064 21.967 3.10218 22.125 3.5 22.125C3.89782 22.125 4.27936 21.967 4.56066 21.6857C4.84196 21.4044 5 21.0228 5 20.625C5 20.5964 4.99916 20.5679 4.99756 20.5397L4.64609 8.94103ZM2 5.625C2 3.83048 2.8033 2.625 3.55358 2.625C4.30386 2.625 5.10716 3.83048 5.10716 5.625C5.10716 7.41952 4.30381 8.625 3.55358 8.625C2.80334 8.625 2 7.41952 2 5.625Z" fill="black"/>
<path d="M8.39451 11.5065L8.01953 12.6315L8.73109 12.8686L9.10607 11.7436L8.39451 11.5065Z" fill="black"/>
<path d="M10.5058 13.1443L9.38086 13.5193L9.61803 14.2308L10.743 13.8558L10.5058 13.1443Z" fill="black"/>
<path d="M10.457 11.313L10.041 11.937L11.166 12.687L11.582 12.063L10.457 11.313Z" fill="black"/>
</svg>
