<svg width="24" height="24" viewBox="0 0 24 24" fill="none" xmlns="http://www.w3.org/2000/svg">
<g clip-path="url(#clip0_821_70376)">
<path d="M7.03727 19.4679H3.84977C3.75838 19.468 3.67011 19.4347 3.60154 19.3743C3.53297 19.3138 3.48882 19.2304 3.4774 19.1398L2.2774 9.61927C2.26487 9.52041 2.29212 9.42063 2.35316 9.34186C2.41421 9.26309 2.50404 9.2118 2.6029 9.19927C2.70176 9.18674 2.80155 9.214 2.88031 9.27504C2.95908 9.33608 3.01037 9.42591 3.0229 9.52477L4.18015 18.7171H6.66227V10.2103C6.66227 10.1108 6.70178 10.0154 6.77211 9.94511C6.84243 9.87478 6.93782 9.83527 7.03727 9.83527C7.13673 9.83527 7.23211 9.87478 7.30244 9.94511C7.37276 10.0154 7.41227 10.1108 7.41227 10.2103V19.0929C7.41227 19.1924 7.37276 19.2877 7.30244 19.3581C7.23211 19.4284 7.13673 19.4679 7.03727 19.4679Z" fill="#F2F2F2"/>
<path d="M5.25019 10.8437C4.09698 10.8421 2.98581 10.4105 2.13394 9.63317C1.57422 9.12306 1.1283 8.5007 0.825262 7.80668C0.522221 7.11266 0.368865 6.36256 0.375192 5.60529C0.368794 4.84808 0.522043 4.09802 0.824951 3.40401C1.12786 2.71 1.57363 2.08761 2.13319 1.57742C2.61893 1.13303 3.19401 0.797551 3.81991 0.593443C4.44582 0.389334 5.10811 0.321307 5.76244 0.393918L16.8354 2.35779C16.9221 2.3732 17.0006 2.41861 17.0572 2.48608C17.1137 2.55354 17.1448 2.63875 17.1448 2.72679V8.48342C17.1448 8.57146 17.1137 8.65667 17.0572 8.72413C17.0006 8.7916 16.9221 8.83701 16.8354 8.85242L5.78644 10.8133C5.60842 10.8336 5.42937 10.8437 5.25019 10.8437ZM5.23969 1.11279C4.27401 1.12012 3.34531 1.48513 2.63307 2.13729C2.15232 2.57708 1.76959 3.11318 1.50979 3.7107C1.24999 4.30822 1.11894 4.95376 1.12519 5.60529C1.11873 6.25711 1.24971 6.90297 1.50958 7.50077C1.76946 8.09858 2.1524 8.6349 2.63344 9.07479C3.04048 9.44882 3.52292 9.73131 4.0483 9.90325C4.57367 10.0752 5.12978 10.1326 5.67919 10.0715L16.3948 8.16954V3.04104L5.65519 1.13567C5.51722 1.12041 5.37851 1.11277 5.23969 1.11279Z" fill="#F2F2F2"/>
<path d="M19.1415 9.88416C19.0899 9.88433 19.0388 9.87387 18.9915 9.85341L16.6215 8.83116C16.5545 8.80193 16.4976 8.75379 16.4576 8.69263C16.4176 8.63147 16.3964 8.55997 16.3965 8.48691V2.72691C16.3964 2.65385 16.4176 2.58235 16.4576 2.52119C16.4976 2.46003 16.5545 2.41188 16.6215 2.38266L18.993 1.36041C19.0501 1.33548 19.1125 1.32518 19.1746 1.33044C19.2367 1.33569 19.2965 1.35634 19.3486 1.39051C19.4007 1.42468 19.4435 1.47129 19.4731 1.52614C19.5026 1.58099 19.5181 1.64235 19.518 1.70466V9.50916C19.518 9.60861 19.4785 9.704 19.4082 9.77432C19.3378 9.84465 19.2424 9.88416 19.143 9.88416H19.1415ZM17.145 8.24016L18.7665 8.93916V2.27466L17.145 2.97403V8.24016Z" fill="#F2F2F2"/>
<path d="M4.8583 7.73297C4.43778 7.73289 4.02673 7.60813 3.67712 7.37445C3.32751 7.14077 3.05504 6.80867 2.89417 6.42014C2.73329 6.03161 2.69124 5.60411 2.77332 5.19168C2.85541 4.77925 3.05794 4.40043 3.35532 4.1031C3.6527 3.80578 4.03156 3.60331 4.444 3.5213C4.85644 3.43929 5.28394 3.48141 5.67244 3.64236C6.06094 3.8033 6.39299 4.07583 6.62661 4.42548C6.86023 4.77513 6.98492 5.1862 6.98492 5.60672C6.98423 6.17049 6.75994 6.71096 6.36126 7.10957C5.96258 7.50818 5.42207 7.73237 4.8583 7.73297ZM4.8583 4.23047C4.58612 4.23054 4.32007 4.31132 4.0938 4.46259C3.86752 4.61386 3.69118 4.82883 3.58708 5.08031C3.48297 5.33179 3.45577 5.6085 3.50891 5.87544C3.56206 6.14238 3.69316 6.38757 3.88565 6.58001C4.07814 6.77244 4.32336 6.90348 4.59032 6.95655C4.85727 7.00963 5.13397 6.98235 5.38543 6.87817C5.63688 6.774 5.8518 6.5976 6.00301 6.37128C6.15422 6.14497 6.23492 5.8789 6.23492 5.60672C6.23443 5.2418 6.08922 4.89198 5.83115 4.63398C5.57308 4.37598 5.22321 4.23087 4.8583 4.23047Z" fill="#F2F2F2"/>
<path d="M7.71548 13.4997H7.03711C6.93765 13.4997 6.84227 13.4602 6.77194 13.3899C6.70162 13.3196 6.66211 13.2242 6.66211 13.1247V11.1938C6.66211 11.0944 6.70162 10.999 6.77194 10.9287C6.84227 10.8584 6.93765 10.8188 7.03711 10.8188H7.71548C7.95397 10.8195 8.18248 10.9146 8.35112 11.0832C8.51975 11.2518 8.61479 11.4804 8.61548 11.7188V12.5997C8.61479 12.8382 8.51975 13.0667 8.35112 13.2354C8.18248 13.404 7.95397 13.499 7.71548 13.4997ZM7.41211 12.7497H7.71548C7.75509 12.7491 7.7929 12.7332 7.82091 12.7051C7.84891 12.6771 7.8649 12.6393 7.86548 12.5997V11.7203C7.865 11.6807 7.84904 11.6428 7.82101 11.6148C7.79299 11.5868 7.75512 11.5708 7.71548 11.5703H7.41211V12.7497Z" fill="#F2F2F2"/>
<path d="M5.15877 23.6247C5.08545 23.6248 5.01372 23.6034 4.95243 23.5632C4.89115 23.523 4.843 23.4656 4.81396 23.3983C4.78491 23.331 4.77623 23.2567 4.78899 23.1845C4.80175 23.1123 4.8354 23.0454 4.88577 22.9921C5.00796 22.8295 5.07512 22.6322 5.07748 22.4288C5.07984 22.2254 5.01728 22.0265 4.89889 21.8611C4.30527 20.7995 4.88614 19.148 4.95439 18.9631C4.9888 18.8698 5.05889 18.7939 5.14922 18.7523C5.23955 18.7106 5.34274 18.7065 5.43608 18.7409C5.52942 18.7753 5.60527 18.8454 5.64693 18.9358C5.6886 19.0261 5.69268 19.1293 5.65827 19.2226C5.50827 19.6351 5.19289 20.8494 5.55402 21.4947C5.75178 21.7991 5.84659 22.159 5.82452 22.5213C5.80244 22.8836 5.66464 23.2292 5.43139 23.5074C5.39633 23.5445 5.35407 23.574 5.30719 23.5942C5.26031 23.6144 5.20981 23.6248 5.15877 23.6247Z" fill="#F2F2F2"/>
<path d="M21.1904 3.79917C20.7328 3.77293 20.2988 3.58717 19.9638 3.27417C19.8918 3.20646 19.8495 3.11307 19.8459 3.0143C19.8424 2.91552 19.8781 2.81935 19.9451 2.74671C20.0121 2.67406 20.1051 2.6308 20.2038 2.62635C20.3025 2.62189 20.399 2.6566 20.4723 2.72292C20.4768 2.72742 21.0783 3.26629 21.4627 2.94792C22.3023 2.25379 23.3954 2.88717 23.4412 2.91417C23.5271 2.96474 23.5895 3.04738 23.6145 3.1439C23.6395 3.24042 23.6251 3.34292 23.5745 3.42885C23.5495 3.4714 23.5163 3.5086 23.4769 3.53833C23.4375 3.56806 23.3926 3.58973 23.3448 3.60211C23.2483 3.62711 23.1458 3.61274 23.0598 3.56217C23.0497 3.55617 22.3713 3.17142 21.9412 3.52767C21.7314 3.70499 21.4651 3.80131 21.1904 3.79917Z" fill="#F2F2F2"/>
<path d="M21.1908 6.00748C20.7331 5.98112 20.2991 5.79537 19.9641 5.48248C19.891 5.41505 19.8476 5.32132 19.8436 5.22191C19.8395 5.12251 19.8751 5.02556 19.9426 4.95241C20.01 4.87926 20.1037 4.8359 20.2031 4.83185C20.3025 4.82781 20.3995 4.86342 20.4726 4.93085C20.4771 4.93573 21.0786 5.4746 21.463 5.15585C22.3026 4.46173 23.3958 5.0951 23.4415 5.1221C23.4839 5.14714 23.521 5.1803 23.5506 5.21967C23.5802 5.25904 23.6018 5.30385 23.6141 5.35156C23.6264 5.39927 23.6292 5.44893 23.6223 5.49771C23.6154 5.54648 23.5989 5.59343 23.5739 5.63585C23.5488 5.67828 23.5157 5.71535 23.4763 5.74497C23.4369 5.77458 23.3921 5.79615 23.3444 5.80844C23.2967 5.82073 23.2471 5.82351 23.1983 5.81661C23.1495 5.80971 23.1026 5.79327 23.0601 5.76823C23.05 5.76185 22.3716 5.37748 21.9415 5.73373C21.732 5.91175 21.4657 6.00886 21.1908 6.00748Z" fill="#F2F2F2"/>
<path d="M21.1908 8.21665C20.7331 8.19028 20.2991 8.00454 19.9641 7.69165C19.891 7.62421 19.8476 7.53049 19.8436 7.43108C19.8395 7.33167 19.8751 7.23473 19.9426 7.16158C20.01 7.08843 20.1037 7.04507 20.2031 7.04102C20.3025 7.03698 20.3995 7.07259 20.4726 7.14002C20.4771 7.1449 21.0786 7.6834 21.463 7.36502C22.3034 6.66865 23.3954 7.3039 23.4419 7.33127C23.5275 7.38194 23.5894 7.46454 23.6141 7.56089C23.6388 7.65723 23.6242 7.75944 23.5735 7.84502C23.5228 7.9306 23.4402 7.99255 23.3439 8.01723C23.2475 8.04192 23.1453 8.02732 23.0598 7.97665C23.0414 7.96577 22.3686 7.5874 21.9415 7.9429C21.732 8.12097 21.4657 8.21809 21.1908 8.21665Z" fill="#F2F2F2"/>
</g>
<defs>
<clipPath id="clip0_821_70376">
<rect width="24" height="24" fill="white"/>
</clipPath>
</defs>
</svg>
