<svg width="25" height="24" viewBox="0 0 25 24" fill="none" xmlns="http://www.w3.org/2000/svg">
<g clip-path="url(#clip0_786_36764)">
<path d="M7.5363 19.4681H4.3488C4.2574 19.4682 4.16913 19.4349 4.10056 19.3745C4.03199 19.3141 3.98785 19.2307 3.97642 19.14L2.77642 9.61952C2.76389 9.52066 2.79114 9.42087 2.85219 9.3421C2.91323 9.26334 3.00306 9.21205 3.10192 9.19952C3.20078 9.18699 3.30057 9.21424 3.37933 9.27528C3.4581 9.33633 3.50939 9.42616 3.52192 9.52502L4.67917 18.7174H7.1613V10.2105C7.1613 10.1111 7.20081 10.0157 7.27113 9.94535C7.34146 9.87503 7.43684 9.83552 7.5363 9.83552C7.63575 9.83552 7.73114 9.87503 7.80146 9.94535C7.87179 10.0157 7.9113 10.1111 7.9113 10.2105V19.0931C7.9113 19.1926 7.87179 19.288 7.80146 19.3583C7.73114 19.4286 7.63575 19.4681 7.5363 19.4681Z" fill="black"/>
<path d="M5.75019 10.8439C4.59698 10.8424 3.48581 10.4107 2.63394 9.63341C2.07422 9.1233 1.6283 8.50095 1.32526 7.80693C1.02222 7.11291 0.868865 6.36281 0.875192 5.60554C0.868794 4.84833 1.02204 4.09827 1.32495 3.40425C1.62786 2.71024 2.07363 2.08785 2.63319 1.57766C3.11893 1.13327 3.69401 0.797795 4.31991 0.593687C4.94582 0.389578 5.60811 0.321552 6.26244 0.394162L17.3354 2.35804C17.4221 2.37344 17.5006 2.41886 17.5572 2.48632C17.6137 2.55378 17.6448 2.639 17.6448 2.72704V8.48366C17.6448 8.5717 17.6137 8.65691 17.5572 8.72438C17.5006 8.79184 17.4221 8.83725 17.3354 8.85266L6.28644 10.8135C6.10842 10.8338 5.92937 10.844 5.75019 10.8439ZM5.73969 1.11304C4.77401 1.12037 3.84531 1.48538 3.13307 2.13754C2.65232 2.57732 2.26959 3.11343 2.00979 3.71095C1.74999 4.30847 1.61894 4.95401 1.62519 5.60554C1.61873 6.25735 1.74971 6.90321 2.00958 7.50102C2.26946 8.09882 2.6524 8.63515 3.13344 9.07504C3.54048 9.44907 4.02292 9.73156 4.5483 9.90349C5.07367 10.0754 5.62978 10.1328 6.17919 10.0718L16.8948 8.16979V3.04129L6.15519 1.13591C6.01722 1.12065 5.87851 1.11301 5.73969 1.11304Z" fill="black"/>
<path d="M19.6415 9.88428C19.5899 9.88446 19.5388 9.87399 19.4915 9.85353L17.1215 8.83128C17.0545 8.80206 16.9976 8.75391 16.9576 8.69275C16.9176 8.63159 16.8964 8.56009 16.8965 8.48703V2.72703C16.8964 2.65397 16.9176 2.58247 16.9576 2.52131C16.9976 2.46015 17.0545 2.41201 17.1215 2.38278L19.493 1.36053C19.5501 1.33561 19.6125 1.3253 19.6746 1.33056C19.7367 1.33581 19.7965 1.35646 19.8486 1.39063C19.9007 1.4248 19.9435 1.47141 19.9731 1.52626C20.0026 1.58111 20.0181 1.64247 20.018 1.70478V9.50928C20.018 9.60874 19.9785 9.70412 19.9082 9.77445C19.8378 9.84477 19.7424 9.88428 19.643 9.88428H19.6415ZM17.645 8.24028L19.2665 8.93928V2.27478L17.645 2.97416V8.24028Z" fill="black"/>
<path d="M5.3583 7.73334C4.93778 7.73326 4.52673 7.6085 4.17712 7.37482C3.82751 7.14114 3.55504 6.80903 3.39417 6.42051C3.23329 6.03198 3.19124 5.60447 3.27332 5.19205C3.35541 4.77962 3.55794 4.40079 3.85532 4.10347C4.1527 3.80614 4.53156 3.60368 4.944 3.52166C5.35644 3.43965 5.78394 3.48178 6.17244 3.64272C6.56094 3.80366 6.89299 4.07619 7.12661 4.42584C7.36023 4.7755 7.48492 5.18657 7.48492 5.60709C7.48423 6.17085 7.25994 6.71133 6.86126 7.10994C6.46258 7.50855 5.92207 7.73274 5.3583 7.73334ZM5.3583 4.23084C5.08612 4.23091 4.82007 4.31169 4.5938 4.46296C4.36752 4.61423 4.19118 4.82919 4.08708 5.08068C3.98297 5.33216 3.95577 5.60887 4.00891 5.87581C4.06206 6.14275 4.19316 6.38794 4.38565 6.58037C4.57814 6.77281 4.82336 6.90385 5.09032 6.95692C5.35727 7.00999 5.63397 6.98272 5.88543 6.87854C6.13688 6.77436 6.3518 6.59797 6.50301 6.37165C6.65422 6.14534 6.73492 5.87927 6.73492 5.60709C6.73443 5.24217 6.58922 4.89235 6.33115 4.63435C6.07308 4.37635 5.72321 4.23123 5.3583 4.23084Z" fill="black"/>
<path d="M8.21548 13.5001H7.53711C7.43765 13.5001 7.34227 13.4606 7.27194 13.3903C7.20162 13.3199 7.16211 13.2245 7.16211 13.1251V11.1942C7.16211 11.0948 7.20162 10.9994 7.27194 10.929C7.34227 10.8587 7.43765 10.8192 7.53711 10.8192H8.21548C8.45397 10.8199 8.68248 10.915 8.85112 11.0836C9.01975 11.2522 9.11479 11.4807 9.11548 11.7192V12.6001C9.11479 12.8386 9.01975 13.0671 8.85112 13.2357C8.68248 13.4044 8.45397 13.4994 8.21548 13.5001ZM7.91211 12.7501H8.21548C8.25509 12.7495 8.2929 12.7335 8.32091 12.7055C8.34891 12.6775 8.3649 12.6397 8.36548 12.6001V11.7207C8.365 11.6811 8.34904 11.6432 8.32101 11.6152C8.29299 11.5872 8.25512 11.5712 8.21548 11.5707H7.91211V12.7501Z" fill="black"/>
<path d="M5.65926 23.625C5.58594 23.6251 5.5142 23.6037 5.45292 23.5634C5.39164 23.5232 5.34349 23.4659 5.31444 23.3986C5.28539 23.3313 5.27672 23.2569 5.28948 23.1847C5.30224 23.1125 5.33589 23.0456 5.38626 22.9924C5.50845 22.8297 5.57561 22.6324 5.57797 22.429C5.58033 22.2256 5.51777 22.0268 5.39938 21.8614C4.80576 20.7997 5.38663 19.1482 5.45488 18.9634C5.48929 18.87 5.55937 18.7942 5.64971 18.7525C5.74004 18.7108 5.84323 18.7068 5.93657 18.7412C6.02991 18.7756 6.10575 18.8457 6.14742 18.936C6.18909 19.0263 6.19317 19.1295 6.15876 19.2229C6.00876 19.6354 5.69338 20.8496 6.05451 21.495C6.25226 21.7994 6.34708 22.1592 6.32501 22.5215C6.30293 22.8838 6.16513 23.2295 5.93188 23.5076C5.89682 23.5447 5.85455 23.5742 5.80768 23.5944C5.7608 23.6146 5.71029 23.625 5.65926 23.625Z" fill="black"/>
<path d="M21.6904 3.79953C21.2328 3.7733 20.7988 3.58754 20.4638 3.27453C20.3918 3.20683 20.3495 3.11344 20.3459 3.01466C20.3424 2.91589 20.3781 2.81972 20.4451 2.74707C20.5121 2.67442 20.6051 2.63117 20.7038 2.62671C20.8025 2.62226 20.899 2.65697 20.9723 2.72328C20.9768 2.72778 21.5783 3.26666 21.9627 2.94828C22.8023 2.25416 23.8954 2.88753 23.9412 2.91453C24.0271 2.96511 24.0895 3.04774 24.1145 3.14427C24.1395 3.24079 24.1251 3.34329 24.0745 3.42922C24.0495 3.47177 24.0163 3.50897 23.9769 3.53869C23.9375 3.56842 23.8926 3.59009 23.8448 3.60247C23.7483 3.62747 23.6458 3.61311 23.5598 3.56253C23.5497 3.55653 22.8713 3.17178 22.4412 3.52803C22.2314 3.70536 21.9651 3.80167 21.6904 3.79953Z" fill="black"/>
<path d="M21.6912 6.00796C21.2336 5.9816 20.7996 5.79586 20.4646 5.48296C20.3915 5.41553 20.3481 5.32181 20.3441 5.2224C20.34 5.12299 20.3756 5.02605 20.4431 4.9529C20.5105 4.87975 20.6042 4.83639 20.7036 4.83234C20.803 4.8283 20.9 4.86391 20.9731 4.93134C20.9776 4.93621 21.5791 5.47509 21.9635 5.15634C22.8031 4.46221 23.8962 5.09559 23.942 5.12259C23.9844 5.14763 24.0215 5.18078 24.0511 5.22015C24.0807 5.25953 24.1023 5.30434 24.1146 5.35205C24.1269 5.39976 24.1297 5.44942 24.1228 5.49819C24.1159 5.54697 24.0994 5.59391 24.0744 5.63634C24.0493 5.67876 24.0162 5.71584 23.9768 5.74546C23.9374 5.77507 23.8926 5.79664 23.8449 5.80893C23.7972 5.82122 23.7475 5.824 23.6988 5.8171C23.65 5.8102 23.603 5.79376 23.5606 5.76872C23.5505 5.76234 22.8721 5.37797 22.442 5.73422C22.2325 5.91223 21.9662 6.00935 21.6912 6.00796Z" fill="black"/>
<path d="M21.6912 8.21665C21.2336 8.19028 20.7996 8.00454 20.4646 7.69165C20.3915 7.62421 20.3481 7.53049 20.3441 7.43108C20.34 7.33167 20.3756 7.23473 20.4431 7.16158C20.5105 7.08843 20.6042 7.04507 20.7036 7.04102C20.803 7.03698 20.9 7.07259 20.9731 7.14002C20.9776 7.1449 21.5791 7.6834 21.9635 7.36502C22.8039 6.66865 23.8959 7.3039 23.9424 7.33127C24.028 7.38194 24.0899 7.46454 24.1146 7.56089C24.1393 7.65723 24.1247 7.75944 24.074 7.84502C24.0233 7.9306 23.9407 7.99255 23.8444 8.01723C23.748 8.04192 23.6458 8.02732 23.5602 7.97665C23.5419 7.96577 22.8691 7.5874 22.442 7.9429C22.2325 8.12097 21.9662 8.21809 21.6912 8.21665Z" fill="black"/>
</g>
<defs>
<clipPath id="clip0_786_36764">
<rect width="24" height="24" fill="white" transform="translate(0.5)"/>
</clipPath>
</defs>
</svg>
