<svg width="25" height="24" viewBox="0 0 25 24" fill="none" xmlns="http://www.w3.org/2000/svg">
<path d="M23.5156 20.2425H20.5761V19.2965H21.2764C22.0555 19.2965 22.6897 18.6628 22.6897 17.8833V15.367C22.6897 14.684 22.2027 14.1126 21.5577 13.9818V12.7987C21.5577 12.0079 20.9141 11.3643 20.1233 11.3643H11.9834C11.1927 11.3643 10.5491 12.0079 10.5491 12.7987V13.9818C10.3386 14.0245 10.145 14.114 9.97953 14.2392V6.85825H10.6888V8.85325C10.6888 9.00841 10.8148 9.1345 10.97 9.1345C11.1252 9.1345 11.2513 9.00841 11.2513 8.85325V6.85825H11.9952C12.0805 6.85825 12.1616 6.81935 12.215 6.75278C12.2684 6.68622 12.2886 6.59856 12.2698 6.51513L11.3328 2.35731C11.3038 2.22888 11.1898 2.13794 11.0586 2.13794H8.33797C8.20625 2.13794 8.09234 2.22888 8.06375 2.35731L7.12672 6.5156C7.10797 6.59903 7.12812 6.68622 7.18156 6.75325C7.235 6.81981 7.31562 6.85872 7.40141 6.85872H9.4175V15.3675V17.8837C9.4175 18.6628 10.0513 19.297 10.8308 19.297H11.5311V20.2429H8.76266V14.9686C8.76266 14.8134 8.63656 14.6873 8.48141 14.6873H6.75312L7.61375 12.5976C7.64937 12.5109 7.63953 12.412 7.5875 12.3342C7.53547 12.2564 7.44781 12.2095 7.35359 12.2095H7.28937C7.41313 12.1176 7.52984 12.0154 7.63766 11.9011C8.17344 11.3334 8.4275 10.5628 8.33563 9.78653C8.31969 9.65153 8.20906 9.547 8.07312 9.53903C7.53547 9.50669 7.01281 9.63653 6.56234 9.90841C6.42078 9.40356 6.12922 8.94794 5.71672 8.60294C5.61219 8.51575 5.46031 8.51575 5.35578 8.60294C4.94328 8.94794 4.65172 9.40356 4.51016 9.90841C4.05922 9.637 3.53703 9.50669 2.99937 9.53903C2.86344 9.547 2.75281 9.65153 2.73688 9.78653C2.645 10.5623 2.89906 11.3334 3.43484 11.9011C3.54266 12.015 3.65937 12.1176 3.78312 12.2095H3.71891C3.62516 12.2095 3.5375 12.2564 3.485 12.3342C3.4325 12.412 3.42313 12.5109 3.45875 12.5976L4.31938 14.6873H2.59156C2.43641 14.6873 2.31031 14.8134 2.31031 14.9686V20.2425H1.48438C1.32922 20.2425 1.20312 20.3686 1.20312 20.5237V21.5803C1.20312 21.7354 1.32922 21.8615 1.48438 21.8615H23.5156C23.6708 21.8615 23.7969 21.7354 23.7969 21.5803V20.5237C23.7969 20.3686 23.6708 20.2425 23.5156 20.2425ZM8.56297 2.70091H10.8336L11.6436 6.29622H7.7525L8.56297 2.70091ZM20.0136 20.2425H19.6034L18.913 19.2965H20.0141V20.2425H20.0136ZM18.2164 19.2965L18.9069 20.2425H13.1998L13.8903 19.2965H18.2164ZM11.9834 11.9278H20.1238C20.6042 11.9278 20.9956 12.3187 20.9956 12.7997V13.9828C20.3506 14.1136 19.8636 14.685 19.8636 15.3679V16.4709H12.2436V15.3679C12.2436 14.685 11.7566 14.1136 11.1116 13.9828V12.7997C11.1116 12.3187 11.5025 11.9278 11.9834 11.9278ZM9.97953 17.8837V15.3675C9.97953 14.8983 10.3611 14.5167 10.8303 14.5167C11.2995 14.5167 11.6811 14.8983 11.6811 15.3675V16.7517C11.6811 16.9068 11.8072 17.0329 11.9623 17.0329H20.1448C20.3 17.0329 20.4261 16.9068 20.4261 16.7517V15.3675C20.4261 14.8983 20.8077 14.5167 21.2769 14.5167C21.7461 14.5167 22.1277 14.8983 22.1277 15.3675V17.8837C22.1277 18.3529 21.7461 18.7345 21.2769 18.7345H10.8303C10.3611 18.734 9.97953 18.3525 9.97953 17.8837ZM12.0931 19.2965H13.1942L12.5037 20.2425H12.0936V19.2965H12.0931ZM7.79141 10.1001C7.79094 10.6242 7.59219 11.1295 7.22844 11.5153C6.94719 11.8134 6.58813 12.0168 6.19859 12.1083C6.49672 11.6751 6.66031 11.1581 6.66031 10.62C6.66031 10.5876 6.65891 10.5553 6.6575 10.5234C6.98609 10.2703 7.37844 10.124 7.79141 10.1001ZM5.53625 9.20435C5.89531 9.58591 6.09734 10.0893 6.09734 10.62C6.09734 11.1501 5.89531 11.654 5.53625 12.0356C5.17719 11.654 4.97516 11.1506 4.97516 10.62C4.97516 10.0893 5.17719 9.58591 5.53625 9.20435ZM3.28109 10.1001C3.69406 10.124 4.08687 10.2703 4.415 10.5234C4.41359 10.5558 4.41219 10.5876 4.41219 10.62C4.41219 11.1586 4.57578 11.6751 4.87391 12.1083C4.48391 12.0168 4.12531 11.8134 3.84359 11.5148C3.48031 11.129 3.28156 10.6242 3.28109 10.1001ZM4.13937 12.772H6.93359L6.14469 14.6878H4.92828L4.13937 12.772ZM8.20016 15.2498V18.0562H2.87281V15.2498H8.20016ZM2.87281 18.6187H8.20016V20.2425H2.87281V18.6187ZM23.2344 21.299H1.76562V20.805H23.2344V21.299ZM4.48531 16.6533C4.48531 16.4981 4.61141 16.372 4.76656 16.372H6.30594C6.46109 16.372 6.58719 16.4981 6.58719 16.6533C6.58719 16.8084 6.46109 16.9345 6.30594 16.9345H4.76656C4.61141 16.9345 4.48531 16.8084 4.48531 16.6533Z" fill="black"/>
</svg>
