<svg width="24" height="24" viewBox="0 0 24 24" fill="none" xmlns="http://www.w3.org/2000/svg">
<path d="M23.0156 20.2427H20.0761V19.2968H20.7764C21.5555 19.2968 22.1897 18.663 22.1897 17.8835V15.3672C22.1897 14.6843 21.7027 14.1129 21.0577 13.9821V12.799C21.0577 12.0082 20.4141 11.3646 19.6233 11.3646H11.4834C10.6927 11.3646 10.0491 12.0082 10.0491 12.799V13.9821C9.83859 14.0247 9.645 14.1143 9.47953 14.2394V6.8585H10.1888V8.8535C10.1888 9.00865 10.3148 9.13475 10.47 9.13475C10.6252 9.13475 10.7513 9.00865 10.7513 8.8535V6.8585H11.4952C11.5805 6.8585 11.6616 6.81959 11.715 6.75303C11.7684 6.68646 11.7886 6.59881 11.7698 6.51537L10.8328 2.35756C10.8038 2.22912 10.6898 2.13818 10.5586 2.13818H7.83797C7.70625 2.13818 7.59234 2.22912 7.56375 2.35756L6.62672 6.51584C6.60797 6.59928 6.62812 6.68647 6.68156 6.7535C6.735 6.82006 6.81562 6.85896 6.90141 6.85896H8.9175V15.3677V17.884C8.9175 18.663 9.55125 19.2972 10.3308 19.2972H11.0311V20.2432H8.26266V14.9688C8.26266 14.8137 8.13656 14.6876 7.98141 14.6876H6.25312L7.11375 12.5979C7.14937 12.5112 7.13953 12.4122 7.0875 12.3344C7.03547 12.2566 6.94781 12.2097 6.85359 12.2097H6.78937C6.91313 12.1179 7.02984 12.0157 7.13766 11.9013C7.67344 11.3337 7.9275 10.563 7.83563 9.78678C7.81969 9.65178 7.70906 9.54725 7.57312 9.53928C7.03547 9.50693 6.51281 9.63678 6.06234 9.90865C5.92078 9.40381 5.62922 8.94818 5.21672 8.60318C5.11219 8.516 4.96031 8.516 4.85578 8.60318C4.44328 8.94818 4.15172 9.40381 4.01016 9.90865C3.55922 9.63725 3.03703 9.50693 2.49937 9.53928C2.36344 9.54725 2.25281 9.65178 2.23688 9.78678C2.145 10.5626 2.39906 11.3337 2.93484 11.9013C3.04266 12.0152 3.15937 12.1179 3.28312 12.2097H3.21891C3.12516 12.2097 3.0375 12.2566 2.985 12.3344C2.9325 12.4122 2.92313 12.5112 2.95875 12.5979L3.81938 14.6876H2.09156C1.93641 14.6876 1.81031 14.8137 1.81031 14.9688V20.2427H0.984375C0.829219 20.2427 0.703125 20.3688 0.703125 20.524V21.5805C0.703125 21.7357 0.829219 21.8618 0.984375 21.8618H23.0156C23.1708 21.8618 23.2969 21.7357 23.2969 21.5805V20.524C23.2969 20.3688 23.1708 20.2427 23.0156 20.2427ZM8.06297 2.70115H10.3336L11.1436 6.29646H7.2525L8.06297 2.70115ZM19.5136 20.2427H19.1034L18.413 19.2968H19.5141V20.2427H19.5136ZM17.7164 19.2968L18.4069 20.2427H12.6998L13.3903 19.2968H17.7164ZM11.4834 11.928H19.6238C20.1042 11.928 20.4956 12.319 20.4956 12.7999V13.983C19.8506 14.1138 19.3636 14.6852 19.3636 15.3682V16.4712H11.7436V15.3682C11.7436 14.6852 11.2566 14.1138 10.6116 13.983V12.7999C10.6116 12.319 11.0025 11.928 11.4834 11.928ZM9.47953 17.884V15.3677C9.47953 14.8985 9.86109 14.5169 10.3303 14.5169C10.7995 14.5169 11.1811 14.8985 11.1811 15.3677V16.7519C11.1811 16.9071 11.3072 17.0332 11.4623 17.0332H19.6448C19.8 17.0332 19.9261 16.9071 19.9261 16.7519V15.3677C19.9261 14.8985 20.3077 14.5169 20.7769 14.5169C21.2461 14.5169 21.6277 14.8985 21.6277 15.3677V17.884C21.6277 18.3532 21.2461 18.7347 20.7769 18.7347H10.3303C9.86109 18.7343 9.47953 18.3527 9.47953 17.884ZM11.5931 19.2968H12.6942L12.0037 20.2427H11.5936V19.2968H11.5931ZM7.29141 10.1004C7.29094 10.6244 7.09219 11.1297 6.72844 11.5155C6.44719 11.8137 6.08813 12.0171 5.69859 12.1085C5.99672 11.6754 6.16031 11.1583 6.16031 10.6202C6.16031 10.5879 6.15891 10.5555 6.1575 10.5237C6.48609 10.2705 6.87844 10.1243 7.29141 10.1004ZM5.03625 9.20459C5.39531 9.58615 5.59734 10.0896 5.59734 10.6202C5.59734 11.1504 5.39531 11.6543 5.03625 12.0358C4.67719 11.6543 4.47516 11.1508 4.47516 10.6202C4.47516 10.0896 4.67719 9.58615 5.03625 9.20459ZM2.78109 10.1004C3.19406 10.1243 3.58687 10.2705 3.915 10.5237C3.91359 10.556 3.91219 10.5879 3.91219 10.6202C3.91219 11.1588 4.07578 11.6754 4.37391 12.1085C3.98391 12.0171 3.62531 11.8137 3.34359 11.5151C2.98031 11.1293 2.78156 10.6244 2.78109 10.1004ZM3.63937 12.7722H6.43359L5.64469 14.688H4.42828L3.63937 12.7722ZM7.70016 15.2501V18.0565H2.37281V15.2501H7.70016ZM2.37281 18.619H7.70016V20.2427H2.37281V18.619ZM22.7344 21.2993H1.26562V20.8052H22.7344V21.2993ZM3.98531 16.6535C3.98531 16.4983 4.11141 16.3722 4.26656 16.3722H5.80594C5.96109 16.3722 6.08719 16.4983 6.08719 16.6535C6.08719 16.8087 5.96109 16.9347 5.80594 16.9347H4.26656C4.11141 16.9347 3.98531 16.8087 3.98531 16.6535Z" fill="#F2F2F2"/>
</svg>
