<svg width="25" height="24" viewBox="0 0 25 24" fill="none" xmlns="http://www.w3.org/2000/svg">
<path d="M21.4302 11.9012H19.8907C20.322 11.4563 20.589 10.8505 20.589 10.1827C20.589 9.29966 20.1225 8.5256 19.4251 8.08926C20.1225 7.65292 20.589 6.87887 20.589 5.99582C20.589 4.6348 19.4845 3.52737 18.1266 3.52737H7.80969C6.28532 3.50765 5.46942 5.41279 6.51555 6.50212C5.89651 6.88075 5.89686 7.90823 6.52015 8.28324C6.22658 8.59951 6.04309 9.0199 6.04309 9.48489C6.04309 9.94943 6.22254 10.3728 6.5155 10.689C6.13932 10.9316 5.9392 11.4597 6.09808 11.9012C6.09807 11.9012 5.20191 11.9012 5.20191 11.9012C4.68115 11.9012 4.25781 12.3247 4.25781 12.8451V14.2231C4.25781 14.4302 4.42554 14.5981 4.63281 14.5981H5.00507L6.60413 21.1571C6.79712 21.9478 7.50135 22.5 8.31726 22.5H18.3148C19.1307 22.5 19.8353 21.9478 20.0276 21.1571L21.6266 14.5981H21.9989C22.2062 14.5981 22.3739 14.4302 22.3739 14.2231V12.8451C22.3739 12.3247 21.9506 11.9012 21.4302 11.9012ZM17.5483 4.92483H8.38867C7.89829 4.93268 7.89359 5.66612 8.38869 5.67483C8.38867 5.67483 17.5483 5.67483 17.5483 5.67483C17.965 5.68148 17.9711 6.31072 17.5483 6.31863H7.8097C7.24903 6.31863 6.79309 5.86087 6.79309 5.298C6.79309 4.73513 7.24903 4.27737 7.8097 4.27737H18.1266C19.0707 4.27737 19.839 5.04824 19.839 5.99581C19.839 6.94339 19.0707 7.71426 18.1266 7.71426H7.8097H7.11389C6.93702 7.71426 6.79309 7.56942 6.79309 7.39144C6.79309 7.21347 6.93702 7.06863 7.11389 7.06863H17.5483C18.9559 7.03285 18.9611 4.96209 17.5483 4.92483ZM6.79309 11.5783C6.79309 11.4004 6.93702 11.2555 7.11389 11.2555H17.5483C18.9562 11.2196 18.9609 9.14887 17.5483 9.11154H8.38868C7.8985 9.1193 7.89344 9.85284 8.3887 9.86154C8.38868 9.86154 17.5483 9.86154 17.5483 9.86154C17.9651 9.86815 17.9711 10.4977 17.5483 10.5055H7.8097C6.47236 10.4719 6.46684 8.49957 7.80973 8.46426C7.8097 8.46426 18.1266 8.46426 18.1266 8.46426C20.3866 8.53514 20.3917 11.8286 18.1266 11.9012H7.1139C6.93702 11.9012 6.79309 11.7563 6.79309 11.5783ZM5.00782 12.8451C5.00782 12.7381 5.09497 12.6512 5.20191 12.6512C8.74925 12.6511 17.9296 12.6512 21.4302 12.6512C21.5371 12.6512 21.6239 12.7381 21.6239 12.8451V13.8481H5.00781L5.00782 12.8451ZM19.2988 20.9797C19.1886 21.4333 18.7839 21.75 18.3148 21.75H8.31727C7.84815 21.75 7.44349 21.4333 7.33289 20.9795L5.77723 14.5981H20.8545L19.2988 20.9797Z" fill="black"/>
<path d="M7.63477 17.3904C7.84204 17.3904 8.00977 17.2225 8.00977 17.0154V15.8856C8.00977 15.6785 7.84204 15.5106 7.63477 15.5106C7.42749 15.5106 7.25977 15.6785 7.25977 15.8856V17.0154C7.25977 17.2225 7.42749 17.3904 7.63477 17.3904Z" fill="black"/>
<path d="M9.5293 17.3904C9.73657 17.3904 9.9043 17.2225 9.9043 17.0154V15.8856C9.9043 15.6785 9.73657 15.5106 9.5293 15.5106C9.32202 15.5106 9.1543 15.6785 9.1543 15.8856V17.0154C9.1543 17.2225 9.32202 17.3904 9.5293 17.3904Z" fill="black"/>
<path d="M11.4219 17.3904C11.6291 17.3904 11.7969 17.2225 11.7969 17.0154V15.8856C11.7969 15.6785 11.6291 15.5106 11.4219 15.5106C11.2146 15.5106 11.0469 15.6785 11.0469 15.8856V17.0154C11.0469 17.2225 11.2146 17.3904 11.4219 17.3904Z" fill="black"/>
<path d="M13.3164 17.3904C13.5237 17.3904 13.6914 17.2225 13.6914 17.0154V15.8856C13.6914 15.6785 13.5237 15.5106 13.3164 15.5106C13.1091 15.5106 12.9414 15.6785 12.9414 15.8856V17.0154C12.9414 17.2225 13.1091 17.3904 13.3164 17.3904Z" fill="black"/>
<path d="M15.209 17.3904C15.4163 17.3904 15.584 17.2225 15.584 17.0154V15.8856C15.584 15.6785 15.4163 15.5106 15.209 15.5106C15.0017 15.5106 14.834 15.6785 14.834 15.8856V17.0154C14.834 17.2225 15.0017 17.3904 15.209 17.3904Z" fill="black"/>
<path d="M17.1035 17.3904C17.3108 17.3904 17.4785 17.2225 17.4785 17.0154V15.8856C17.4785 15.6785 17.3108 15.5106 17.1035 15.5106C16.8962 15.5106 16.7285 15.6785 16.7285 15.8856V17.0154C16.7285 17.2225 16.8962 17.3904 17.1035 17.3904Z" fill="black"/>
<path d="M18.9961 17.3904C19.2034 17.3904 19.3711 17.2225 19.3711 17.0154V15.8856C19.3711 15.6785 19.2034 15.5106 18.9961 15.5106C18.7888 15.5106 18.6211 15.6785 18.6211 15.8856V17.0154C18.6211 17.2225 18.7888 17.3904 18.9961 17.3904Z" fill="black"/>
<path d="M8.68164 20.3112C8.88891 20.3112 9.05664 20.1433 9.05664 19.9362V18.8064C9.05664 18.5993 8.88891 18.4314 8.68164 18.4314C8.47437 18.4314 8.30664 18.5993 8.30664 18.8064V19.9362C8.30664 20.1433 8.47437 20.3112 8.68164 20.3112Z" fill="black"/>
<path d="M10.5762 20.3112C10.7834 20.3112 10.9512 20.1433 10.9512 19.9362V18.8064C10.9512 18.5993 10.7834 18.4314 10.5762 18.4314C10.3689 18.4314 10.2012 18.5993 10.2012 18.8064V19.9362C10.2012 20.1433 10.3689 20.3112 10.5762 20.3112Z" fill="black"/>
<path d="M12.4688 20.3112C12.676 20.3112 12.8437 20.1433 12.8437 19.9362V18.8064C12.8437 18.5993 12.676 18.4314 12.4688 18.4314C12.2615 18.4314 12.0938 18.5993 12.0938 18.8064V19.9362C12.0938 20.1433 12.2615 20.3112 12.4688 20.3112Z" fill="black"/>
<path d="M14.3633 20.3112C14.5706 20.3112 14.7383 20.1433 14.7383 19.9362V18.8064C14.7383 18.5993 14.5706 18.4314 14.3633 18.4314C14.156 18.4314 13.9883 18.5993 13.9883 18.8064V19.9362C13.9883 20.1433 14.156 20.3112 14.3633 20.3112Z" fill="black"/>
<path d="M16.2559 20.3112C16.4631 20.3112 16.6309 20.1433 16.6309 19.9362V18.8064C16.6309 18.5993 16.4631 18.4314 16.2559 18.4314C16.0486 18.4314 15.8809 18.5993 15.8809 18.8064V19.9362C15.8809 20.1433 16.0486 20.3112 16.2559 20.3112Z" fill="black"/>
<path d="M18.1504 20.3112C18.3577 20.3112 18.5254 20.1433 18.5254 19.9362V18.8064C18.5254 18.5993 18.3577 18.4314 18.1504 18.4314C17.9431 18.4314 17.7754 18.5993 17.7754 18.8064V19.9362C17.7754 20.1433 17.9431 20.3112 18.1504 20.3112Z" fill="black"/>
<path d="M3.46094 9.2298C3.66821 9.2298 3.83594 9.06189 3.83594 8.8548V8.42578C3.83594 8.21869 3.66821 8.05078 3.46094 8.05078C3.25366 8.05078 3.08594 8.21869 3.08594 8.42578V8.8548C3.08594 9.06189 3.25366 9.2298 3.46094 9.2298Z" fill="black"/>
<path d="M3.46094 9.95508C3.25366 9.95508 3.08594 10.123 3.08594 10.3301V10.7591C3.08594 10.9662 3.25366 11.1341 3.46094 11.1341C3.66821 11.1341 3.83594 10.9662 3.83594 10.7591V10.3301C3.83594 10.123 3.66821 9.95508 3.46094 9.95508Z" fill="black"/>
<path d="M5.00488 9.59253C5.00488 9.38544 4.83716 9.21753 4.62988 9.21753H4.19922C3.99194 9.21753 3.82422 9.38544 3.82422 9.59253C3.82422 9.79962 3.99194 9.96753 4.19922 9.96753H4.62988C4.83716 9.96753 5.00488 9.79962 5.00488 9.59253Z" fill="black"/>
<path d="M2.72026 9.21753H2.28959C1.79677 9.22578 1.79662 9.95929 2.28961 9.96753C2.28959 9.96753 2.72025 9.96753 2.72025 9.96753C3.21307 9.95928 3.21323 9.22576 2.72026 9.21753Z" fill="black"/>
<path d="M21.5391 2.67902C21.7463 2.67902 21.9141 2.51111 21.9141 2.30402V1.875C21.9141 1.66791 21.7463 1.5 21.5391 1.5C21.3318 1.5 21.1641 1.66791 21.1641 1.875V2.30402C21.1641 2.51111 21.3318 2.67902 21.5391 2.67902Z" fill="black"/>
<path d="M21.1641 3.77933V4.20834C21.1641 4.41544 21.3318 4.58334 21.5391 4.58334C21.7463 4.58334 21.9141 4.41544 21.9141 4.20834V3.77933C21.9058 3.28653 21.1723 3.28637 21.1641 3.77933Z" fill="black"/>
<path d="M22.7105 2.66675H22.2798C21.787 2.675 21.7869 3.40851 22.2798 3.41675C22.2798 3.41675 22.7105 3.41675 22.7105 3.41675C23.2033 3.4085 23.2035 2.67498 22.7105 2.66675Z" fill="black"/>
<path d="M20.3697 3.41675H20.8003C21.2932 3.4085 21.2933 2.67498 20.8003 2.66675H20.3697C19.8769 2.675 19.8767 3.40851 20.3697 3.41675Z" fill="black"/>
</svg>
