<svg width="24" height="24" viewBox="0 0 24 24" fill="none" xmlns="http://www.w3.org/2000/svg">
<path d="M20.9304 11.9013H19.391C19.8223 11.4564 20.0892 10.8507 20.0892 10.1828C20.0892 9.29978 19.6228 8.52572 18.9253 8.08939C19.6228 7.65305 20.0892 6.87899 20.0892 5.99594C20.0892 4.63492 18.9847 3.5275 17.6268 3.5275H7.30994C5.78557 3.50777 4.96966 5.41291 6.01579 6.50224C5.39675 6.88087 5.3971 7.90835 6.02039 8.28336C5.72683 8.59963 5.54333 9.02002 5.54333 9.48502C5.54333 9.94955 5.72278 10.3729 6.01575 10.6891C5.63957 10.9317 5.43945 11.4599 5.59832 11.9013C5.59831 11.9013 4.70215 11.9013 4.70215 11.9013C4.1814 11.9013 3.75806 12.3248 3.75806 12.8452V14.2232C3.75806 14.4303 3.92578 14.5982 4.13306 14.5982H4.50531L6.10437 21.1573C6.29737 21.9479 7.00159 22.5001 7.81751 22.5001H17.8151C18.631 22.5001 19.3356 21.9479 19.5278 21.1573L21.1269 14.5982H21.4991C21.7064 14.5982 21.8741 14.4303 21.8741 14.2232V12.8452C21.8741 12.3248 21.4508 11.9013 20.9304 11.9013ZM17.0486 4.92496H7.88892C7.39853 4.9328 7.39384 5.66624 7.88894 5.67496C7.88892 5.67496 17.0486 5.67496 17.0486 5.67496C17.4653 5.6816 17.4714 6.31084 17.0486 6.31875H7.30994C6.74927 6.31875 6.29334 5.86099 6.29334 5.29812C6.29334 4.73525 6.74927 4.27749 7.30994 4.27749H17.6268C18.5709 4.27749 19.3392 5.04836 19.3392 5.99594C19.3392 6.94351 18.5709 7.71438 17.6268 7.71438H7.30994H6.61414C6.43726 7.71438 6.29334 7.56955 6.29334 7.39157C6.29334 7.21359 6.43726 7.06875 6.61414 7.06875H17.0486C18.4562 7.03297 18.4614 4.96222 17.0486 4.92496ZM6.29334 11.5785C6.29334 11.4005 6.43726 11.2556 6.61414 11.2556H17.0486C18.4564 11.2198 18.4611 9.14899 17.0486 9.11167H7.88892C7.39874 9.11942 7.39368 9.85296 7.88894 9.86167C7.88892 9.86167 17.0486 9.86167 17.0486 9.86167C17.4654 9.86827 17.4713 10.4978 17.0486 10.5056H7.30994C5.9726 10.472 5.96709 8.49969 7.30998 8.46439C7.30994 8.46439 17.6268 8.46439 17.6268 8.46439C19.8868 8.53526 19.8919 11.8287 17.6268 11.9013H6.61415C6.43727 11.9013 6.29334 11.7564 6.29334 11.5785ZM4.50806 12.8452C4.50806 12.7382 4.59522 12.6513 4.70215 12.6513C8.2495 12.6513 17.4299 12.6513 20.9304 12.6513C21.0374 12.6513 21.1241 12.7382 21.1241 12.8452V13.8482H4.50806L4.50806 12.8452ZM18.7991 20.9798C18.6888 21.4334 18.2842 21.7502 17.8151 21.7502H7.81751C7.34839 21.7502 6.94373 21.4334 6.83314 20.9796L5.27747 14.5982H20.3547L18.7991 20.9798Z" fill="#F2F2F2"/>
<path d="M7.13574 17.3905C7.34302 17.3905 7.51074 17.2226 7.51074 17.0155V15.8857C7.51074 15.6786 7.34302 15.5107 7.13574 15.5107C6.92847 15.5107 6.76074 15.6786 6.76074 15.8857V17.0155C6.76074 17.2226 6.92847 17.3905 7.13574 17.3905Z" fill="#F2F2F2"/>
<path d="M9.02905 17.3905C9.23633 17.3905 9.40405 17.2226 9.40405 17.0155V15.8857C9.40405 15.6786 9.23633 15.5107 9.02905 15.5107C8.82178 15.5107 8.65405 15.6786 8.65405 15.8857V17.0155C8.65405 17.2226 8.82178 17.3905 9.02905 17.3905Z" fill="#F2F2F2"/>
<path d="M10.9226 17.3905C11.1299 17.3905 11.2976 17.2226 11.2976 17.0155V15.8857C11.2976 15.6786 11.1299 15.5107 10.9226 15.5107C10.7153 15.5107 10.5476 15.6786 10.5476 15.8857V17.0155C10.5476 17.2226 10.7153 17.3905 10.9226 17.3905Z" fill="#F2F2F2"/>
<path d="M12.8164 17.3905C13.0237 17.3905 13.1914 17.2226 13.1914 17.0155V15.8857C13.1914 15.6786 13.0237 15.5107 12.8164 15.5107C12.6091 15.5107 12.4414 15.6786 12.4414 15.8857V17.0155C12.4414 17.2226 12.6091 17.3905 12.8164 17.3905Z" fill="#F2F2F2"/>
<path d="M14.71 17.3905C14.9172 17.3905 15.085 17.2226 15.085 17.0155V15.8857C15.085 15.6786 14.9172 15.5107 14.71 15.5107C14.5027 15.5107 14.335 15.6786 14.335 15.8857V17.0155C14.335 17.2226 14.5027 17.3905 14.71 17.3905Z" fill="#F2F2F2"/>
<path d="M16.6033 17.3905C16.8105 17.3905 16.9783 17.2226 16.9783 17.0155V15.8857C16.9783 15.6786 16.8105 15.5107 16.6033 15.5107C16.396 15.5107 16.2283 15.6786 16.2283 15.8857V17.0155C16.2283 17.2226 16.396 17.3905 16.6033 17.3905Z" fill="#F2F2F2"/>
<path d="M18.4971 17.3905C18.7043 17.3905 18.8721 17.2226 18.8721 17.0155V15.8857C18.8721 15.6786 18.7043 15.5107 18.4971 15.5107C18.2898 15.5107 18.1221 15.6786 18.1221 15.8857V17.0155C18.1221 17.2226 18.2898 17.3905 18.4971 17.3905Z" fill="#F2F2F2"/>
<path d="M8.18188 20.3114C8.38916 20.3114 8.55688 20.1435 8.55688 19.9364V18.8066C8.55688 18.5995 8.38916 18.4316 8.18188 18.4316C7.97461 18.4316 7.80688 18.5995 7.80688 18.8066V19.9364C7.80688 20.1435 7.97461 20.3114 8.18188 20.3114Z" fill="#F2F2F2"/>
<path d="M10.0752 20.3114C10.2825 20.3114 10.4502 20.1435 10.4502 19.9364V18.8066C10.4502 18.5995 10.2825 18.4316 10.0752 18.4316C9.86792 18.4316 9.7002 18.5995 9.7002 18.8066V19.9364C9.7002 20.1435 9.86792 20.3114 10.0752 20.3114Z" fill="#F2F2F2"/>
<path d="M11.9688 20.3114C12.176 20.3114 12.3437 20.1435 12.3437 19.9364V18.8066C12.3437 18.5995 12.176 18.4316 11.9688 18.4316C11.7615 18.4316 11.5938 18.5995 11.5938 18.8066V19.9364C11.5938 20.1435 11.7615 20.3114 11.9688 20.3114Z" fill="#F2F2F2"/>
<path d="M13.8625 20.3114C14.0698 20.3114 14.2375 20.1435 14.2375 19.9364V18.8066C14.2375 18.5995 14.0698 18.4316 13.8625 18.4316C13.6553 18.4316 13.4875 18.5995 13.4875 18.8066V19.9364C13.4875 20.1435 13.6553 20.3114 13.8625 20.3114Z" fill="#F2F2F2"/>
<path d="M15.7563 20.3114C15.9636 20.3114 16.1313 20.1435 16.1313 19.9364V18.8066C16.1313 18.5995 15.9636 18.4316 15.7563 18.4316C15.5491 18.4316 15.3813 18.5995 15.3813 18.8066V19.9364C15.3813 20.1435 15.5491 20.3114 15.7563 20.3114Z" fill="#F2F2F2"/>
<path d="M17.6494 20.3114C17.8567 20.3114 18.0244 20.1435 18.0244 19.9364V18.8066C18.0244 18.5995 17.8567 18.4316 17.6494 18.4316C17.4421 18.4316 17.2744 18.5995 17.2744 18.8066V19.9364C17.2744 20.1435 17.4421 20.3114 17.6494 20.3114Z" fill="#F2F2F2"/>
<path d="M2.95996 9.2298C3.16723 9.2298 3.33496 9.06189 3.33496 8.8548V8.42578C3.33496 8.21869 3.16723 8.05078 2.95996 8.05078C2.75269 8.05078 2.58496 8.21869 2.58496 8.42578V8.8548C2.58496 9.06189 2.75269 9.2298 2.95996 9.2298Z" fill="#F2F2F2"/>
<path d="M2.95996 9.95508C2.75269 9.95508 2.58496 10.123 2.58496 10.3301V10.7591C2.58496 10.9662 2.75269 11.1341 2.95996 11.1341C3.16723 11.1341 3.33496 10.9662 3.33496 10.7591V10.3301C3.33496 10.123 3.16723 9.95508 2.95996 9.95508Z" fill="#F2F2F2"/>
<path d="M4.50586 9.59277C4.50586 9.38568 4.33813 9.21777 4.13086 9.21777H3.7002C3.49292 9.21777 3.3252 9.38568 3.3252 9.59277C3.3252 9.79987 3.49292 9.96777 3.7002 9.96777H4.13086C4.33813 9.96777 4.50586 9.79987 4.50586 9.59277Z" fill="#F2F2F2"/>
<path d="M2.22001 9.21777H1.78935C1.29653 9.22602 1.29637 9.95954 1.78936 9.96777C1.78935 9.96777 2.22001 9.96777 2.22001 9.96777C2.71283 9.95952 2.71299 9.22601 2.22001 9.21777Z" fill="#F2F2F2"/>
<path d="M21.04 2.67902C21.2473 2.67902 21.415 2.51111 21.415 2.30402V1.875C21.415 1.66791 21.2473 1.5 21.04 1.5C20.8328 1.5 20.665 1.66791 20.665 1.875V2.30402C20.665 2.51111 20.8328 2.67902 21.04 2.67902Z" fill="#F2F2F2"/>
<path d="M20.665 3.77933V4.20834C20.665 4.41544 20.8328 4.58334 21.04 4.58334C21.2473 4.58334 21.415 4.41544 21.415 4.20834V3.77933C21.4068 3.28653 20.6732 3.28637 20.665 3.77933Z" fill="#F2F2F2"/>
<path d="M22.2107 2.66699H21.7801C21.2873 2.67524 21.2871 3.40876 21.7801 3.41699C21.7801 3.41699 22.2107 3.41699 22.2107 3.41699C22.7036 3.40874 22.7037 2.67523 22.2107 2.66699Z" fill="#F2F2F2"/>
<path d="M19.8692 3.41699H20.2998C20.7927 3.40874 20.7928 2.67523 20.2998 2.66699H19.8692C19.3764 2.67524 19.3762 3.40876 19.8692 3.41699Z" fill="#F2F2F2"/>
</svg>
