<svg width="24" height="24" viewBox="0 0 24 24" fill="none" xmlns="http://www.w3.org/2000/svg">
<g clip-path="url(#clip0_821_70367)">
<path d="M23.9291 19.3091C23.8619 19.2191 23.7561 19.166 23.6437 19.166H21.8941C22.6144 18.5809 23.0759 17.6887 23.0759 16.6906V12.3894C23.0759 10.6314 21.6454 9.201 19.8874 9.201H18.8538C19.2171 8.98548 19.556 8.72364 19.8614 8.41804C20.9366 7.34285 21.4742 5.85603 21.336 4.33882C21.3204 4.16743 21.1846 4.03175 21.0134 4.01619C19.8559 3.9109 18.7256 4.19215 17.7711 4.81325C17.5344 3.70473 16.9332 2.69893 16.0428 1.95753C15.9108 1.84749 15.7189 1.84749 15.5867 1.95753C14.6962 2.69893 14.0953 3.70491 13.8583 4.81325C12.9034 4.19215 11.7728 3.91072 10.6161 4.01619C10.4449 4.03175 10.309 4.16743 10.2935 4.33882C10.1554 5.85585 10.6928 7.34266 11.768 8.41786C12.0736 8.72346 12.4124 8.98548 12.7754 9.201H11.8889C10.8953 9.201 9.99115 9.6573 9.40082 10.3936V8.78334C9.40082 8.5865 9.24133 8.42701 9.04431 8.42701H7.84497V6.79335C7.84497 6.21821 7.37714 5.7502 6.80182 5.7502H6.22321V4.04567C6.22321 3.47237 5.75684 3.006 5.18354 3.006H3.80585C3.23255 3.006 2.766 3.47237 2.766 4.04567V5.7502H2.18775C1.61225 5.7502 1.14405 6.21821 1.14405 6.79353V8.5215C1.14405 8.71833 1.30372 8.87782 1.50055 8.87782C1.69739 8.87782 1.85688 8.71833 1.85688 8.5215V6.79353C1.85688 6.61134 2.00538 6.46321 2.18775 6.46321H6.802C6.98401 6.46321 7.13214 6.61134 7.13214 6.79353V8.42701H5.89874C5.70172 8.42701 5.54224 8.5865 5.54224 8.78334V11.4263C4.00562 12.1655 3.02564 13.7127 3.02564 15.4328C3.02564 16.9958 3.83643 18.3729 5.05957 19.166H2.18592C2.00446 19.1649 1.85706 19.0173 1.85706 18.8358V9.94734C1.85706 9.7505 1.69739 9.59083 1.50055 9.59083C1.30372 9.59083 1.14423 9.7505 1.14423 9.94734V18.8358C1.14423 18.9512 1.16327 19.0621 1.19806 19.166H0.356512C0.244086 19.166 0.138067 19.2191 0.0708679 19.3091C0.0034851 19.3992 -0.0172058 19.5159 0.0146545 19.6237C0.232367 20.3576 0.671637 20.9877 1.28504 21.4456C1.89844 21.9036 2.62738 22.1456 3.39276 22.1456H17.0378C17.2346 22.1456 17.3941 21.986 17.3941 21.7891C17.3941 21.5923 17.2346 21.4326 17.0378 21.4326H3.39295C2.3238 21.4326 1.35004 20.8132 0.879644 19.8788H19.8874H19.8911H23.1203C22.6501 20.8132 21.6764 21.4326 20.6072 21.4326H18.4636C18.2668 21.4326 18.1071 21.5923 18.1071 21.7891C18.1071 21.986 18.2668 22.1456 18.4636 22.1456H20.6072C21.3726 22.1456 22.1016 21.9036 22.715 21.4456C23.3284 20.9877 23.7676 20.3576 23.9853 19.6237C24.0172 19.5159 23.9965 19.3992 23.9291 19.3091ZM17.8771 5.61122C18.6724 5.00038 19.6393 4.68562 20.6433 4.70869C20.67 5.90693 20.2103 7.06105 19.3574 7.91395C18.6304 8.64106 17.6843 9.08216 16.6789 9.17994C17.4529 8.26496 17.8845 7.10371 17.8845 5.88441C17.8845 5.79304 17.8819 5.70204 17.8771 5.61122ZM15.8148 2.70882C16.6807 3.537 17.1716 4.67811 17.1716 5.88441C17.1716 7.09089 16.6807 8.23201 15.8148 9.06001C14.9489 8.23201 14.458 7.09089 14.458 5.88441C14.458 4.67811 14.9489 3.537 15.8148 2.70882ZM10.9861 4.70869C11.9914 4.68489 12.9573 5.00038 13.7525 5.6114C13.7477 5.70204 13.7452 5.79304 13.7452 5.8846C13.7452 7.10371 14.1768 8.26515 14.9509 9.18013C13.9455 9.08235 12.9996 8.64143 12.2721 7.91395C11.4192 7.06105 10.9596 5.90693 10.9861 4.70869ZM5.51038 5.7502H3.47882V4.04567C3.47882 3.86549 3.62549 3.71883 3.80585 3.71883H5.18354C5.36389 3.71883 5.51038 3.86549 5.51038 4.04567V5.7502ZM6.25507 9.13984H8.68799V10.1136H6.25507V9.13984ZM3.73847 15.4328C3.73847 13.9209 4.64026 12.5679 6.03589 11.9858C6.16864 11.9306 6.25507 11.8007 6.25507 11.657V10.8264H8.68799V11.657C8.68799 11.8007 8.77441 11.9306 8.90717 11.9858C10.3028 12.5679 11.2046 13.9209 11.2046 15.4328C11.2046 17.4913 9.53009 19.166 7.47162 19.166C5.41297 19.166 3.73847 17.4913 3.73847 15.4328ZM19.8911 19.166H9.88367C10.7003 18.6364 11.3331 17.8463 11.6635 16.9143H18.2944C19.2966 16.9143 20.1117 16.0991 20.1117 15.097V14.6555C20.1117 13.6534 19.2966 12.8382 18.2944 12.8382H12.1476C11.9506 12.8382 11.7911 12.9977 11.7911 13.1945C11.7911 13.3914 11.9506 13.551 12.1476 13.551H18.2944C18.9034 13.551 19.3989 14.0465 19.3989 14.6555V15.097C19.3989 15.706 18.9034 16.2015 18.2944 16.2015H11.851C11.8945 15.9517 11.9176 15.695 11.9176 15.4328C11.9176 13.7781 11.0101 12.2834 9.57312 11.5144C9.93201 10.5595 10.8472 9.91401 11.889 9.91401H15.3772H15.3783H19.8873C21.2523 9.91401 22.3628 11.0245 22.3628 12.3894V16.6906C22.363 18.0543 21.2543 19.1639 19.8911 19.166Z" fill="#F2F2F2"/>
</g>
<defs>
<clipPath id="clip0_821_70367">
<rect width="24" height="24" fill="white"/>
</clipPath>
</defs>
</svg>
