<svg width="25" height="24" viewBox="0 0 25 24" fill="none" xmlns="http://www.w3.org/2000/svg">
<g clip-path="url(#clip0_786_36755)">
<path d="M24.4291 19.3091C24.3619 19.2191 24.2561 19.166 24.1437 19.166H22.3941C23.1144 18.5809 23.5759 17.6887 23.5759 16.6906V12.3894C23.5759 10.6314 22.1454 9.201 20.3874 9.201H19.3538C19.7171 8.98548 20.056 8.72364 20.3614 8.41804C21.4366 7.34285 21.9742 5.85603 21.836 4.33882C21.8204 4.16743 21.6846 4.03175 21.5134 4.01619C20.3559 3.9109 19.2256 4.19215 18.2711 4.81325C18.0344 3.70473 17.4332 2.69893 16.5428 1.95753C16.4108 1.84749 16.2189 1.84749 16.0867 1.95753C15.1962 2.69893 14.5953 3.70491 14.3583 4.81325C13.4034 4.19215 12.2728 3.91072 11.1161 4.01619C10.9449 4.03175 10.809 4.16743 10.7935 4.33882C10.6554 5.85585 11.1928 7.34266 12.268 8.41786C12.5736 8.72346 12.9124 8.98548 13.2754 9.201H12.3889C11.3953 9.201 10.4911 9.6573 9.90082 10.3936V8.78334C9.90082 8.5865 9.74133 8.42701 9.54431 8.42701H8.34497V6.79335C8.34497 6.21821 7.87714 5.7502 7.30182 5.7502H6.72321V4.04567C6.72321 3.47237 6.25684 3.006 5.68354 3.006H4.30585C3.73255 3.006 3.266 3.47237 3.266 4.04567V5.7502H2.68775C2.11225 5.7502 1.64405 6.21821 1.64405 6.79353V8.5215C1.64405 8.71833 1.80372 8.87782 2.00055 8.87782C2.19739 8.87782 2.35688 8.71833 2.35688 8.5215V6.79353C2.35688 6.61134 2.50538 6.46321 2.68775 6.46321H7.302C7.48401 6.46321 7.63214 6.61134 7.63214 6.79353V8.42701H6.39874C6.20172 8.42701 6.04224 8.5865 6.04224 8.78334V11.4263C4.50562 12.1655 3.52564 13.7127 3.52564 15.4328C3.52564 16.9958 4.33643 18.3729 5.55957 19.166H2.68592C2.50446 19.1649 2.35706 19.0173 2.35706 18.8358V9.94734C2.35706 9.7505 2.19739 9.59083 2.00055 9.59083C1.80372 9.59083 1.64423 9.7505 1.64423 9.94734V18.8358C1.64423 18.9512 1.66327 19.0621 1.69806 19.166H0.856512C0.744086 19.166 0.638067 19.2191 0.570868 19.3091C0.503485 19.3992 0.482794 19.5159 0.514655 19.6237C0.732367 20.3576 1.17164 20.9877 1.78504 21.4456C2.39844 21.9036 3.12738 22.1456 3.89276 22.1456H17.5378C17.7346 22.1456 17.8941 21.986 17.8941 21.7891C17.8941 21.5923 17.7346 21.4326 17.5378 21.4326H3.89295C2.8238 21.4326 1.85004 20.8132 1.37964 19.8788H20.3874H20.3911H23.6203C23.1501 20.8132 22.1764 21.4326 21.1072 21.4326H18.9636C18.7668 21.4326 18.6071 21.5923 18.6071 21.7891C18.6071 21.986 18.7668 22.1456 18.9636 22.1456H21.1072C21.8726 22.1456 22.6016 21.9036 23.215 21.4456C23.8284 20.9877 24.2676 20.3576 24.4853 19.6237C24.5172 19.5159 24.4965 19.3992 24.4291 19.3091ZM18.3771 5.61122C19.1724 5.00038 20.1393 4.68562 21.1433 4.70869C21.17 5.90693 20.7103 7.06105 19.8574 7.91395C19.1304 8.64106 18.1843 9.08216 17.1789 9.17994C17.9529 8.26496 18.3845 7.10371 18.3845 5.88441C18.3845 5.79304 18.3819 5.70204 18.3771 5.61122ZM16.3148 2.70882C17.1807 3.537 17.6716 4.67811 17.6716 5.88441C17.6716 7.09089 17.1807 8.23201 16.3148 9.06001C15.4489 8.23201 14.958 7.09089 14.958 5.88441C14.958 4.67811 15.4489 3.537 16.3148 2.70882ZM11.4861 4.70869C12.4914 4.68489 13.4573 5.00038 14.2525 5.6114C14.2477 5.70204 14.2452 5.79304 14.2452 5.8846C14.2452 7.10371 14.6768 8.26515 15.4509 9.18013C14.4455 9.08235 13.4996 8.64143 12.7721 7.91395C11.9192 7.06105 11.4596 5.90693 11.4861 4.70869ZM6.01038 5.7502H3.97882V4.04567C3.97882 3.86549 4.12549 3.71883 4.30585 3.71883H5.68354C5.86389 3.71883 6.01038 3.86549 6.01038 4.04567V5.7502ZM6.75507 9.13984H9.18799V10.1136H6.75507V9.13984ZM4.23847 15.4328C4.23847 13.9209 5.14026 12.5679 6.53589 11.9858C6.66864 11.9306 6.75507 11.8007 6.75507 11.657V10.8264H9.18799V11.657C9.18799 11.8007 9.27441 11.9306 9.40717 11.9858C10.8028 12.5679 11.7046 13.9209 11.7046 15.4328C11.7046 17.4913 10.0301 19.166 7.97162 19.166C5.91297 19.166 4.23847 17.4913 4.23847 15.4328ZM20.3911 19.166H10.3837C11.2003 18.6364 11.8331 17.8463 12.1635 16.9143H18.7944C19.7966 16.9143 20.6117 16.0991 20.6117 15.097V14.6555C20.6117 13.6534 19.7966 12.8382 18.7944 12.8382H12.6476C12.4506 12.8382 12.2911 12.9977 12.2911 13.1945C12.2911 13.3914 12.4506 13.551 12.6476 13.551H18.7944C19.4034 13.551 19.8989 14.0465 19.8989 14.6555V15.097C19.8989 15.706 19.4034 16.2015 18.7944 16.2015H12.351C12.3945 15.9517 12.4176 15.695 12.4176 15.4328C12.4176 13.7781 11.5101 12.2834 10.0731 11.5144C10.432 10.5595 11.3472 9.91401 12.389 9.91401H15.8772H15.8783H20.3873C21.7523 9.91401 22.8628 11.0245 22.8628 12.3894V16.6906C22.863 18.0543 21.7543 19.1639 20.3911 19.166Z" fill="black"/>
</g>
<defs>
<clipPath id="clip0_786_36755">
<rect width="24" height="24" fill="white" transform="translate(0.5)"/>
</clipPath>
</defs>
</svg>
