<svg width="22" height="22" viewBox="0 0 22 22" fill="none" xmlns="http://www.w3.org/2000/svg">
<path d="M11 1.28906C13.2406 1.28997 15.412 2.06545 17.1463 3.48411C18.8806 4.90278 20.0711 6.87739 20.5161 9.07336C20.9611 11.2693 20.6333 13.5516 19.5881 15.5336C18.5429 17.5155 16.8447 19.0751 14.7812 19.9482C12.408 20.9511 9.73363 20.9701 7.34639 20.0011C4.95914 19.0321 3.05461 17.1545 2.05176 14.7812C1.04891 12.408 1.02989 9.73363 1.99889 7.34639C2.96789 4.95914 4.84553 3.05461 7.21875 2.05176C8.41496 1.54554 9.70109 1.28613 11 1.28906ZM11 0C4.92508 0 0 4.92508 0 11C0 17.0749 4.92508 22 11 22C17.0749 22 22 17.0749 22 11C22 4.92508 17.0749 0 11 0Z" fill="#575756"/>
<path d="M14.2094 16.9241C13.5705 16.8811 12.6699 16.6607 11.7907 16.3462C8.69097 15.2367 5.6664 12.2809 5.02359 8.14645C4.90929 7.41039 5.02961 6.73793 5.58734 6.19051C5.77425 6.00746 5.94054 5.80379 6.12316 5.61645C6.81066 4.90875 7.81527 4.8907 8.52726 5.57047C8.75285 5.78531 8.9823 5.99715 9.2023 6.21887C9.50356 6.51595 9.67798 6.91821 9.68896 7.34116C9.69994 7.76412 9.54661 8.17488 9.26117 8.48719C9.08929 8.67797 8.90882 8.8593 8.7275 9.0402C8.52941 9.23785 8.2832 9.35129 8.01894 9.43379C7.69281 9.53606 7.63222 9.6727 7.78047 9.98422C8.71718 11.9462 10.1834 13.3588 12.1792 14.2222C12.446 14.3374 12.5693 14.2854 12.6768 14.0207C12.9122 13.4402 13.3441 13.017 13.8403 12.6749C14.4019 12.2882 15.2063 12.3741 15.7383 12.8313C16.0299 13.0819 16.3086 13.3473 16.5732 13.6263C16.8579 13.9308 17.016 14.3323 17.0156 14.7492C17.0152 15.1662 16.8563 15.5673 16.571 15.8714C16.4881 15.9616 16.4026 16.0497 16.3231 16.1425C15.8444 16.6989 15.2373 16.9593 14.2094 16.9241Z" fill="#575756"/>
</svg>
