<svg width="25" height="24" viewBox="0 0 25 24" fill="none" xmlns="http://www.w3.org/2000/svg">
<g clip-path="url(#clip0_786_36749)">
<path d="M10.8083 18.9284H1.20312V3.61536H5.26531C5.45952 3.61536 5.61688 3.45795 5.61688 3.26379C5.61688 3.06964 5.45952 2.91223 5.26531 2.91223H0.851562C0.657359 2.91223 0.5 3.06964 0.5 3.26379V19.28C0.5 19.4742 0.657359 19.6316 0.851562 19.6316H2.08677L2.47705 20.8439C2.52383 20.9892 2.65906 21.0878 2.81173 21.0878H6.24237C6.39505 21.0878 6.53028 20.9892 6.57706 20.8439L6.96734 19.6316H10.8083C11.0025 19.6316 11.1599 19.4742 11.1599 19.28C11.1599 19.0859 11.0025 18.9284 10.8083 18.9284ZM5.98616 20.3846H3.06786L2.82547 19.6317H6.22855L5.98616 20.3846Z" fill="black"/>
<path d="M24.1481 2.91223H6.79688C6.60267 2.91223 6.44531 3.06964 6.44531 3.26379C6.44531 3.45795 6.60267 3.61536 6.79688 3.61536H23.7966V18.9285H12.3398C12.1456 18.9285 11.9883 19.0859 11.9883 19.28C11.9883 19.4742 12.1456 19.6316 12.3398 19.6316H18.0324L18.4227 20.8439C18.4695 20.9892 18.6047 21.0878 18.7574 21.0878H22.188C22.3407 21.0878 22.4759 20.9892 22.5227 20.8439L22.913 19.6316H24.1481C24.3423 19.6316 24.4997 19.4742 24.4997 19.28V3.26379C24.4997 3.06964 24.3423 2.91223 24.1481 2.91223ZM21.9318 20.3846H19.0135L18.7711 19.6317H22.1742L21.9318 20.3846Z" fill="black"/>
<path d="M21.9649 7.37057C22.1591 7.37057 22.3165 7.21316 22.3165 7.019V5.44775C22.3165 5.2536 22.1591 5.09619 21.9649 5.09619H3.0368C2.84259 5.09619 2.68523 5.2536 2.68523 5.44775V6.55222H2.30859C2.11439 6.55222 1.95703 6.70963 1.95703 6.90378V9.81599C1.95703 10.0101 2.11439 10.1676 2.30859 10.1676H2.68523V12.3764H2.30859C2.11439 12.3764 1.95703 12.5338 1.95703 12.728V15.6402C1.95703 15.8343 2.11439 15.9917 2.30859 15.9917H2.68523V17.0962C2.68523 17.2903 2.84259 17.4478 3.0368 17.4478H21.9649C22.1591 17.4478 22.3165 17.2903 22.3165 17.0962V8.55088C22.3165 8.35672 22.1591 8.19932 21.9649 8.19932C21.7707 8.19932 21.6134 8.35672 21.6134 8.55088V16.7446H3.38836V15.9917H3.76462C3.95883 15.9917 4.11619 15.8343 4.11619 15.6402V12.728C4.11619 12.5338 3.95883 12.3764 3.76462 12.3764H3.38836V10.1676H3.76462C3.95883 10.1676 4.11619 10.0101 4.11619 9.81599V6.90378C4.11619 6.70963 3.95883 6.55222 3.76462 6.55222H3.38836V5.79932H21.6134V7.019C21.6134 7.21316 21.7708 7.37057 21.9649 7.37057ZM3.41306 15.2886H2.66011V13.0795H3.41306V15.2886ZM3.41306 9.46438H2.66011V7.25535H3.41306V9.46438Z" fill="black"/>
<path d="M12.1484 7.63184C12.1484 7.43768 11.991 7.28027 11.7968 7.28027H5.97266C5.77845 7.28027 5.62109 7.43768 5.62109 7.63184V10.5439C5.62109 10.7381 5.77845 10.8955 5.97266 10.8955H11.7968C11.991 10.8955 12.1484 10.7381 12.1484 10.5439V7.63184ZM11.4453 10.1923H6.32422V7.98335H11.4453V10.1923Z" fill="black"/>
<path d="M6.47652 11.6484H6.03125C5.83705 11.6484 5.67969 11.8058 5.67969 12C5.67969 12.1942 5.83705 12.3516 6.03125 12.3516H6.47652C6.67072 12.3516 6.82808 12.1942 6.82808 12C6.82808 11.8058 6.67072 11.6484 6.47652 11.6484Z" fill="black"/>
<path d="M8.24995 11.6484H7.80469C7.61048 11.6484 7.45312 11.8058 7.45312 12C7.45312 12.1942 7.61048 12.3516 7.80469 12.3516H8.24995C8.44416 12.3516 8.60152 12.1942 8.60152 12C8.60152 11.8058 8.44416 11.6484 8.24995 11.6484Z" fill="black"/>
<path d="M10.0234 11.6484H9.57812C9.38392 11.6484 9.22656 11.8058 9.22656 12C9.22656 12.1942 9.38392 12.3516 9.57812 12.3516H10.0234C10.2176 12.3516 10.375 12.1942 10.375 12C10.375 11.8058 10.2176 11.6484 10.0234 11.6484Z" fill="black"/>
<path d="M11.7968 11.6484H11.3516C11.1574 11.6484 11 11.8058 11 12C11 12.1942 11.1574 12.3516 11.3516 12.3516H11.7968C11.991 12.3516 12.1484 12.1942 12.1484 12C12.1484 11.8058 11.991 11.6484 11.7968 11.6484Z" fill="black"/>
<path d="M7.77539 9.43945H8.22066C8.41486 9.43945 8.57222 9.28205 8.57222 9.08789C8.57222 8.89373 8.41486 8.73633 8.22066 8.73633H7.77539C7.58119 8.73633 7.42383 8.89373 7.42383 9.08789C7.42383 9.28205 7.58119 9.43945 7.77539 9.43945Z" fill="black"/>
<path d="M9.54883 9.43945H9.99409C10.1883 9.43945 10.3457 9.28205 10.3457 9.08789C10.3457 8.89373 10.1883 8.73633 9.99409 8.73633H9.54883C9.35462 8.73633 9.19727 8.89373 9.19727 9.08789C9.19727 9.28205 9.35462 9.43945 9.54883 9.43945Z" fill="black"/>
<path d="M6.47652 13.1044H6.03125C5.83705 13.1044 5.67969 13.2618 5.67969 13.4559C5.67969 13.6501 5.83705 13.8075 6.03125 13.8075H6.47652C6.67072 13.8075 6.82808 13.6501 6.82808 13.4559C6.82808 13.2618 6.67072 13.1044 6.47652 13.1044Z" fill="black"/>
<path d="M8.24995 13.1044H7.80469C7.61048 13.1044 7.45312 13.2618 7.45312 13.4559C7.45312 13.6501 7.61048 13.8075 7.80469 13.8075H8.24995C8.44416 13.8075 8.60152 13.6501 8.60152 13.4559C8.60152 13.2618 8.44416 13.1044 8.24995 13.1044Z" fill="black"/>
<path d="M10.0234 13.1044H9.57812C9.38392 13.1044 9.22656 13.2618 9.22656 13.4559C9.22656 13.6501 9.38392 13.8075 9.57812 13.8075H10.0234C10.2176 13.8075 10.375 13.6501 10.375 13.4559C10.375 13.2618 10.2176 13.1044 10.0234 13.1044Z" fill="black"/>
<path d="M11.7968 13.1044H11.3516C11.1574 13.1044 11 13.2618 11 13.4559C11 13.6501 11.1574 13.8075 11.3516 13.8075H11.7968C11.991 13.8075 12.1484 13.6501 12.1484 13.4559C12.1484 13.2618 11.991 13.1044 11.7968 13.1044Z" fill="black"/>
<path d="M6.47652 14.5604H6.03125C5.83705 14.5604 5.67969 14.7178 5.67969 14.912C5.67969 15.1061 5.83705 15.2635 6.03125 15.2635H6.47652C6.67072 15.2635 6.82808 15.1061 6.82808 14.912C6.82808 14.7178 6.67072 14.5604 6.47652 14.5604Z" fill="black"/>
<path d="M8.24995 14.5604H7.80469C7.61048 14.5604 7.45312 14.7178 7.45312 14.912C7.45312 15.1061 7.61048 15.2635 7.80469 15.2635H8.24995C8.44416 15.2635 8.60152 15.1061 8.60152 14.912C8.60152 14.7178 8.44416 14.5604 8.24995 14.5604Z" fill="black"/>
<path d="M10.0234 14.5604H9.57812C9.38392 14.5604 9.22656 14.7178 9.22656 14.912C9.22656 15.1061 9.38392 15.2635 9.57812 15.2635H10.0234C10.2176 15.2635 10.375 15.1061 10.375 14.912C10.375 14.7178 10.2176 14.5604 10.0234 14.5604Z" fill="black"/>
<path d="M11.7968 14.5604H11.3516C11.1574 14.5604 11 14.7178 11 14.912C11 15.1061 11.1574 15.2635 11.3516 15.2635H11.7968C11.991 15.2635 12.1484 15.1061 12.1484 14.912C12.1484 14.7178 11.991 14.5604 11.7968 14.5604Z" fill="black"/>
<path d="M13.793 11.272C13.793 13.0716 15.257 14.5356 17.0566 14.5356C18.8562 14.5356 20.3203 13.0716 20.3203 11.272C20.3203 9.47235 18.8562 8.0083 17.0566 8.0083C15.257 8.0083 13.793 9.47235 13.793 11.272ZM17.0566 12.3764C16.4476 12.3764 15.9521 11.881 15.9521 11.272C15.9521 10.663 16.4475 10.1675 17.0566 10.1675C17.6656 10.1675 18.1611 10.663 18.1611 11.272C18.1611 11.881 17.6656 12.3764 17.0566 12.3764ZM14.4961 11.272C14.4961 9.97939 15.459 8.90811 16.705 8.73618V9.49897C15.876 9.66308 15.249 10.3956 15.249 11.272C15.249 12.1484 15.876 12.8809 16.705 13.045V13.8078C15.459 13.6358 14.4961 12.5645 14.4961 11.272ZM19.6171 11.272C19.6171 12.5646 18.6542 13.6358 17.4082 13.8078V13.045C18.2371 12.8809 18.8642 12.1484 18.8642 11.272C18.8642 10.3956 18.2372 9.66308 17.4082 9.49897V8.73618C18.6542 8.90811 19.6171 9.97939 19.6171 11.272Z" fill="black"/>
</g>
<defs>
<clipPath id="clip0_786_36749">
<rect width="24" height="24" fill="white" transform="translate(0.5)"/>
</clipPath>
</defs>
</svg>
