<svg width="24" height="24" viewBox="0 0 24 24" fill="none" xmlns="http://www.w3.org/2000/svg">
<path d="M10.3083 18.9283H0.703125V3.61523H4.76531C4.95952 3.61523 5.11688 3.45783 5.11688 3.26367C5.11688 3.06952 4.95952 2.91211 4.76531 2.91211H0.351562C0.157359 2.91211 0 3.06952 0 3.26367V19.2799C0 19.4741 0.157359 19.6315 0.351562 19.6315H1.58677L1.97705 20.8438C2.02383 20.9891 2.15906 21.0877 2.31173 21.0877H5.74237C5.89505 21.0877 6.03028 20.9891 6.07706 20.8438L6.46734 19.6315H10.3083C10.5025 19.6315 10.6599 19.4741 10.6599 19.2799C10.6599 19.0858 10.5025 18.9283 10.3083 18.9283ZM5.48616 20.3845H2.56786L2.32547 19.6316H5.72855L5.48616 20.3845Z" fill="#F2F2F2"/>
<path d="M23.6484 2.91211H6.29712C6.10292 2.91211 5.94556 3.06952 5.94556 3.26367C5.94556 3.45783 6.10292 3.61523 6.29712 3.61523H23.2968V18.9284H11.8401C11.6459 18.9284 11.4885 19.0858 11.4885 19.2799C11.4885 19.4741 11.6459 19.6315 11.8401 19.6315H17.5326L17.9229 20.8438C17.9697 20.9891 18.1049 21.0877 18.2576 21.0877H21.6882C21.8409 21.0877 21.9762 20.9891 22.0229 20.8438L22.4132 19.6315H23.6484C23.8426 19.6315 23.9999 19.4741 23.9999 19.2799V3.26367C23.9999 3.06952 23.8426 2.91211 23.6484 2.91211ZM21.4321 20.3845H18.5138L18.2714 19.6315H21.6745L21.4321 20.3845Z" fill="#F2F2F2"/>
<path d="M21.4639 7.37057C21.6581 7.37057 21.8155 7.21316 21.8155 7.019V5.44775C21.8155 5.2536 21.6581 5.09619 21.4639 5.09619H2.53582C2.34162 5.09619 2.18426 5.2536 2.18426 5.44775V6.55222H1.80762C1.61341 6.55222 1.45605 6.70963 1.45605 6.90378V9.81599C1.45605 10.0101 1.61341 10.1676 1.80762 10.1676H2.18426V12.3764H1.80762C1.61341 12.3764 1.45605 12.5338 1.45605 12.728V15.6402C1.45605 15.8343 1.61341 15.9917 1.80762 15.9917H2.18426V17.0962C2.18426 17.2903 2.34162 17.4478 2.53582 17.4478H21.4639C21.6581 17.4478 21.8155 17.2903 21.8155 17.0962V8.55088C21.8155 8.35672 21.6581 8.19932 21.4639 8.19932C21.2697 8.19932 21.1124 8.35672 21.1124 8.55088V16.7446H2.88738V15.9917H3.26365C3.45785 15.9917 3.61521 15.8343 3.61521 15.6402V12.728C3.61521 12.5338 3.45785 12.3764 3.26365 12.3764H2.88738V10.1676H3.26365C3.45785 10.1676 3.61521 10.0101 3.61521 9.81599V6.90378C3.61521 6.70963 3.45785 6.55222 3.26365 6.55222H2.88738V5.79932H21.1124V7.019C21.1124 7.21316 21.2698 7.37057 21.4639 7.37057ZM2.91209 15.2886H2.15913V13.0795H2.91209V15.2886ZM2.91209 9.46438H2.15913V7.25535H2.91209V9.46438Z" fill="#F2F2F2"/>
<path d="M11.6484 7.63184C11.6484 7.43768 11.491 7.28027 11.2968 7.28027H5.47266C5.27845 7.28027 5.12109 7.43768 5.12109 7.63184V10.5439C5.12109 10.7381 5.27845 10.8955 5.47266 10.8955H11.2968C11.491 10.8955 11.6484 10.7381 11.6484 10.5439V7.63184ZM10.9453 10.1923H5.82422V7.98335H10.9453V10.1923Z" fill="#F2F2F2"/>
<path d="M5.97652 11.6484H5.53125C5.33705 11.6484 5.17969 11.8058 5.17969 12C5.17969 12.1942 5.33705 12.3516 5.53125 12.3516H5.97652C6.17072 12.3516 6.32808 12.1942 6.32808 12C6.32808 11.8058 6.17072 11.6484 5.97652 11.6484Z" fill="#F2F2F2"/>
<path d="M7.74995 11.6484H7.30469C7.11048 11.6484 6.95312 11.8058 6.95312 12C6.95312 12.1942 7.11048 12.3516 7.30469 12.3516H7.74995C7.94416 12.3516 8.10152 12.1942 8.10152 12C8.10152 11.8058 7.94416 11.6484 7.74995 11.6484Z" fill="#F2F2F2"/>
<path d="M9.52339 11.6484H9.07812C8.88392 11.6484 8.72656 11.8058 8.72656 12C8.72656 12.1942 8.88392 12.3516 9.07812 12.3516H9.52339C9.71759 12.3516 9.87495 12.1942 9.87495 12C9.87495 11.8058 9.71759 11.6484 9.52339 11.6484Z" fill="#F2F2F2"/>
<path d="M11.2968 11.6484H10.8516C10.6574 11.6484 10.5 11.8058 10.5 12C10.5 12.1942 10.6574 12.3516 10.8516 12.3516H11.2968C11.491 12.3516 11.6484 12.1942 11.6484 12C11.6484 11.8058 11.491 11.6484 11.2968 11.6484Z" fill="#F2F2F2"/>
<path d="M7.27539 9.43945H7.72066C7.91486 9.43945 8.07222 9.28205 8.07222 9.08789C8.07222 8.89373 7.91486 8.73633 7.72066 8.73633H7.27539C7.08119 8.73633 6.92383 8.89373 6.92383 9.08789C6.92383 9.28205 7.08119 9.43945 7.27539 9.43945Z" fill="#F2F2F2"/>
<path d="M9.04883 9.43945H9.49409C9.6883 9.43945 9.84566 9.28205 9.84566 9.08789C9.84566 8.89373 9.6883 8.73633 9.49409 8.73633H9.04883C8.85462 8.73633 8.69727 8.89373 8.69727 9.08789C8.69727 9.28205 8.85462 9.43945 9.04883 9.43945Z" fill="#F2F2F2"/>
<path d="M5.97652 13.1045H5.53125C5.33705 13.1045 5.17969 13.2619 5.17969 13.4561C5.17969 13.6502 5.33705 13.8076 5.53125 13.8076H5.97652C6.17072 13.8076 6.32808 13.6502 6.32808 13.4561C6.32808 13.2619 6.17072 13.1045 5.97652 13.1045Z" fill="#F2F2F2"/>
<path d="M7.74995 13.1045H7.30469C7.11048 13.1045 6.95312 13.2619 6.95312 13.4561C6.95312 13.6502 7.11048 13.8076 7.30469 13.8076H7.74995C7.94416 13.8076 8.10152 13.6502 8.10152 13.4561C8.10152 13.2619 7.94416 13.1045 7.74995 13.1045Z" fill="#F2F2F2"/>
<path d="M9.52339 13.1045H9.07812C8.88392 13.1045 8.72656 13.2619 8.72656 13.4561C8.72656 13.6502 8.88392 13.8076 9.07812 13.8076H9.52339C9.71759 13.8076 9.87495 13.6502 9.87495 13.4561C9.87495 13.2619 9.71759 13.1045 9.52339 13.1045Z" fill="#F2F2F2"/>
<path d="M11.2968 13.1045H10.8516C10.6574 13.1045 10.5 13.2619 10.5 13.4561C10.5 13.6502 10.6574 13.8076 10.8516 13.8076H11.2968C11.491 13.8076 11.6484 13.6502 11.6484 13.4561C11.6484 13.2619 11.491 13.1045 11.2968 13.1045Z" fill="#F2F2F2"/>
<path d="M5.97652 14.5601H5.53125C5.33705 14.5601 5.17969 14.7175 5.17969 14.9116C5.17969 15.1058 5.33705 15.2632 5.53125 15.2632H5.97652C6.17072 15.2632 6.32808 15.1058 6.32808 14.9116C6.32808 14.7175 6.17072 14.5601 5.97652 14.5601Z" fill="#F2F2F2"/>
<path d="M7.74995 14.5601H7.30469C7.11048 14.5601 6.95312 14.7175 6.95312 14.9116C6.95312 15.1058 7.11048 15.2632 7.30469 15.2632H7.74995C7.94416 15.2632 8.10152 15.1058 8.10152 14.9116C8.10152 14.7175 7.94416 14.5601 7.74995 14.5601Z" fill="#F2F2F2"/>
<path d="M9.52339 14.5601H9.07812C8.88392 14.5601 8.72656 14.7175 8.72656 14.9116C8.72656 15.1058 8.88392 15.2632 9.07812 15.2632H9.52339C9.71759 15.2632 9.87495 15.1058 9.87495 14.9116C9.87495 14.7175 9.71759 14.5601 9.52339 14.5601Z" fill="#F2F2F2"/>
<path d="M11.2968 14.5601H10.8516C10.6574 14.5601 10.5 14.7175 10.5 14.9116C10.5 15.1058 10.6574 15.2632 10.8516 15.2632H11.2968C11.491 15.2632 11.6484 15.1058 11.6484 14.9116C11.6484 14.7175 11.491 14.5601 11.2968 14.5601Z" fill="#F2F2F2"/>
<path d="M13.2927 11.272C13.2927 13.0716 14.7568 14.5356 16.5564 14.5356C18.356 14.5356 19.82 13.0716 19.82 11.272C19.82 9.47235 18.356 8.0083 16.5564 8.0083C14.7568 8.0083 13.2927 9.47235 13.2927 11.272ZM16.5564 12.3764C15.9474 12.3764 15.4518 11.881 15.4518 11.272C15.4518 10.663 15.9473 10.1675 16.5564 10.1675C17.1654 10.1675 17.6609 10.663 17.6609 11.272C17.6609 11.881 17.1654 12.3764 16.5564 12.3764ZM13.9958 11.272C13.9958 9.97939 14.9588 8.90811 16.2048 8.73618V9.49897C15.3758 9.66308 14.7487 10.3956 14.7487 11.272C14.7487 12.1484 15.3758 12.8809 16.2048 13.045V13.8078C14.9588 13.6358 13.9958 12.5645 13.9958 11.272ZM19.1169 11.272C19.1169 12.5646 18.154 13.6358 16.9079 13.8078V13.045C17.7369 12.8809 18.364 12.1484 18.364 11.272C18.364 10.3956 17.7369 9.66308 16.9079 9.49897V8.73618C18.154 8.90811 19.1169 9.97939 19.1169 11.272Z" fill="#F2F2F2"/>
</svg>
