<svg width="25" height="24" viewBox="0 0 25 24" fill="none" xmlns="http://www.w3.org/2000/svg">
<path d="M18.4985 1.87427V10.875C18.0792 10.875 17.7501 11.2145 17.75 11.6235L17.7485 15.0007H2.75073C1.91172 15.0007 1.25 15.677 1.25 16.5015V20.2493C1.25 21.0738 1.91451 21.75 2.75073 21.75H3.12427V22.8735C3.12347 23.0818 3.29249 23.2508 3.50074 23.25H6.12501C6.33211 23.2492 6.5008 23.0806 6.5 22.8735V21.75H18.4985V22.8735C18.4977 23.0821 18.6672 23.2512 18.8757 23.25H21.4993C21.7078 23.2512 21.8773 23.0821 21.8765 22.8735V21.75H22.25C23.089 21.75 23.75 21.0738 23.75 20.2493V16.5015C23.75 15.6769 23.0892 15.0007 22.25 15.0007H21.4993V11.6235C21.4993 11.2145 21.1678 10.875 20.75 10.875L20.7493 1.87427C20.7492 1.2575 20.2513 0.75 19.6257 0.75C19.0001 0.75 18.4985 1.2575 18.4985 1.87427ZM19.6257 1.50073C19.8297 1.50073 19.9992 1.66003 19.9992 1.87427L20 10.875H19.25L19.2492 1.87427C19.2492 1.66003 19.4217 1.50073 19.6257 1.50073ZM8.95943 4.99072C6.38876 4.99072 3.92491 6.0269 2.10836 7.86475C1.74266 8.20634 2.30504 8.76287 2.64229 8.39062C4.31924 6.69403 6.58972 5.74146 8.95943 5.74146C11.3294 5.74146 13.6025 6.69377 15.2795 8.39062C15.619 8.76536 16.1762 8.20361 15.8134 7.86475C13.9969 6.02662 11.5303 4.99072 8.95943 4.99072ZM8.95943 7.34985C7.00612 7.34985 5.13548 8.13472 3.75557 9.53101C3.36789 9.86075 3.97083 10.4355 4.28659 10.0569C5.52687 8.80188 7.20709 8.09692 8.95943 8.09692C10.7116 8.09692 12.392 8.80212 13.6323 10.0569C13.9762 10.4198 14.5227 9.87953 14.167 9.53101C12.7871 8.135 10.9125 7.34985 8.95943 7.34985ZM8.95943 9.70532C7.62387 9.70532 6.34597 10.2401 5.4028 11.1943C5.03867 11.5303 5.59302 12.0956 5.9338 11.7231C6.73736 10.9102 7.82483 10.4553 8.95943 10.4553C10.0942 10.4553 11.1844 10.91 11.988 11.7231C12.336 12.0901 12.8804 11.5409 12.5219 11.1943C11.5787 10.2399 10.2951 9.70532 8.95943 9.70532ZM18.5 11.625H20.7492V15.0007H18.4985L18.5 11.625ZM8.95943 12.0608C8.24117 12.0608 7.55361 12.3486 7.04708 12.8613C6.67891 13.2173 7.22864 13.7617 7.58101 13.3901C7.94793 13.0187 8.44219 12.8115 8.95943 12.8115C9.47638 12.8115 9.97392 13.0191 10.3408 13.3901C10.6932 13.7591 11.2395 13.2158 10.8725 12.8613C10.3661 12.3491 9.67729 12.0608 8.95943 12.0608ZM2.75069 15.7515H22.25C22.6719 15.7515 23 16.0853 23 16.5015V20.2493C23 20.6713 22.6616 20.9993 22.25 20.9993H2.75069C2.33456 20.9993 2.0007 20.6713 2.0007 20.2493V16.5015C2.0007 16.0853 2.32871 15.7515 2.75069 15.7515ZM4.6235 16.5015C3.99783 16.5015 3.49996 17.0081 3.49996 17.625C3.49996 18.2419 3.99833 18.7493 4.6235 18.7493C5.24866 18.7493 5.75069 18.2419 5.75069 17.625C5.75069 17.0081 5.24916 16.5015 4.6235 16.5015ZM7.62716 16.5015C6.99578 16.5015 6.49996 17.0081 6.49996 17.625C6.49996 18.2419 7.00296 18.7493 7.62716 18.7493C8.25136 18.7493 8.7507 18.2419 8.7507 17.625C8.7507 17.0081 8.25853 16.5015 7.62716 16.5015ZM10.6264 16.5015C9.99919 16.5015 9.49923 17.0081 9.49923 17.625C9.49923 18.2419 10.0022 18.7493 10.6264 18.7493C11.2506 18.7493 11.75 18.2419 11.75 17.625C11.75 17.0081 11.2537 16.5015 10.6264 16.5015ZM4.6235 17.2485C4.82333 17.2485 5.00069 17.4135 5.00069 17.625C5.00069 17.8365 4.82626 17.9985 4.6235 17.9985C4.42074 17.9985 4.24996 17.8365 4.24996 17.625C4.24996 17.4135 4.42367 17.2485 4.6235 17.2485ZM7.62716 17.2485C7.82835 17.2485 8.00069 17.4135 8.00069 17.625C8.00069 17.8365 7.82992 17.9985 7.62716 17.9985C7.4244 17.9985 7.24997 17.8365 7.24997 17.625C7.24997 17.4135 7.42597 17.2485 7.62716 17.2485ZM10.6264 17.2485C10.8235 17.2485 11 17.4135 11 17.625C11 17.8365 10.8306 17.9985 10.6264 17.9985C10.4222 17.9985 10.2492 17.8365 10.2492 17.625C10.2492 17.4135 10.4294 17.2485 10.6264 17.2485ZM12.8735 17.2485C12.3843 17.2485 12.3843 17.9985 12.8735 17.9985H16.2514C16.7406 17.9985 16.7406 17.2485 16.2514 17.2485H12.8735ZM17.9367 17.2485C17.4476 17.2485 17.4476 17.9985 17.9367 17.9985H18.8757C19.3648 17.9985 19.3648 17.2485 18.8757 17.2485H17.9367ZM3.87423 21.75H5.74996V22.5H3.87423V21.75ZM19.25 21.75H21.125V22.5H19.25V21.75Z" fill="black"/>
</svg>
