<svg width="24" height="24" viewBox="0 0 24 24" fill="none" xmlns="http://www.w3.org/2000/svg">
<g clip-path="url(#clip0_821_70373)">
<path d="M17.9985 1.87427V10.875C17.5792 10.875 17.2501 11.2145 17.25 11.6235L17.2485 15.0007H2.25073C1.41172 15.0007 0.75 15.677 0.75 16.5015V20.2493C0.75 21.0738 1.41451 21.75 2.25073 21.75H2.62427V22.8735C2.62347 23.0818 2.79249 23.2508 3.00074 23.25H5.62501C5.83211 23.2492 6.0008 23.0806 6 22.8735V21.75H17.9985V22.8735C17.9977 23.0821 18.1672 23.2512 18.3757 23.25H20.9993C21.2078 23.2512 21.3773 23.0821 21.3765 22.8735V21.75H21.75C22.589 21.75 23.25 21.0738 23.25 20.2493V16.5015C23.25 15.6769 22.5892 15.0007 21.75 15.0007H20.9993V11.6235C20.9993 11.2145 20.6678 10.875 20.25 10.875L20.2493 1.87427C20.2492 1.2575 19.7513 0.75 19.1257 0.75C18.5001 0.75 17.9985 1.2575 17.9985 1.87427ZM19.1257 1.50073C19.3297 1.50073 19.4992 1.66003 19.4992 1.87427L19.5 10.875H18.75L18.7492 1.87427C18.7492 1.66003 18.9217 1.50073 19.1257 1.50073ZM8.45943 4.99072C5.88876 4.99072 3.42491 6.0269 1.60836 7.86475C1.24266 8.20634 1.80504 8.76287 2.14229 8.39062C3.81924 6.69403 6.08972 5.74146 8.45943 5.74146C10.8294 5.74146 13.1025 6.69377 14.7795 8.39062C15.119 8.76536 15.6762 8.20361 15.3134 7.86475C13.4969 6.02662 11.0303 4.99072 8.45943 4.99072ZM8.45943 7.34985C6.50612 7.34985 4.63548 8.13472 3.25557 9.53101C2.86789 9.86075 3.47083 10.4355 3.78659 10.0569C5.02687 8.80188 6.70709 8.09692 8.45943 8.09692C10.2116 8.09692 11.892 8.80212 13.1323 10.0569C13.4762 10.4198 14.0227 9.87953 13.667 9.53101C12.2871 8.135 10.4125 7.34985 8.45943 7.34985ZM8.45943 9.70532C7.12387 9.70532 5.84597 10.2401 4.9028 11.1943C4.53867 11.5303 5.09302 12.0956 5.4338 11.7231C6.23736 10.9102 7.32483 10.4553 8.45943 10.4553C9.59416 10.4553 10.6844 10.91 11.488 11.7231C11.836 12.0901 12.3804 11.5409 12.0219 11.1943C11.0787 10.2399 9.79514 9.70532 8.45943 9.70532ZM18 11.625H20.2492V15.0007H17.9985L18 11.625ZM8.45943 12.0608C7.74117 12.0608 7.05361 12.3486 6.54708 12.8613C6.17891 13.2173 6.72864 13.7617 7.08101 13.3901C7.44793 13.0187 7.94219 12.8115 8.45943 12.8115C8.97638 12.8115 9.47392 13.0191 9.84078 13.3901C10.1932 13.7591 10.7395 13.2158 10.3725 12.8613C9.86605 12.3491 9.17729 12.0608 8.45943 12.0608ZM2.25069 15.7515H21.75C22.1719 15.7515 22.5 16.0853 22.5 16.5015V20.2493C22.5 20.6713 22.1616 20.9993 21.75 20.9993H2.25069C1.83456 20.9993 1.5007 20.6713 1.5007 20.2493V16.5015C1.5007 16.0853 1.82871 15.7515 2.25069 15.7515ZM4.1235 16.5015C3.49783 16.5015 2.99996 17.0081 2.99996 17.625C2.99996 18.2419 3.49833 18.7493 4.1235 18.7493C4.74866 18.7493 5.25069 18.2419 5.25069 17.625C5.25069 17.0081 4.74916 16.5015 4.1235 16.5015ZM7.12716 16.5015C6.49578 16.5015 5.99996 17.0081 5.99996 17.625C5.99996 18.2419 6.50296 18.7493 7.12716 18.7493C7.75136 18.7493 8.2507 18.2419 8.2507 17.625C8.2507 17.0081 7.75853 16.5015 7.12716 16.5015ZM10.1264 16.5015C9.49919 16.5015 8.99923 17.0081 8.99923 17.625C8.99923 18.2419 9.50222 18.7493 10.1264 18.7493C10.7506 18.7493 11.25 18.2419 11.25 17.625C11.25 17.0081 10.7537 16.5015 10.1264 16.5015ZM4.1235 17.2485C4.32333 17.2485 4.50069 17.4135 4.50069 17.625C4.50069 17.8365 4.32626 17.9985 4.1235 17.9985C3.92074 17.9985 3.74996 17.8365 3.74996 17.625C3.74996 17.4135 3.92367 17.2485 4.1235 17.2485ZM7.12716 17.2485C7.32835 17.2485 7.50069 17.4135 7.50069 17.625C7.50069 17.8365 7.32992 17.9985 7.12716 17.9985C6.9244 17.9985 6.74997 17.8365 6.74997 17.625C6.74997 17.4135 6.92597 17.2485 7.12716 17.2485ZM10.1264 17.2485C10.3235 17.2485 10.5 17.4135 10.5 17.625C10.5 17.8365 10.3306 17.9985 10.1264 17.9985C9.9222 17.9985 9.74923 17.8365 9.74923 17.625C9.74923 17.4135 9.92938 17.2485 10.1264 17.2485ZM12.3735 17.2485C11.8843 17.2485 11.8843 17.9985 12.3735 17.9985H15.7514C16.2406 17.9985 16.2406 17.2485 15.7514 17.2485H12.3735ZM17.4367 17.2485C16.9476 17.2485 16.9476 17.9985 17.4367 17.9985H18.3757C18.8648 17.9985 18.8648 17.2485 18.3757 17.2485H17.4367ZM3.37423 21.75H5.24996V22.5H3.37423V21.75ZM18.75 21.75H20.625V22.5H18.75V21.75Z" fill="#F2F2F2"/>
</g>
<defs>
<clipPath id="clip0_821_70373">
<rect width="24" height="24" fill="white"/>
</clipPath>
</defs>
</svg>
