<svg width="12" height="14" viewBox="0 0 12 14" fill="none" xmlns="http://www.w3.org/2000/svg">
<path fill-rule="evenodd" clip-rule="evenodd" d="M2.66673 3.29999C1.83832 3.29999 1.16675 3.97155 1.16675 4.79999V11C1.16675 11.8284 1.83832 12.5 2.66673 12.5H7.50009C8.32849 12.5 9.00009 11.8284 9.00009 11V4.79999C9.00009 3.97155 8.32849 3.29999 7.50009 3.29999H2.66673ZM0.166748 4.79999C0.166748 3.41927 1.28604 2.29999 2.66673 2.29999H7.50009C8.88081 2.29999 10.0001 3.41927 10.0001 4.79999V11C10.0001 12.3807 8.88081 13.5 7.50009 13.5H2.66673C1.28604 13.5 0.166748 12.3807 0.166748 11V4.79999Z" fill="#737373"/>
<path fill-rule="evenodd" clip-rule="evenodd" d="M4.87329 1C4.87329 0.723856 5.09717 0.5 5.37329 0.5H9.56661C10.8246 0.5 11.8333 1.53907 11.8333 2.8V8.51332C11.8333 8.78948 11.6095 9.01332 11.3333 9.01332C11.0572 9.01332 10.8333 8.78948 10.8333 8.51332V2.8C10.8333 2.07426 10.2553 1.5 9.56661 1.5H5.37329C5.09717 1.5 4.87329 1.27614 4.87329 1Z" fill="#737373"/>
<path fill-rule="evenodd" clip-rule="evenodd" d="M2.55347 10.6C2.55347 10.3238 2.77735 10.1 3.05347 10.1H5.41347C5.68963 10.1 5.91347 10.3238 5.91347 10.6C5.91347 10.8761 5.68963 11.1 5.41347 11.1H3.05347C2.77735 11.1 2.55347 10.8761 2.55347 10.6Z" fill="#737373"/>
</svg>
